<svg width="81" height="59" viewBox="0 0 81 59" fill="none" xmlns="http://www.w3.org/2000/svg">
<path d="M14.7273 0H81V44.25H14.7273V0ZM47.8636 11.0625C50.7931 11.0625 53.6025 12.228 55.674 14.3026C57.7454 16.3773 58.9091 19.191 58.9091 22.125C58.9091 25.059 57.7454 27.8727 55.674 29.9474C53.6025 32.022 50.7931 33.1875 47.8636 33.1875C44.9342 33.1875 42.1247 32.022 40.0533 29.9474C37.9819 27.8727 36.8182 25.059 36.8182 22.125C36.8182 19.191 37.9819 16.3773 40.0533 14.3026C42.1247 12.228 44.9342 11.0625 47.8636 11.0625ZM29.4545 7.375C29.4545 9.33097 28.6787 11.2068 27.2978 12.5899C25.9168 13.973 24.0439 14.75 22.0909 14.75V29.5C24.0439 29.5 25.9168 30.277 27.2978 31.6601C28.6787 33.0432 29.4545 34.919 29.4545 36.875H66.2727C66.2727 34.919 67.0485 33.0432 68.4295 31.6601C69.8104 30.277 71.6834 29.5 73.6364 29.5V14.75C71.6834 14.75 69.8104 13.973 68.4295 12.5899C67.0485 11.2068 66.2727 9.33097 66.2727 7.375H29.4545ZM0 14.75H7.36364V51.625H66.2727V59H0V14.75Z" fill="url(#paint0_linear_652_2906)"/>
<defs>
<linearGradient id="paint0_linear_652_2906" x1="22.1863" y1="5.5292e-07" x2="58.8137" y2="59" gradientUnits="userSpaceOnUse">
<stop stop-color="#C347FC"/>
<stop offset="0.759615" stop-color="#9747FF"/>
</linearGradient>
</defs>
</svg>
