<svg width="49" height="59" viewBox="0 0 49 59" fill="none" xmlns="http://www.w3.org/2000/svg">
<path d="M3.26667 0C4.13304 0 4.96393 0.345336 5.57655 0.960039C6.18917 1.57474 6.53333 2.40846 6.53333 3.27778V6.16222C9.996 4.72 14.7 3.27778 19.6 3.27778C29.4 3.27778 29.4 9.83333 35.9333 9.83333C45.7333 9.83333 49 3.27778 49 3.27778V29.5C49 29.5 45.7333 36.0556 35.9333 36.0556C26.1333 36.0556 26.1333 29.5 19.6 29.5C9.8 29.5 6.53333 36.0556 6.53333 36.0556V59H0V3.27778C0 2.40846 0.344166 1.57474 0.956785 0.960039C1.5694 0.345336 2.40029 0 3.26667 0Z" fill="url(#paint0_linear_652_2843)"/>
<defs>
<linearGradient id="paint0_linear_652_2843" x1="5.13268e-07" y1="3.55729" x2="49" y2="55.4427" gradientUnits="userSpaceOnUse">
<stop stop-color="#C347FC"/>
<stop offset="0.75" stop-color="#9747FF"/>
</linearGradient>
</defs>
</svg>
