<svg width="24" height="24" viewBox="0 0 24 24" fill="none" xmlns="http://www.w3.org/2000/svg">
<g clip-path="url(#clip0_768_454)">
<path d="M8.15188 15.0983C8.20288 15.4411 8.29288 15.6563 8.43388 15.7891C8.57413 15.9181 8.77287 15.9691 9.02713 15.9998C9.33238 15.9691 9.53937 15.8978 9.68037 15.6991C9.76213 15.5701 9.81612 15.3668 9.84463 15.0901L9.94137 13.9298V13.9096L9.92262 13.7296L9.89188 13.5586L9.86413 13.3823L9.82887 13.2181L9.80188 13.0463L9.77112 12.8783L9.73887 12.7141L9.71187 12.5461L9.68488 12.3863L9.65263 12.2333L9.62188 12.0856V11.9483L9.59488 11.8111L9.56262 11.6791L9.54762 11.5538L9.51688 11.4368L9.48913 11.3348L9.45837 11.1668L9.41113 10.9988L9.36387 10.8188L9.32113 10.6396L9.30988 10.4393L9.25513 10.2361L9.21237 10.0291L9.15763 9.81832L9.13062 9.60757L9.08787 9.39382L9.05713 9.18307L9.03687 8.94007L9.02487 8.72932L9.01362 8.50357V8.10157L9.03238 7.89082L9.06763 7.68007L9.11487 7.46932L9.17413 7.27057L9.26412 7.07482L9.41187 6.81682C9.21313 6.77107 8.97087 6.73882 8.72112 6.73882C8.61088 6.73882 8.52238 6.73882 8.42037 6.75907C6.09237 6.95782 7.04112 9.59482 7.44012 11.0401C7.72137 12.0398 8.04088 14.3798 8.16238 15.0991L8.14363 15.0788L8.15188 15.0983ZM8.43388 6.43432C8.52312 6.46132 8.61312 6.47707 8.71887 6.47707C9.19512 6.47707 9.50787 6.22282 9.67587 5.83207C9.78912 5.56207 9.84013 5.22982 9.82812 4.88707C9.81612 4.58632 9.75838 4.31632 9.66388 4.07782C9.47262 3.60907 9.12463 3.29707 8.60188 3.29707C8.52687 3.29707 8.46463 3.29707 8.42188 3.31207C7.74613 3.42232 7.44462 4.08982 7.47687 4.92232C7.48812 5.69932 7.78888 6.35257 8.40613 6.50032L8.43388 6.44107V6.43432ZM9.68037 10.2728C9.76213 10.6366 9.84837 10.9651 9.91438 11.2501C10.1994 12.4058 10.4776 15.0938 10.5781 15.9181C10.6801 16.7423 10.9689 16.9058 11.5509 16.9688C12.1246 16.9261 12.4179 16.7416 12.5161 15.9338C12.6129 15.1246 12.8949 12.4381 13.1724 11.2808C13.2384 10.9996 13.3321 10.6718 13.4101 10.3201C13.6719 9.27007 13.8789 8.03107 13.4101 7.22332C13.1169 6.71107 12.5469 6.38332 11.5509 6.38332C10.5466 6.38332 9.96912 6.71107 9.67962 7.24207C9.21463 8.05132 9.42537 9.30082 9.67962 10.3523L9.68037 10.2728ZM11.5351 5.99632H11.5509C12.4486 5.99632 12.8829 5.17207 12.8829 4.16407C12.8829 3.15607 12.4606 2.31982 11.5621 2.31982H11.5509C10.6411 2.31982 10.2226 3.15982 10.2226 4.17982C10.2226 5.19907 10.6404 6.01957 11.5584 6.01957V5.98732L11.5351 5.99632ZM14.3634 6.74632C14.0941 6.74632 13.8526 6.77707 13.6561 6.82057L13.7034 6.89857L13.8091 7.09057L13.8834 7.28932L13.9411 7.50007L13.9884 7.71082L14.0206 7.92157L14.0319 8.15182V8.58982L14.0206 8.82007V8.98807L13.9576 9.41782L13.9149 9.63307L13.8676 9.84007L13.8249 10.0508L13.7776 10.2578L13.7304 10.4566L13.6801 10.6516L13.6171 10.8473L13.5699 11.0266L13.5391 11.2103L13.4881 11.3783L13.4731 11.4683L13.4409 11.5853L13.4101 11.7226L13.3869 11.8583L13.3711 11.9873L13.3404 12.1081V12.1403L13.3096 12.2881L13.2819 12.4403L13.2631 12.6016L13.2309 12.7696L13.2121 12.9376L13.1814 13.1018L13.1611 13.2811L13.1491 13.4453L13.1034 13.9846V14.0003C13.1491 14.4961 13.1776 14.9303 13.1926 15.1726C13.2249 15.4576 13.2676 15.6488 13.3606 15.7853C13.4979 15.9841 13.7086 16.0553 14.0214 16.0861C14.2786 16.0553 14.4706 16.0163 14.6184 15.8671C14.7714 15.7463 14.8494 15.5228 14.9071 15.1763C15.0279 14.4736 15.3489 12.1253 15.6181 11.1211C16.0209 9.67207 16.9704 7.03882 14.6379 6.84007C14.5321 6.82432 14.4421 6.82432 14.3409 6.82432L14.3529 6.77332L14.3634 6.74632ZM14.3791 6.47707C14.4691 6.47707 14.5591 6.46507 14.6484 6.44482C15.2506 6.29707 15.5514 5.65207 15.5784 4.88707C15.6091 4.07782 15.3091 3.38707 14.6296 3.29707C14.5704 3.27682 14.5089 3.27682 14.4496 3.27682C13.9104 3.27682 13.5594 3.60907 13.3794 4.06957C13.2894 4.30882 13.2301 4.58932 13.2301 4.89082C13.2114 5.25007 13.2579 5.57782 13.3794 5.84782C13.5391 6.24982 13.8594 6.50782 14.3401 6.50782L14.3671 6.46057L14.3791 6.47707ZM17.1684 7.67632C21.4614 7.73857 23.9694 10.3793 21.1291 13.9801C19.8091 15.6481 17.5981 17.3011 14.6409 18.3518L14.2186 18.4996C13.9299 18.5896 13.6599 18.6796 13.3906 18.7576C12.7374 18.9376 12.1284 19.1018 11.5269 19.2226C10.8789 19.3583 10.2496 19.4483 9.64812 19.5196C9.21088 19.5698 8.78937 19.6013 8.39787 19.6013C5.65212 19.6793 3.58212 18.9293 2.91013 17.3191C2.09788 15.4013 3.72987 12.7291 7.02012 10.6898C4.59012 11.6588 0.180125 13.9786 -0.015625 17.2606V17.6783C0.000125 18.0293 0.059375 18.3571 0.180125 18.7216C0.887375 20.9393 4.18812 21.9908 8.38737 21.6196C8.79762 21.5888 9.21537 21.5453 9.63762 21.4786C10.2429 21.3968 10.8676 21.2686 11.4969 21.1193C12.1029 20.9903 12.7276 20.8103 13.3636 20.6071L13.7814 20.4781C14.0664 20.3888 14.3401 20.2988 14.6094 20.1931C18.2544 18.8731 20.9611 17.1188 22.5354 15.0923C23.4346 13.9396 23.8981 12.8611 23.9881 11.9123V11.1781C23.7301 8.76832 20.9304 7.35307 17.1129 7.74382L17.1556 7.69657L17.1684 7.67632Z" fill="white"/>
</g>
<defs>
<clipPath id="clip0_768_454">
<rect width="24" height="24" fill="white"/>
</clipPath>
</defs>
</svg>
