<svg width="54" height="59" viewBox="0 0 54 59" fill="none" xmlns="http://www.w3.org/2000/svg">
<path d="M8.1 0V5.36364H5.4C2.403 5.36364 0 7.75045 0 10.7273V48.2727C0 51.2227 2.403 53.6364 5.4 53.6364H21.87C25.272 56.9618 29.943 59 35.1 59C45.549 59 54 50.6059 54 40.2273C54 35.105 51.948 30.4655 48.6 27.0864V10.7273C48.6 7.77727 46.197 5.36364 43.2 5.36364H40.5V0H35.1V5.36364H13.5V0M5.4 10.7273H43.2V16.0909H5.4M5.4 21.4545H43.2V23.2514C40.743 22.0982 37.989 21.4545 35.1 21.4545C24.651 21.4545 16.2 29.8486 16.2 40.2273C16.2 43.0968 16.848 45.8323 18.009 48.2727H5.4M35.1 27.2205C42.336 27.2205 48.195 33.04 48.195 40.2273C48.195 47.4145 42.336 53.2341 35.1 53.2341C27.864 53.2341 22.005 47.4145 22.005 40.2273C22.005 33.04 27.864 27.2205 35.1 27.2205ZM32.4 32.1818V42.0777L41.013 47.0123L43.038 43.5259L36.45 39.7445V32.1818H32.4Z" fill="url(#paint0_linear_707_3653)"/>
<defs>
<linearGradient id="paint0_linear_707_3653" x1="-7.22677e-07" y1="4.6804" x2="54" y2="54.3196" gradientUnits="userSpaceOnUse">
<stop stop-color="#C347FC"/>
<stop offset="0.759615" stop-color="#9747FF"/>
</linearGradient>
</defs>
</svg>
