<svg width="81" height="81" viewBox="0 0 81 81" fill="none" xmlns="http://www.w3.org/2000/svg">
<path d="M24 44.9999C24 51.9999 31.2 58.1223 40 58.1223C48.8 58.1223 56 51.9999 56 44.9999" stroke="#B454FF" stroke-width="4" stroke-linecap="round"/>
<circle cx="40.5" cy="40.5" r="39" stroke="#B454FF" stroke-width="3"/>
<path d="M54 24C57.3136 24 59.9999 26.7554 60 30.1543C60 32.7018 57.0654 32.4608 54.9095 31.1036C54.5712 30.8906 54.2642 30.7695 54.001 30.7695C53.9534 30.7695 53.902 30.7786 53.8472 30.7962C51.0219 31.7028 48 33.1214 48 30.1543C48.0001 26.7554 50.6864 24 54 24Z" fill="#B454FF"/>
<path d="M25 24C28.3136 24 30.9999 26.7554 31 30.1543C31 32.7018 28.0654 32.4608 25.9095 31.1036C25.5712 30.8906 25.2642 30.7695 25.001 30.7695C24.9534 30.7695 24.902 30.7786 24.8472 30.7962C22.0219 31.7028 19 33.1214 19 30.1543C19.0001 26.7554 21.6864 24 25 24Z" fill="#B454FF"/>
</svg>
