<svg width="81" height="81" viewBox="0 0 81 81" fill="none" xmlns="http://www.w3.org/2000/svg">
<path d="M25 58C26.5 53.6667 31.7 45 40.5 45C49.3 45 55.5263 52.5 57 58" stroke="#B454FF" stroke-width="4" stroke-linecap="round"/>
<path d="M30.6211 25.5547C31.4748 26.4516 32 27.664 32 29C32 31.7614 29.7614 34 27 34C24.2386 34 22 31.7614 22 29C22 28.8798 22.0053 28.7607 22.0137 28.6426L30.6211 25.5547Z" fill="#B454FF"/>
<path d="M50.3789 25.5547C49.5252 26.4516 49 27.664 49 29C49 31.7614 51.2386 34 54 34C56.7614 34 59 31.7614 59 29C59 28.8798 58.9947 28.7607 58.9863 28.6426L50.3789 25.5547Z" fill="#B454FF"/>
<circle cx="40.5" cy="40.5" r="39" stroke="#B454FF" stroke-width="3"/>
</svg>
