<svg width="32" height="32" viewBox="0 0 32 32" fill="none" xmlns="http://www.w3.org/2000/svg">
<rect x="0.5" y="0.5" width="31" height="30.9988" rx="4.5" stroke="#C0FEF3"/>
<path d="M14.7175 20.3267C15.9591 20.3267 17.1041 19.929 18.0409 19.2662L21.5651 22.757C21.7286 22.919 21.9442 23 22.1747 23C22.658 23 23 22.6318 23 22.1604C23 21.9395 22.9257 21.7259 22.7621 21.5713L19.2602 18.0952C19.9963 17.1378 20.4349 15.9521 20.4349 14.6633C20.4349 11.5481 17.8625 9 14.7175 9C11.5799 9 9 11.5408 9 14.6633C9 17.7785 11.5725 20.3267 14.7175 20.3267ZM14.7175 19.1042C12.2639 19.1042 10.2342 17.0936 10.2342 14.6633C10.2342 12.233 12.2639 10.2225 14.7175 10.2225C17.171 10.2225 19.2007 12.233 19.2007 14.6633C19.2007 17.0936 17.171 19.1042 14.7175 19.1042Z" fill="#C0FEF3" fill-opacity="0.7"/>
</svg>
