<svg width="102" height="46" viewBox="0 0 102 46" fill="none" xmlns="http://www.w3.org/2000/svg">
<path d="M23.9355 0.8125C36.8126 0.812674 47.2139 10.8043 47.2139 23.084C47.2137 35.3636 36.8125 45.3543 23.9355 45.3545C11.0584 45.3545 0.65644 35.3637 0.65625 23.084C0.65625 10.8042 11.0583 0.8125 23.9355 0.8125Z" stroke="white"/>
<path d="M77.6699 0.8125C64.7928 0.812674 54.3916 10.8043 54.3916 23.084C54.3918 35.3636 64.7929 45.3543 77.6699 45.3545C90.547 45.3545 100.949 35.3637 100.949 23.084C100.949 10.8042 90.5472 0.8125 77.6699 0.8125Z" stroke="white"/>
<path d="M13.0403 22.6718C12.6497 23.0623 12.6497 23.6955 13.0403 24.086L19.4042 30.45C19.7948 30.8405 20.4279 30.8405 20.8184 30.45C21.209 30.0594 21.209 29.4263 20.8184 29.0358L15.1616 23.3789L20.8184 17.7221C21.209 17.3315 21.209 16.6984 20.8184 16.3078C20.4279 15.9173 19.7948 15.9173 19.4042 16.3078L13.0403 22.6718ZM33.5117 23.3789L33.5117 22.3789L13.7474 22.3789L13.7474 23.3789L13.7474 24.3789L33.5117 24.3789L33.5117 23.3789Z" fill="white"/>
<path d="M88.569 22.6718C88.9596 23.0623 88.9596 23.6955 88.569 24.086L82.2051 30.45C81.8146 30.8405 81.1814 30.8405 80.7909 30.45C80.4003 30.0594 80.4003 29.4263 80.7909 29.0358L86.4477 23.3789L80.7909 17.7221C80.4003 17.3315 80.4003 16.6984 80.7909 16.3078C81.1814 15.9173 81.8146 15.9173 82.2051 16.3078L88.569 22.6718ZM68.0977 23.3789L68.0977 22.3789L87.8619 22.3789L87.8619 23.3789L87.8619 24.3789L68.0977 24.3789L68.0977 23.3789Z" fill="white"/>
</svg>
