<svg width="146" height="76" viewBox="0 0 146 76" fill="none" xmlns="http://www.w3.org/2000/svg">
<path d="M98.567 29.0615C97.6598 28.3937 96.2189 27.9663 94.8314 27.993C93.3105 28.0197 91.8696 28.5005 90.8557 29.3019V19.7393H86.1328V50.938H90.8557V34.6441C90.8557 33.5223 91.8162 32.2668 93.5773 32.1867C94.3511 32.16 95.4451 32.5072 96.0054 33.3353C96.5924 34.19 96.5658 35.3653 96.5658 36.6208L96.5391 50.938H101.262V36.4605C101.262 32.1867 100.728 30.6641 98.567 29.0615Z" fill="#0078C1"/>
<path d="M60.1415 39.7728C60.1415 42.8179 60.0347 43.6726 60.008 43.9398C59.8479 45.6493 59.1275 47.4389 57.153 47.4389C55.2051 47.4389 54.4047 45.5157 54.3246 43.8596C54.2979 43.8596 54.1912 42.8179 54.1912 39.7728C54.1912 36.7277 54.2979 35.4456 54.3246 35.4456C54.3246 33.7094 55.2318 31.9999 57.153 31.9999C59.1008 31.9999 59.9813 33.7094 60.008 35.4189C60.008 35.4456 60.1415 36.7277 60.1415 39.7728ZM64.7042 36.0867C64.0371 29.4356 60.2482 27.9932 57.153 27.9932C52.7503 27.9932 50.082 30.7979 49.6018 36.0867C49.5484 36.5141 49.495 37.2887 49.4684 39.7728C49.4417 41.5892 49.5751 43.085 49.6018 43.459C49.8953 48.4005 52.7236 51.4189 57.153 51.4189C61.5823 51.4189 64.4107 48.3471 64.7309 43.459C64.7575 43.1117 64.8376 41.5892 64.8376 39.7728C64.8376 38.9448 64.7842 36.7277 64.7042 36.0867Z" fill="#0078C1"/>
<path d="M109.158 36.9681C109.185 35.9264 109.185 35.7127 109.212 35.4189C109.345 33.5491 110.172 31.9999 112.094 31.9999C114.362 31.9731 114.895 34.1902 114.975 35.4189C115.029 36.0867 115.055 36.514 115.055 36.9681H109.158ZM115.002 43.2186C115.002 43.2186 115.002 43.5658 114.949 43.9932C114.815 45.0884 114.388 47.4389 112.094 47.4389C110.119 47.4389 109.372 45.6493 109.238 43.8864C109.212 43.3788 109.132 42.8179 109.132 40.8947H119.671C119.671 40.8947 119.671 39.3187 119.645 38.3838C119.645 38.0099 119.618 37.3955 119.538 36.0867C119.378 34.0833 118.631 31.893 117.483 30.504C116.176 28.8479 114.308 27.9932 112.094 27.9932C107.824 27.9932 105.156 30.7711 104.649 36.0867C104.596 36.5675 104.516 37.2353 104.516 39.7728C104.516 41.5892 104.622 43.1117 104.649 43.459C104.916 48.3204 107.798 51.4189 112.094 51.4189C116.363 51.4189 119.218 48.4005 119.538 43.2186H115.002Z" fill="#0078C1"/>
<path d="M34.5274 3.81971H111.32L140.671 38.2238L111.32 72.147H34.5274L5.04303 38.1169L34.5274 3.81971ZM113.161 0H32.6596L0 37.9833L32.6863 75.7263H113.161L145.714 38.1169L113.161 0Z" fill="#0078C1"/>
<path d="M35.4898 23.9867H37.7044C40.1326 23.9867 41.4667 25.2688 41.5201 27.566C41.5201 27.7529 41.5468 27.9399 41.5468 28.2872C41.5468 28.7145 41.5468 28.8481 41.5201 29.0351C41.3867 30.3974 40.773 32.7746 37.9446 32.7746H35.4898V23.9867ZM46.6698 48.9884L46.1895 41.349C45.9761 37.9299 45.0956 35.8999 43.3078 34.8581C44.5886 34.0835 46.2429 32.187 46.2162 28.207C46.2162 22.1703 42.454 20.0334 38.0246 19.98H30.8203V50.9383H35.4631L35.4898 36.7813H38.078C39.5722 36.7813 41.2533 38.0902 41.5201 41.7763L42.0004 49.0151C42.0537 50.0568 42.2405 50.9383 42.2405 50.9383H46.91C46.91 50.9383 46.6965 50.0835 46.6698 48.9884Z" fill="#0078C1"/>
<path d="M78.4989 43.0049C78.4989 43.3521 78.4722 43.646 78.4455 43.8596C78.3121 45.5959 77.7251 47.4389 75.5905 47.4389C73.6426 47.4389 72.8689 45.4356 72.7088 43.9665C72.6287 43.085 72.6554 42.3905 72.6287 39.7728C72.602 36.7277 72.7088 35.9264 72.7621 35.4456C72.9222 33.4957 73.6693 31.9999 75.5905 31.9999C77.5917 31.9731 78.4189 33.7094 78.4455 35.4189C78.4455 35.4456 78.4989 35.8463 78.5256 36.7545H83.195C83.195 36.4339 83.1684 36.1668 83.1684 36.0332C82.6347 29.5691 78.6857 27.9932 75.5905 27.9932C71.1878 27.9932 68.5195 30.7979 68.0393 36.0867C67.9859 36.5141 67.9325 37.2887 67.9059 39.7728C67.8792 41.5892 68.0126 43.085 68.0393 43.459C68.3328 48.4005 71.1611 51.4189 75.5905 51.4189C80.1799 51.4456 82.7148 48.6409 83.1684 43.459C83.1684 43.272 83.195 43.1384 83.195 43.0049H78.4989Z" fill="#0078C1"/>
</svg>
