<svg width="186" height="78" viewBox="0 0 186 78" fill="none" xmlns="http://www.w3.org/2000/svg">
<g clip-path="url(#clip0_768_476)">
<path d="M4.99461 53.7325C5.23244 53.4762 5.58822 53.352 6.06582 53.352C5.7081 52.9695 5.41033 52.7793 5.17443 52.7793C4.93854 52.7793 4.69684 52.8414 4.46094 52.9695C4.81865 52.9695 4.99654 53.2238 4.99654 53.7325H4.99461Z" fill="url(#paint0_linear_768_476)"/>
<path d="M6.42357 52.0162C5.71008 50.3642 5.17447 49.411 4.81676 49.1548H3.92537V50.108C3.80549 50.8709 4.63887 51.5057 6.42357 52.0162Z" fill="url(#paint1_linear_768_476)"/>
<path d="M2.32031 64.4131C0.773437 64.4131 0 65.6827 0 68.2277C0 69.8797 1.00934 70.7067 3.03381 70.7067C4.57875 70.7067 5.88972 70.2602 6.959 69.3711C7.55261 68.7324 7.96834 68.2257 8.2081 67.8452L6.959 65.1741C5.88779 64.6635 4.34092 64.4111 2.31838 64.4111L2.32031 64.4131Z" fill="url(#paint2_linear_768_476)"/>
<path d="M166.328 41.5838C166.419 41.578 166.516 41.5702 166.62 41.5547C166.492 41.5547 166.396 41.5644 166.328 41.5838Z" fill="url(#paint3_linear_768_476)"/>
<path d="M168.615 41.277C168.854 41.0014 168.976 40.7723 168.976 40.5859C168.733 40.5859 168.342 40.6345 167.799 40.7238C167.255 40.817 166.863 40.8616 166.621 40.8616C167.464 41.048 168.129 41.1858 168.613 41.2751L168.615 41.277Z" fill="url(#paint4_linear_768_476)"/>
<path d="M95.5 34.0647C95.3163 33.991 95.0591 33.9521 94.7227 33.9521C94.8986 33.9521 95.1597 33.991 95.5 34.0647Z" fill="url(#paint5_linear_768_476)"/>
<path d="M168.07 44.3169H164.992V44.7323H168.07V44.3169Z" fill="url(#paint6_linear_768_476)"/>
<path d="M163.543 45.5595L165.716 45.8371V45.4217L163.543 45.146V45.5595Z" fill="url(#paint7_linear_768_476)"/>
<path d="M168.629 45.1128C169.613 44.9517 170.334 44.8682 170.789 44.8682C170.305 44.8682 169.82 44.6838 169.34 44.3149C169.143 44.7653 168.905 45.0274 168.631 45.1128H168.629Z" fill="url(#paint8_linear_768_476)"/>
<path d="M175.695 44.2236C175.73 44.2858 175.842 44.3168 176.041 44.3168C175.922 44.2838 175.807 44.2528 175.695 44.2236Z" fill="url(#paint9_linear_768_476)"/>
<path d="M171.659 43.6123C171.609 43.616 171.551 43.6234 171.508 43.6234C171.541 43.6234 171.595 43.6178 171.659 43.6123Z" fill="url(#paint10_linear_768_476)"/>
<path d="M172.254 43.5171C171.993 43.5656 171.797 43.5967 171.664 43.6122C171.828 43.5986 172.018 43.5714 172.254 43.5171Z" fill="url(#paint11_linear_768_476)"/>
<path d="M184.372 48.1161C183.647 47.9782 183.103 47.9084 182.742 47.9084C181.655 47.9084 180.116 47.9996 178.124 48.184C176.133 48.3684 174.594 48.4597 173.507 48.4597L167.53 48.8751C164.874 49.0576 162.157 48.9198 159.38 48.4597C161.554 47.6308 167.53 47.2153 177.31 47.2153C178.515 47.2153 179.666 46.7999 180.752 45.971C177.131 46.5242 174.11 46.7999 171.697 46.7999C171.575 46.7999 171.336 46.73 170.972 46.5922C170.611 46.4543 170.307 46.3845 170.067 46.3845L169.342 46.798C166.564 47.0736 164.33 47.2134 162.64 47.2134C162.397 47.2134 162.097 47.1435 161.735 47.0057C161.374 46.8678 161.13 46.798 161.01 46.798C160.767 46.798 160.436 46.8426 160.014 46.9358C159.589 47.027 159.258 47.0736 159.019 47.0736C158.51 47.0736 157.87 46.9707 157.11 46.7766C157.389 46.7902 157.783 46.798 158.294 46.798C158.533 46.798 159.108 46.5902 160.014 46.1767C160.076 46.1476 160.132 46.1243 160.19 46.0972H160.784V45.8409C161.25 45.6507 161.569 45.5536 161.733 45.5536C161.973 45.5536 162.186 45.5982 162.368 45.6914C162.549 45.7827 162.698 45.8293 162.82 45.8293C162.82 45.276 163.302 44.8625 164.268 44.5849C164.63 44.218 164.872 43.9423 164.993 43.756L166.805 43.4803C168.01 43.4803 169.218 43.7113 170.427 44.1714C170.305 43.987 170.245 43.8045 170.245 43.6181C170.245 43.1581 170.667 42.9271 171.514 42.9271C171.631 42.5602 171.695 42.2845 171.695 42.0981L172.782 41.2692C171.813 41.4556 171.03 41.5449 170.427 41.5449C170.065 42.0981 169.762 42.467 169.522 42.6495C169.16 42.0962 168.917 41.6827 168.797 41.4051C167.588 42.7873 166.442 43.4784 165.355 43.4784C164.508 43.4784 163.663 43.3405 162.82 43.0629C163.545 42.8805 164.027 42.7873 164.268 42.7873C164.268 42.3272 164.328 42.0515 164.45 41.9584C164.69 42.0515 164.872 42.0962 164.993 42.0962C165.233 42.0962 165.324 42.0263 165.264 41.8885C165.202 41.7506 165.293 41.6808 165.537 41.6808C165.898 41.6808 166.198 41.7739 166.442 41.9564C166.175 41.7526 166.138 41.6245 166.33 41.572C165.9 41.5953 165.633 41.4944 165.535 41.2653C166.016 40.8984 166.26 40.6228 166.26 40.4364C165.535 40.4364 165.051 40.3452 164.812 40.1607C165.415 39.425 166.198 39.0562 167.167 39.0562H166.262C165.415 38.6893 164.51 38.5029 163.545 38.5029C162.94 38.5029 162.277 38.5961 161.554 38.7786L160.828 38.2253C163.967 37.5827 165.657 37.2585 165.9 37.2585H161.915C161.672 37.0741 161.612 36.9829 161.733 36.9829C163.785 36.5228 164.932 36.2918 165.175 36.2918L168.979 36.4296C171.514 36.5228 173.443 36.5674 174.774 36.5674C175.135 36.5674 175.707 36.6839 176.494 36.913C177.278 37.144 177.732 37.2585 177.854 37.2585C179.18 37.2585 182.353 36.3228 184.648 35.954L183.287 34.7718H180.932C181.05 34.7718 180.75 34.4961 180.027 33.9428L180.932 33.2517C180.57 33.2517 180.085 33.2071 179.484 33.1139C178.879 33.0227 178.397 32.9761 178.036 32.9761C177.792 32.9761 177.643 33.046 177.583 33.1838C177.521 33.3216 177.312 33.3915 176.949 33.3915C176.705 33.3915 176.406 33.277 176.044 33.046C175.682 32.8169 175.379 32.7004 175.139 32.7004L167.894 32.9761C163.064 33.1624 159.382 33.2517 156.845 33.2517C156.362 33.0673 155.94 32.9761 155.577 32.9761L155.034 33.3915C154.187 33.2071 153.463 33.0693 152.86 32.9761C152.86 33.2517 152.798 33.4828 152.678 33.6672C152.195 33.2071 151.166 32.9761 149.6 32.9761C150.082 33.3449 150.203 33.5759 149.962 33.6672C149.718 33.6672 149.237 33.7157 148.513 33.805H147.245C147.001 33.805 146.611 33.7351 146.067 33.5973C145.938 33.5643 145.814 33.5352 145.698 33.5099L145.615 33.4944C145.284 33.4265 145.01 33.3915 144.799 33.3915C144.495 33.3915 144.347 33.3216 144.347 33.1838C144.347 33.046 144.285 32.9761 144.165 32.9761C143.56 33.4381 143.078 33.6672 142.717 33.6672L135.471 33.3915C133.054 33.3003 129.133 33.2537 123.7 33.2537C122.975 33.2537 121.917 33.3236 120.53 33.4614C119.14 33.5992 118.086 33.6691 117.361 33.6691C116.395 33.6691 115.428 33.5313 114.463 33.2556C114.581 33.1644 114.463 32.98 114.101 32.7024C108.306 33.3488 103.898 33.6691 100.881 33.6691C101.121 33.7623 101.121 33.9001 100.881 34.0846C100.398 34.0846 99.7637 34.1311 98.9787 34.2224C98.1917 34.3156 97.5575 34.3602 97.0779 34.3602C96.8343 34.3602 96.4437 34.2903 95.9004 34.1525C95.7554 34.1156 95.6239 34.0846 95.5001 34.0574C95.7747 34.168 95.8811 34.3602 95.8095 34.6359L95.2662 35.0494C93.3326 34.6825 92.0061 34.4961 91.281 34.4961L90.7377 34.2204L91.281 33.8069L93.9977 34.2204C91.7026 33.6672 89.5891 33.3915 87.6594 33.3915C87.0542 33.3915 86.2382 33.4381 85.2154 33.5293C84.1886 33.6225 83.4326 33.6672 82.9511 33.6672L49.0842 34.4961C47.8757 34.7718 47.0926 34.9115 46.7291 34.9115C44.6737 34.9115 43.529 34.6825 43.2873 34.2204C43.2873 34.038 43.4691 33.7157 43.8307 33.2537C43.587 32.7004 43.5271 32.1957 43.6489 31.7337C43.1655 31.7337 42.802 31.6424 42.5622 31.458C41.7153 31.7337 40.9922 31.9647 40.3889 32.1491C38.8188 33.3469 38.0338 34.1758 38.0338 34.6359C38.0338 34.7291 38.1517 35.0047 38.3953 35.4648C38.4862 35.6376 38.5539 35.7948 38.61 35.9404L26.2311 36.3655C25.04 36.746 24.2685 36.9382 23.9108 36.9382C21.8863 36.9382 20.7571 36.6218 20.5212 35.9851C20.5212 35.7327 20.6991 35.2881 21.0568 34.6495C20.8171 33.8865 20.7591 33.1896 20.8789 32.5509C20.4013 32.5509 20.0456 32.4267 19.8077 32.1705C18.9743 32.5509 18.2609 32.8713 17.6672 33.1236C16.1204 34.7776 15.3469 35.9229 15.3469 36.5577C15.3469 36.6859 15.4649 37.0683 15.7046 37.7011C15.9425 38.3398 16.0624 38.8465 16.0624 39.227L14.4555 40.1802C13.5023 39.1649 12.7888 38.6543 12.3131 38.6543C11.4797 38.6543 10.7063 40.1802 9.99281 43.2318C9.51521 44.5053 9.10142 45.2682 8.74371 45.5206C9.33732 45.5206 10.2306 45.9671 11.4198 46.8562V48.7645C10.4665 49.7836 9.81298 50.7368 9.4572 51.6259C9.09949 53.0236 8.85972 54.1049 8.74371 54.8678C7.07695 54.4854 5.82785 54.4213 4.99641 54.6776C4.99641 54.8018 4.93453 55.027 4.81852 55.3454C4.69863 55.6618 4.64062 55.9472 4.64062 56.2034C4.64062 56.4597 4.81852 56.9003 5.17623 57.539C5.53394 58.1738 5.64996 58.6184 5.53394 58.8746C6.00768 58.7465 6.96094 58.6844 8.38986 58.6844C8.62769 58.6844 8.98347 58.2379 9.46107 57.3488C9.9348 56.4577 10.2326 55.9472 10.3525 55.8229C10.8262 56.0753 11.4237 56.648 12.1372 57.539C11.1839 59.5715 10.7102 60.781 10.7102 61.1634C10.7102 61.5458 10.8281 61.7982 11.0679 61.9263L11.2458 62.1165C13.0305 63.3861 14.8152 64.0869 16.5999 64.2151C17.4313 65.3604 18.2067 66.4087 18.9202 67.3619C19.6337 68.315 20.9408 68.7926 22.8454 68.7926C22.1319 69.5555 21.7742 70.4446 21.7742 71.4638C21.7742 71.8462 22.4567 72.9236 23.8257 74.7057C25.1928 76.4859 26.0571 77.3769 26.4129 77.3769C26.7687 77.3769 27.8998 76.8042 29.8025 75.6608C28.9691 75.6608 28.5534 75.5327 28.5534 75.2803C30.8118 74.5174 31.6452 74.135 31.0516 74.135H31.9429C32.3007 74.2592 32.7145 74.3252 33.192 74.3252C32.4786 73.1818 31.9429 72.481 31.5852 72.2267C31.5852 72.8615 31.3455 73.1799 30.8717 73.1799C30.632 73.1799 30.485 73.0187 30.4251 72.7023C30.3632 72.3839 30.2163 72.2248 29.9784 72.2248C29.7406 72.2248 29.5008 72.2869 29.2649 72.415H28.5514C27.4802 72.415 26.469 71.9044 25.5176 70.8892C26.2311 70.3786 26.7667 70.0602 27.1244 69.936C26.7667 69.936 26.527 69.87 26.4109 69.7458C26.4109 69.6176 26.5289 69.4274 26.7687 69.1731H27.8399L28.5534 70.1262C29.6246 69.6157 30.3961 69.4895 30.8737 69.7458C30.9916 69.6176 31.2894 69.6176 31.7651 69.7458C32.1228 70.0001 32.4186 70.1262 32.6564 70.1262C32.8943 70.1262 33.2501 69.936 33.7277 69.5536C34.2014 69.1711 34.4992 68.9809 34.619 68.9809C38.1885 68.4703 41.0424 68.218 43.1849 68.218C44.0163 68.218 44.9696 68.2801 46.0408 68.4082L84.7648 66.3097C86.3098 66.1816 88.5701 65.9292 91.5459 65.5468L68.7044 64.4014C68.4646 64.4014 68.1959 64.5257 67.902 64.7819C67.6042 65.0362 67.3354 65.1643 67.0995 65.1643C66.8636 65.1643 66.6529 65.0362 66.475 64.7819C66.2971 64.5257 66.0883 64.4014 65.8504 64.4014C65.2529 64.4014 64.1837 64.6538 62.6387 65.1643C62.399 64.9081 62.341 64.7179 62.4608 64.5917C63.2923 64.2112 63.8878 63.8909 64.2455 63.6385C69.242 63.3823 73.2271 63.2561 76.2009 63.2561C76.3189 63.2561 76.6747 63.0658 77.2722 62.6834C77.8658 62.301 78.2815 62.1107 78.5213 62.1107C79.8284 62.1107 81.762 61.8254 84.3201 61.2527C86.8763 60.68 88.8099 60.3946 90.1189 60.3946L91.0123 61.1576L91.9037 60.2044C92.2614 60.5849 92.4973 60.9013 92.6171 61.1576L109.391 59.6317C109.985 59.6317 110.52 59.886 110.998 60.3946C111.116 60.3946 111.383 60.1384 111.8 59.6317C112.216 59.1212 112.603 58.8688 112.96 58.8688C113.198 58.8688 113.523 59.026 113.943 59.3463C114.358 59.6628 114.625 59.8239 114.745 59.8239C115.219 59.8239 115.963 59.7288 116.977 59.5385C117.986 59.3483 118.73 59.2532 119.208 59.2532C119.326 59.2532 119.624 59.3483 120.099 59.5385C120.573 59.7288 120.931 59.8239 121.171 59.8239C121.528 59.8239 122.002 59.7579 122.598 59.6337C123.191 59.5055 123.669 59.4434 124.024 59.4434H130.628C131.579 59.3153 131.815 59.2532 131.341 59.2532H135.982C138.36 59.2532 139.967 59.0629 140.8 58.6805L141.336 58.3C141.574 58.3 141.988 58.3621 142.585 58.4902C143.179 58.6145 143.594 58.6805 143.834 58.6805C145.975 58.6805 147.404 58.0418 148.117 56.7722C148.355 56.7722 148.533 56.8343 148.653 56.9625C149.126 56.4519 150.02 56.1995 151.329 56.1995C151.567 56.1995 151.98 56.2947 152.578 56.4849C153.171 56.6752 153.587 56.7703 153.827 56.7703C154.067 56.7703 154.479 56.6422 155.076 56.3878C155.67 56.1316 156.085 56.0074 156.325 56.0074C159.181 55.6249 160.786 55.4347 161.144 55.4347C160.786 55.4347 160.252 55.3396 159.537 55.1493C158.823 54.9591 158.288 54.8639 157.93 54.8639C156.859 54.8639 155.343 54.9882 153.38 55.2444C151.418 55.4987 149.9 55.6249 148.831 55.6249L142.943 56.1976C140.325 56.4519 137.649 56.2597 134.913 55.6249C137.053 54.4796 142.943 53.9088 152.58 53.9088C153.767 53.9088 154.9 53.3362 155.969 52.1928C152.4 52.9557 149.426 53.3381 147.048 53.3381C146.928 53.3381 146.69 53.243 146.334 53.0527C145.977 52.8625 145.679 52.7674 145.443 52.7674L144.729 53.34C141.991 53.7205 139.791 53.9127 138.126 53.9127C137.886 53.9127 137.591 53.8176 137.235 53.6274C136.877 53.4371 136.637 53.342 136.521 53.342C136.282 53.342 135.955 53.4041 135.539 53.5322C135.121 53.6565 134.795 53.7225 134.557 53.7225C134.056 53.7225 133.426 53.5808 132.677 53.3129C132.952 53.3323 133.341 53.342 133.843 53.342C134.081 53.342 134.646 53.0566 135.539 52.4839C136.43 51.9113 136.995 51.6259 137.235 51.6259C137.475 51.6259 137.681 51.688 137.859 51.8161C138.037 51.9404 138.186 52.0064 138.306 52.0064C138.306 51.7598 138.36 51.5347 138.461 51.3289C138.681 51.4357 138.838 51.492 138.921 51.492C138.952 51.492 138.987 51.492 139.021 51.492V51.6259L141.162 52.0064V51.4337L140.686 51.3483C140.845 51.3289 141.009 51.3075 141.185 51.2842C142.21 51.1464 142.966 51.0765 143.449 51.0765C143.567 51.0765 143.871 51.1464 144.354 51.2842C144.836 51.4221 145.197 51.492 145.441 51.492C145.803 51.492 146.284 51.4454 146.889 51.3541C147.492 51.2609 147.976 51.2163 148.337 51.2163H155.039C156.004 51.1231 156.244 51.0785 155.764 51.0785H160.473C162.886 51.0785 164.516 50.9406 165.363 50.663L165.906 50.3874C166.146 50.3874 166.567 50.432 167.175 50.5252C167.778 50.6164 168.199 50.663 168.443 50.663C170.616 50.663 172.065 50.201 172.79 49.2808C173.029 49.2808 173.211 49.3255 173.333 49.4187C173.814 49.0498 174.719 48.8654 176.05 48.8654C176.289 48.8654 176.711 48.9353 177.318 49.0731C177.921 49.211 178.343 49.2808 178.587 49.2808C178.83 49.2808 179.25 49.1877 179.855 49.0052C180.458 48.8188 180.88 48.7295 181.123 48.7295C184.022 48.4539 185.652 48.3141 186.014 48.3141C185.652 48.3141 185.109 48.2442 184.384 48.1064L184.372 48.1161ZM168.433 42.9348H169.52V43.3503H168.433V42.9348ZM177.49 33.8147H178.577V34.2301H177.49V33.8147ZM172.237 33.5391L174.228 33.8147V34.2282L172.237 33.9525V33.5371V33.5391ZM164.993 33.4012C166.805 33.6769 168.797 33.8167 170.97 33.8167C168.435 33.8167 166.14 33.9098 164.089 34.0923L164.993 33.4012ZM23.7348 69.7555L23.3771 68.9925L23.7348 68.8023L24.0926 69.7555H23.7348ZM144.366 57.5468L144.008 57.9273L142.937 57.5468H144.364H144.366ZM130.804 52.0161C130.922 52.0161 131.219 51.9501 131.695 51.8259C132.169 51.6977 132.526 51.6356 132.766 51.6356C132.526 51.6356 132.588 51.8259 132.944 52.2083C133.252 51.8802 133.418 51.6007 133.46 51.3677H133.478C133.516 51.3677 133.553 51.3735 133.592 51.3755L134.551 52.4005C132.884 52.2723 131.635 52.1442 130.804 52.018V52.0161ZM137.229 51.2532H136.069C136.436 50.9639 136.782 50.8125 137.103 50.8125C137.279 50.8125 137.504 50.8746 137.774 50.9969C137.536 51.1639 137.353 51.2532 137.229 51.2532ZM157.47 46.0195L157.928 45.5303L157.872 45.4701C157.907 45.4041 157.93 45.342 157.93 45.2838L159.017 46.1127C158.452 46.0816 157.94 46.0506 157.47 46.0195ZM165.173 41.0013C164.93 41.277 164.812 41.508 164.812 41.6924L163.182 41.277C164.025 41.277 164.69 41.1857 165.173 41.0013ZM162.638 40.3102H164.268V40.7256H162.638V40.3102ZM161.915 44.5927H162.64C162.758 44.2258 163.303 43.9501 164.27 43.7637C162.94 44.779 162.097 45.2838 161.735 45.2838H159.38C158.564 45.2838 158.147 45.0236 158.118 44.5092C158.402 44.5655 159.664 44.5927 161.915 44.5927ZM158.464 38.6951V38.2369H160.103C159.423 38.4194 158.879 38.5728 158.464 38.6951ZM159.742 33.5391L161.01 33.8147V34.2282L159.742 33.9525V33.5371V33.5391ZM158.292 33.607C158.653 33.7448 158.955 33.8147 159.197 33.8147C158.713 33.8147 158.292 33.9079 157.928 34.0904C157.684 33.8147 157.567 33.5856 157.567 33.3993C157.684 33.3993 157.928 33.4692 158.292 33.607ZM156.118 42.9348H157.205V43.3503H156.118V42.9348ZM153.04 48.7392H152.678L153.04 48.448V48.7392ZM153.04 48.3704C152.986 48.3549 152.936 48.3393 152.881 48.3238H153.04V48.3704ZM153.858 45.837H153.945V46.2525H153.09C153.376 46.07 153.632 45.9341 153.858 45.837ZM154.214 48.7392H153.583V48.3238H154.6L154.212 48.7392H154.214ZM154.852 48.7392H154.749L154.852 48.6305V48.7392ZM154.852 44.7305C155.213 44.4548 155.757 44.3151 156.482 44.3151C156.722 44.3151 157.085 44.5461 157.568 45.0062C155.998 45.0062 155.092 44.9149 154.852 44.7305ZM155.213 45.837C155.331 45.837 155.635 45.7904 156.118 45.6992C156.6 45.606 156.961 45.5614 157.205 45.5614C156.996 45.5614 157.014 45.6642 157.255 45.87L157.135 45.9981C156.35 45.9438 155.708 45.8894 155.213 45.837ZM157.748 48.7392H156.48V48.3238H157.748V48.7392ZM168.615 50.1195L167.528 49.8438H168.977L168.615 50.1195Z" fill="url(#paint12_linear_768_476)"/>
<path d="M175.676 42.7969C176.038 43.0725 175.976 43.2123 175.495 43.2123C175.251 43.2123 175.16 43.1424 175.224 43.0046C175.284 42.8668 175.193 42.7969 174.951 42.7969C174.71 42.7969 174.164 42.9347 173.321 43.2123C172.905 43.3482 172.55 43.4491 172.25 43.519C172.304 43.5093 172.354 43.4996 172.414 43.488H173.501C173.161 43.488 173.89 43.7326 175.692 44.2237C175.684 44.2101 175.676 44.1965 175.676 44.1791C175.676 43.9946 175.858 43.7636 176.22 43.488C176.701 43.95 177.063 44.2257 177.306 44.3169V44.0412C177.185 43.8568 177.125 43.719 177.125 43.6258L177.85 43.2123C177.003 43.0279 176.28 42.8901 175.676 42.7969Z" fill="url(#paint13_linear_768_476)"/>
<path d="M173.321 42.2437L172.234 42.5213V42.9347L173.321 42.6591V42.2437Z" fill="url(#paint14_linear_768_476)"/>
<path d="M131.596 13.5598C131.36 13.2492 130.995 13.0667 130.608 13.0667C130.608 13.0667 124.85 13.0453 124.848 13.0453C124.335 13.0453 123.873 13.3598 123.686 13.8393L123.392 14.5906C123.088 14.2955 122.744 14.0179 122.357 13.7597C121.069 12.9017 119.49 12.4629 117.624 12.4552C116.692 12.4552 115.655 12.5988 114.547 12.8823C113.426 13.1696 112.318 13.6161 111.253 14.212C110.164 14.8196 109.174 15.6117 108.306 16.5687C107.395 17.5724 106.745 18.7779 106.374 20.1543C105.891 21.9402 105.881 23.4719 106.347 24.7085C106.803 25.9179 107.546 26.9138 108.551 27.6709C108.712 27.7912 108.876 27.9077 109.046 28.0203C109.046 28.0203 105.017 28.0048 105.015 28.0048C104.452 28.0048 103.959 28.3833 103.81 28.9288L103.406 30.4236C103.278 30.3809 103.147 30.3498 103.01 30.3498H101.875L109.215 2.85169C109.315 2.47509 109.236 2.07324 109 1.76458C108.764 1.45592 108.399 1.27344 108.01 1.27344H97.1548C96.5902 1.27344 96.0952 1.65393 95.9482 2.20137L94.3317 8.26008C94.2312 8.63669 94.3105 9.03853 94.5464 9.3472C94.7823 9.65586 95.1477 9.83834 95.5364 9.83834H95.8747L90.4007 30.3479H89.3469C88.9331 30.3479 88.56 30.5537 88.3299 30.8779C88.0959 30.6352 87.7788 30.4896 87.4385 30.4896H86.259L88.2835 22.907C88.85 20.7813 88.8597 18.9468 88.3086 17.4501C87.7614 15.9631 86.8545 14.7614 85.6132 13.8781C84.4433 13.0473 83.0473 12.4571 81.4675 12.1232C79.9729 11.8087 78.4627 11.6515 76.9797 11.6515C75.8021 11.6515 74.6188 11.7796 73.4644 12.032C72.3448 12.2766 71.2504 12.5911 70.2102 12.9716C69.1989 13.3423 68.2572 13.7267 67.4142 14.113C66.5827 14.4955 65.8789 14.8352 65.3201 15.1264C64.8676 15.3613 64.6027 15.8485 64.6511 16.3571L65.1616 21.8063C65.2002 22.214 65.4342 22.5789 65.79 22.7789C65.8248 22.7983 65.8596 22.8158 65.8944 22.8313C65.5444 23.0312 65.206 23.2448 64.8754 23.4719C63.8622 24.1708 62.9611 25.0113 62.1741 25.9587C62.267 25.6772 62.3578 25.3938 62.4333 25.1103C62.8954 23.3748 63.0559 21.7306 62.905 20.2222C62.7484 18.642 62.2322 17.2404 61.3698 16.0601C60.5074 14.8779 59.2912 13.948 57.7559 13.2977C56.2767 12.6707 54.4649 12.3542 52.3728 12.3542C50.472 12.3542 48.6003 12.6512 46.8079 13.2375C45.0096 13.8257 43.3332 14.7051 41.8211 15.8485C40.7016 16.6969 39.6749 17.6889 38.7583 18.807L40.1969 13.4142C40.2975 13.0376 40.2182 12.6357 39.9823 12.3271C39.7464 12.0184 39.381 11.8359 38.9923 11.8359C37.6775 11.8359 36.5347 11.9602 35.595 12.2048C34.6398 12.4552 33.7832 12.8124 33.0465 13.2666C32.422 13.6529 31.8554 14.0917 31.3585 14.577L31.2463 14.0179C31.1284 13.4336 30.6179 13.0123 30.0224 13.0123H21.2265C20.6618 13.0123 20.1668 13.3928 20.0199 13.9403L18.3899 20.0456C18.2893 20.4222 18.3686 20.824 18.6045 21.1327C18.8404 21.4413 19.2058 21.6238 19.5945 21.6238H19.9793L17.6512 30.344H16.551C15.9864 30.344 15.4914 30.7245 15.3445 31.2719L13.7028 37.4258C13.6023 37.8024 13.6816 38.2042 13.9175 38.5129C14.1534 38.8216 14.5188 39.004 14.9075 39.004H28.1487C28.7133 39.004 29.2083 38.6236 29.3553 38.0761L30.9969 31.9223C31.0974 31.5457 31.0182 31.1438 30.7823 30.8352C30.5464 30.5265 30.1809 30.344 29.7923 30.344H29.0788L29.9489 27.0827C30.4052 25.3763 31.1438 24.2407 32.1455 23.7087C33.1896 23.1535 34.5798 22.8526 36.2737 22.806C35.887 23.6757 35.564 24.5881 35.3088 25.5413C34.6591 27.9737 34.5102 30.1169 34.8641 31.9106C35.2237 33.7374 35.9353 35.2632 36.9775 36.4435C38.012 37.616 39.3113 38.4915 40.8389 39.0448C42.3065 39.5767 43.863 39.8485 45.466 39.8485C48.0048 39.8485 50.4063 39.5243 52.6087 38.8837C54.8246 38.2392 57.0907 37.1132 59.3414 35.5369C59.5541 35.3894 59.703 35.1856 59.79 34.9584C60.1497 36.0514 60.7336 36.9793 61.5496 37.7034C62.3849 38.445 63.4039 39.006 64.5795 39.3709C65.7049 39.7204 66.9037 39.897 68.1451 39.897C68.6207 39.897 69.1718 39.8466 69.8292 39.7398C70.4809 39.6369 71.1673 39.4602 71.8731 39.2176C72.5904 38.971 73.3174 38.6255 74.0387 38.1906C74.2146 38.0858 74.3867 37.9732 74.5588 37.8548L74.6168 38.0722C74.7618 38.6216 75.2568 39.004 75.8234 39.004H85.8355C86.2048 39.004 86.5413 38.839 86.7733 38.5731C87.0092 38.8429 87.3457 39.004 87.7053 39.004H101.368C101.635 39.004 101.884 38.9167 102.091 38.7691C102.281 38.8837 102.495 38.9516 102.722 38.9516C102.722 38.9516 108.573 38.973 108.575 38.973C109.077 38.973 109.53 38.6701 109.725 38.2042L110.046 37.4374C110.379 37.75 110.76 38.0431 111.187 38.3168C112.461 39.136 114.08 39.5554 115.998 39.5631H116.046C117.256 39.5631 118.496 39.3962 119.728 39.0642C120.988 38.7245 122.168 38.212 123.227 37.5403C124.297 36.8648 125.244 36.03 126.047 35.0574C126.878 34.0499 127.474 32.8987 127.816 31.633C128.282 29.9169 128.253 28.4435 127.731 27.2516C127.236 26.1237 126.48 25.1841 125.48 24.4561C125.261 24.2969 125.033 24.1455 124.799 23.9999C124.799 23.9999 128.315 24.0135 128.317 24.0135C128.879 24.0135 129.372 23.635 129.521 23.0895L131.809 14.643C131.911 14.2664 131.832 13.8645 131.598 13.5539L131.596 13.5598ZM48.6487 22.245C48.9232 21.9538 49.2674 21.6976 49.6735 21.4802C50.0157 21.2977 50.4469 21.2045 50.9535 21.2045C51.6747 21.2045 51.9706 21.3249 52.0595 21.3753C52.2548 21.484 52.2896 21.5714 52.2993 21.5986C52.3728 21.7888 52.3998 22.0237 52.3844 22.2955C52.3805 22.3498 52.3766 22.4042 52.3728 22.4586H48.4611C48.521 22.3867 48.5829 22.3168 48.6487 22.247V22.245ZM53.2235 30.047C52.5797 30.3188 51.9783 30.5284 51.4369 30.6702C50.911 30.806 50.4372 30.8895 50.0273 30.9148C49.5691 30.9439 49.1417 30.9594 48.7608 30.9594C47.7341 30.9594 47.27 30.7905 47.0825 30.6876C46.7731 30.5187 46.5565 30.3304 46.4405 30.1266C46.3419 29.9558 46.2761 29.7849 46.2433 29.6122H54.1091C53.8056 29.781 53.5117 29.9247 53.2255 30.047H53.2235ZM57.1603 29.6122H59.7049C59.8461 29.6122 59.9815 29.5811 60.111 29.5345C60.0008 29.8432 59.8964 30.1557 59.8113 30.478C59.5174 31.5806 59.411 32.5978 59.4845 33.518L57.1584 29.6122H57.1603ZM74.2146 30.3343C74.0348 30.4896 73.7564 30.6896 73.329 30.9264C72.8921 31.1691 72.4319 31.2875 71.9233 31.2875C71.6894 31.2875 71.38 31.2545 71.2427 31.0992C71.1808 31.0293 71.1789 30.8798 71.2388 30.6585C71.3645 30.1887 71.6004 29.814 71.9639 29.5112C72.2965 29.2317 72.7702 29.0977 73.4122 29.0977C73.8705 29.0977 74.0677 29.1657 74.1141 29.1851C74.319 29.2724 74.4235 29.3462 74.4699 29.3831L74.2146 30.3363V30.3343ZM76.5233 21.6607C76.1386 21.4705 75.688 21.3016 75.1814 21.1618C74.5665 20.991 73.8531 20.9055 73.0583 20.9055C72.7393 20.9055 72.4222 20.9172 72.1031 20.9385C72.7064 20.8337 73.3232 20.7813 73.9478 20.7813C75.0403 20.7813 75.8891 20.9172 76.4731 21.1851C76.5214 21.2064 76.5407 21.2239 76.5446 21.2239C76.5504 21.2414 76.5872 21.3617 76.5272 21.6626L76.5233 21.6607ZM116.392 30.9769C116.038 31.1166 115.706 31.1885 115.394 31.1885C115.209 31.1885 114.865 31.1652 114.29 31.0623C113.876 30.9885 113.486 30.8585 113.13 30.6779C112.85 30.5362 112.637 30.3537 112.475 30.1188C112.393 29.9985 112.455 29.7209 112.486 29.6083C112.49 29.5947 112.494 29.583 112.496 29.5694C113.242 29.8102 113.965 30.0276 114.65 30.2178C115.416 30.4314 116.048 30.6469 116.531 30.8623C116.471 30.9439 116.419 30.9652 116.392 30.9769ZM121.031 22.4023C120.457 22.2062 119.907 22.0218 119.385 21.8471C118.565 21.5733 117.896 21.2957 117.396 21.0201C117.488 20.7677 117.601 20.6726 117.682 20.6221C117.912 20.4804 118.152 20.4125 118.42 20.4125C118.863 20.4125 119.275 20.4843 119.646 20.6221C120.01 20.758 120.306 20.9327 120.551 21.154C120.774 21.3559 120.928 21.5733 121.023 21.816C121.064 21.9208 121.11 22.0955 121.029 22.4003L121.031 22.4023Z" fill="url(#paint15_linear_768_476)"/>
<path d="M70.3008 11.4174H70.34L70.2773 11.3506L70.3008 11.4174Z" fill="url(#paint16_linear_768_476)"/>
<path d="M174.592 41.5525C175.317 41.4613 175.978 41.7835 176.583 42.5193V42.7949C176.945 42.6125 177.247 42.4727 177.488 42.3814C177.127 42.3814 176.945 42.2902 176.945 42.1058C177.788 41.6457 178.453 41.37 178.937 41.2769C177.003 41.2769 175.555 41.37 174.59 41.5525H174.592Z" fill="url(#paint17_linear_768_476)"/>
<path d="M20.9263 55.287H21.549L23.2969 48.7352H22.6743L23.2022 46.7551H26.5995L26.7136 47.2754C26.7967 47.2249 26.905 47.1647 27.0384 47.089C27.1719 47.0153 27.3227 46.9454 27.487 46.8813C27.6533 46.8173 27.837 46.759 28.0381 46.7105C28.2392 46.662 28.4538 46.6367 28.6801 46.6367C29.2543 46.6367 29.7319 46.7415 30.1167 46.9493C30.5015 47.157 30.7915 47.4404 30.9868 47.7976C31.1821 48.1548 31.2923 48.5702 31.3155 49.042C31.3387 49.5137 31.2788 50.0126 31.1376 50.5387C30.9791 51.1347 30.749 51.6685 30.4512 52.1402C30.1515 52.612 29.8093 53.0119 29.4187 53.338C29.03 53.6661 28.6027 53.9184 28.1406 54.097C27.6785 54.2756 27.2086 54.3649 26.7349 54.3649C26.4274 54.3649 26.1645 54.3397 25.946 54.2912C25.7275 54.2407 25.5496 54.1825 25.4142 54.1126C25.2808 54.0427 25.1764 53.9767 25.1048 53.9107C25.0333 53.8466 24.985 53.8039 24.9598 53.7845L24.5576 55.289H25.3581L24.838 57.24H20.4023L20.9225 55.289L20.9263 55.287ZM27.9414 50.5678C27.9994 50.3504 28.0342 50.1291 28.0439 49.9058C28.0536 49.6826 28.0342 49.4865 27.9859 49.3176C27.9376 49.1487 27.8602 49.009 27.7558 48.9002C27.6514 48.7915 27.5199 48.7372 27.3613 48.7372C27.0848 48.7372 26.7987 48.8905 26.5048 49.1992C26.2109 49.5079 25.9904 49.9291 25.8473 50.4649C25.7739 50.7425 25.7275 51.0007 25.7139 51.2395C25.7004 51.4783 25.7139 51.686 25.7623 51.8646C25.8106 52.0432 25.8841 52.1829 25.9924 52.2819C26.0987 52.381 26.2321 52.4314 26.3907 52.4314C26.7078 52.4314 27.0056 52.2625 27.2898 51.9248C27.5721 51.587 27.7887 51.1366 27.9414 50.5697V50.5678Z" fill="white"/>
<path d="M34.833 54.1996H30.6797L31.1998 52.2486H31.8224L32.7718 48.6903H32.1492L32.6655 46.7548H36.1073L34.6416 52.2506H35.3532L34.833 54.2015V54.1996ZM33.6632 44.5806C33.7077 44.4117 33.7889 44.2389 33.9069 44.0603C34.0248 43.8817 34.1679 43.7187 34.3419 43.5692C34.5159 43.4197 34.7151 43.2993 34.9433 43.2042C35.1714 43.1091 35.4131 43.0625 35.6703 43.0625C35.9275 43.0625 36.144 43.1091 36.3219 43.2042C36.4998 43.2993 36.6371 43.4197 36.7357 43.5692C36.8343 43.7187 36.8962 43.8817 36.9233 44.0603C36.9503 44.2389 36.9407 44.4117 36.8962 44.5806C36.784 44.9979 36.552 45.3532 36.1962 45.6463C35.8404 45.9395 35.3957 46.0851 34.862 46.0851C34.6242 46.0851 34.4212 46.0404 34.253 45.9511C34.0828 45.8618 33.9475 45.7453 33.8411 45.6017C33.7367 45.458 33.6671 45.2969 33.6362 45.1183C33.6052 44.9397 33.6129 44.7611 33.6594 44.5825L33.6632 44.5806Z" fill="white"/>
<path d="M43.2925 53.1729C42.6119 53.6485 41.939 53.9844 41.2738 54.1785C40.6087 54.3726 39.8913 54.4697 39.1198 54.4697C38.6558 54.4697 38.211 54.392 37.7876 54.2387C37.3641 54.0853 37.0103 53.8466 36.7241 53.5243C36.4399 53.202 36.2465 52.7847 36.146 52.2722C36.0454 51.7616 36.0899 51.1482 36.2813 50.4338C36.4437 49.8281 36.6912 49.2846 37.0277 48.8031C37.3641 48.3217 37.7547 47.9121 38.2014 47.5743C38.648 47.2365 39.1353 46.9803 39.667 46.8075C40.1968 46.6347 40.746 46.5474 41.3086 46.5474C41.9216 46.5474 42.4398 46.6367 42.8613 46.8153C43.2828 46.9939 43.6096 47.2423 43.8417 47.5588C44.0737 47.8771 44.211 48.2518 44.2535 48.6828C44.296 49.1137 44.2496 49.5835 44.1143 50.0902C44.0621 50.2901 43.9944 50.4843 43.9132 50.6784C43.832 50.8725 43.7392 51.0531 43.6348 51.2219H38.9632C38.9574 51.321 38.9574 51.4413 38.9632 51.5791C38.9709 51.7189 39.0115 51.8529 39.0869 51.981C39.1624 52.1091 39.2803 52.2198 39.4447 52.3091C39.609 52.3984 39.8488 52.443 40.1659 52.443C40.2935 52.443 40.4366 52.4372 40.5932 52.4275C40.7479 52.4178 40.9219 52.3887 41.1134 52.3382C41.3048 52.2877 41.5117 52.2159 41.734 52.1227C41.9564 52.0295 42.1904 51.8975 42.4321 51.7286L43.2925 53.1729ZM40.8601 48.5566C40.6319 48.5566 40.4347 48.6012 40.2684 48.6905C40.1021 48.7798 39.959 48.8866 39.841 49.0108C39.7231 49.1351 39.6284 49.2671 39.5568 49.4049C39.4853 49.5447 39.4331 49.6573 39.3983 49.7466H41.6374C41.6741 49.6068 41.6973 49.467 41.707 49.3214C41.7147 49.1778 41.6992 49.0477 41.6548 48.9351C41.6122 48.8206 41.5271 48.7294 41.4015 48.6595C41.2758 48.5896 41.096 48.5546 40.8581 48.5546L40.8601 48.5566Z" fill="white"/>
<path d="M51.1654 44.9672H50.4829L50.9992 43.0317H54.6923L52.2289 52.2644H52.9405L52.4242 54.1999H48.9534L48.849 53.6486C48.7852 53.699 48.6943 53.7592 48.5706 53.8349C48.4468 53.9106 48.296 53.9844 48.1181 54.0582C47.9402 54.1319 47.7391 54.1979 47.5168 54.2523C47.2944 54.3067 47.0546 54.3338 46.7975 54.3338C46.2735 54.3338 45.8268 54.2271 45.4594 54.0135C45.0901 53.8 44.8059 53.5127 44.6067 53.1497C44.4075 52.7866 44.2896 52.3673 44.2528 51.8917C44.218 51.4142 44.2683 50.9191 44.4056 50.4028C44.5603 49.8262 44.7923 49.304 45.1075 48.8323C45.4207 48.3605 45.7804 47.9606 46.1845 47.6326C46.5886 47.3045 47.0218 47.0521 47.4839 46.8735C47.9479 46.6949 48.4062 46.6056 48.8606 46.6056C49.3846 46.6056 49.7733 46.6775 50.0266 46.8211C50.2799 46.9648 50.4635 47.0812 50.5776 47.1705L51.1654 44.9672ZM47.5941 50.4028C47.5322 50.6318 47.4974 50.8551 47.4897 51.0725C47.48 51.2899 47.5013 51.484 47.5496 51.6529C47.598 51.8218 47.6734 51.9616 47.772 52.0703C47.8706 52.179 48.004 52.2334 48.1722 52.2334C48.4487 52.2334 48.7349 52.08 49.0308 51.7714C49.3247 51.4646 49.5451 51.0414 49.6882 50.5056C49.7617 50.228 49.8061 49.9698 49.8216 49.7311C49.8351 49.4923 49.8216 49.2846 49.7733 49.106C49.7269 48.9274 49.6495 48.7876 49.5432 48.6886C49.4368 48.5896 49.3034 48.5391 49.1448 48.5391C48.8277 48.5391 48.53 48.708 48.2457 49.0458C47.9634 49.3836 47.7469 49.8359 47.5941 50.4008V50.4028Z" fill="white"/>
<path d="M54.2086 49.7328L55.0034 46.7549H62.3452L61.8328 48.6748L57.3488 52.2487H58.9053L59.176 51.2373H61.2682L60.4774 54.1997H53.0156L53.5358 52.2487L58.0642 48.6748H56.4168L56.1345 49.7328H54.2067H54.2086Z" fill="white"/>
<path d="M65.3721 54.2002H61.2188L61.7389 52.2492H62.3615L63.3109 48.6909H62.6883L63.2046 46.7554H66.6463L65.1807 52.2512H65.8922L65.3721 54.2022V54.2002ZM63.7112 43.8066H68.1468L67.8993 45.7867H63.1833L63.7112 43.8066Z" fill="white"/>
<path d="M71.2813 51.7886C71.3026 51.709 71.3412 51.6081 71.3993 51.4838C71.4573 51.3596 71.5269 51.2237 71.6061 51.0742C71.6854 50.9247 71.7724 50.7714 71.871 50.6122C71.9677 50.453 72.0663 50.2997 72.165 50.1502L73.2787 48.6457H72.4937L72.9983 46.7549H76.8249L76.3202 48.6457H75.5487L71.4998 54.2016H69.2008L67.9246 48.6457H67.2266L67.7312 46.7549H72.2404L71.7357 48.6457H70.9932L71.2542 50.2239C71.2755 50.5113 71.2813 50.8044 71.2716 51.1033C71.26 51.4004 71.2446 51.6294 71.2233 51.7886H71.2832H71.2813Z" fill="white"/>
<path d="M79.0878 54.3937C78.5541 54.3937 78.0591 54.3122 77.6028 54.1491C77.1464 53.986 76.7694 53.7395 76.4716 53.4114C76.1738 53.0833 75.9766 52.6718 75.8819 52.1748C75.7871 51.6778 75.8277 51.1032 76.0017 50.4471C76.168 49.822 76.4329 49.2687 76.7945 48.7873C77.1542 48.3058 77.5699 47.9021 78.0378 47.574C78.5057 47.2459 79.0065 46.9974 79.5421 46.8285C80.0758 46.6596 80.596 46.5762 81.1006 46.5762C81.6846 46.5762 82.2028 46.6674 82.6591 46.8518C83.1135 47.0363 83.4809 47.2983 83.7612 47.64C84.0397 47.9836 84.2195 48.399 84.2949 48.8921C84.3723 49.3833 84.3259 49.9423 84.1596 50.5674C83.9952 51.1828 83.7438 51.7264 83.4055 52.1981C83.0671 52.6698 82.6707 53.0697 82.2182 53.3959C81.7638 53.7239 81.2708 53.9724 80.7352 54.1413C80.2015 54.3102 79.6524 54.3937 79.0878 54.3937ZM79.5963 52.4874C79.7548 52.4874 79.9095 52.4369 80.0584 52.3379C80.2073 52.2389 80.3523 52.0991 80.4877 51.9205C80.625 51.7419 80.7468 51.5303 80.857 51.2876C80.9672 51.045 81.0581 50.7829 81.1316 50.5053C81.205 50.2277 81.2514 49.9676 81.2669 49.723C81.2824 49.4803 81.2708 49.2687 81.2282 49.0901C81.1857 48.9115 81.1122 48.7698 81.0078 48.665C80.9034 48.5602 80.7603 48.5077 80.5824 48.5077C80.4335 48.5077 80.2846 48.5582 80.1358 48.6572C79.9849 48.7562 79.8419 48.896 79.7065 49.0746C79.5692 49.2532 79.4416 49.4609 79.3236 49.6997C79.2057 49.9385 79.111 50.1908 79.0394 50.4587C78.8751 51.0741 78.848 51.5652 78.9582 51.9321C79.0684 52.299 79.2811 52.4835 79.5963 52.4835V52.4874Z" fill="white"/>
<path d="M86.7214 48.6903H86.0988L86.6151 46.7548H90.0569L88.3476 53.1571C88.2238 53.625 88.0459 54.1006 87.8178 54.5878C87.5896 55.0732 87.2628 55.5216 86.8374 55.9273C86.412 56.3331 85.8687 56.6669 85.2074 56.9251C84.5461 57.1833 83.7205 57.3115 82.7305 57.3115L83.2622 55.3158C83.6876 55.3158 84.0376 55.2362 84.3122 55.077C84.5867 54.9179 84.8052 54.7276 84.9696 54.5044C85.132 54.2811 85.2557 54.0443 85.337 53.7977C85.4182 53.5512 85.482 53.3357 85.5303 53.1571L86.7233 48.6903H86.7214ZM87.6109 44.5806C87.6553 44.4117 87.7365 44.2389 87.8545 44.0603C87.9724 43.8817 88.1155 43.7187 88.2895 43.5692C88.4616 43.4197 88.6627 43.2993 88.8909 43.2042C89.1191 43.1091 89.3608 43.0625 89.6179 43.0625C89.8751 43.0625 90.0917 43.1091 90.2696 43.2042C90.4474 43.2993 90.5847 43.4197 90.6833 43.5692C90.7819 43.7187 90.8438 43.8817 90.8709 44.0603C90.898 44.2389 90.8883 44.4117 90.8438 44.5806C90.7317 44.9979 90.4996 45.3532 90.1439 45.6463C89.7881 45.9395 89.3434 46.0851 88.8097 46.0851C88.5719 46.0851 88.3688 46.0404 88.2006 45.9511C88.0324 45.8618 87.8951 45.7453 87.7887 45.6017C87.6843 45.458 87.6147 45.2969 87.5838 45.1183C87.5529 44.9397 87.5606 44.7611 87.6089 44.5825L87.6109 44.5806Z" fill="white"/>
<path d="M90.8995 46.7549H94.4883L93.5312 50.3443C93.3591 50.9888 93.2895 51.4624 93.3223 51.7672C93.3552 52.0701 93.5254 52.2215 93.8328 52.2215C94.09 52.2215 94.3375 52.1167 94.5772 51.9089C94.8151 51.7012 94.9814 51.4275 95.0703 51.0897L95.7026 48.7214H94.7242L95.2482 46.7549H99.0902L97.6323 52.2195H98.3593L97.8315 54.1996H95.0278L94.8769 53.262C94.7745 53.3513 94.6468 53.4639 94.498 53.5959C94.3491 53.7299 94.177 53.856 93.9817 53.9764C93.7864 54.0948 93.564 54.1977 93.3146 54.2812C93.0652 54.3647 92.7809 54.4074 92.4658 54.4074C91.9011 54.4074 91.4487 54.3336 91.1084 54.1841C90.7661 54.0346 90.5206 53.8114 90.3678 53.5144C90.215 53.2174 90.1493 52.8388 90.1725 52.3826C90.1957 51.9264 90.2885 51.3887 90.4529 50.7733L91.0001 48.7175H90.3775L90.9015 46.751L90.8995 46.7549Z" fill="white"/>
<path d="M102.827 54.1999H98.4219L98.942 52.249H99.5646L100.502 48.7353H99.8798L100.404 46.7688H103.208L103.3 47.6481C103.378 47.5783 103.49 47.4831 103.637 47.357C103.784 47.2327 103.952 47.1104 104.141 46.992C104.331 46.8736 104.536 46.7707 104.756 46.6872C104.977 46.6037 105.205 46.561 105.443 46.561C105.82 46.561 106.123 46.5999 106.353 46.6795C106.585 46.759 106.769 46.8542 106.908 46.9629C107.048 47.0716 107.15 47.1881 107.216 47.3143C107.282 47.4385 107.332 47.5453 107.367 47.6346C107.663 47.3764 108.02 47.1337 108.438 46.9046C108.856 46.6756 109.32 46.563 109.834 46.563C110.437 46.563 110.892 46.6659 111.199 46.8678C111.506 47.0716 111.713 47.3395 111.824 47.6714C111.932 48.0034 111.963 48.3839 111.913 48.811C111.862 49.2381 111.777 49.6787 111.655 50.1369L111.106 52.1927H111.833L111.298 54.2038H107.531L108.506 50.5562C108.533 50.4572 108.562 50.3523 108.596 50.2436C108.631 50.1349 108.664 50.0204 108.695 49.902C108.736 49.7525 108.767 49.6069 108.79 49.4632C108.813 49.3196 108.821 49.1934 108.809 49.0828C108.798 48.974 108.765 48.8847 108.711 48.8149C108.656 48.745 108.564 48.71 108.434 48.71C108.117 48.71 107.881 48.8129 107.722 49.0148C107.564 49.2186 107.442 49.4788 107.359 49.7971L106.715 52.2101H107.605L107.073 54.2058H103.231L104.244 50.4086C104.406 49.803 104.491 49.3681 104.503 49.106C104.515 48.844 104.372 48.712 104.074 48.712C103.836 48.712 103.646 48.7838 103.503 48.9274C103.36 49.0711 103.25 49.2963 103.167 49.605L102.459 52.2548H103.349L102.829 54.2058L102.827 54.1999Z" fill="white"/>
<path d="M111.742 54.1995L112.458 51.5186H114.445C114.393 51.7167 114.411 51.8817 114.499 52.0098C114.588 52.1398 114.706 52.2408 114.855 52.3146C115.002 52.3883 115.163 52.4407 115.333 52.4718C115.503 52.5009 115.642 52.5165 115.752 52.5165C115.901 52.5165 116.056 52.4835 116.217 52.4194C116.377 52.3553 116.485 52.2175 116.541 52.0098C116.578 51.87 116.507 51.7594 116.327 51.6759C116.147 51.5905 115.911 51.5089 115.621 51.4293C115.331 51.3498 115.022 51.2566 114.695 51.1459C114.368 51.0353 114.074 50.8838 113.815 50.6917C113.556 50.4995 113.366 50.2452 113.247 49.9326C113.127 49.6201 113.132 49.2202 113.262 48.7329C113.363 48.3563 113.537 48.0302 113.782 47.7565C114.028 47.4847 114.306 47.2614 114.614 47.0867C114.921 46.9139 115.238 46.7839 115.563 46.7004C115.886 46.6169 116.184 46.5742 116.449 46.5742C116.953 46.5742 117.377 46.6888 117.723 46.9159C118.067 47.145 118.276 47.4167 118.349 47.7351L118.73 46.7528H120.555L119.84 49.4337H117.912C117.955 49.2745 117.949 49.1289 117.895 48.995C117.843 48.861 117.758 48.7426 117.642 48.6378C117.526 48.533 117.386 48.4514 117.226 48.3913C117.063 48.3311 116.889 48.302 116.7 48.302C116.541 48.302 116.394 48.3447 116.259 48.4281C116.124 48.5116 116.029 48.6494 115.979 48.8377C115.934 49.0066 116.002 49.1406 116.184 49.2396C116.365 49.3386 116.599 49.4357 116.886 49.5308C117.172 49.6259 117.483 49.7307 117.818 49.8433C118.152 49.9579 118.452 50.1093 118.713 50.2976C118.974 50.4859 119.169 50.7266 119.299 51.0197C119.428 51.3129 119.432 51.6875 119.31 52.1437C119.217 52.4912 119.057 52.8038 118.831 53.0814C118.605 53.359 118.338 53.5958 118.034 53.788C117.731 53.9821 117.396 54.1277 117.034 54.2267C116.671 54.3257 116.313 54.3762 115.955 54.3762C115.422 54.3762 114.983 54.2675 114.641 54.0481C114.298 53.8307 114.076 53.5764 113.975 53.2891L113.6 54.1976H111.746L111.742 54.1995Z" fill="white"/>
<path d="M38.9857 13.0916H38.9876H38.9857ZM38.9857 13.0916L36.7292 21.5478C34.608 21.5478 32.8852 21.8992 31.5588 22.6039C30.2323 23.3086 29.2926 24.6946 28.7415 26.7621L27.4499 31.5997H29.7895L28.1479 37.7536H14.9067L16.5483 31.5997H18.6076L21.6046 20.3734H19.5937L21.2237 14.268H30.0196L30.621 17.2751C31.0831 16.7121 31.553 16.1783 32.0306 15.6774C32.5062 15.1766 33.0631 14.7301 33.6973 14.3379C34.3315 13.9458 35.0682 13.641 35.9074 13.4217C36.7447 13.2042 37.7733 13.0936 38.9896 13.0936M38.9876 10.5854H38.9857C37.5452 10.5854 36.3309 10.7194 35.2771 10.9951C34.2001 11.2785 33.2294 11.6842 32.3883 12.2025C32.2027 12.3171 32.0209 12.4355 31.8449 12.5597C31.3848 12.0647 30.7312 11.7619 30.0177 11.7619H21.2218C20.0926 11.7619 19.1026 12.5228 18.8106 13.6197L17.1806 19.725C16.9795 20.4782 17.138 21.2819 17.6118 21.8992C17.8341 22.1904 18.1126 22.4233 18.4277 22.5903L16.6914 29.0936H16.5483C15.4191 29.0936 14.4291 29.8565 14.1371 30.9514L12.4955 37.1052C12.2944 37.8584 12.4529 38.6621 12.9267 39.2794C13.3985 39.8967 14.1313 40.2598 14.9067 40.2598H28.1479C29.2771 40.2598 30.2671 39.4968 30.5591 38.402L32.2007 32.2481C32.4018 31.4949 32.2433 30.6912 31.7695 30.0739C31.4814 29.6953 31.0947 29.4139 30.6616 29.2508L31.1527 27.4105C31.5143 26.0535 32.0441 25.1819 32.7267 24.8208C33.6838 24.3122 34.4476 24.0657 36.1472 24.0657C37.2764 24.0657 40.0782 17.3993 40.5094 17.0732L41.3737 13.8313C41.4452 13.5983 41.4839 13.3498 41.4839 13.0916C41.4839 11.7075 40.3682 10.5854 38.9896 10.5854H38.9876Z" fill="white"/>
<path d="M52.3677 13.6097C54.3013 13.6097 55.9352 13.8912 57.2655 14.4542C58.5959 15.0171 59.6265 15.8014 60.3574 16.8031C61.0883 17.8048 61.5214 18.987 61.6567 20.3498C61.7921 21.7126 61.6471 23.1918 61.2217 24.7876C61.0534 25.4146 60.8427 26.0319 60.5855 26.6434C60.3283 27.2549 60.0364 27.8256 59.7057 28.3576H44.9679C44.9466 28.6701 44.9466 29.0467 44.9698 29.4854C44.993 29.9242 45.1226 30.3474 45.3565 30.7531C45.5905 31.1608 45.9656 31.5044 46.4838 31.7858C47.0001 32.0693 47.7581 32.209 48.7577 32.209C49.1638 32.209 49.6104 32.1935 50.1035 32.1625C50.5946 32.1314 51.1419 32.0382 51.7471 31.881C52.3503 31.7257 53.0039 31.4985 53.7058 31.1996C54.4077 30.9026 55.1425 30.4871 55.9101 29.9552L58.6249 34.5114C56.4766 36.0139 54.3536 37.0719 52.2575 37.6815C50.1596 38.2911 47.8954 38.5978 45.4629 38.5978C43.9953 38.5978 42.5954 38.3551 41.2593 37.8698C39.9212 37.3845 38.8055 36.6332 37.9064 35.616C37.0092 34.5988 36.4001 33.2826 36.083 31.6694C35.764 30.0562 35.9071 28.1227 36.5084 25.8688C37.0189 23.9586 37.802 22.2445 38.8635 20.7264C39.9231 19.2083 41.1568 17.9154 42.5644 16.8516C43.9702 15.7878 45.5132 14.9802 47.1877 14.4328C48.8621 13.8854 50.5888 13.6116 52.3658 13.6116M46.3504 23.7082H53.4158C53.5337 23.2695 53.6052 22.823 53.6323 22.3687C53.6594 21.9145 53.6052 21.5068 53.468 21.1477C53.3307 20.7885 53.0638 20.4993 52.6713 20.278C52.2769 20.0606 51.7065 19.9499 50.9582 19.9499C50.2099 19.9499 49.6182 20.0916 49.0903 20.3731C48.5624 20.6546 48.1138 20.9924 47.7445 21.3826C47.3733 21.7747 47.0774 22.1901 46.8512 22.6269C46.625 23.0656 46.4587 23.4248 46.3523 23.7082M52.3677 11.1035C50.3355 11.1035 48.3343 11.4219 46.4162 12.0489C44.4864 12.6818 42.6863 13.6233 41.064 14.8482C39.4533 16.0693 38.0263 17.5621 36.8217 19.2879C35.5977 21.039 34.6831 23.0365 34.0992 25.2205C33.3992 27.8412 33.2445 30.1746 33.637 32.1586C34.0412 34.2047 34.8494 35.9285 36.0424 37.2797C37.2161 38.6094 38.6876 39.6014 40.4143 40.2284C42.0172 40.8108 43.7169 41.1059 45.4668 41.1059C48.1216 41.1059 50.643 40.7642 52.9575 40.0906C55.3049 39.4073 57.6929 38.2212 60.0557 36.5691C61.1308 35.8159 60.1389 34.525 60.425 33.1797L59.3654 30.8657H59.7096C60.572 30.8657 60.6938 30.0387 61.1501 29.303C61.5465 28.6623 62.0512 27.9111 62.3567 27.1831C62.6564 26.4706 63.4414 26.1717 63.6367 25.4379C64.1395 23.5548 64.3096 21.7592 64.1453 20.1013C63.9654 18.294 63.3699 16.6866 62.376 15.3238C61.3764 13.9552 59.9861 12.8856 58.2401 12.146C56.6062 11.4549 54.632 11.1035 52.3716 11.1035H52.3677Z" fill="white"/>
<path d="M76.9795 12.9051C78.3833 12.9051 79.7948 13.0545 81.2121 13.3516C82.6294 13.6505 83.8573 14.1669 84.8937 14.9026C85.9282 15.6384 86.6784 16.6342 87.1386 17.8844C87.5988 19.1385 87.5794 20.7032 87.0786 22.5823L84.6346 31.7432H87.4422L85.8373 37.7553H75.8251L75.2663 35.6413C74.6708 36.2353 74.0482 36.7303 73.3985 37.1205C72.7469 37.5126 72.1049 37.8174 71.4687 38.0368C70.8326 38.2562 70.2216 38.4134 69.6357 38.5066C69.0479 38.6017 68.5529 38.6483 68.1468 38.6483C67.0234 38.6483 65.958 38.4911 64.9506 38.1785C63.9413 37.864 63.0847 37.3962 62.3789 36.7691C61.6732 36.1421 61.1782 35.3365 60.8959 34.3503C60.6136 33.3641 60.6561 32.1819 61.0235 30.8036C61.3735 29.4894 61.9497 28.2994 62.7482 27.2336C63.5468 26.1698 64.4904 25.2613 65.581 24.51C66.6696 23.7587 67.8607 23.1783 69.1562 22.7726C70.4497 22.3668 71.753 22.1611 73.062 22.1611C73.7485 22.1611 74.3459 22.2309 74.8545 22.3727C75.363 22.5124 75.7865 22.6774 76.1268 22.8657C76.4671 23.054 76.7281 23.2423 76.9118 23.4287C77.0955 23.617 77.2096 23.7432 77.256 23.8053L77.6949 22.1611C77.9792 21.0972 77.7471 20.3926 76.9969 20.047C76.2467 19.7034 75.2315 19.5306 73.9534 19.5306C72.5496 19.5306 71.2019 19.7655 69.9064 20.2353C68.6109 20.7051 67.4449 21.1904 66.4066 21.6913L65.8961 16.2421C66.4395 15.9606 67.1201 15.6325 67.938 15.2559C68.7559 14.8793 69.657 14.5124 70.6431 14.1514C71.6273 13.7922 72.6579 13.4933 73.7349 13.2584C74.81 13.0235 75.8947 12.907 76.9872 12.907M71.927 32.5391C72.6444 32.5391 73.3134 32.3683 73.936 32.0227C74.5586 31.6791 75.0246 31.3336 75.334 30.99L75.8097 29.2059C75.7961 29.1438 75.7517 29.0409 75.682 28.9012C75.6105 28.7594 75.4848 28.6119 75.3089 28.4547C75.1329 28.2994 74.897 28.1576 74.6031 28.0315C74.3092 27.9072 73.9109 27.8432 73.4139 27.8432C72.4781 27.8432 71.7298 28.0781 71.1671 28.5478C70.6044 29.0176 70.2274 29.6136 70.036 30.3338C69.86 30.9919 69.9528 31.5238 70.3125 31.9315C70.6721 32.3392 71.2096 32.541 71.927 32.541M81.0729 5.39621C79.8064 5.39621 76.2563 5.46416 74.9299 5.51269C73.091 5.53404 70.152 5.32827 69.0595 5.72817C66.7295 7.17248 69.2026 11.4161 66.8919 12.9749C66.0373 13.369 65.3083 13.7204 64.7302 14.0213C63.8291 14.4891 63.309 15.4617 63.4057 16.4751L63.9161 21.9242C63.9355 22.1319 63.9799 22.3319 64.0476 22.5241C62.7889 23.4112 61.6809 24.4867 60.7528 25.7252C59.7628 27.0434 59.0435 28.5343 58.6104 30.1552C58.125 31.9723 58.0864 33.6165 58.4943 35.0433C58.9081 36.4896 59.6584 37.7029 60.7238 38.6483C61.6906 39.5063 62.8643 40.1547 64.2081 40.5721C65.4533 40.9584 66.7779 41.1545 68.143 41.1545C68.6844 41.1545 69.3012 41.0982 70.0263 40.9817C70.7456 40.8672 71.5016 40.673 72.2751 40.409C72.8899 40.1974 73.5068 39.9237 74.1197 39.5898C74.5702 40.0111 75.1716 40.2615 75.8213 40.2615H85.8334C86.9626 40.2615 87.9526 39.4986 88.2446 38.4037L89.8398 32.4265C89.9481 32.0188 89.9752 31.5859 89.8746 31.1763C89.6232 30.1455 88.815 29.4408 87.8753 29.2739L89.4879 23.2307C90.1221 20.8507 90.1202 18.7599 89.4782 17.0167C88.8421 15.287 87.7844 13.8873 86.3342 12.8565C85.0677 11.9558 83.807 12.3654 86.7809 9.2807C86.9878 9.06716 87.1154 8.78956 87.1657 8.49448C87.4093 7.06182 88.3993 5.35156 84.8105 5.35156L81.0729 5.39621Z" fill="white"/>
<path d="M108.01 2.52327L100.251 31.5997H103.012L101.37 37.7535H87.7075L89.3491 31.5997H91.36L97.503 8.58199H95.5385L97.155 2.52327H108.01ZM103.01 31.5997H103.012H103.01ZM108.01 0.0170898H97.155C96.0258 0.0170898 95.0358 0.778069 94.7438 1.87489L93.1273 7.9336C92.9262 8.68682 93.0848 9.49051 93.5585 10.1078C93.7712 10.3854 94.0361 10.6126 94.3339 10.7776L89.4458 29.0935H89.3491C88.2199 29.0935 87.2299 29.8564 86.9379 30.9513L85.2963 37.1051C85.0952 37.8583 85.2537 38.662 85.7275 39.2794C86.1993 39.8967 86.9321 40.2597 87.7075 40.2597H101.37C102.499 40.2597 103.489 39.4968 103.781 38.4019L105.4 32.3393C105.471 32.1063 105.51 31.8579 105.51 31.5997C105.51 30.3806 104.642 29.3633 103.493 29.1401L110.423 3.1736C110.624 2.42039 110.466 1.6167 109.992 0.999374C109.52 0.382049 108.787 0.0190311 108.012 0.0190311L108.01 0.0170898Z" fill="white"/>
<path d="M117.623 13.7069C117.633 13.7069 117.643 13.7069 117.652 13.7069C119.244 13.7127 120.58 14.0777 121.665 14.8017C122.747 15.5278 123.403 16.3897 123.633 17.3933L124.847 14.297L130.602 14.3184L128.314 22.7649L122.231 22.7416C122.367 22.2426 122.351 21.7787 122.185 21.3555C122.018 20.9323 121.754 20.5557 121.39 20.2237C121.027 19.8937 120.59 19.6336 120.079 19.4433C119.569 19.2531 119.016 19.158 118.424 19.156C118.42 19.156 118.416 19.156 118.414 19.156C117.919 19.156 117.457 19.288 117.03 19.5501C116.599 19.8141 116.303 20.2451 116.142 20.8391C115.999 21.371 116.212 21.7942 116.782 22.1087C117.353 22.4251 118.089 22.7318 118.99 23.0327C119.892 23.3336 120.872 23.6675 121.928 24.0306C122.983 24.3955 123.923 24.877 124.745 25.4729C125.567 26.0708 126.18 26.8338 126.586 27.7578C126.992 28.6838 126.997 29.866 126.609 31.3045C126.313 32.3994 125.803 33.3836 125.083 34.2572C124.362 35.1308 123.521 35.8723 122.562 36.48C121.601 37.0876 120.547 37.5457 119.402 37.8544C118.273 38.1592 117.154 38.3106 116.046 38.3106C116.03 38.3106 116.015 38.3106 116.001 38.3106C114.317 38.3047 112.936 37.9553 111.859 37.2623C110.782 36.5693 110.086 35.7694 109.771 34.859L108.574 37.7204L102.725 37.6991L105.013 29.2526L111.283 29.2759C111.113 29.9029 111.169 30.4193 111.448 30.827C111.728 31.2346 112.101 31.5569 112.567 31.7937C113.033 32.0306 113.536 32.1975 114.071 32.2926C114.607 32.3877 115.046 32.4382 115.39 32.4382C115.394 32.4382 115.398 32.4382 115.402 32.4382C115.866 32.4382 116.349 32.3392 116.852 32.1393C117.359 31.9374 117.703 31.5083 117.881 30.8522C117.999 30.4135 117.774 30.0621 117.208 29.7923C116.639 29.5244 115.899 29.2642 114.984 29.0099C114.069 28.7556 113.097 28.4547 112.068 28.1072C111.038 27.7597 110.115 27.2783 109.297 26.6649C108.479 26.0514 107.886 25.2497 107.513 24.2616C107.139 23.2735 107.161 22.0136 107.576 20.48C107.897 19.2919 108.449 18.2689 109.228 17.4089C110.007 16.5508 110.883 15.85 111.859 15.3045C112.834 14.761 113.834 14.3572 114.856 14.0951C115.868 13.8369 116.79 13.7069 117.625 13.7069M117.623 11.2007C116.587 11.2007 115.448 11.3579 114.238 11.6666C113.012 11.9811 111.801 12.4683 110.643 13.1148C109.437 13.7884 108.338 14.6659 107.379 15.7219C106.335 16.875 105.589 18.2533 105.163 19.8238C104.608 21.8719 104.612 23.6637 105.173 25.1507C105.39 25.7253 105.662 26.2611 105.987 26.7542L105.016 26.7503C105.016 26.7503 105.011 26.7503 105.007 26.7503C103.881 26.7503 102.893 27.5074 102.597 28.5984L100.31 37.0449C100.107 37.7961 100.262 38.6018 100.733 39.221C101.205 39.8403 101.934 40.2053 102.71 40.2091L108.559 40.2305C108.559 40.2305 108.565 40.2305 108.568 40.2305C109.311 40.2305 110.001 39.9005 110.467 39.3511C110.481 39.3589 110.494 39.3686 110.508 39.3763C111.985 40.3276 113.83 40.8129 115.986 40.8206H116.04C117.36 40.8206 118.706 40.6382 120.044 40.279C121.427 39.9063 122.72 39.3433 123.886 38.6056C125.066 37.8602 126.114 36.9361 127.001 35.8607C127.947 34.7153 128.624 33.405 129.012 31.9665C129.554 29.967 129.505 28.214 128.867 26.7542C128.635 26.2242 128.353 25.7292 128.026 25.271H128.301C128.301 25.271 128.307 25.271 128.31 25.271C129.436 25.271 130.424 24.5139 130.72 23.4229L133.007 14.9765C133.21 14.2252 133.055 13.4196 132.584 12.8003C132.114 12.181 131.383 11.8161 130.607 11.8122L124.853 11.7908C124.853 11.7908 124.847 11.7908 124.843 11.7908C124.107 11.7908 123.422 12.117 122.956 12.6566C121.477 11.6976 119.696 11.2084 117.66 11.2007H117.621H117.623Z" fill="white"/>
<path d="M102.666 65.9544C102.666 67.3929 101.57 68.2995 99.8449 68.2995H98.9516V69.8273H96.8633V63.6113H99.8429C101.568 63.6113 102.664 64.5179 102.664 65.9564L102.666 65.9544ZM100.562 65.9544C100.562 65.5021 100.288 65.2265 99.7134 65.2265H98.9535V66.6824H99.7134C100.288 66.6824 100.562 66.4068 100.562 65.9544Z" fill="url(#paint18_linear_768_476)"/>
<path d="M107.255 68.7441H104.902L104.486 69.8273H102.363L105.07 63.6113H107.122L109.829 69.8273H107.671L107.255 68.7441ZM106.681 67.2337L106.08 65.671L105.478 67.2337H106.681Z" fill="url(#paint19_linear_768_476)"/>
<path d="M109.777 69.3285L110.45 67.8007C111.034 68.1462 111.811 68.3695 112.494 68.3695C113.086 68.3695 113.298 68.2452 113.298 68.0317C113.298 67.2494 109.876 67.8803 109.876 65.5624C109.876 64.4073 110.841 63.4658 112.759 63.4658C113.59 63.4658 114.449 63.6444 115.095 64.0074L114.466 65.5255C113.857 65.2149 113.281 65.0635 112.742 65.0635C112.131 65.0635 111.937 65.2401 111.937 65.4537C111.937 66.1991 115.36 65.5779 115.36 67.8686C115.36 69.0062 114.395 69.9652 112.477 69.9652C111.442 69.9652 110.398 69.707 109.779 69.3265L109.777 69.3285Z" fill="url(#paint20_linear_768_476)"/>
<path d="M120.197 68.7442H117.843L117.428 69.8274H115.305L118.012 63.6114H120.063L122.77 69.8274H120.612L120.197 68.7442ZM120.897 62.9184H117.182V61.8701H120.897V62.9184ZM119.622 67.2339L119.021 65.6711L118.42 67.2339H119.622Z" fill="url(#paint21_linear_768_476)"/>
<path d="M125.629 67.7656L125.161 68.2898V69.8253H123.109V63.6094H125.161V65.8651L127.195 63.6094H129.469L126.992 66.3446L129.593 69.8253H127.178L125.629 67.7656Z" fill="url(#paint22_linear_768_476)"/>
<path d="M129.732 67.0299V63.6113H131.821V66.9678C131.821 67.9171 132.184 68.2723 132.766 68.2723C133.348 68.2723 133.712 67.9171 133.712 66.9678V63.6113H135.763V67.0299C135.763 68.8935 134.65 69.969 132.747 69.969C130.844 69.969 129.73 68.8935 129.73 67.0299H129.732Z" fill="url(#paint23_linear_768_476)"/>
<path d="M142.245 69.8273L142.228 66.995L140.884 69.2682H139.963L138.619 67.092V69.8273H136.719V63.6113H138.434L140.451 66.9231L142.415 63.6113H144.13L144.148 69.8273H142.247H142.245Z" fill="url(#paint24_linear_768_476)"/>
<path d="M145.156 63.6113H147.245V69.8273H145.156V63.6113Z" fill="url(#paint25_linear_768_476)"/>
<path d="M157.009 63.6113V69.8273H155.294L152.94 67.0027V69.8273H150.906V63.6113H152.621L154.975 66.4339V63.6113H157.009Z" fill="url(#paint26_linear_768_476)"/>
<path d="M157.77 66.7194C157.77 64.8364 159.247 63.4697 161.264 63.4697C163.28 63.4697 164.758 64.8383 164.758 66.7194C164.758 68.6005 163.28 69.9691 161.264 69.9691C159.247 69.9691 157.77 68.6025 157.77 66.7194ZM162.652 66.7194C162.652 65.7507 162.033 65.1645 161.264 65.1645C160.494 65.1645 159.875 65.7507 159.875 66.7194C159.875 67.6881 160.494 68.2724 161.264 68.2724C162.033 68.2724 162.652 67.6862 162.652 66.7194Z" fill="url(#paint27_linear_768_476)"/>
<path d="M172.388 68.7441H170.035L169.619 69.8273H167.496L170.203 63.6113H172.255L174.962 69.8273H172.804L172.388 68.7441ZM171.814 67.2337L171.212 65.671L170.611 67.2337H171.814Z" fill="url(#paint28_linear_768_476)"/>
<path d="M174.926 65.9102H177.579V67.4205H174.926V65.9102Z" fill="url(#paint29_linear_768_476)"/>
<path d="M184.034 68.2005V69.8253H178.348V68.5383L181.178 65.2342H178.437V63.6094H183.893V64.8964L181.062 68.2005H184.034Z" fill="url(#paint30_linear_768_476)"/>
<path d="M69.1358 10.2924C69.188 10.2729 69.2905 10.2632 69.4452 10.2632C69.4703 10.2632 69.509 10.1953 69.5612 10.0613C69.6134 9.92739 69.6443 9.84974 69.6579 9.83033C69.7101 9.86915 69.7739 9.95457 69.8512 10.0885C69.7468 10.3952 69.6965 10.5777 69.6965 10.636C69.6965 10.6942 69.7101 10.7311 69.7352 10.7505L69.7545 10.7796C69.9479 10.9718 70.1413 11.0766 70.3346 11.096C70.4255 11.2688 70.5086 11.428 70.586 11.5717C70.6633 11.7153 70.8045 11.7871 71.0114 11.7871L71.0887 11.8706L71.0694 11.8163L71.108 11.7871L71.1467 11.9308H71.1429L71.3014 12.1036C71.3788 12.0259 71.4368 11.9793 71.4754 11.9599C71.4368 11.9599 71.4116 11.9502 71.3981 11.9308C71.3981 11.9114 71.4116 11.8823 71.4368 11.8454H71.5528L71.6301 11.989C71.7461 11.9114 71.8293 11.892 71.8815 11.9308C71.895 11.9114 71.926 11.9114 71.9782 11.9308C72.0168 11.9696 72.0497 11.989 72.0748 11.989C72.1 11.989 72.1386 11.9599 72.1909 11.9036C72.2431 11.8454 72.274 11.8182 72.2875 11.8182C72.6743 11.7405 72.9836 11.7037 73.2157 11.7037C73.3065 11.7037 73.409 11.7134 73.525 11.7328L77.7248 11.4163C77.893 11.3969 78.1367 11.3581 78.4596 11.3018L75.9826 11.129C75.9575 11.129 75.9285 11.1485 75.8956 11.1873C75.8627 11.2261 75.8337 11.2455 75.8086 11.2455C75.7835 11.2455 75.7603 11.2261 75.7409 11.1873C75.7216 11.1485 75.6984 11.129 75.6733 11.129C75.6095 11.129 75.4934 11.1679 75.3252 11.2436C75.3001 11.2048 75.2923 11.1756 75.3059 11.1582C75.3968 11.0999 75.4606 11.0533 75.4992 11.0145C76.0406 10.9757 76.4738 10.9563 76.7947 10.9563C76.8083 10.9563 76.8469 10.9271 76.9108 10.8709C76.9746 10.8126 77.021 10.7854 77.0461 10.7854C77.1873 10.7854 77.398 10.7427 77.6745 10.6554C77.951 10.57 78.1618 10.5253 78.3029 10.5253L78.3996 10.6398L78.4963 10.4962C78.535 10.5544 78.5601 10.601 78.5736 10.6398L80.3932 10.4088C80.457 10.4088 80.515 10.4477 80.5672 10.5234C80.5807 10.5234 80.6097 10.4845 80.6542 10.4088C80.6987 10.3312 80.7412 10.2943 80.7799 10.2943C80.805 10.2943 80.8417 10.3176 80.8862 10.3661C80.9307 10.4147 80.9597 10.4379 80.9732 10.4379C81.0254 10.4379 81.1047 10.4244 81.2149 10.3952C81.3252 10.3661 81.4044 10.3525 81.4566 10.3525C81.4702 10.3525 81.5011 10.3661 81.5533 10.3952C81.6055 10.4244 81.6442 10.4379 81.6693 10.4379C81.708 10.4379 81.7602 10.4282 81.824 10.4088C81.8878 10.3894 81.94 10.3797 81.9787 10.3797H82.6941C82.7966 10.3603 82.8237 10.3506 82.7715 10.3506H83.2742C83.5314 10.3506 83.7054 10.3215 83.7963 10.2632L83.8543 10.205C83.8794 10.205 83.9258 10.2147 83.9896 10.2341C84.0535 10.2535 84.0999 10.2632 84.125 10.2632C84.357 10.2632 84.5117 10.1662 84.5891 9.97592C84.6142 9.97592 84.6335 9.98563 84.6471 10.005C84.6993 9.92739 84.7959 9.89051 84.9371 9.89051C84.9622 9.89051 85.0086 9.9041 85.0725 9.93322C85.1363 9.96233 85.1827 9.97592 85.2078 9.97592C85.2329 9.97592 85.2793 9.95651 85.3432 9.91768C85.407 9.87886 85.4534 9.85945 85.4785 9.85945C85.7879 9.80121 85.9619 9.77403 86.0006 9.77403C85.9619 9.77403 85.9039 9.76044 85.8266 9.73132C85.7492 9.7022 85.6912 9.68861 85.6525 9.68861C85.5365 9.68861 85.3722 9.70803 85.1595 9.74685C84.9468 9.78568 84.7824 9.80509 84.6664 9.80509L84.0283 9.89051C83.7441 9.92933 83.454 9.90021 83.1582 9.80509C83.3902 9.63232 84.0283 9.5469 85.0744 9.5469C85.2039 9.5469 85.3258 9.46149 85.4418 9.28871C85.0551 9.40325 84.7321 9.46149 84.475 9.46149C84.4614 9.46149 84.4363 9.4479 84.3976 9.41878C84.359 9.38966 84.3261 9.37607 84.3009 9.37607L84.2236 9.46149C83.9258 9.51972 83.688 9.5469 83.5082 9.5469C83.483 9.5469 83.4502 9.53331 83.4115 9.50419C83.3728 9.47507 83.3477 9.46149 83.3342 9.46149C83.309 9.46149 83.2723 9.47119 83.2278 9.4906C83.1833 9.51002 83.1466 9.51972 83.1215 9.51972C83.0693 9.51972 82.9996 9.49643 82.9223 9.4576C82.9513 9.45954 82.99 9.46149 83.0441 9.46149C83.0692 9.46149 83.1311 9.41878 83.2278 9.33142C83.3245 9.24406 83.3864 9.20135 83.4115 9.20135C83.4366 9.20135 83.4598 9.21106 83.4792 9.23047C83.4985 9.24989 83.514 9.25959 83.5275 9.25959C83.5275 9.14506 83.5797 9.0577 83.6822 9.0014C83.7209 8.92569 83.746 8.86746 83.7595 8.82863L83.9529 8.77039C84.0825 8.77039 84.2101 8.81892 84.3396 8.91405C84.3261 8.87522 84.3203 8.83834 84.3203 8.79951C84.3203 8.70439 84.3648 8.65586 84.4556 8.65586C84.4692 8.58015 84.475 8.52191 84.475 8.48308L84.591 8.31031C84.4866 8.34914 84.4034 8.36855 84.3396 8.36855C84.3009 8.48308 84.2681 8.56073 84.2429 8.59956C84.2043 8.48502 84.1791 8.39767 84.1656 8.34137C84.036 8.62868 83.9142 8.77233 83.7982 8.77233C83.7073 8.77233 83.6165 8.74321 83.5275 8.68692C83.6049 8.64809 83.6571 8.62868 83.6822 8.62868C83.6822 8.53356 83.688 8.47532 83.7015 8.45591C83.7267 8.47532 83.746 8.48502 83.7595 8.48502C83.7847 8.48502 83.7943 8.47144 83.7885 8.44232C83.7827 8.4132 83.7924 8.39961 83.8175 8.39961C83.8562 8.39961 83.8891 8.41902 83.9142 8.45785C83.8756 8.39961 83.8814 8.37243 83.9336 8.37243C83.8698 8.39184 83.8311 8.37243 83.8175 8.31419C83.8698 8.23848 83.8949 8.18024 83.8949 8.14142C83.8176 8.14142 83.7653 8.12201 83.7402 8.08318C83.804 7.92982 83.8891 7.85217 83.9916 7.85217H83.8949C83.804 7.77646 83.7073 7.73763 83.6049 7.73763C83.541 7.73763 83.4695 7.75705 83.3922 7.79587L83.3148 7.68134C83.6493 7.54739 83.8311 7.47944 83.8562 7.47944H83.4308C83.4057 7.44062 83.398 7.42121 83.4115 7.42121C83.63 7.32608 83.7537 7.27755 83.7789 7.27755L84.1849 7.30667C84.4556 7.32608 84.6625 7.33579 84.8037 7.33579C84.8424 7.33579 84.9042 7.36103 84.9874 7.40762C85.0705 7.45615 85.1189 7.47944 85.1324 7.47944C85.2735 7.47944 85.4669 7.44062 85.7125 7.36491V6.96112H85.4611C85.4746 6.96112 85.4418 6.90289 85.3644 6.78835L85.4611 6.6447C85.4224 6.6447 85.3702 6.63499 85.3064 6.61558C85.2426 6.59617 85.1904 6.58646 85.1517 6.58646C85.1266 6.58646 85.1092 6.60005 85.1034 6.62917C85.0976 6.65829 85.0744 6.67187 85.0357 6.67187C85.0106 6.67187 84.9777 6.64858 84.939 6.60005C84.9004 6.55152 84.8675 6.52822 84.8424 6.52822L84.0689 6.58646C83.5527 6.62528 83.1601 6.6447 82.8894 6.6447C82.8372 6.60587 82.7927 6.58646 82.7541 6.58646L82.6961 6.67382C82.6052 6.63499 82.5278 6.60587 82.464 6.58646C82.464 6.6447 82.4582 6.69323 82.4447 6.73011C82.3925 6.63499 82.2823 6.58646 82.116 6.58646C82.1682 6.66411 82.1798 6.7107 82.1547 6.73011C82.1295 6.73011 82.0773 6.73982 82 6.75923H81.8646C81.8395 6.75923 81.7969 6.74564 81.7389 6.71652C81.7196 6.70682 81.7099 6.70876 81.6925 6.70099L81.826 6.6447V6.55928L81.6906 6.61752V6.70293C81.6597 6.69129 81.6249 6.67576 81.6036 6.67576C81.5707 6.67576 81.5552 6.66217 81.5552 6.63305C81.5552 6.60393 81.5494 6.59034 81.5359 6.59034C81.4721 6.68741 81.4199 6.734 81.3812 6.734L80.6078 6.67576C80.3506 6.65634 79.931 6.64664 79.351 6.64664C79.2736 6.64664 79.1595 6.66023 79.0126 6.68935C78.8637 6.71847 78.7515 6.73205 78.6742 6.73205C78.5717 6.73205 78.4673 6.70294 78.3648 6.6447C78.3784 6.62528 78.3648 6.58646 78.3261 6.53016C77.7074 6.66411 77.2356 6.73205 76.9146 6.73205C76.9398 6.75147 76.9398 6.78059 76.9146 6.81747C76.8624 6.81747 76.7947 6.82718 76.7116 6.84659C76.6285 6.866 76.5588 6.87571 76.5086 6.87571C76.4834 6.87571 76.4409 6.86212 76.3829 6.833C76.3249 6.80388 76.2823 6.79029 76.2572 6.79029C76.3481 6.79029 76.3868 6.83882 76.3732 6.93395L76.3152 7.0213C76.1083 6.94559 75.9672 6.90677 75.8898 6.90677L75.8318 6.84853L75.8898 6.76311L76.1799 6.84853C75.9343 6.734 75.7081 6.67576 75.5031 6.67576C75.4393 6.67576 75.3523 6.68546 75.2421 6.70488C75.1319 6.72429 75.0506 6.734 75.0004 6.734L71.3826 6.90677C71.2531 6.96501 71.1699 6.99219 71.1313 6.99219C70.9108 6.99219 70.789 6.94365 70.7639 6.84853C70.7639 6.80971 70.7832 6.7437 70.8219 6.64664C70.7967 6.5321 70.789 6.42727 70.8025 6.33021C70.7503 6.33021 70.7117 6.3108 70.6865 6.27197C70.5956 6.33021 70.5183 6.37874 70.4545 6.41563C70.2863 6.66605 70.2031 6.83882 70.2031 6.93395C70.2031 6.95336 70.2167 7.0116 70.2418 7.10672C70.2669 7.20378 70.2805 7.27949 70.2805 7.33773L70.1064 7.48139C70.002 7.32803 69.9247 7.25037 69.8744 7.25037C69.7835 7.25037 69.7004 7.48139 69.623 7.94147C69.5708 8.13365 69.5264 8.24819 69.4877 8.28701C69.5515 8.28701 69.6482 8.35496 69.7777 8.48891V8.77622C69.6733 8.92958 69.6037 9.07323 69.565 9.20718C69.5264 9.41878 69.5012 9.58184 69.4877 9.69638C69.3059 9.63814 69.1706 9.62843 69.0816 9.66726C69.0816 9.68667 69.0758 9.71967 69.0623 9.76821C69.0488 9.81674 69.043 9.85945 69.043 9.89827C69.043 9.9371 69.0623 10.0031 69.101 10.1002C69.1397 10.1953 69.1532 10.2632 69.1396 10.3021L69.1358 10.2924ZM84.1888 10.0905L84.1501 10.1487L84.0341 10.0905H84.1888ZM84.1308 8.65197H84.2468V8.73739H84.1308V8.65197ZM85.0995 6.75147H85.2155V6.83688H85.0995V6.75147ZM84.5368 6.69517L84.7495 6.75341V6.83882L84.5368 6.78059V6.69517ZM83.7634 6.66605C83.9568 6.72429 84.1695 6.75147 84.4015 6.75147C84.1308 6.75147 83.8852 6.77088 83.6667 6.80971L83.7634 6.66605ZM82.6806 9.86139H82.5452V9.77597H82.6806V9.86139ZM82.6806 9.02664C82.7193 8.9684 82.7773 8.93928 82.8546 8.93928C82.8798 8.93928 82.9184 8.98781 82.9706 9.08294C82.8024 9.08294 82.7057 9.06352 82.6806 9.0247V9.02664ZM82.8159 8.73739V8.65197H82.932V8.73739H82.8159ZM82.99 9.77403V9.85945H82.8546V9.77403H82.99ZM82.7193 9.25571C82.7328 9.25571 82.7637 9.246 82.8159 9.22659C82.8682 9.20718 82.9068 9.19747 82.932 9.19747C82.9068 9.19747 82.9126 9.22659 82.9513 9.28289C82.99 9.22465 83.0093 9.17806 83.0093 9.13923L83.1253 9.31201C82.9436 9.29259 82.8082 9.27318 82.7193 9.25377V9.25571ZM83.7827 8.24819C83.7576 8.30643 83.7441 8.35496 83.7441 8.39184L83.57 8.30449C83.6609 8.30449 83.7305 8.28507 83.7827 8.24625V8.24819ZM83.512 8.10453H83.6861V8.18995H83.512V8.10453ZM83.4347 8.99752H83.512C83.5256 8.92181 83.5836 8.86357 83.6861 8.82475C83.5449 9.03635 83.454 9.14118 83.4154 9.14118H83.164C83.0731 9.14118 83.0286 9.08294 83.0286 8.9684C82.99 8.98781 83.1253 8.99752 83.4347 8.99752ZM83.2027 6.69517L83.338 6.75341V6.83882L83.2027 6.78059V6.69517ZM83.048 6.70876C83.0867 6.73788 83.1195 6.75147 83.1447 6.75147C83.0925 6.75147 83.048 6.77088 83.0093 6.80971C82.9842 6.75147 82.9706 6.70488 82.9706 6.66605C82.9842 6.66605 83.0093 6.67964 83.048 6.70876ZM83.2413 7.67357C83.0209 7.78811 82.932 7.84635 82.9706 7.84635C82.9455 7.84635 82.932 7.83664 82.932 7.81723C82.932 7.79781 82.9184 7.78811 82.8933 7.78811C82.8682 7.78811 82.8585 7.8017 82.8643 7.83082C82.8701 7.85993 82.8604 7.87352 82.8353 7.87352C82.8218 7.87352 82.7811 7.84052 82.7096 7.77258C82.6381 7.70463 82.5839 7.67163 82.5452 7.67163H83.2413V7.67357ZM82.4679 9.25571H82.5839V9.34113H82.4679V9.25571ZM82.4872 9.77403V9.85945H82.3132V9.77403H82.4872ZM82.2939 7.64445L82.3906 7.58622L82.4099 7.64445L82.2939 7.70269V7.64445ZM81.6732 7.67357L81.6925 7.61533C81.7177 7.61533 81.7505 7.63475 81.7892 7.67357C81.8027 7.69298 81.8221 7.69298 81.8472 7.67357H81.8859L81.9052 7.73181C81.8917 7.73181 81.8724 7.75122 81.8472 7.79005C81.8221 7.82887 81.795 7.84829 81.7699 7.84829C81.7061 7.84829 81.6152 7.79005 81.4992 7.67551H81.6732V7.67357ZM80.5324 7.52992C80.5459 7.52992 80.5652 7.54351 80.5904 7.57263C80.6155 7.60174 80.6426 7.61533 80.6677 7.61533C80.6929 7.61533 80.7006 7.59592 80.6871 7.5571C80.6735 7.51827 80.6813 7.49886 80.7064 7.49886C80.7315 7.49886 80.7586 7.51827 80.7837 7.5571C80.8089 7.59592 80.836 7.61533 80.8611 7.61533C80.8746 7.61533 80.8862 7.59592 80.8998 7.5571C80.9133 7.51827 80.9384 7.49886 80.9771 7.49886C80.9384 7.49886 81.0989 7.5571 81.4605 7.67163C81.3309 7.74928 81.1763 7.78617 80.9964 7.78617C80.9713 7.78617 80.9346 7.79587 80.8901 7.81528C80.8437 7.8347 80.8147 7.8444 80.8031 7.8444C80.7779 7.8444 80.7509 7.82499 80.7257 7.78617C80.7006 7.74734 80.6735 7.72793 80.6484 7.72793C80.6233 7.72793 80.5943 7.71434 80.5614 7.68522C80.5285 7.6561 80.5072 7.64251 80.4937 7.64251C80.5188 7.58427 80.5324 7.54739 80.5324 7.52798V7.52992Z" fill="url(#paint31_linear_768_476)"/>
</g>
<defs>
<linearGradient id="paint0_linear_768_476" x1="1.7133" y1="53.2821" x2="186.041" y2="51.8396" gradientUnits="userSpaceOnUse">
<stop offset="0.06" stop-color="#27F932"/>
<stop offset="0.28" stop-color="#00D9E2"/>
<stop offset="0.45" stop-color="#008EFC"/>
<stop offset="0.64" stop-color="#5A5EFF"/>
<stop offset="0.68" stop-color="#6D5BFF"/>
<stop offset="0.79" stop-color="#B454FF"/>
<stop offset="0.85" stop-color="#D151FF"/>
</linearGradient>
<linearGradient id="paint1_linear_768_476" x1="1.69594" y1="50.6127" x2="186.022" y2="49.1701" gradientUnits="userSpaceOnUse">
<stop offset="0.06" stop-color="#27F932"/>
<stop offset="0.28" stop-color="#00D9E2"/>
<stop offset="0.45" stop-color="#008EFC"/>
<stop offset="0.64" stop-color="#5A5EFF"/>
<stop offset="0.68" stop-color="#6D5BFF"/>
<stop offset="0.79" stop-color="#B454FF"/>
<stop offset="0.85" stop-color="#D151FF"/>
</linearGradient>
<linearGradient id="paint2_linear_768_476" x1="1.82724" y1="67.5676" x2="186.155" y2="66.1251" gradientUnits="userSpaceOnUse">
<stop offset="0.06" stop-color="#27F932"/>
<stop offset="0.28" stop-color="#00D9E2"/>
<stop offset="0.45" stop-color="#008EFC"/>
<stop offset="0.64" stop-color="#5A5EFF"/>
<stop offset="0.68" stop-color="#6D5BFF"/>
<stop offset="0.79" stop-color="#B454FF"/>
<stop offset="0.85" stop-color="#D151FF"/>
</linearGradient>
<linearGradient id="paint3_linear_768_476" x1="1.63329" y1="42.8669" x2="185.962" y2="41.4263" gradientUnits="userSpaceOnUse">
<stop offset="0.06" stop-color="#27F932"/>
<stop offset="0.28" stop-color="#00D9E2"/>
<stop offset="0.45" stop-color="#008EFC"/>
<stop offset="0.64" stop-color="#5A5EFF"/>
<stop offset="0.68" stop-color="#6D5BFF"/>
<stop offset="0.79" stop-color="#B454FF"/>
<stop offset="0.85" stop-color="#D151FF"/>
</linearGradient>
<linearGradient id="paint4_linear_768_476" x1="1.63159" y1="42.2496" x2="185.957" y2="40.8071" gradientUnits="userSpaceOnUse">
<stop offset="0.06" stop-color="#27F932"/>
<stop offset="0.28" stop-color="#00D9E2"/>
<stop offset="0.45" stop-color="#008EFC"/>
<stop offset="0.64" stop-color="#5A5EFF"/>
<stop offset="0.68" stop-color="#6D5BFF"/>
<stop offset="0.79" stop-color="#B454FF"/>
<stop offset="0.85" stop-color="#D151FF"/>
</linearGradient>
<linearGradient id="paint5_linear_768_476" x1="1.57138" y1="34.7461" x2="185.9" y2="33.3055" gradientUnits="userSpaceOnUse">
<stop offset="0.06" stop-color="#27F932"/>
<stop offset="0.28" stop-color="#00D9E2"/>
<stop offset="0.45" stop-color="#008EFC"/>
<stop offset="0.64" stop-color="#5A5EFF"/>
<stop offset="0.68" stop-color="#6D5BFF"/>
<stop offset="0.79" stop-color="#B454FF"/>
<stop offset="0.85" stop-color="#D151FF"/>
</linearGradient>
<linearGradient id="paint6_linear_768_476" x1="1.65728" y1="45.8233" x2="185.985" y2="44.3827" gradientUnits="userSpaceOnUse">
<stop offset="0.06" stop-color="#27F932"/>
<stop offset="0.28" stop-color="#00D9E2"/>
<stop offset="0.45" stop-color="#008EFC"/>
<stop offset="0.64" stop-color="#5A5EFF"/>
<stop offset="0.68" stop-color="#6D5BFF"/>
<stop offset="0.79" stop-color="#B454FF"/>
<stop offset="0.85" stop-color="#D151FF"/>
</linearGradient>
<linearGradient id="paint7_linear_768_476" x1="1.66572" y1="46.7767" x2="185.994" y2="45.3341" gradientUnits="userSpaceOnUse">
<stop offset="0.06" stop-color="#27F932"/>
<stop offset="0.28" stop-color="#00D9E2"/>
<stop offset="0.45" stop-color="#008EFC"/>
<stop offset="0.64" stop-color="#5A5EFF"/>
<stop offset="0.68" stop-color="#6D5BFF"/>
<stop offset="0.79" stop-color="#B454FF"/>
<stop offset="0.85" stop-color="#D151FF"/>
</linearGradient>
<linearGradient id="paint8_linear_768_476" x1="1.65866" y1="46.0349" x2="185.987" y2="44.5924" gradientUnits="userSpaceOnUse">
<stop offset="0.06" stop-color="#27F932"/>
<stop offset="0.28" stop-color="#00D9E2"/>
<stop offset="0.45" stop-color="#008EFC"/>
<stop offset="0.64" stop-color="#5A5EFF"/>
<stop offset="0.68" stop-color="#6D5BFF"/>
<stop offset="0.79" stop-color="#B454FF"/>
<stop offset="0.85" stop-color="#D151FF"/>
</linearGradient>
<linearGradient id="paint9_linear_768_476" x1="1.65865" y1="45.6427" x2="185.984" y2="44.2021" gradientUnits="userSpaceOnUse">
<stop offset="0.06" stop-color="#27F932"/>
<stop offset="0.28" stop-color="#00D9E2"/>
<stop offset="0.45" stop-color="#008EFC"/>
<stop offset="0.64" stop-color="#5A5EFF"/>
<stop offset="0.68" stop-color="#6D5BFF"/>
<stop offset="0.79" stop-color="#B454FF"/>
<stop offset="0.85" stop-color="#D151FF"/>
</linearGradient>
<linearGradient id="paint10_linear_768_476" x1="0.729807" y1="44.8936" x2="186.052" y2="43.3603" gradientUnits="userSpaceOnUse">
<stop offset="0.06" stop-color="#27F932"/>
<stop offset="0.28" stop-color="#00D9E2"/>
<stop offset="0.45" stop-color="#008EFC"/>
<stop offset="0.64" stop-color="#5A5EFF"/>
<stop offset="0.68" stop-color="#6D5BFF"/>
<stop offset="0.79" stop-color="#B454FF"/>
<stop offset="0.85" stop-color="#D151FF"/>
</linearGradient>
<linearGradient id="paint11_linear_768_476" x1="1.65023" y1="44.909" x2="185.979" y2="43.4664" gradientUnits="userSpaceOnUse">
<stop offset="0.06" stop-color="#27F932"/>
<stop offset="0.28" stop-color="#00D9E2"/>
<stop offset="0.45" stop-color="#008EFC"/>
<stop offset="0.64" stop-color="#5A5EFF"/>
<stop offset="0.68" stop-color="#6D5BFF"/>
<stop offset="0.79" stop-color="#B454FF"/>
<stop offset="0.85" stop-color="#D151FF"/>
</linearGradient>
<linearGradient id="paint12_linear_768_476" x1="1.72863" y1="54.6834" x2="186.056" y2="53.2409" gradientUnits="userSpaceOnUse">
<stop offset="0.06" stop-color="#27F932"/>
<stop offset="0.28" stop-color="#00D9E2"/>
<stop offset="0.45" stop-color="#008EFC"/>
<stop offset="0.64" stop-color="#5A5EFF"/>
<stop offset="0.68" stop-color="#6D5BFF"/>
<stop offset="0.79" stop-color="#B454FF"/>
<stop offset="0.85" stop-color="#D151FF"/>
</linearGradient>
<linearGradient id="paint13_linear_768_476" x1="1.65129" y1="44.9323" x2="185.977" y2="43.4897" gradientUnits="userSpaceOnUse">
<stop offset="0.06" stop-color="#27F932"/>
<stop offset="0.28" stop-color="#00D9E2"/>
<stop offset="0.45" stop-color="#008EFC"/>
<stop offset="0.64" stop-color="#5A5EFF"/>
<stop offset="0.68" stop-color="#6D5BFF"/>
<stop offset="0.79" stop-color="#B454FF"/>
<stop offset="0.85" stop-color="#D151FF"/>
</linearGradient>
<linearGradient id="paint14_linear_768_476" x1="1.64332" y1="43.9384" x2="185.969" y2="42.4959" gradientUnits="userSpaceOnUse">
<stop offset="0.06" stop-color="#27F932"/>
<stop offset="0.28" stop-color="#00D9E2"/>
<stop offset="0.45" stop-color="#008EFC"/>
<stop offset="0.64" stop-color="#5A5EFF"/>
<stop offset="0.68" stop-color="#6D5BFF"/>
<stop offset="0.79" stop-color="#B454FF"/>
<stop offset="0.85" stop-color="#D151FF"/>
</linearGradient>
<linearGradient id="paint15_linear_768_476" x1="13.7628" y1="20.1737" x2="144.851" y2="20.9749" gradientUnits="userSpaceOnUse">
<stop offset="0.06" stop-color="#27F932"/>
<stop offset="0.28" stop-color="#00D9E2"/>
<stop offset="0.45" stop-color="#008EFC"/>
<stop offset="0.64" stop-color="#5A5EFF"/>
<stop offset="0.68" stop-color="#6D5BFF"/>
<stop offset="0.79" stop-color="#B454FF"/>
<stop offset="0.85" stop-color="#D151FF"/>
</linearGradient>
<linearGradient id="paint16_linear_768_476" x1="13.0702" y1="11.0322" x2="145.766" y2="11.8433" gradientUnits="userSpaceOnUse">
<stop offset="0.06" stop-color="#27F932"/>
<stop offset="0.28" stop-color="#00D9E2"/>
<stop offset="0.45" stop-color="#008EFC"/>
<stop offset="0.64" stop-color="#5A5EFF"/>
<stop offset="0.68" stop-color="#6D5BFF"/>
<stop offset="0.79" stop-color="#B454FF"/>
<stop offset="0.85" stop-color="#D151FF"/>
</linearGradient>
<linearGradient id="paint17_linear_768_476" x1="1.63933" y1="43.4239" x2="185.967" y2="41.9833" gradientUnits="userSpaceOnUse">
<stop offset="0.06" stop-color="#27F932"/>
<stop offset="0.28" stop-color="#00D9E2"/>
<stop offset="0.45" stop-color="#008EFC"/>
<stop offset="0.64" stop-color="#5A5EFF"/>
<stop offset="0.68" stop-color="#6D5BFF"/>
<stop offset="0.79" stop-color="#B454FF"/>
<stop offset="0.85" stop-color="#D151FF"/>
</linearGradient>
<linearGradient id="paint18_linear_768_476" x1="93.5665" y1="66.6009" x2="185.89" y2="68.8427" gradientUnits="userSpaceOnUse">
<stop offset="0.08" stop-color="#008EFC"/>
<stop offset="0.39" stop-color="#5A5EFF"/>
<stop offset="0.46" stop-color="#6D5BFF"/>
<stop offset="0.73" stop-color="#B454FF"/>
<stop offset="0.85" stop-color="#D151FF"/>
</linearGradient>
<linearGradient id="paint19_linear_768_476" x1="93.5693" y1="66.4456" x2="185.893" y2="68.6874" gradientUnits="userSpaceOnUse">
<stop offset="0.08" stop-color="#008EFC"/>
<stop offset="0.39" stop-color="#5A5EFF"/>
<stop offset="0.46" stop-color="#6D5BFF"/>
<stop offset="0.73" stop-color="#B454FF"/>
<stop offset="0.85" stop-color="#D151FF"/>
</linearGradient>
<linearGradient id="paint20_linear_768_476" x1="93.5738" y1="66.2515" x2="185.899" y2="68.4953" gradientUnits="userSpaceOnUse">
<stop offset="0.08" stop-color="#008EFC"/>
<stop offset="0.39" stop-color="#5A5EFF"/>
<stop offset="0.46" stop-color="#6D5BFF"/>
<stop offset="0.73" stop-color="#B454FF"/>
<stop offset="0.85" stop-color="#D151FF"/>
</linearGradient>
<linearGradient id="paint21_linear_768_476" x1="93.6001" y1="65.2479" x2="185.924" y2="67.4917" gradientUnits="userSpaceOnUse">
<stop offset="0.08" stop-color="#008EFC"/>
<stop offset="0.39" stop-color="#5A5EFF"/>
<stop offset="0.46" stop-color="#6D5BFF"/>
<stop offset="0.73" stop-color="#B454FF"/>
<stop offset="0.85" stop-color="#D151FF"/>
</linearGradient>
<linearGradient id="paint22_linear_768_476" x1="93.5834" y1="65.9176" x2="185.909" y2="68.1613" gradientUnits="userSpaceOnUse">
<stop offset="0.08" stop-color="#008EFC"/>
<stop offset="0.39" stop-color="#5A5EFF"/>
<stop offset="0.46" stop-color="#6D5BFF"/>
<stop offset="0.73" stop-color="#B454FF"/>
<stop offset="0.85" stop-color="#D151FF"/>
</linearGradient>
<linearGradient id="paint23_linear_768_476" x1="93.5877" y1="65.7953" x2="185.913" y2="68.0371" gradientUnits="userSpaceOnUse">
<stop offset="0.08" stop-color="#008EFC"/>
<stop offset="0.39" stop-color="#5A5EFF"/>
<stop offset="0.46" stop-color="#6D5BFF"/>
<stop offset="0.73" stop-color="#B454FF"/>
<stop offset="0.85" stop-color="#D151FF"/>
</linearGradient>
<linearGradient id="paint24_linear_768_476" x1="93.59" y1="65.572" x2="185.914" y2="67.8138" gradientUnits="userSpaceOnUse">
<stop offset="0.08" stop-color="#008EFC"/>
<stop offset="0.39" stop-color="#5A5EFF"/>
<stop offset="0.46" stop-color="#6D5BFF"/>
<stop offset="0.73" stop-color="#B454FF"/>
<stop offset="0.85" stop-color="#D151FF"/>
</linearGradient>
<linearGradient id="paint25_linear_768_476" x1="93.5971" y1="65.4303" x2="185.921" y2="67.674" gradientUnits="userSpaceOnUse">
<stop offset="0.08" stop-color="#008EFC"/>
<stop offset="0.39" stop-color="#5A5EFF"/>
<stop offset="0.46" stop-color="#6D5BFF"/>
<stop offset="0.73" stop-color="#B454FF"/>
<stop offset="0.85" stop-color="#D151FF"/>
</linearGradient>
<linearGradient id="paint26_linear_768_476" x1="93.6004" y1="65.2401" x2="185.924" y2="67.4838" gradientUnits="userSpaceOnUse">
<stop offset="0.08" stop-color="#008EFC"/>
<stop offset="0.39" stop-color="#5A5EFF"/>
<stop offset="0.46" stop-color="#6D5BFF"/>
<stop offset="0.73" stop-color="#B454FF"/>
<stop offset="0.85" stop-color="#D151FF"/>
</linearGradient>
<linearGradient id="paint27_linear_768_476" x1="93.6052" y1="65.0616" x2="185.931" y2="67.3053" gradientUnits="userSpaceOnUse">
<stop offset="0.08" stop-color="#008EFC"/>
<stop offset="0.39" stop-color="#5A5EFF"/>
<stop offset="0.46" stop-color="#6D5BFF"/>
<stop offset="0.73" stop-color="#B454FF"/>
<stop offset="0.85" stop-color="#D151FF"/>
</linearGradient>
<linearGradient id="paint28_linear_768_476" x1="93.6096" y1="64.8518" x2="185.933" y2="67.0936" gradientUnits="userSpaceOnUse">
<stop offset="0.08" stop-color="#008EFC"/>
<stop offset="0.39" stop-color="#5A5EFF"/>
<stop offset="0.46" stop-color="#6D5BFF"/>
<stop offset="0.73" stop-color="#B454FF"/>
<stop offset="0.85" stop-color="#D151FF"/>
</linearGradient>
<linearGradient id="paint29_linear_768_476" x1="93.6141" y1="64.6425" x2="185.938" y2="66.8843" gradientUnits="userSpaceOnUse">
<stop offset="0.08" stop-color="#008EFC"/>
<stop offset="0.39" stop-color="#5A5EFF"/>
<stop offset="0.46" stop-color="#6D5BFF"/>
<stop offset="0.73" stop-color="#B454FF"/>
<stop offset="0.85" stop-color="#D151FF"/>
</linearGradient>
<linearGradient id="paint30_linear_768_476" x1="93.6137" y1="64.5761" x2="185.939" y2="66.8179" gradientUnits="userSpaceOnUse">
<stop offset="0.08" stop-color="#008EFC"/>
<stop offset="0.39" stop-color="#5A5EFF"/>
<stop offset="0.46" stop-color="#6D5BFF"/>
<stop offset="0.73" stop-color="#B454FF"/>
<stop offset="0.85" stop-color="#D151FF"/>
</linearGradient>
<linearGradient id="paint31_linear_768_476" x1="19.3245" y1="8.86552" x2="139.432" y2="9.5993" gradientUnits="userSpaceOnUse">
<stop offset="0.06" stop-color="#27F932"/>
<stop offset="0.28" stop-color="#00D9E2"/>
<stop offset="0.45" stop-color="#008EFC"/>
<stop offset="0.64" stop-color="#5A5EFF"/>
<stop offset="0.68" stop-color="#6D5BFF"/>
<stop offset="0.79" stop-color="#B454FF"/>
<stop offset="0.85" stop-color="#D151FF"/>
</linearGradient>
<clipPath id="clip0_768_476">
<rect width="186" height="77.3675" fill="white" transform="translate(0 0.0170898)"/>
</clipPath>
</defs>
</svg>
