<svg width="59" height="59" viewBox="0 0 59 59" fill="none" xmlns="http://www.w3.org/2000/svg">
<path d="M59 41.3C59 42.8648 58.3784 44.3655 57.2719 45.4719C56.1655 46.5784 54.6648 47.2 53.1 47.2H17.7C14.4255 47.2 11.8 44.545 11.8 41.3V5.9C11.8 2.6255 14.4255 0 17.7 0H53.1C54.6648 0 56.1655 0.621605 57.2719 1.72807C58.3784 2.83453 59 4.33522 59 5.9V41.3ZM41.3 53.1V59H5.9C4.33522 59 2.83453 58.3784 1.72807 57.2719C0.621605 56.1655 0 54.6648 0 53.1V14.75H5.9V53.1H41.3ZM32.45 35.4L53.1 14.75L48.9405 10.5905L32.45 27.0515L23.3345 17.9655L19.175 22.125L32.45 35.4Z" fill="url(#paint0_linear_652_2889)"/>
<defs>
<linearGradient id="paint0_linear_652_2889" x1="7.05523e-07" y1="1.22152" x2="59" y2="57.7785" gradientUnits="userSpaceOnUse">
<stop stop-color="#C347FC"/>
<stop offset="0.759615" stop-color="#9747FF"/>
</linearGradient>
</defs>
</svg>
