<svg width="98" height="59" viewBox="0 0 98 59" fill="none" xmlns="http://www.w3.org/2000/svg">
<path d="M49 0C52.7904 0 56.4255 1.50043 59.1057 4.1712C61.7859 6.84198 63.2917 10.4643 63.2917 14.2414C63.2917 18.0184 61.7859 21.6408 59.1057 24.3116C56.4255 26.9823 52.7904 28.4828 49 28.4828C45.2096 28.4828 41.5745 26.9823 38.8943 24.3116C36.2141 21.6408 34.7083 18.0184 34.7083 14.2414C34.7083 10.4643 36.2141 6.84198 38.8943 4.1712C41.5745 1.50043 45.2096 0 49 0ZM20.4167 10.1724C22.7033 10.1724 24.8267 10.7828 26.6642 11.8814C26.0517 17.7 27.7667 23.4779 31.2783 27.9945C29.2367 31.9007 25.1533 34.5862 20.4167 34.5862C17.1678 34.5862 14.0519 33.3001 11.7546 31.0109C9.45729 28.7217 8.16667 25.6168 8.16667 22.3793C8.16667 19.1418 9.45729 16.037 11.7546 13.7477C14.0519 11.4585 17.1678 10.1724 20.4167 10.1724ZM77.5833 10.1724C80.8322 10.1724 83.9481 11.4585 86.2454 13.7477C88.5427 16.037 89.8333 19.1418 89.8333 22.3793C89.8333 25.6168 88.5427 28.7217 86.2454 31.0109C83.9481 33.3001 80.8322 34.5862 77.5833 34.5862C72.8467 34.5862 68.7633 31.9007 66.7217 27.9945C70.2333 23.4779 71.9483 17.7 71.3358 11.8814C73.1733 10.7828 75.2967 10.1724 77.5833 10.1724ZM22.4583 51.8793C22.4583 43.4566 34.3408 36.6207 49 36.6207C63.6592 36.6207 75.5417 43.4566 75.5417 51.8793V59H22.4583V51.8793ZM0 59V52.8965C0 47.2407 7.7175 42.48 18.1708 41.0966C15.7617 43.8634 14.2917 47.6883 14.2917 51.8793V59H0ZM98 59H83.7083V51.8793C83.7083 47.6883 82.2383 43.8634 79.8292 41.0966C90.2825 42.48 98 47.2407 98 52.8965V59Z" fill="url(#paint0_linear_707_3656)"/>
<defs>
<linearGradient id="paint0_linear_707_3656" x1="16.3823" y1="2.8563e-06" x2="81.6176" y2="59" gradientUnits="userSpaceOnUse">
<stop stop-color="#C347FC"/>
<stop offset="0.759615" stop-color="#9747FF"/>
</linearGradient>
</defs>
</svg>
