<svg width="54" height="53" viewBox="0 0 54 53" fill="none" xmlns="http://www.w3.org/2000/svg">
<circle cx="26.498" cy="26.498" r="25.998" transform="matrix(-1 0 0 1 53.875 0)" stroke="#C347FC"/>
<path d="M39.4424 26.1347C39.8329 26.5252 39.8329 27.1584 39.4424 27.5489L33.0784 33.9129C32.6879 34.3034 32.0547 34.3034 31.6642 33.9129C31.2737 33.5223 31.2737 32.8892 31.6642 32.4986L37.3211 26.8418L31.6642 21.1849C31.2737 20.7944 31.2737 20.1613 31.6642 19.7707C32.0547 19.3802 32.6879 19.3802 33.0784 19.7707L39.4424 26.1347ZM16.7109 26.8418L16.7109 25.8418L38.7353 25.8418L38.7353 26.8418L38.7353 27.8418L16.7109 27.8418L16.7109 26.8418Z" fill="#C347FC"/>
</svg>
