<svg width="59" height="59" viewBox="0 0 59 59" fill="none" xmlns="http://www.w3.org/2000/svg">
<path d="M47.7729 37.9959V28.1941C47.7729 27.4513 47.4772 26.739 46.9508 26.2138C46.4244 25.6886 45.7105 25.3935 44.9661 25.3935H42.1593C48.4465 20.8846 49.906 12.147 45.3871 5.78973C40.8682 -0.427465 32.111 -1.88375 25.7958 2.62512C23.9152 3.96938 22.3996 5.78973 21.3891 7.83413C14.7932 3.77334 6.14831 5.78973 2.07848 12.427C-1.96328 19.0083 0.0575984 27.6339 6.6816 31.6947C7.27103 32.0308 7.86045 32.3949 8.47794 32.6189V56.1995C8.47794 56.9422 8.77366 57.6545 9.30003 58.1797C9.8264 58.7049 10.5403 59 11.2847 59H44.9661C45.7105 59 46.4244 58.7049 46.9508 58.1797C47.4772 57.6545 47.7729 56.9422 47.7729 56.1995V46.3976L59 57.5997V26.7938L47.7729 37.9959ZM33.739 8.59027C35.2278 8.59027 36.6556 9.18039 37.7084 10.2308C38.7611 11.2812 39.3525 12.7059 39.3525 14.1914C39.3525 15.6769 38.7611 17.1015 37.7084 18.1519C36.6556 19.2023 35.2278 19.7924 33.739 19.7924C32.2502 19.7924 30.8223 19.2023 29.7696 18.1519C28.7168 17.1015 28.1254 15.6769 28.1254 14.1914C28.1254 12.7059 28.7168 11.2812 29.7696 10.2308C30.8223 9.18039 32.2502 8.59027 33.739 8.59027ZM14.0915 14.1914C15.5803 14.1914 17.0081 14.7815 18.0609 15.8319C19.1136 16.8823 19.7051 18.3069 19.7051 19.7924C19.7051 21.2779 19.1136 22.7026 18.0609 23.753C17.0081 24.8034 15.5803 25.3935 14.0915 25.3935C12.6027 25.3935 11.1749 24.8034 10.1221 23.753C9.06937 22.7026 8.47794 21.2779 8.47794 19.7924C8.47794 18.3069 9.06937 16.8823 10.1221 15.8319C11.1749 14.7815 12.6027 14.1914 14.0915 14.1914Z" fill="url(#paint0_linear_652_2902)"/>
<defs>
<linearGradient id="paint0_linear_652_2902" x1="7.19957" y1="-1.3521e-07" x2="51.8004" y2="59" gradientUnits="userSpaceOnUse">
<stop stop-color="#C347FC"/>
<stop offset="0.759615" stop-color="#9747FF"/>
</linearGradient>
</defs>
</svg>
