<svg width="47" height="59" viewBox="0 0 47 59" fill="none" xmlns="http://www.w3.org/2000/svg">
<path d="M47 0H0V5.89612L17.0669 18.7497C6.28625 22.3168 0.41125 33.9911 3.96562 44.8105C7.52 55.6299 19.0937 61.526 29.9331 57.9589C40.7137 54.3917 46.5887 42.7469 43.0344 31.898C40.9781 25.6776 36.1312 20.7838 29.9331 18.7497L47 5.89612V0ZM32.1362 51.5911L23.5 46.5204L14.8638 51.5911L17.155 41.774L9.54688 35.1704L19.5637 34.3154L23.5 25.0585L27.4363 34.3154L37.4531 35.1704L29.845 41.774L32.1362 51.5911Z" fill="url(#paint0_linear_652_2851)"/>
<defs>
<linearGradient id="paint0_linear_652_2851" x1="0.649304" y1="-1.03868e-06" x2="46.8455" y2="58.61" gradientUnits="userSpaceOnUse">
<stop stop-color="#C347FC"/>
<stop offset="0.807692" stop-color="#9747FF"/>
</linearGradient>
</defs>
</svg>
