<svg width="29" height="25" viewBox="0 0 29 25" fill="none" xmlns="http://www.w3.org/2000/svg">
<path d="M0.667969 25L2.63826 18.5802C1.42245 16.701 0.783594 14.5708 0.784761 12.3865C0.788265 5.55729 7.01916 0 14.6749 0C18.3901 0.00104167 21.8775 1.29167 24.5007 3.63333C27.1227 5.975 28.5662 9.0875 28.5651 12.3979C28.5616 19.2281 22.3307 24.7854 14.6749 24.7854C12.3507 24.7844 10.0604 24.2646 8.03175 23.2771L0.667969 25ZM8.37278 21.0344C10.3302 22.0708 12.1989 22.6917 14.6702 22.6927C21.0331 22.6927 26.2164 18.074 26.2199 12.3958C26.2222 6.70625 21.0635 2.09375 14.6796 2.09167C8.31205 2.09167 3.13229 6.71042 3.12996 12.3875C3.12879 14.7052 3.89028 16.4406 5.16916 18.2562L4.0024 22.0562L8.37278 21.0344ZM21.672 15.3427C21.5855 15.2135 21.3543 15.1365 21.0062 14.9812C20.6594 14.826 18.953 14.0771 18.6342 13.974C18.3165 13.8708 18.0853 13.8187 17.8528 14.1292C17.6216 14.4385 16.9559 15.1365 16.7538 15.3427C16.5518 15.549 16.3486 15.575 16.0017 15.4198C15.6548 15.2646 14.5359 14.9385 13.2103 13.8833C12.1791 13.0625 11.4818 12.049 11.2798 11.7385C11.0777 11.4292 11.2587 11.2615 11.4316 11.1073C11.5881 10.9688 11.7785 10.7458 11.9525 10.5646C12.1288 10.3854 12.1861 10.2563 12.3029 10.049C12.4185 9.84271 12.3613 9.66146 12.2737 9.50625C12.1861 9.35208 11.4923 7.82812 11.2038 7.20833C10.9212 6.60521 10.6351 6.68646 10.4225 6.67708L9.75677 6.66667C9.52553 6.66667 9.14945 6.74375 8.83178 7.05417C8.5141 7.36458 7.61713 8.1125 7.61713 9.63646C7.61713 11.1604 8.86097 12.6323 9.03383 12.8385C9.20785 13.0448 11.4806 16.1719 14.9622 17.5125C15.7903 17.8312 16.4373 18.0219 16.9407 18.1646C17.7723 18.4 18.5291 18.3667 19.1271 18.2875C19.7939 18.199 21.1803 17.5385 21.4699 16.8156C21.7596 16.0917 21.7596 15.4719 21.672 15.3427Z" fill="white"/>
</svg>
