<svg width="23" height="23" viewBox="0 0 23 23" fill="none" xmlns="http://www.w3.org/2000/svg">
<g clip-path="url(#clip0_768_1541)">
<path d="M22.73 7.38095C22.73 7.38095 22.5125 5.84539 21.8426 5.17114C20.9943 4.28373 20.046 4.27938 19.611 4.22718C16.4964 4.00098 11.8201 4.00098 11.8201 4.00098H11.8114C11.8114 4.00098 7.13514 4.00098 4.02051 4.22718C3.58551 4.27938 2.6372 4.28373 1.78895 5.17114C1.11904 5.84539 0.905889 7.38095 0.905889 7.38095C0.905889 7.38095 0.679688 9.18622 0.679688 10.9871V12.6749C0.679688 14.4759 0.901539 16.2811 0.901539 16.2811C0.901539 16.2811 1.11904 17.8167 1.7846 18.4909C2.63285 19.3783 3.74646 19.3479 4.24237 19.4436C6.02588 19.6132 11.8158 19.6655 11.8158 19.6655C11.8158 19.6655 16.4964 19.6567 19.611 19.4349C20.046 19.3827 20.9943 19.3783 21.8426 18.4909C22.5125 17.8167 22.73 16.2811 22.73 16.2811C22.73 16.2811 22.9519 14.4802 22.9519 12.6749V10.9871C22.9519 9.18622 22.73 7.38095 22.73 7.38095ZM9.51461 14.7238V8.46411L15.5307 11.6048L9.51461 14.7238Z" fill="white"/>
</g>
<defs>
<clipPath id="clip0_768_1541">
<rect width="22.2722" height="22.2722" fill="white" transform="translate(0.679688 0.699219)"/>
</clipPath>
</defs>
</svg>
