<svg width="59" height="59" viewBox="0 0 59 59" fill="none" xmlns="http://www.w3.org/2000/svg">
<path d="M29.5 0C13.1865 0 0 13.1865 0 29.5C0 45.8135 13.1865 59 29.5 59C37.3239 59 44.8273 55.892 50.3596 50.3596C55.892 44.8273 59 37.3239 59 29.5C59 13.1865 45.725 0 29.5 0ZM29.5 53.1C23.2409 53.1 17.2381 50.6136 12.8123 46.1877C8.38642 41.7619 5.9 35.7591 5.9 29.5C5.9 23.2409 8.38642 17.2381 12.8123 12.8123C17.2381 8.38642 23.2409 5.9 29.5 5.9C35.7591 5.9 41.7619 8.38642 46.1877 12.8123C50.6136 17.2381 53.1 23.2409 53.1 29.5C53.1 35.7591 50.6136 41.7619 46.1877 46.1877C41.7619 50.6136 35.7591 53.1 29.5 53.1ZM32.45 23.423L35.577 26.55L38.704 23.423L41.831 26.55L44.958 23.423L38.704 17.169L32.45 23.423ZM20.296 23.423L23.423 26.55L26.55 23.423L20.296 17.169L14.042 23.423L17.169 26.55L20.296 23.423ZM29.5 45.725C36.3735 45.725 42.2145 41.418 44.5745 35.4H14.4255C16.7855 41.418 22.6265 45.725 29.5 45.725Z" fill="url(#paint0_linear_652_2855)"/>
<defs>
<linearGradient id="paint0_linear_652_2855" x1="-2.44157e-07" y1="10.4249" x2="59" y2="48.5751" gradientUnits="userSpaceOnUse">
<stop stop-color="#C347FC"/>
<stop offset="0.807692" stop-color="#9747FF"/>
</linearGradient>
</defs>
</svg>
