<svg width="62" height="59" viewBox="0 0 62 59" fill="none" xmlns="http://www.w3.org/2000/svg">
<path d="M58.7368 49.1667V52.4444C58.7368 54.1831 58.0492 55.8505 56.8253 57.0799C55.6014 58.3093 53.9414 59 52.2105 59H6.52632C2.90421 59 0 56.05 0 52.4444V6.55556C0 4.81691 0.687592 3.14948 1.91151 1.92008C3.13543 0.690672 4.79543 0 6.52632 0H52.2105C53.9414 0 55.6014 0.690672 56.8253 1.92008C58.0492 3.14948 58.7368 4.81691 58.7368 6.55556V9.83333H29.3684C25.7463 9.83333 22.8421 12.7833 22.8421 16.3889V42.6111C22.8421 44.3498 23.5297 46.0172 24.7536 47.2466C25.9775 48.476 27.6375 49.1667 29.3684 49.1667M29.3684 42.6111H62V16.3889H29.3684M42.4211 34.4167C41.1229 34.4167 39.8779 33.8987 38.9599 32.9766C38.042 32.0546 37.5263 30.804 37.5263 29.5C37.5263 28.196 38.042 26.9454 38.9599 26.0234C39.8779 25.1013 41.1229 24.5833 42.4211 24.5833C43.7192 24.5833 44.9642 25.1013 45.8822 26.0234C46.8001 26.9454 47.3158 28.196 47.3158 29.5C47.3158 30.804 46.8001 32.0546 45.8822 32.9766C44.9642 33.8987 43.7192 34.4167 42.4211 34.4167Z" fill="url(#paint0_linear_652_2904)"/>
<defs>
<linearGradient id="paint0_linear_652_2904" x1="4.00493e-07" y1="10.2189" x2="62" y2="48.7811" gradientUnits="userSpaceOnUse">
<stop stop-color="#C347FC"/>
<stop offset="0.759615" stop-color="#9747FF"/>
</linearGradient>
</defs>
</svg>
