<svg width="113" height="53" viewBox="0 0 113 53" fill="none" xmlns="http://www.w3.org/2000/svg">
<circle cx="26.498" cy="26.498" r="25.998" stroke="#C347FC"/>
<circle cx="26.498" cy="26.498" r="25.998" transform="matrix(-1 0 0 1 112.875 0)" stroke="#C347FC"/>
<path d="M14.4404 26.1347C14.0499 26.5252 14.0499 27.1584 14.4404 27.5489L20.8044 33.9129C21.1949 34.3034 21.8281 34.3034 22.2186 33.9129C22.6091 33.5223 22.6091 32.8892 22.2186 32.4986L16.5617 26.8418L22.2186 21.1849C22.6091 20.7944 22.6091 20.1613 22.2186 19.7707C21.8281 19.3802 21.1949 19.3802 20.8044 19.7707L14.4404 26.1347ZM37.1719 26.8418L37.1719 25.8418L15.1475 25.8418L15.1475 26.8418L15.1475 27.8418L37.1719 27.8418L37.1719 26.8418Z" fill="#C347FC"/>
<path d="M98.4424 26.1347C98.8329 26.5252 98.8329 27.1584 98.4424 27.5489L92.0784 33.9129C91.6879 34.3034 91.0547 34.3034 90.6642 33.9129C90.2737 33.5223 90.2737 32.8892 90.6642 32.4986L96.3211 26.8418L90.6642 21.1849C90.2737 20.7944 90.2737 20.1613 90.6642 19.7707C91.0547 19.3802 91.6879 19.3802 92.0784 19.7707L98.4424 26.1347ZM75.7109 26.8418L75.7109 25.8418L97.7353 25.8418L97.7353 26.8418L97.7353 27.8418L75.7109 27.8418L75.7109 26.8418Z" fill="#C347FC"/>
</svg>
