<svg width="81" height="59" viewBox="0 0 81 59" fill="none" xmlns="http://www.w3.org/2000/svg">
<path d="M51.5455 36.875C41.715 36.875 22.0909 41.7794 22.0909 51.625V59H81V51.625C81 41.7794 61.3759 36.875 51.5455 36.875ZM51.5455 29.5C55.4514 29.5 59.1973 27.946 61.9592 25.1798C64.7211 22.4137 66.2727 18.6619 66.2727 14.75C66.2727 10.8381 64.7211 7.08634 61.9592 4.32017C59.1973 1.55401 55.4514 0 51.5455 0C47.6395 0 43.8936 1.55401 41.1317 4.32017C38.3698 7.08634 36.8182 10.8381 36.8182 14.75C36.8182 18.6619 38.3698 22.4137 41.1317 25.1798C43.8936 27.946 47.6395 29.5 51.5455 29.5ZM14.7273 34.22L23.7477 39.7144L21.3545 29.3525L29.4545 22.42L18.8141 21.4981L14.7273 11.7631L10.5668 21.4981L0 22.42L8.02636 29.3525L5.52273 39.7144L14.7273 34.22Z" fill="url(#paint0_linear_652_2886)"/>
<defs>
<linearGradient id="paint0_linear_652_2886" x1="10.0754" y1="-1.31294e-06" x2="70.9246" y2="59" gradientUnits="userSpaceOnUse">
<stop stop-color="#C347FC"/>
<stop offset="0.759615" stop-color="#9747FF"/>
</linearGradient>
</defs>
</svg>
