<svg width="57" height="59" viewBox="0 0 57 59" fill="none" xmlns="http://www.w3.org/2000/svg">
<path d="M28.5065 39.825C25.7867 39.825 23.1784 38.7372 21.2552 36.8009C19.3321 34.8646 18.2516 32.2384 18.2516 29.5C18.2516 26.7616 19.3321 24.1354 21.2552 22.1991C23.1784 20.2628 25.7867 19.175 28.5065 19.175C31.2262 19.175 33.8346 20.2628 35.7577 22.1991C37.6809 24.1354 38.7613 26.7616 38.7613 29.5C38.7613 32.2384 37.6809 34.8646 35.7577 36.8009C33.8346 38.7372 31.2262 39.825 28.5065 39.825ZM50.276 32.3615C50.3932 31.4175 50.4811 30.4735 50.4811 29.5C50.4811 28.5265 50.3932 27.553 50.276 26.55L56.4582 21.7415C57.0149 21.299 57.1614 20.5025 56.8098 19.8535L50.9499 9.6465C50.5983 8.9975 49.8072 8.732 49.1626 8.9975L41.8671 11.9475C40.3435 10.797 38.7613 9.794 36.9154 9.0565L35.8314 1.239C35.7142 0.531 35.0989 0 34.3664 0H22.6466C21.9141 0 21.2988 0.531 21.1816 1.239L20.0975 9.0565C18.2516 9.794 16.6695 10.797 15.1459 11.9475L7.85031 8.9975C7.20572 8.732 6.41464 8.9975 6.06304 9.6465L0.203138 19.8535C-0.177756 20.5025 -0.00195809 21.299 0.554733 21.7415L6.73693 26.55C6.61973 27.553 6.53183 28.5265 6.53183 29.5C6.53183 30.4735 6.61973 31.4175 6.73693 32.3615L0.554733 37.2585C-0.00195809 37.701 -0.177756 38.4975 0.203138 39.1465L6.06304 49.3535C6.41464 50.0025 7.20572 50.2385 7.85031 50.0025L15.1459 47.023C16.6695 48.203 18.2516 49.206 20.0975 49.9435L21.1816 57.761C21.2988 58.469 21.9141 59 22.6466 59H34.3664C35.0989 59 35.7142 58.469 35.8314 57.761L36.9154 49.9435C38.7613 49.1765 40.3435 48.203 41.8671 47.023L49.1626 50.0025C49.8072 50.2385 50.5983 50.0025 50.9499 49.3535L56.8098 39.1465C57.1614 38.4975 57.0149 37.701 56.4582 37.2585L50.276 32.3615Z" fill="url(#paint0_linear_652_2857)"/>
<defs>
<linearGradient id="paint0_linear_652_2857" x1="-2.08939e-08" y1="9.17357" x2="56.9275" y2="49.9278" gradientUnits="userSpaceOnUse">
<stop stop-color="#C347FC"/>
<stop offset="0.807692" stop-color="#9747FF"/>
</linearGradient>
</defs>
</svg>
