<svg width="65" height="59" viewBox="0 0 65 59" fill="none" xmlns="http://www.w3.org/2000/svg">
<path d="M65 26.55C65 23.2755 62.3409 20.65 59.0909 20.65H40.4182L43.2545 7.1685C43.3136 6.8735 43.3432 6.549 43.3432 6.2245C43.3432 5.015 42.8409 3.894 42.0432 3.0975L38.9114 0L19.4705 19.411C18.3773 20.5025 17.7273 21.9775 17.7273 23.6V53.1C17.7273 54.6648 18.3498 56.1655 19.458 57.2719C20.5662 58.3784 22.0692 59 23.6364 59H50.2273C52.6795 59 54.7773 57.525 55.6636 55.401L64.5864 34.6035C64.8523 33.925 65 33.217 65 32.45V26.55ZM0 59H11.8182V23.6H0V59Z" fill="url(#paint0_linear_652_2873)"/>
<defs>
<linearGradient id="paint0_linear_652_2873" x1="8.81091" y1="1.559e-06" x2="56.1891" y2="59" gradientUnits="userSpaceOnUse">
<stop stop-color="#C347FC"/>
<stop offset="0.788462" stop-color="#9747FF"/>
</linearGradient>
</defs>
</svg>
