<svg width="59" height="59" viewBox="0 0 59 59" fill="none" xmlns="http://www.w3.org/2000/svg">
<path d="M44.25 29.5V2.95C44.25 2.16761 43.9392 1.41727 43.386 0.864035C42.8327 0.310803 42.0824 0 41.3 0H2.95C2.16761 0 1.41727 0.310803 0.864035 0.864035C0.310803 1.41727 0 2.16761 0 2.95V44.25L11.8 32.45H41.3C42.0824 32.45 42.8327 32.1392 43.386 31.586C43.9392 31.0327 44.25 30.2824 44.25 29.5ZM56.05 11.8H50.15V38.35H11.8V44.25C11.8 45.0324 12.1108 45.7827 12.664 46.336C13.2173 46.8892 13.9676 47.2 14.75 47.2H47.2L59 59V14.75C59 13.9676 58.6892 13.2173 58.136 12.664C57.5827 12.1108 56.8324 11.8 56.05 11.8Z" fill="url(#paint0_linear_652_2903)"/>
<defs>
<linearGradient id="paint0_linear_652_2903" x1="5.10625e-07" y1="7.64716" x2="59" y2="51.3528" gradientUnits="userSpaceOnUse">
<stop stop-color="#C347FC"/>
<stop offset="0.759615" stop-color="#9747FF"/>
</linearGradient>
</defs>
</svg>
