<svg width="59" height="59" viewBox="0 0 59 59" fill="none" xmlns="http://www.w3.org/2000/svg">
<path d="M29.5 13.4091C33.7676 13.4091 37.8604 15.1044 40.878 18.122C43.8956 21.1396 45.5909 25.2324 45.5909 29.5C45.5909 35.4536 42.3459 40.6564 37.5455 43.4455V48.2727C37.5455 48.984 37.2629 49.6661 36.76 50.1691C36.257 50.672 35.5749 50.9545 34.8636 50.9545H24.1364C23.4251 50.9545 22.743 50.672 22.24 50.1691C21.7371 49.6661 21.4545 48.984 21.4545 48.2727V43.4455C16.6541 40.6564 13.4091 35.4536 13.4091 29.5C13.4091 25.2324 15.1044 21.1396 18.122 18.122C21.1396 15.1044 25.2324 13.4091 29.5 13.4091ZM34.8636 53.6364V56.3182C34.8636 57.0294 34.5811 57.7116 34.0782 58.2145C33.5752 58.7175 32.8931 59 32.1818 59H26.8182C26.1069 59 25.4248 58.7175 24.9219 58.2145C24.4189 57.7116 24.1364 57.0294 24.1364 56.3182V53.6364H34.8636ZM50.9545 26.8182H59V32.1818H50.9545V26.8182ZM0 26.8182H8.04545V32.1818H0V26.8182ZM32.1818 0V8.04545H26.8182V0H32.1818ZM10.5127 6.70455L16.225 12.4436L12.4168 16.225L6.70455 10.5395L10.5127 6.70455ZM42.775 12.4168L48.4605 6.70455L52.2955 10.5395L46.5832 16.225L42.775 12.4168Z" fill="url(#paint0_linear_652_2869)"/>
<defs>
<linearGradient id="paint0_linear_652_2869" x1="-2.76572e-07" y1="2.26939" x2="59" y2="56.7306" gradientUnits="userSpaceOnUse">
<stop stop-color="#C347FC"/>
<stop offset="0.788462" stop-color="#9747FF"/>
</linearGradient>
</defs>
</svg>
