<svg width="70" height="59" viewBox="0 0 70 59" fill="none" xmlns="http://www.w3.org/2000/svg">
<path d="M64.9744 30.3939L70 35.4358L46.559 59L34.1026 46.4848L39.1282 41.443L46.559 48.8806L64.9744 30.3939ZM25.1282 46.4848L35.8974 57.2121H0V50.0606C0 42.1582 12.8513 35.7576 28.7179 35.7576L35.5026 36.1509L25.1282 46.4848ZM28.7179 0C32.5262 0 36.1784 1.50692 38.8713 4.18926C41.5641 6.8716 43.0769 10.5096 43.0769 14.303C43.0769 18.0964 41.5641 21.7345 38.8713 24.4168C36.1784 27.0991 32.5262 28.6061 28.7179 28.6061C24.9097 28.6061 21.2575 27.0991 18.5646 24.4168C15.8718 21.7345 14.359 18.0964 14.359 14.303C14.359 10.5096 15.8718 6.8716 18.5646 4.18926C21.2575 1.50692 24.9097 0 28.7179 0Z" fill="url(#paint0_linear_652_2885)"/>
<defs>
<linearGradient id="paint0_linear_652_2885" x1="8.09522" y1="1.70407e-06" x2="61.9048" y2="59" gradientUnits="userSpaceOnUse">
<stop stop-color="#C347FC"/>
<stop offset="0.759615" stop-color="#9747FF"/>
</linearGradient>
</defs>
</svg>
