<svg width="63" height="59" viewBox="0 0 63 59" fill="none" xmlns="http://www.w3.org/2000/svg">
<path d="M51.5455 0L37.2273 13.275V45.725L51.5455 32.45V0ZM15.75 8.85C10.1659 8.85 4.15227 10.03 0 13.275V56.522C0 57.2595 0.715909 57.997 1.43182 57.997C1.71818 57.997 1.86136 57.7905 2.14773 57.7905C6.01364 55.873 11.5977 54.575 15.75 54.575C21.3341 54.575 27.3477 55.755 31.5 59C35.3659 56.4925 42.3818 54.575 47.25 54.575C51.975 54.575 56.8432 55.4895 60.8523 57.702C61.1386 57.8495 61.2818 57.7905 61.5682 57.7905C62.2841 57.7905 63 57.053 63 56.3155V13.275C61.2818 11.9475 59.4205 11.0625 57.2727 10.325V50.15C54.1227 49.1175 50.6864 48.675 47.25 48.675C42.3818 48.675 35.3659 50.5925 31.5 53.1V13.275C27.3477 10.03 21.3341 8.85 15.75 8.85Z" fill="url(#paint0_linear_652_2839)"/>
<defs>
<linearGradient id="paint0_linear_652_2839" x1="9.93337" y1="-4.74636e-07" x2="54.124" y2="58.1971" gradientUnits="userSpaceOnUse">
<stop stop-color="#C347FC"/>
<stop offset="1" stop-color="#9747FF"/>
</linearGradient>
</defs>
</svg>
