<svg width="59" height="59" viewBox="0 0 59 59" fill="none" xmlns="http://www.w3.org/2000/svg">
<path d="M26.55 35.4H20.65C20.65 20.7385 32.5385 8.85 47.2 8.85V14.75C35.7835 14.75 26.55 23.9835 26.55 35.4ZM47.2 26.55V20.65C39.058 20.65 32.45 27.258 32.45 35.4H38.35C38.35 30.503 42.303 26.55 47.2 26.55ZM14.75 5.9C14.75 2.6255 12.1245 0 8.85 0C5.5755 0 2.95 2.6255 2.95 5.9C2.95 9.1745 5.5755 11.8 8.85 11.8C12.1245 11.8 14.75 9.1745 14.75 5.9ZM27.8775 7.375H21.9775C21.2695 11.564 17.7 14.75 13.275 14.75H4.425C1.9765 14.75 0 16.7265 0 19.175V26.55H17.7V19.883C23.187 18.1425 27.2875 13.275 27.8775 7.375ZM50.15 44.25C53.4245 44.25 56.05 41.6245 56.05 38.35C56.05 35.0755 53.4245 32.45 50.15 32.45C46.8755 32.45 44.25 35.0755 44.25 38.35C44.25 41.6245 46.8755 44.25 50.15 44.25ZM54.575 47.2H45.725C41.3 47.2 37.7305 44.014 37.0225 39.825H31.1225C31.7125 45.725 35.813 50.5925 41.3 52.333V59H59V51.625C59 49.1765 57.0235 47.2 54.575 47.2Z" fill="url(#paint0_linear_652_2861)"/>
<defs>
<linearGradient id="paint0_linear_652_2861" x1="7.44472" y1="8.46037e-07" x2="51.5553" y2="59" gradientUnits="userSpaceOnUse">
<stop stop-color="#C347FC"/>
<stop offset="0.788462" stop-color="#9747FF"/>
</linearGradient>
</defs>
</svg>
