<svg width="65" height="59" viewBox="0 0 65 59" fill="none" xmlns="http://www.w3.org/2000/svg">
<path d="M23.8136 0.000120563C18.2295 -0.0292765 12.7932 5.32099 15.275 11.9647H5.90909C4.3419 11.9647 2.8389 12.5842 1.73073 13.6868C0.622563 14.7894 0 16.2848 0 17.8441V23.7235C0 24.5032 0.311281 25.2509 0.865366 25.8022C1.41945 26.3535 2.17095 26.6632 2.95455 26.6632H29.5455V17.8441H35.4545V26.6632H62.0455C62.829 26.6632 63.5806 26.3535 64.1346 25.8022C64.6887 25.2509 65 24.5032 65 23.7235V17.8441C65 16.2848 64.3774 14.7894 63.2693 13.6868C62.1611 12.5842 60.6581 11.9647 59.0909 11.9647H49.725C53.1818 2.35189 40.1818 -4.43883 34.1841 3.85113L32.5 6.08531L30.8159 3.79234C28.9545 1.176 26.3841 0.0295176 23.8136 0.000120563ZM23.6364 6.08531C26.2659 6.08531 27.5955 9.26019 25.7341 11.1122C23.8727 12.9642 20.6818 11.6414 20.6818 9.02501C20.6818 8.24536 20.9931 7.49763 21.5472 6.94633C22.1013 6.39503 22.8528 6.08531 23.6364 6.08531ZM41.3636 6.08531C43.9932 6.08531 45.3227 9.26019 43.4614 11.1122C41.6 12.9642 38.4091 11.6414 38.4091 9.02501C38.4091 8.24536 38.7204 7.49763 39.2745 6.94633C39.8285 6.39503 40.58 6.08531 41.3636 6.08531ZM2.95455 29.6029V53.1206C2.95455 54.6799 3.57711 56.1754 4.68528 57.278C5.79345 58.3806 7.29645 59 8.86364 59H56.1364C57.7036 59 59.2066 58.3806 60.3147 57.278C61.4229 56.1754 62.0455 54.6799 62.0455 53.1206V29.6029H35.4545V53.1206H29.5455V29.6029H2.95455Z" fill="url(#paint0_linear_652_2847)"/>
<defs>
<linearGradient id="paint0_linear_652_2847" x1="-6.45355e-07" y1="7.03966" x2="65" y2="51.9603" gradientUnits="userSpaceOnUse">
<stop stop-color="#C347FC"/>
<stop offset="0.899038" stop-color="#9747FF"/>
</linearGradient>
</defs>
</svg>
