<svg width="23" height="23" viewBox="0 0 23 23" fill="none" xmlns="http://www.w3.org/2000/svg">
<g clip-path="url(#clip0_1224_1823)">
<path d="M20.7837 0.699219H1.80447C0.895312 0.699219 0.160156 1.41697 0.160156 2.30438V21.3619C0.160156 22.2493 0.895312 22.9714 1.80447 22.9714H20.7837C21.6928 22.9714 22.4323 22.2493 22.4323 21.3662V2.30438C22.4323 1.41697 21.6928 0.699219 20.7837 0.699219ZM6.76786 19.6784H3.46183V9.04693H6.76786V19.6784ZM5.11485 7.59837C4.05344 7.59837 3.19648 6.74142 3.19648 5.68436C3.19648 4.6273 4.05344 3.77034 5.11485 3.77034C6.1719 3.77034 7.02886 4.6273 7.02886 5.68436C7.02886 6.73707 6.1719 7.59837 5.11485 7.59837ZM19.1394 19.6784H15.8377V14.5106C15.8377 13.2795 15.8159 11.6918 14.1194 11.6918C12.4012 11.6918 12.1402 13.0359 12.1402 14.4236V19.6784H8.84282V9.04693H12.0096V10.4998H12.0531C12.4925 9.66464 13.5713 8.78158 15.1765 8.78158C18.5217 8.78158 19.1394 10.9827 19.1394 13.845V19.6784Z" fill="white"/>
</g>
<defs>
<clipPath id="clip0_1224_1823">
<rect width="22.2722" height="22.2722" fill="white" transform="translate(0.160156 0.699219)"/>
</clipPath>
</defs>
</svg>
