<svg width="186" height="78" viewBox="0 0 186 78" fill="none" xmlns="http://www.w3.org/2000/svg">
<g clip-path="url(#clip0_1224_1830)">
<path d="M4.99852 53.7149C5.23635 53.4586 5.59213 53.3344 6.06973 53.3344C5.71201 52.952 5.41424 52.7617 5.17834 52.7617C4.94244 52.7617 4.70074 52.8238 4.46484 52.952C4.82256 52.952 5.00045 53.2063 5.00045 53.7149H4.99852Z" fill="url(#paint0_linear_1224_1830)"/>
<path d="M6.41967 51.9982C5.70617 50.3461 5.17057 49.393 4.81285 49.1367H3.92146V50.0899C3.80158 50.8528 4.63496 51.4876 6.41967 51.9982Z" fill="url(#paint1_linear_1224_1830)"/>
<path d="M2.32031 64.3955C0.773437 64.3955 0 65.6651 0 68.2101C0 69.8621 1.00934 70.6891 3.03381 70.6891C4.57875 70.6891 5.88972 70.2426 6.959 69.3535C7.55261 68.7148 7.96834 68.2082 8.2081 67.8277L6.959 65.1565C5.88779 64.6459 4.34092 64.3936 2.31838 64.3936L2.32031 64.3955Z" fill="url(#paint2_linear_1224_1830)"/>
<path d="M166.324 41.5662C166.415 41.5604 166.512 41.5526 166.616 41.5371C166.489 41.5371 166.392 41.5468 166.324 41.5662Z" fill="url(#paint3_linear_1224_1830)"/>
<path d="M168.611 41.2604C168.85 40.9848 168.972 40.7557 168.972 40.5693C168.729 40.5693 168.338 40.6179 167.795 40.7072C167.251 40.8003 166.859 40.845 166.617 40.845C167.46 41.0314 168.125 41.1692 168.609 41.2585L168.611 41.2604Z" fill="url(#paint4_linear_1224_1830)"/>
<path d="M95.4961 34.0481C95.3124 33.9744 95.0552 33.9355 94.7188 33.9355C94.8947 33.9355 95.1557 33.9744 95.4961 34.0481Z" fill="url(#paint5_linear_1224_1830)"/>
<path d="M168.074 44.2988H164.996V44.7143H168.074V44.2988Z" fill="url(#paint6_linear_1224_1830)"/>
<path d="M163.543 45.5434L165.716 45.821V45.4055L163.543 45.1299V45.5434Z" fill="url(#paint7_linear_1224_1830)"/>
<path d="M168.629 45.0957C169.613 44.9346 170.334 44.8511 170.789 44.8511C170.305 44.8511 169.82 44.6667 169.34 44.2979C169.143 44.7482 168.905 45.0103 168.631 45.0957H168.629Z" fill="url(#paint8_linear_1224_1830)"/>
<path d="M175.691 44.207C175.726 44.2692 175.838 44.3002 176.038 44.3002C175.918 44.2672 175.804 44.2362 175.691 44.207Z" fill="url(#paint9_linear_1224_1830)"/>
<path d="M171.659 43.5957C171.609 43.5994 171.551 43.6068 171.508 43.6068C171.541 43.6068 171.595 43.6012 171.659 43.5957Z" fill="url(#paint10_linear_1224_1830)"/>
<path d="M172.254 43.5C171.993 43.5485 171.797 43.5796 171.664 43.5951C171.828 43.5815 172.018 43.5544 172.254 43.5Z" fill="url(#paint11_linear_1224_1830)"/>
<path d="M184.368 48.0995C183.643 47.9616 183.1 47.8918 182.738 47.8918C181.651 47.8918 180.112 47.983 178.121 48.1674C176.129 48.3518 174.59 48.4431 173.503 48.4431L167.526 48.8585C164.87 49.041 162.153 48.9032 159.376 48.4431C161.55 47.6142 167.526 47.1987 177.307 47.1987C178.511 47.1987 179.662 46.7833 180.748 45.9544C177.127 46.5076 174.106 46.7833 171.693 46.7833C171.571 46.7833 171.332 46.7134 170.968 46.5756C170.607 46.4377 170.303 46.3679 170.063 46.3679L169.338 46.7814C166.56 47.057 164.326 47.1968 162.636 47.1968C162.393 47.1968 162.093 47.1269 161.731 46.9891C161.37 46.8512 161.126 46.7814 161.006 46.7814C160.763 46.7814 160.432 46.826 160.011 46.9192C159.585 47.0104 159.255 47.057 159.015 47.057C158.506 47.057 157.866 46.9541 157.106 46.76C157.385 46.7736 157.779 46.7814 158.29 46.7814C158.529 46.7814 159.104 46.5736 160.011 46.1601C160.072 46.131 160.128 46.1077 160.186 46.0806H160.78V45.8243C161.246 45.6341 161.565 45.537 161.73 45.537C161.969 45.537 162.182 45.5816 162.364 45.6748C162.545 45.7661 162.694 45.8127 162.816 45.8127C162.816 45.2594 163.298 44.8459 164.264 44.5683C164.626 44.2014 164.868 43.9257 164.99 43.7394L166.801 43.4637C168.006 43.4637 169.214 43.6947 170.423 44.1548C170.301 43.9704 170.241 43.7879 170.241 43.6015C170.241 43.1415 170.663 42.9104 171.51 42.9104C171.628 42.5435 171.691 42.2679 171.691 42.0815L172.778 41.2526C171.809 41.439 171.026 41.5283 170.423 41.5283C170.061 42.0815 169.758 42.4504 169.518 42.6328C169.156 42.0796 168.913 41.6661 168.793 41.3885C167.584 42.7707 166.438 43.4618 165.351 43.4618C164.504 43.4618 163.659 43.3239 162.816 43.0463C163.541 42.8639 164.023 42.7707 164.264 42.7707C164.264 42.3106 164.324 42.0349 164.446 41.9418C164.686 42.0349 164.868 42.0796 164.99 42.0796C165.229 42.0796 165.32 42.0097 165.26 41.8719C165.198 41.734 165.289 41.6642 165.533 41.6642C165.894 41.6642 166.194 41.7573 166.438 41.9398C166.171 41.736 166.134 41.6079 166.326 41.5554C165.896 41.5787 165.63 41.4778 165.531 41.2487C166.012 40.8818 166.256 40.6062 166.256 40.4198C165.531 40.4198 165.048 40.3286 164.808 40.1441C165.411 39.4084 166.194 39.0396 167.163 39.0396H166.258C165.411 38.6727 164.506 38.4863 163.541 38.4863C162.936 38.4863 162.273 38.5795 161.55 38.7619L160.825 38.2087C163.963 37.5661 165.653 37.2419 165.896 37.2419H161.911C161.668 37.0575 161.608 36.9663 161.73 36.9663C163.781 36.5062 164.928 36.2752 165.171 36.2752L168.975 36.413C171.51 36.5062 173.439 36.5508 174.77 36.5508C175.131 36.5508 175.704 36.6673 176.491 36.8964C177.274 37.1274 177.728 37.2419 177.85 37.2419C179.176 37.2419 182.349 36.3062 184.645 35.9374L183.283 34.7552H180.928C181.046 34.7552 180.746 34.4795 180.023 33.9262L180.928 33.2351C180.567 33.2351 180.081 33.1905 179.48 33.0973C178.875 33.0061 178.393 32.9595 178.032 32.9595C177.788 32.9595 177.639 33.0294 177.579 33.1672C177.517 33.305 177.308 33.3749 176.945 33.3749C176.701 33.3749 176.402 33.2604 176.04 33.0294C175.678 32.8003 175.375 32.6838 175.135 32.6838L167.89 32.9595C163.06 33.1458 159.378 33.2351 156.841 33.2351C156.358 33.0507 155.936 32.9595 155.573 32.9595L155.03 33.3749C154.183 33.1905 153.46 33.0527 152.856 32.9595C152.856 33.2351 152.794 33.4662 152.674 33.6506C152.191 33.1905 151.162 32.9595 149.596 32.9595C150.078 33.3283 150.199 33.5593 149.958 33.6506C149.714 33.6506 149.233 33.6991 148.51 33.7884H147.241C146.997 33.7884 146.607 33.7185 146.064 33.5807C145.934 33.5477 145.81 33.5186 145.694 33.4933L145.611 33.4778C145.28 33.4099 145.006 33.3749 144.795 33.3749C144.492 33.3749 144.343 33.305 144.343 33.1672C144.343 33.0294 144.281 32.9595 144.161 32.9595C143.556 33.4215 143.074 33.6506 142.713 33.6506L135.467 33.3749C133.05 33.2837 129.129 33.2371 123.696 33.2371C122.971 33.2371 121.913 33.307 120.527 33.4448C119.136 33.5826 118.083 33.6525 117.357 33.6525C116.391 33.6525 115.424 33.5147 114.459 33.239C114.577 33.1478 114.459 32.9634 114.097 32.6858C108.302 33.3322 103.894 33.6525 100.877 33.6525C101.117 33.7457 101.117 33.8835 100.877 34.0679C100.394 34.0679 99.7598 34.1145 98.9748 34.2058C98.1878 34.299 97.5536 34.3436 97.074 34.3436C96.8304 34.3436 96.4398 34.2737 95.8965 34.1359C95.7515 34.099 95.62 34.0679 95.4962 34.0408C95.7708 34.1514 95.8771 34.3436 95.8056 34.6193L95.2623 35.0328C93.3287 34.6659 92.0022 34.4795 91.2771 34.4795L90.7338 34.2038L91.2771 33.7903L93.9938 34.2038C91.6987 33.6506 89.5852 33.3749 87.6555 33.3749C87.0503 33.3749 86.2343 33.4215 85.2114 33.5127C84.1847 33.6059 83.4287 33.6506 82.9472 33.6506L49.0803 34.4795C47.8718 34.7552 47.0887 34.8949 46.7252 34.8949C44.6698 34.8949 43.5251 34.6659 43.2834 34.2038C43.2834 34.0214 43.4652 33.6991 43.8268 33.2371C43.5831 32.6838 43.5232 32.1791 43.645 31.7171C43.1616 31.7171 42.7981 31.6258 42.5583 31.4414C41.7114 31.7171 40.9883 31.9481 40.385 32.1325C38.8149 33.3303 38.0299 34.1592 38.0299 34.6193C38.0299 34.7125 38.1478 34.9881 38.3914 35.4482C38.4823 35.621 38.55 35.7782 38.6061 35.9238L26.2272 36.3489C25.0361 36.7294 24.2646 36.9216 23.9069 36.9216C21.8824 36.9216 20.7532 36.6052 20.5173 35.9685C20.5173 35.7161 20.6952 35.2715 21.0529 34.6329C20.8132 33.8699 20.7551 33.173 20.875 32.5343C20.3974 32.5343 20.0416 32.4101 19.8038 32.1539C18.9704 32.5343 18.2569 32.8547 17.6633 33.107C16.1165 34.761 15.343 35.9063 15.343 36.5411C15.343 36.6693 15.461 37.0517 15.7007 37.6845C15.9386 38.3232 16.0584 38.8299 16.0584 39.2104L14.4516 40.1635C13.4984 39.1483 12.7849 38.6377 12.3092 38.6377C11.4758 38.6377 10.7024 40.1635 9.9889 43.2152C9.5113 44.4887 9.09752 45.2516 8.7398 45.504C9.33341 45.504 10.2267 45.9505 11.4159 46.8396V48.7479C10.4626 49.767 9.80908 50.7202 9.4533 51.6093C9.09558 53.007 8.85582 54.0883 8.7398 54.8512C7.07305 54.4688 5.82394 54.4047 4.9925 54.661C4.9925 54.7852 4.93062 55.0104 4.81461 55.3288C4.69473 55.6452 4.63672 55.9306 4.63672 56.1868C4.63672 56.4431 4.81461 56.8837 5.17232 57.5224C5.53004 58.1572 5.64605 58.6018 5.53004 58.858C6.00377 58.7299 6.95703 58.6678 8.38595 58.6678C8.62379 58.6678 8.97957 58.2213 9.45716 57.3322C9.93089 56.4411 10.2287 55.9306 10.3486 55.8063C10.8223 56.0587 11.4198 56.6314 12.1333 57.5224C11.18 59.5549 10.7063 60.7644 10.7063 61.1468C10.7063 61.5292 10.8242 61.7816 11.064 61.9097L11.2419 62.0999C13.0266 63.3695 14.8113 64.0703 16.596 64.1985C17.4274 65.3438 18.2028 66.3921 18.9163 67.3453C19.6298 68.2984 20.9369 68.776 22.8415 68.776C22.128 69.5389 21.7703 70.428 21.7703 71.4472C21.7703 71.8296 22.4528 72.907 23.8218 74.6891C25.1889 76.4693 26.0532 77.3603 26.409 77.3603C26.7647 77.3603 27.8959 76.7876 29.7986 75.6442C28.9652 75.6442 28.5495 75.5161 28.5495 75.2637C30.8079 74.5008 31.6413 74.1184 31.0477 74.1184H31.939C32.2968 74.2426 32.7105 74.3086 33.1881 74.3086C32.4746 73.1652 31.939 72.4644 31.5813 72.2101C31.5813 72.8449 31.3416 73.1633 30.8678 73.1633C30.6281 73.1633 30.4811 73.0021 30.4212 72.6857C30.3593 72.3673 30.2123 72.2082 29.9745 72.2082C29.7367 72.2082 29.4969 72.2703 29.261 72.3984H28.5475C27.4763 72.3984 26.465 71.8878 25.5137 70.8726C26.2272 70.362 26.7628 70.0436 27.1205 69.9194C26.7628 69.9194 26.5231 69.8534 26.407 69.7292C26.407 69.601 26.525 69.4108 26.7647 69.1565H27.836L28.5495 70.1096C29.6207 69.5991 30.3922 69.4729 30.8698 69.7292C30.9877 69.601 31.2855 69.601 31.7612 69.7292C32.1189 69.9835 32.4147 70.1096 32.6525 70.1096C32.8904 70.1096 33.2462 69.9194 33.7237 69.537C34.1975 69.1545 34.4953 68.9643 34.6151 68.9643C38.1845 68.4537 41.0385 68.2014 43.181 68.2014C44.0124 68.2014 44.9657 68.2635 46.0369 68.3916L84.7609 66.2931C86.3059 66.165 88.5662 65.9126 91.542 65.5302L68.7005 64.3848C68.4607 64.3848 68.192 64.5091 67.8981 64.7653C67.6003 65.0196 67.3315 65.1477 67.0956 65.1477C66.8597 65.1477 66.649 65.0196 66.4711 64.7653C66.2932 64.5091 66.0844 64.3848 65.8465 64.3848C65.249 64.3848 64.1798 64.6372 62.6348 65.1477C62.3951 64.8915 62.3371 64.7013 62.4569 64.5751C63.2884 64.1946 63.8839 63.8743 64.2416 63.6219C69.238 63.3657 73.2232 63.2395 76.197 63.2395C76.315 63.2395 76.6708 63.0492 77.2682 62.6668C77.8619 62.2844 78.2776 62.0941 78.5173 62.0941C79.8245 62.0941 81.7581 61.8088 84.3162 61.2361C86.8724 60.6634 88.806 60.378 90.115 60.378L91.0084 61.141L91.8997 60.1878C92.2575 60.5683 92.4934 60.8847 92.6132 61.141L109.387 59.6151C109.981 59.6151 110.516 59.8694 110.994 60.378C111.112 60.378 111.379 60.1218 111.796 59.6151C112.212 59.1046 112.599 58.8522 112.957 58.8522C113.194 58.8522 113.519 59.0094 113.939 59.3297C114.355 59.6462 114.621 59.8073 114.741 59.8073C115.215 59.8073 115.959 59.7122 116.973 59.5219C117.982 59.3317 118.726 59.2366 119.204 59.2366C119.322 59.2366 119.62 59.3317 120.095 59.5219C120.569 59.7122 120.927 59.8073 121.167 59.8073C121.524 59.8073 121.998 59.7413 122.594 59.6171C123.187 59.4889 123.665 59.4268 124.021 59.4268H130.624C131.575 59.2987 131.811 59.2366 131.337 59.2366H135.978C138.356 59.2366 139.963 59.0463 140.796 58.6639L141.332 58.2834C141.57 58.2834 141.984 58.3455 142.581 58.4736C143.175 58.5979 143.59 58.6639 143.83 58.6639C145.971 58.6639 147.4 58.0252 148.113 56.7556C148.351 56.7556 148.529 56.8177 148.649 56.9459C149.122 56.4353 150.016 56.1829 151.325 56.1829C151.563 56.1829 151.976 56.2781 152.574 56.4683C153.168 56.6586 153.583 56.7537 153.823 56.7537C154.063 56.7537 154.475 56.6256 155.072 56.3712C155.666 56.115 156.081 55.9908 156.321 55.9908C159.177 55.6083 160.782 55.4181 161.14 55.4181C160.782 55.4181 160.248 55.323 159.533 55.1327C158.819 54.9425 158.284 54.8473 157.926 54.8473C156.855 54.8473 155.339 54.9716 153.376 55.2278C151.414 55.4821 149.896 55.6083 148.827 55.6083L142.939 56.181C140.321 56.4353 137.645 56.2431 134.909 55.6083C137.049 54.463 142.939 53.8922 152.576 53.8922C153.763 53.8922 154.896 53.3196 155.965 52.1761C152.396 52.9391 149.422 53.3215 147.044 53.3215C146.924 53.3215 146.686 53.2264 146.33 53.0361C145.973 52.8459 145.675 52.7508 145.439 52.7508L144.725 53.3234C141.988 53.7039 139.787 53.8961 138.122 53.8961C137.883 53.8961 137.587 53.801 137.231 53.6108C136.873 53.4205 136.633 53.3254 136.517 53.3254C136.278 53.3254 135.951 53.3875 135.535 53.5156C135.117 53.6399 134.791 53.7059 134.553 53.7059C134.052 53.7059 133.422 53.5642 132.673 53.2963C132.948 53.3157 133.337 53.3254 133.839 53.3254C134.077 53.3254 134.642 53.04 135.535 52.4673C136.427 51.8947 136.991 51.6093 137.231 51.6093C137.471 51.6093 137.678 51.6714 137.855 51.7995C138.033 51.9238 138.182 51.9898 138.302 51.9898C138.302 51.7432 138.356 51.5181 138.457 51.3123C138.677 51.4191 138.834 51.4754 138.917 51.4754C138.948 51.4754 138.983 51.4754 139.018 51.4754V51.6093L141.158 51.9898V51.4171L140.682 51.3317C140.841 51.3123 141.005 51.2909 141.181 51.2676C142.206 51.1298 142.962 51.0599 143.445 51.0599C143.563 51.0599 143.867 51.1298 144.35 51.2676C144.832 51.4055 145.193 51.4754 145.437 51.4754C145.799 51.4754 146.28 51.4288 146.885 51.3375C147.489 51.2443 147.972 51.1997 148.334 51.1997H155.035C156 51.1065 156.24 51.0619 155.76 51.0619H160.469C162.882 51.0619 164.512 50.924 165.359 50.6464L165.902 50.3708C166.142 50.3708 166.563 50.4154 167.171 50.5086C167.774 50.5998 168.195 50.6464 168.439 50.6464C170.612 50.6464 172.061 50.1844 172.786 49.2642C173.026 49.2642 173.207 49.3089 173.329 49.4021C173.811 49.0332 174.715 48.8488 176.046 48.8488C176.286 48.8488 176.707 48.9187 177.314 49.0565C177.918 49.1944 178.339 49.2642 178.583 49.2642C178.826 49.2642 179.246 49.1711 179.851 48.9886C180.454 48.8022 180.876 48.7129 181.12 48.7129C184.018 48.4373 185.648 48.2975 186.01 48.2975C185.648 48.2975 185.105 48.2276 184.38 48.0898L184.368 48.0995ZM168.429 42.9182H169.516V43.3336H168.429V42.9182ZM177.486 33.7981H178.573V34.2135H177.486V33.7981ZM172.233 33.5224L174.224 33.7981V34.2116L172.233 33.9359V33.5205V33.5224ZM164.99 33.3846C166.801 33.6603 168.793 33.8001 170.966 33.8001C168.431 33.8001 166.136 33.8932 164.085 34.0757L164.99 33.3846ZM23.7309 69.7389L23.3732 68.9759L23.7309 68.7857L24.0887 69.7389H23.7309ZM144.362 57.5302L144.004 57.9107L142.933 57.5302H144.36H144.362ZM130.8 51.9995C130.918 51.9995 131.215 51.9335 131.691 51.8093C132.165 51.6811 132.523 51.619 132.762 51.619C132.523 51.619 132.584 51.8093 132.94 52.1917C133.248 51.8636 133.414 51.5841 133.457 51.3511H133.474C133.513 51.3511 133.549 51.3569 133.588 51.3589L134.547 52.3839C132.88 52.2557 131.631 52.1276 130.8 52.0014V51.9995ZM137.225 51.2366H136.065C136.432 50.9473 136.778 50.7959 137.099 50.7959C137.275 50.7959 137.5 50.858 137.77 50.9803C137.533 51.1473 137.349 51.2366 137.225 51.2366ZM157.466 46.0029L157.924 45.5137L157.868 45.4535C157.903 45.3875 157.926 45.3254 157.926 45.2672L159.013 46.0961C158.448 46.065 157.936 46.034 157.466 46.0029ZM165.169 40.9847C164.926 41.2604 164.808 41.4914 164.808 41.6758L163.178 41.2604C164.021 41.2604 164.686 41.1691 165.169 40.9847ZM162.634 40.2936H164.264V40.709H162.634V40.2936ZM161.911 44.5761H162.636C162.754 44.2092 163.3 43.9335 164.266 43.7471C162.936 44.7624 162.093 45.2672 161.731 45.2672H159.376C158.56 45.2672 158.143 45.007 158.114 44.4926C158.398 44.5489 159.661 44.5761 161.911 44.5761ZM158.46 38.6785V38.2203H160.099C159.419 38.4028 158.876 38.5562 158.46 38.6785ZM159.738 33.5224L161.006 33.7981V34.2116L159.738 33.9359V33.5205V33.5224ZM158.288 33.5904C158.649 33.7282 158.951 33.7981 159.193 33.7981C158.709 33.7981 158.288 33.8913 157.924 34.0738C157.681 33.7981 157.563 33.569 157.563 33.3827C157.681 33.3827 157.924 33.4526 158.288 33.5904ZM156.114 42.9182H157.201V43.3336H156.114V42.9182ZM153.036 48.7226H152.674L153.036 48.4314V48.7226ZM153.036 48.3538C152.982 48.3383 152.932 48.3227 152.878 48.3072H153.036V48.3538ZM153.854 45.8204H153.941V46.2359H153.086C153.373 46.0534 153.628 45.9175 153.854 45.8204ZM154.21 48.7226H153.579V48.3072H154.596L154.208 48.7226H154.21ZM154.848 48.7226H154.745L154.848 48.6139V48.7226ZM154.848 44.7139C155.209 44.4382 155.753 44.2985 156.478 44.2985C156.718 44.2985 157.081 44.5295 157.565 44.9896C155.994 44.9896 155.088 44.8983 154.848 44.7139ZM155.209 45.8204C155.327 45.8204 155.631 45.7738 156.114 45.6826C156.596 45.5894 156.957 45.5448 157.201 45.5448C156.992 45.5448 157.01 45.6476 157.251 45.8534L157.131 45.9815C156.346 45.9272 155.704 45.8728 155.209 45.8204ZM157.744 48.7226H156.476V48.3072H157.744V48.7226ZM168.611 50.1029L167.524 49.8272H168.973L168.611 50.1029Z" fill="url(#paint12_linear_1224_1830)"/>
<path d="M175.672 42.7793C176.034 43.055 175.972 43.1947 175.491 43.1947C175.247 43.1947 175.156 43.1248 175.22 42.987C175.28 42.8492 175.189 42.7793 174.947 42.7793C174.706 42.7793 174.16 42.9171 173.317 43.1947C172.902 43.3306 172.546 43.4316 172.246 43.5015C172.3 43.4917 172.351 43.482 172.41 43.4704H173.497C173.157 43.4704 173.886 43.715 175.688 44.2061C175.68 44.1925 175.672 44.179 175.672 44.1615C175.672 43.9771 175.854 43.7461 176.216 43.4704C176.697 43.9324 177.059 44.2081 177.302 44.2993V44.0237C177.181 43.8392 177.121 43.7014 177.121 43.6082L177.846 43.1947C176.999 43.0103 176.276 42.8725 175.672 42.7793Z" fill="url(#paint13_linear_1224_1830)"/>
<path d="M173.321 42.2266L172.234 42.5042V42.9177L173.321 42.642V42.2266Z" fill="url(#paint14_linear_1224_1830)"/>
<path d="M131.596 13.5412C131.36 13.2306 130.995 13.0481 130.608 13.0481C130.608 13.0481 124.85 13.0268 124.848 13.0268C124.335 13.0268 123.873 13.3413 123.686 13.8208L123.392 14.572C123.088 14.2769 122.744 13.9993 122.357 13.7412C121.069 12.8831 119.49 12.4444 117.624 12.4366C116.692 12.4366 115.655 12.5803 114.547 12.8637C113.426 13.151 112.318 13.5975 111.253 14.1935C110.164 14.8011 109.174 15.5931 108.306 16.5502C107.395 17.5538 106.745 18.7594 106.374 20.1357C105.891 21.9217 105.881 23.4534 106.347 24.6899C106.803 25.8994 107.546 26.8952 108.551 27.6523C108.712 27.7727 108.876 27.8892 109.046 28.0018C109.046 28.0018 105.017 27.9862 105.015 27.9862C104.452 27.9862 103.959 28.3648 103.81 28.9103L103.406 30.4051C103.278 30.3624 103.147 30.3313 103.01 30.3313H101.875L109.215 2.83314C109.315 2.45653 109.236 2.05469 109 1.74603C108.764 1.43736 108.399 1.25488 108.01 1.25488H97.1548C96.5902 1.25488 96.0952 1.63537 95.9482 2.18281L94.3317 8.24153C94.2312 8.61814 94.3105 9.01998 94.5464 9.32864C94.7823 9.63731 95.1477 9.81978 95.5364 9.81978H95.8747L90.4007 30.3293H89.3469C88.9331 30.3293 88.56 30.5351 88.3299 30.8593C88.0959 30.6167 87.7788 30.4711 87.4385 30.4711H86.259L88.2834 22.8884C88.85 20.7627 88.8597 18.9282 88.3086 17.4315C87.7614 15.9445 86.8545 14.7429 85.6132 13.8596C84.4433 13.0287 83.0473 12.4386 81.4675 12.1047C79.9729 11.7902 78.4627 11.6329 76.9797 11.6329C75.8021 11.6329 74.6187 11.7611 73.4644 12.0134C72.3448 12.258 71.2504 12.5725 70.2102 12.953C69.1989 13.3238 68.2572 13.7082 67.4142 14.0945C66.5827 14.4769 65.8789 14.8166 65.3201 15.1078C64.8676 15.3427 64.6027 15.83 64.6511 16.3386L65.1615 21.7877C65.2002 22.1954 65.4342 22.5604 65.79 22.7603C65.8248 22.7797 65.8596 22.7972 65.8944 22.8127C65.5444 23.0127 65.206 23.2262 64.8754 23.4534C63.8622 24.1522 62.9611 24.9928 62.1741 25.9401C62.267 25.6586 62.3578 25.3752 62.4332 25.0918C62.8954 23.3563 63.0559 21.712 62.905 20.2037C62.7484 18.6235 62.2322 17.2219 61.3698 16.0416C60.5074 14.8593 59.2912 13.9295 57.7559 13.2791C56.2767 12.6521 54.4649 12.3357 52.3728 12.3357C50.472 12.3357 48.6003 12.6327 46.8079 13.219C45.0096 13.8072 43.3332 14.6866 41.8211 15.83C40.7016 16.6783 39.6749 17.6703 38.7583 18.7885L40.1969 13.3956C40.2975 13.019 40.2182 12.6172 39.9823 12.3085C39.7464 11.9998 39.381 11.8174 38.9923 11.8174C37.6775 11.8174 36.5347 11.9416 35.595 12.1862C34.6398 12.4366 33.7832 12.7938 33.0465 13.2481C32.422 13.6344 31.8554 14.0731 31.3585 14.5584L31.2463 13.9993C31.1284 13.415 30.6179 12.9938 30.0224 12.9938H21.2265C20.6618 12.9938 20.1668 13.3743 20.0199 13.9217L18.3899 20.027C18.2893 20.4036 18.3686 20.8055 18.6045 21.1141C18.8404 21.4228 19.2058 21.6053 19.5945 21.6053H19.9793L17.6512 30.3255H16.551C15.9864 30.3255 15.4914 30.706 15.3445 31.2534L13.7028 37.4072C13.6023 37.7838 13.6816 38.1857 13.9175 38.4943C14.1534 38.803 14.5188 38.9855 14.9075 38.9855H28.1487C28.7133 38.9855 29.2083 38.605 29.3553 38.0576L30.9969 31.9037C31.0974 31.5271 31.0182 31.1253 30.7823 30.8166C30.5464 30.5079 30.1809 30.3255 29.7923 30.3255H29.0788L29.9489 27.0641C30.4052 25.3577 31.1438 24.2221 32.1454 23.6902C33.1896 23.135 34.5798 22.8341 36.2737 22.7875C35.887 23.6572 35.564 24.5696 35.3088 25.5228C34.6591 27.9552 34.5102 30.0983 34.8641 31.8921C35.2237 33.7188 35.9353 35.2447 36.9775 36.4249C38.012 37.5975 39.3113 38.473 40.8389 39.0263C42.3065 39.5582 43.863 39.8299 45.466 39.8299C48.0048 39.8299 50.4063 39.5058 52.6087 38.8651C54.8246 38.2206 57.0907 37.0947 59.3414 35.5184C59.5541 35.3708 59.703 35.167 59.79 34.9399C60.1497 36.0328 60.7336 36.9607 61.5496 37.6848C62.3849 38.4264 63.4039 38.9874 64.5795 39.3524C65.7049 39.7018 66.9037 39.8785 68.1451 39.8785C68.6207 39.8785 69.1718 39.828 69.8292 39.7212C70.4809 39.6183 71.1673 39.4417 71.873 39.199C72.5904 38.9525 73.3174 38.6069 74.0387 38.1721C74.2146 38.0673 74.3867 37.9547 74.5588 37.8363L74.6168 38.0537C74.7618 38.6031 75.2568 38.9855 75.8234 38.9855H85.8355C86.2048 38.9855 86.5413 38.8205 86.7733 38.5545C87.0092 38.8244 87.3457 38.9855 87.7053 38.9855H101.368C101.635 38.9855 101.884 38.8981 102.091 38.7506C102.281 38.8651 102.495 38.9331 102.722 38.9331C102.722 38.9331 108.573 38.9544 108.575 38.9544C109.077 38.9544 109.53 38.6516 109.725 38.1857L110.046 37.4189C110.379 37.7314 110.76 38.0246 111.187 38.2983C112.461 39.1175 114.08 39.5368 115.998 39.5446H116.046C117.256 39.5446 118.496 39.3776 119.728 39.0457C120.988 38.7059 122.168 38.1934 123.227 37.5218C124.297 36.8462 125.244 36.0115 126.047 35.0389C126.878 34.0314 127.474 32.8802 127.816 31.6145C128.282 29.8984 128.253 28.425 127.731 27.233C127.236 26.1051 126.48 25.1656 125.48 24.4376C125.261 24.2784 125.033 24.127 124.799 23.9814C124.799 23.9814 128.315 23.995 128.317 23.995C128.879 23.995 129.372 23.6164 129.521 23.0709L131.809 14.6244C131.911 14.2478 131.832 13.846 131.598 13.5354L131.596 13.5412ZM48.6487 22.2265C48.9232 21.9353 49.2674 21.679 49.6735 21.4616C50.0157 21.2791 50.4469 21.1859 50.9535 21.1859C51.6747 21.1859 51.9706 21.3063 52.0595 21.3568C52.2548 21.4655 52.2896 21.5528 52.2993 21.58C52.3728 21.7703 52.3998 22.0052 52.3844 22.2769C52.3805 22.3313 52.3766 22.3857 52.3728 22.44H48.4611C48.521 22.3682 48.5829 22.2983 48.6487 22.2284V22.2265ZM53.2235 30.0285C52.5797 30.3002 51.9783 30.5099 51.4369 30.6516C50.911 30.7875 50.4372 30.871 50.0273 30.8962C49.5691 30.9253 49.1417 30.9408 48.7608 30.9408C47.7341 30.9408 47.27 30.772 47.0825 30.6691C46.7731 30.5002 46.5565 30.3119 46.4405 30.108C46.3419 29.9372 46.2761 29.7664 46.2433 29.5936H54.1091C53.8056 29.7625 53.5116 29.9061 53.2255 30.0285H53.2235ZM57.1603 29.5936H59.7049C59.8461 29.5936 59.9814 29.5625 60.111 29.516C60.0008 29.8246 59.8964 30.1372 59.8113 30.4594C59.5174 31.5621 59.411 32.5793 59.4845 33.4995L57.1584 29.5936H57.1603ZM74.2146 30.3158C74.0348 30.4711 73.7564 30.671 73.329 30.9078C72.892 31.1505 72.4319 31.2689 71.9233 31.2689C71.6894 31.2689 71.38 31.2359 71.2427 31.0806C71.1808 31.0107 71.1789 30.8613 71.2388 30.6399C71.3645 30.1702 71.6004 29.7955 71.9639 29.4927C72.2965 29.2131 72.7702 29.0792 73.4122 29.0792C73.8704 29.0792 74.0677 29.1471 74.1141 29.1665C74.319 29.2539 74.4235 29.3277 74.4699 29.3645L74.2146 30.3177V30.3158ZM76.5233 21.6421C76.1386 21.4519 75.688 21.283 75.1814 21.1432C74.5665 20.9724 73.853 20.887 73.0583 20.887C72.7393 20.887 72.4222 20.8986 72.1031 20.92C72.7064 20.8152 73.3232 20.7627 73.9478 20.7627C75.0403 20.7627 75.8891 20.8986 76.4731 21.1665C76.5214 21.1879 76.5407 21.2054 76.5446 21.2054C76.5504 21.2228 76.5871 21.3432 76.5272 21.6441L76.5233 21.6421ZM116.392 30.9583C116.038 31.0981 115.706 31.1699 115.394 31.1699C115.209 31.1699 114.865 31.1466 114.29 31.0437C113.876 30.97 113.486 30.8399 113.13 30.6594C112.85 30.5177 112.637 30.3352 112.475 30.1003C112.393 29.9799 112.455 29.7023 112.486 29.5897C112.49 29.5761 112.494 29.5645 112.496 29.5509C113.242 29.7916 113.965 30.009 114.65 30.1993C115.416 30.4128 116.048 30.6283 116.531 30.8438C116.471 30.9253 116.419 30.9467 116.392 30.9583ZM121.031 22.3837C120.456 22.1876 119.907 22.0032 119.385 21.8285C118.565 21.5548 117.896 21.2772 117.396 21.0015C117.488 20.7492 117.601 20.654 117.682 20.6036C117.912 20.4618 118.152 20.3939 118.42 20.3939C118.863 20.3939 119.275 20.4657 119.646 20.6036C120.01 20.7395 120.306 20.9142 120.551 21.1355C120.774 21.3374 120.928 21.5548 121.023 21.7974C121.064 21.9023 121.11 22.077 121.029 22.3818L121.031 22.3837Z" fill="url(#paint15_linear_1224_1830)"/>
<path d="M70.3008 11.3998H70.34L70.2773 11.333L70.3008 11.3998Z" fill="url(#paint16_linear_1224_1830)"/>
<path d="M174.592 41.5354C175.317 41.4442 175.978 41.7664 176.583 42.5022V42.7778C176.945 42.5954 177.247 42.4556 177.488 42.3644C177.127 42.3644 176.945 42.2731 176.945 42.0887C177.788 41.6286 178.453 41.3529 178.937 41.2598C177.003 41.2598 175.555 41.3529 174.59 41.5354H174.592Z" fill="url(#paint17_linear_1224_1830)"/>
<path d="M20.9263 55.2704H21.549L23.2969 48.7186H22.6743L23.2022 46.7385H26.5995L26.7136 47.2588C26.7967 47.2083 26.905 47.1481 27.0384 47.0724C27.1719 46.9987 27.3227 46.9288 27.487 46.8647C27.6533 46.8007 27.837 46.7424 28.0381 46.6939C28.2392 46.6454 28.4538 46.6201 28.6801 46.6201C29.2543 46.6201 29.7319 46.7249 30.1167 46.9327C30.5015 47.1404 30.7915 47.4238 30.9868 47.781C31.1821 48.1382 31.2923 48.5536 31.3155 49.0254C31.3387 49.4971 31.2788 49.996 31.1376 50.5221C30.9791 51.118 30.749 51.6519 30.4512 52.1236C30.1515 52.5954 29.8093 52.9953 29.4187 53.3214C29.03 53.6495 28.6027 53.9018 28.1406 54.0804C27.6785 54.259 27.2086 54.3483 26.7349 54.3483C26.4274 54.3483 26.1645 54.3231 25.946 54.2746C25.7275 54.2241 25.5496 54.1659 25.4142 54.096C25.2808 54.0261 25.1764 53.9601 25.1048 53.8941C25.0333 53.83 24.985 53.7873 24.9598 53.7679L24.5576 55.2724H25.3581L24.838 57.2234H20.4023L20.9225 55.2724L20.9263 55.2704ZM27.9414 50.5512C27.9994 50.3338 28.0342 50.1125 28.0439 49.8892C28.0536 49.666 28.0342 49.4699 27.9859 49.301C27.9376 49.1321 27.8602 48.9924 27.7558 48.8836C27.6514 48.7749 27.5199 48.7206 27.3613 48.7206C27.0848 48.7206 26.7987 48.8739 26.5048 49.1826C26.2109 49.4913 25.9904 49.9125 25.8473 50.4483C25.7739 50.7259 25.7275 50.9841 25.7139 51.2229C25.7004 51.4617 25.7139 51.6694 25.7623 51.848C25.8106 52.0266 25.8841 52.1663 25.9924 52.2653C26.0987 52.3643 26.2321 52.4148 26.3907 52.4148C26.7078 52.4148 27.0056 52.2459 27.2898 51.9082C27.5721 51.5704 27.7887 51.12 27.9414 50.5531V50.5512Z" fill="white"/>
<path d="M34.833 54.183H30.6797L31.1998 52.232H31.8224L32.7718 48.6736H32.1492L32.6655 46.7382H36.1073L34.6416 52.2339H35.3532L34.833 54.1849V54.183ZM33.6632 44.564C33.7077 44.3951 33.7889 44.2223 33.9069 44.0437C34.0248 43.8651 34.1679 43.702 34.3419 43.5526C34.5159 43.4031 34.7151 43.2827 34.9433 43.1876C35.1714 43.0925 35.4131 43.0459 35.6703 43.0459C35.9275 43.0459 36.144 43.0925 36.3219 43.1876C36.4998 43.2827 36.6371 43.4031 36.7357 43.5526C36.8343 43.702 36.8962 43.8651 36.9233 44.0437C36.9503 44.2223 36.9407 44.3951 36.8962 44.564C36.784 44.9813 36.552 45.3366 36.1962 45.6297C35.8404 45.9229 35.3957 46.0685 34.862 46.0685C34.6242 46.0685 34.4212 46.0238 34.253 45.9345C34.0828 45.8452 33.9475 45.7287 33.8411 45.5851C33.7367 45.4414 33.6671 45.2803 33.6362 45.1017C33.6052 44.9231 33.6129 44.7445 33.6594 44.5659L33.6632 44.564Z" fill="white"/>
<path d="M43.2925 53.1558C42.6119 53.6315 41.939 53.9673 41.2738 54.1614C40.6087 54.3555 39.8913 54.4526 39.1198 54.4526C38.6558 54.4526 38.211 54.375 37.7876 54.2216C37.3641 54.0682 37.0103 53.8295 36.7241 53.5072C36.4399 53.185 36.2465 52.7676 36.146 52.2551C36.0454 51.7445 36.0899 51.1311 36.2813 50.4167C36.4437 49.811 36.6912 49.2675 37.0277 48.786C37.3641 48.3046 37.7547 47.895 38.2014 47.5572C38.648 47.2194 39.1353 46.9632 39.667 46.7904C40.1968 46.6176 40.746 46.5303 41.3086 46.5303C41.9216 46.5303 42.4398 46.6196 42.8613 46.7982C43.2828 46.9768 43.6096 47.2252 43.8417 47.5417C44.0737 47.86 44.211 48.2347 44.2535 48.6657C44.296 49.0966 44.2496 49.5664 44.1143 50.0731C44.0621 50.273 43.9944 50.4672 43.9132 50.6613C43.832 50.8554 43.7392 51.036 43.6348 51.2049H38.9632C38.9574 51.3039 38.9574 51.4242 38.9632 51.5621C38.9709 51.7018 39.0115 51.8358 39.0869 51.9639C39.1624 52.092 39.2803 52.2027 39.4447 52.292C39.609 52.3813 39.8488 52.4259 40.1659 52.4259C40.2935 52.4259 40.4366 52.4201 40.5932 52.4104C40.7479 52.4007 40.9219 52.3716 41.1134 52.3211C41.3048 52.2706 41.5117 52.1988 41.734 52.1056C41.9564 52.0124 42.1904 51.8804 42.4321 51.7115L43.2925 53.1558ZM40.8601 48.5395C40.6319 48.5395 40.4347 48.5841 40.2684 48.6734C40.1021 48.7627 39.959 48.8695 39.841 48.9938C39.7231 49.118 39.6284 49.25 39.5568 49.3878C39.4853 49.5276 39.4331 49.6402 39.3983 49.7295H41.6374C41.6741 49.5897 41.6973 49.4499 41.707 49.3044C41.7147 49.1607 41.6992 49.0306 41.6548 48.918C41.6122 48.8035 41.5271 48.7123 41.4015 48.6424C41.2758 48.5725 41.096 48.5375 40.8581 48.5375L40.8601 48.5395Z" fill="white"/>
<path d="M51.1654 44.9501H50.4829L50.9992 43.0146H54.6923L52.2289 52.2473H52.9405L52.4242 54.1828H48.9534L48.849 53.6315C48.7852 53.6819 48.6943 53.7421 48.5706 53.8178C48.4468 53.8935 48.296 53.9673 48.1181 54.0411C47.9402 54.1149 47.7391 54.1809 47.5168 54.2352C47.2944 54.2896 47.0546 54.3167 46.7975 54.3167C46.2735 54.3167 45.8268 54.21 45.4594 53.9964C45.0901 53.7829 44.8059 53.4956 44.6067 53.1326C44.4075 52.7696 44.2896 52.3502 44.2528 51.8746C44.218 51.3971 44.2683 50.902 44.4056 50.3857C44.5603 49.8091 44.7923 49.2869 45.1075 48.8152C45.4207 48.3434 45.7804 47.9435 46.1845 47.6155C46.5886 47.2874 47.0218 47.035 47.4839 46.8564C47.9479 46.6778 48.4062 46.5885 48.8606 46.5885C49.3846 46.5885 49.7733 46.6604 50.0266 46.804C50.2799 46.9477 50.4635 47.0641 50.5776 47.1534L51.1654 44.9501ZM47.5941 50.3857C47.5322 50.6147 47.4974 50.838 47.4897 51.0554C47.48 51.2728 47.5013 51.467 47.5496 51.6358C47.598 51.8047 47.6734 51.9445 47.772 52.0532C47.8706 52.1619 48.004 52.2163 48.1722 52.2163C48.4487 52.2163 48.7349 52.0629 49.0308 51.7543C49.3247 51.4475 49.5451 51.0243 49.6882 50.4885C49.7617 50.2109 49.8061 49.9528 49.8216 49.714C49.8351 49.4752 49.8216 49.2675 49.7733 49.0889C49.7269 48.9103 49.6495 48.7705 49.5432 48.6715C49.4368 48.5725 49.3034 48.522 49.1448 48.522C48.8277 48.522 48.53 48.6909 48.2457 49.0287C47.9634 49.3665 47.7469 49.8188 47.5941 50.3837V50.3857Z" fill="white"/>
<path d="M54.2047 49.7162L54.9995 46.7383H62.3413L61.8289 48.6582L57.3449 52.2321H58.9014L59.1721 51.2207H61.2643L60.4735 54.1831H53.0117L53.5319 52.2321L58.0603 48.6582H56.4129L56.1306 49.7162H54.2028H54.2047Z" fill="white"/>
<path d="M65.3721 54.1836H61.2188L61.7389 52.2326H62.3615L63.3109 48.6743H62.6883L63.2046 46.7388H66.6463L65.1807 52.2346H65.8922L65.3721 54.1856V54.1836ZM63.7112 43.79H68.1468L67.8993 45.7701H63.1833L63.7112 43.79Z" fill="white"/>
<path d="M71.2813 51.772C71.3026 51.6924 71.3412 51.5915 71.3993 51.4672C71.4573 51.343 71.5269 51.2071 71.6061 51.0576C71.6854 50.9081 71.7724 50.7548 71.871 50.5956C71.9677 50.4364 72.0663 50.283 72.165 50.1336L73.2787 48.6291H72.4937L72.9983 46.7383H76.8249L76.3202 48.6291H75.5487L71.4998 54.185H69.2008L67.9246 48.6291H67.2266L67.7312 46.7383H72.2404L71.7357 48.6291H70.9932L71.2542 50.2073C71.2755 50.4946 71.2813 50.7878 71.2716 51.0867C71.26 51.3838 71.2446 51.6128 71.2233 51.772H71.2832H71.2813Z" fill="white"/>
<path d="M79.0838 54.3771C78.5502 54.3771 78.0552 54.2955 77.5988 54.1325C77.1425 53.9694 76.7655 53.7229 76.4677 53.3948C76.1699 53.0667 75.9727 52.6552 75.878 52.1582C75.7832 51.6612 75.8238 51.0866 75.9978 50.4305C76.1641 49.8054 76.429 49.2521 76.7906 48.7707C77.1503 48.2892 77.566 47.8855 78.0339 47.5574C78.5018 47.2293 79.0026 46.9808 79.5382 46.8119C80.0719 46.643 80.592 46.5596 81.0967 46.5596C81.6807 46.5596 82.1989 46.6508 82.6552 46.8352C83.1096 47.0197 83.477 47.2817 83.7573 47.6234C84.0358 47.967 84.2156 48.3824 84.291 48.8755C84.3684 49.3667 84.3219 49.9257 84.1557 50.5508C83.9913 51.1662 83.7399 51.7098 83.4016 52.1815C83.0632 52.6532 82.6668 53.0531 82.2143 53.3793C81.7599 53.7073 81.2669 53.9558 80.7313 54.1247C80.1976 54.2936 79.6485 54.3771 79.0838 54.3771ZM79.5924 52.4708C79.7509 52.4708 79.9056 52.4203 80.0545 52.3213C80.2034 52.2223 80.3484 52.0825 80.4838 51.9039C80.6211 51.7253 80.7429 51.5137 80.8531 51.271C80.9633 51.0284 81.0542 50.7663 81.1277 50.4887C81.2011 50.2111 81.2475 49.951 81.263 49.7064C81.2785 49.4637 81.2669 49.2521 81.2243 49.0735C81.1818 48.8949 81.1083 48.7532 81.0039 48.6484C80.8995 48.5436 80.7564 48.4911 80.5785 48.4911C80.4296 48.4911 80.2807 48.5416 80.1319 48.6406C79.981 48.7396 79.8379 48.8794 79.7026 49.058C79.5653 49.2366 79.4377 49.4443 79.3197 49.6831C79.2018 49.9219 79.107 50.1742 79.0355 50.4421C78.8711 51.0575 78.8441 51.5486 78.9543 51.9155C79.0645 52.2824 79.2772 52.4669 79.5924 52.4669V52.4708Z" fill="white"/>
<path d="M86.7214 48.6737H86.0988L86.6151 46.7382H90.0569L88.3476 53.1405C88.2238 53.6084 88.0459 54.084 87.8178 54.5712C87.5896 55.0566 87.2628 55.505 86.8374 55.9107C86.412 56.3164 85.8687 56.6503 85.2074 56.9085C84.5461 57.1667 83.7205 57.2949 82.7305 57.2949L83.2622 55.2992C83.6876 55.2992 84.0376 55.2196 84.3122 55.0604C84.5867 54.9013 84.8052 54.711 84.9696 54.4878C85.132 54.2645 85.2557 54.0277 85.337 53.7811C85.4182 53.5346 85.482 53.3191 85.5303 53.1405L86.7233 48.6737H86.7214ZM87.6109 44.564C87.6553 44.3951 87.7365 44.2223 87.8545 44.0437C87.9724 43.8651 88.1155 43.702 88.2895 43.5526C88.4616 43.4031 88.6627 43.2827 88.8909 43.1876C89.1191 43.0925 89.3608 43.0459 89.6179 43.0459C89.8751 43.0459 90.0917 43.0925 90.2696 43.1876C90.4474 43.2827 90.5847 43.4031 90.6833 43.5526C90.7819 43.702 90.8438 43.8651 90.8709 44.0437C90.898 44.2223 90.8883 44.3951 90.8438 44.564C90.7317 44.9813 90.4996 45.3366 90.1439 45.6297C89.7881 45.9229 89.3434 46.0685 88.8097 46.0685C88.5719 46.0685 88.3688 46.0238 88.2006 45.9345C88.0324 45.8452 87.8951 45.7287 87.7887 45.5851C87.6843 45.4414 87.6147 45.2803 87.5838 45.1017C87.5529 44.9231 87.5606 44.7445 87.6089 44.5659L87.6109 44.564Z" fill="white"/>
<path d="M90.8956 46.7373H94.4844L93.5273 50.3267C93.3552 50.9712 93.2856 51.4449 93.3184 51.7496C93.3513 52.0525 93.5215 52.2039 93.8289 52.2039C94.0861 52.2039 94.3336 52.0991 94.5733 51.8914C94.8112 51.6836 94.9774 51.4099 95.0664 51.0721L95.6987 48.7038H94.7203L95.2443 46.7373H99.0863L97.6284 52.202H98.3554L97.8276 54.1821H95.0239L94.873 53.2444C94.7706 53.3337 94.6429 53.4463 94.4941 53.5783C94.3452 53.7123 94.1731 53.8385 93.9778 53.9588C93.7825 54.0772 93.5601 54.1801 93.3107 54.2636C93.0613 54.3471 92.777 54.3898 92.4618 54.3898C91.8972 54.3898 91.4448 54.316 91.1045 54.1665C90.7622 54.0171 90.5166 53.7938 90.3639 53.4968C90.2111 53.1998 90.1454 52.8212 90.1686 52.365C90.1918 51.9088 90.2846 51.3711 90.449 50.7557L90.9962 48.6999H90.3736L90.8976 46.7334L90.8956 46.7373Z" fill="white"/>
<path d="M102.827 54.1829H98.4219L98.942 52.2319H99.5646L100.502 48.7182H99.8798L100.404 46.7517H103.208L103.3 47.6311C103.378 47.5612 103.49 47.4661 103.637 47.3399C103.784 47.2156 103.952 47.0933 104.141 46.9749C104.331 46.8565 104.536 46.7536 104.756 46.6701C104.977 46.5867 105.205 46.5439 105.443 46.5439C105.82 46.5439 106.123 46.5828 106.353 46.6624C106.585 46.742 106.769 46.8371 106.908 46.9458C107.048 47.0545 107.15 47.171 107.216 47.2972C107.282 47.4214 107.332 47.5282 107.367 47.6175C107.663 47.3593 108.02 47.1166 108.438 46.8876C108.856 46.6585 109.32 46.5459 109.834 46.5459C110.437 46.5459 110.892 46.6488 111.199 46.8507C111.506 47.0545 111.713 47.3224 111.824 47.6544C111.932 47.9863 111.963 48.3668 111.913 48.7939C111.862 49.221 111.777 49.6616 111.655 50.1198L111.106 52.1756H111.833L111.298 54.1867H107.531L108.506 50.5391C108.533 50.4401 108.562 50.3353 108.596 50.2265C108.631 50.1178 108.664 50.0033 108.695 49.8849C108.736 49.7354 108.767 49.5898 108.79 49.4462C108.813 49.3025 108.821 49.1763 108.809 49.0657C108.798 48.9569 108.765 48.8677 108.711 48.7978C108.656 48.7279 108.564 48.6929 108.434 48.6929C108.117 48.6929 107.881 48.7958 107.722 48.9977C107.564 49.2015 107.442 49.4617 107.359 49.78L106.715 52.193H107.605L107.073 54.1887H103.231L104.244 50.3915C104.406 49.7859 104.491 49.351 104.503 49.089C104.515 48.8269 104.372 48.6949 104.074 48.6949C103.836 48.6949 103.646 48.7667 103.503 48.9104C103.36 49.054 103.25 49.2792 103.167 49.5879L102.459 52.2377H103.349L102.829 54.1887L102.827 54.1829Z" fill="white"/>
<path d="M111.742 54.1839L112.458 51.503H114.445C114.393 51.701 114.411 51.866 114.499 51.9942C114.588 52.1242 114.706 52.2252 114.855 52.2989C115.002 52.3727 115.163 52.4251 115.333 52.4562C115.503 52.4853 115.642 52.5008 115.752 52.5008C115.901 52.5008 116.056 52.4678 116.217 52.4038C116.377 52.3397 116.485 52.2019 116.541 51.9942C116.578 51.8544 116.507 51.7437 116.327 51.6603C116.147 51.5748 115.911 51.4933 115.621 51.4137C115.331 51.3341 115.022 51.2409 114.695 51.1303C114.368 51.0196 114.074 50.8682 113.815 50.676C113.556 50.4839 113.366 50.2295 113.247 49.917C113.127 49.6045 113.132 49.2045 113.262 48.7173C113.363 48.3407 113.537 48.0145 113.782 47.7408C114.028 47.4691 114.306 47.2458 114.614 47.0711C114.921 46.8983 115.238 46.7683 115.563 46.6848C115.886 46.6013 116.184 46.5586 116.449 46.5586C116.953 46.5586 117.377 46.6731 117.723 46.9003C118.067 47.1293 118.276 47.4011 118.349 47.7195L118.73 46.7372H120.555L119.84 49.4181H117.912C117.955 49.2589 117.949 49.1133 117.895 48.9794C117.843 48.8454 117.758 48.727 117.642 48.6222C117.526 48.5173 117.386 48.4358 117.226 48.3756C117.063 48.3154 116.889 48.2863 116.7 48.2863C116.541 48.2863 116.394 48.329 116.259 48.4125C116.124 48.496 116.029 48.6338 115.979 48.8221C115.934 48.991 116.002 49.125 116.184 49.224C116.365 49.323 116.599 49.42 116.886 49.5152C117.172 49.6103 117.483 49.7151 117.818 49.8277C118.152 49.9422 118.452 50.0937 118.713 50.282C118.974 50.4703 119.169 50.711 119.299 51.0041C119.428 51.2972 119.432 51.6719 119.31 52.1281C119.217 52.4756 119.057 52.7881 118.831 53.0657C118.605 53.3433 118.338 53.5802 118.034 53.7724C117.731 53.9665 117.396 54.1121 117.034 54.2111C116.671 54.3101 116.313 54.3606 115.955 54.3606C115.422 54.3606 114.983 54.2519 114.641 54.0325C114.298 53.8151 114.076 53.5608 113.975 53.2735L113.6 54.182H111.746L111.742 54.1839Z" fill="white"/>
<path d="M38.9857 13.0736H38.9876H38.9857ZM38.9857 13.0736L36.7292 21.5298C34.608 21.5298 32.8852 21.8811 31.5588 22.5858C30.2323 23.2905 29.2926 24.6766 28.7415 26.744L27.4499 31.5817H29.7895L28.1479 37.7355H14.9067L16.5483 31.5817H18.6076L21.6046 20.3553H19.5937L21.2237 14.25H30.0196L30.621 17.257C31.0831 16.694 31.553 16.1602 32.0306 15.6593C32.5062 15.1585 33.0631 14.712 33.6973 14.3199C34.3315 13.9277 35.0682 13.6229 35.9074 13.4036C36.7447 13.1862 37.7733 13.0755 38.9896 13.0755M38.9876 10.5674H38.9857C37.5452 10.5674 36.3309 10.7013 35.2771 10.977C34.2001 11.2604 33.2294 11.6661 32.3883 12.1845C32.2027 12.299 32.0209 12.4174 31.8449 12.5417C31.3848 12.0466 30.7312 11.7438 30.0177 11.7438H21.2218C20.0926 11.7438 19.1026 12.5048 18.8106 13.6016L17.1806 19.7069C16.9795 20.4601 17.138 21.2638 17.6118 21.8811C17.8341 22.1723 18.1126 22.4053 18.4277 22.5722L16.6914 29.0755H16.5483C15.4191 29.0755 14.4291 29.8384 14.1371 30.9333L12.4955 37.0871C12.2944 37.8403 12.4529 38.644 12.9267 39.2614C13.3985 39.8787 14.1313 40.2417 14.9067 40.2417H28.1479C29.2771 40.2417 30.2671 39.4788 30.5591 38.3839L32.2007 32.2301C32.4018 31.4768 32.2433 30.6732 31.7695 30.0558C31.4814 29.6773 31.0947 29.3958 30.6616 29.2327L31.1527 27.3924C31.5143 26.0355 32.0441 25.1638 32.7267 24.8027C33.6838 24.2941 34.4476 24.0476 36.1472 24.0476C37.2764 24.0476 40.0782 17.3813 40.5094 17.0551L41.3737 13.8132C41.4452 13.5802 41.4839 13.3318 41.4839 13.0736C41.4839 11.6894 40.3682 10.5674 38.9896 10.5674H38.9876Z" fill="white"/>
<path d="M52.3717 13.5931C54.3052 13.5931 55.9391 13.8746 57.2694 14.4376C58.5998 15.0005 59.6304 15.7848 60.3613 16.7865C61.0922 17.7882 61.5253 18.9704 61.6606 20.3332C61.796 21.696 61.651 23.1752 61.2256 24.771C61.0574 25.398 60.8466 26.0153 60.5894 26.6268C60.3323 27.2383 60.0403 27.809 59.7096 28.341H44.9718C44.9505 28.6535 44.9505 29.0301 44.9737 29.4688C44.9969 29.9076 45.1265 30.3308 45.3605 30.7365C45.5944 31.1442 45.9695 31.4878 46.4877 31.7692C47.004 32.0527 47.762 32.1924 48.7616 32.1924C49.1677 32.1924 49.6144 32.1769 50.1074 32.1458C50.5986 32.1148 51.1458 32.0216 51.751 31.8644C52.3543 31.7091 53.0078 31.4819 53.7097 31.183C54.4116 30.886 55.1464 30.4705 55.914 29.9386L58.6288 34.4948C56.4805 35.9973 54.3575 37.0553 52.2614 37.6649C50.1635 38.2745 47.8993 38.5812 45.4668 38.5812C43.9992 38.5812 42.5993 38.3385 41.2632 37.8532C39.9251 37.3679 38.8094 36.6166 37.9103 35.5994C37.0131 34.5821 36.404 33.266 36.0869 31.6528C35.7679 30.0396 35.911 28.1061 36.5123 25.8522C37.0228 23.942 37.8059 22.2279 38.8674 20.7098C39.9271 19.1917 41.1607 17.8988 42.5683 16.835C43.9741 15.7712 45.5171 14.9636 47.1916 14.4162C48.8661 13.8688 50.5928 13.595 52.3697 13.595M46.3543 23.6916H53.4197C53.5376 23.2529 53.6092 22.8064 53.6362 22.3521C53.6633 21.8979 53.6092 21.4902 53.4719 21.1311C53.3346 20.7719 53.0677 20.4827 52.6752 20.2614C52.2808 20.044 51.7104 19.9333 50.9621 19.9333C50.2138 19.9333 49.6221 20.075 49.0942 20.3565C48.5663 20.638 48.1178 20.9758 47.7484 21.366C47.3772 21.7581 47.0813 22.1735 46.8551 22.6103C46.6289 23.049 46.4626 23.4082 46.3562 23.6916M52.3717 11.0869C50.3394 11.0869 48.3382 11.4053 46.4201 12.0323C44.4903 12.6652 42.6902 13.6067 41.0679 14.8316C39.4572 16.0527 38.0302 17.5455 36.8256 19.2713C35.6016 21.0224 34.687 23.0199 34.1031 25.2039C33.4031 27.8246 33.2484 30.158 33.6409 32.142C34.0451 34.1881 34.8533 35.9119 36.0463 37.263C37.22 38.5928 38.6915 39.5848 40.4182 40.2118C42.0211 40.7942 43.7208 41.0893 45.4707 41.0893C48.1255 41.0893 50.6469 40.7476 52.9614 40.074C55.3088 39.3907 57.6968 38.2046 60.0596 36.5525C61.1347 35.7993 60.1428 34.5084 60.4289 33.1631L59.3693 30.8491H59.7135C60.5759 30.8491 60.6977 30.0221 61.154 29.2864C61.5504 28.6457 62.0551 27.8945 62.3606 27.1665C62.6603 26.454 63.4453 26.1551 63.6406 25.4213C64.1434 23.5382 64.3135 21.7426 64.1492 20.0847C63.9693 18.2774 63.3738 16.67 62.3799 15.3072C61.3803 13.9386 59.99 12.869 58.244 12.1294C56.6101 11.4383 54.6359 11.0869 52.3755 11.0869H52.3717Z" fill="white"/>
<path d="M76.9795 12.8875C78.3833 12.8875 79.7948 13.037 81.2121 13.334C82.6294 13.6329 83.8573 14.1493 84.8937 14.8851C85.9282 15.6208 86.6784 16.6167 87.1386 17.8668C87.5988 19.1209 87.5794 20.6856 87.0786 22.5647L84.6346 31.7256H87.4422L85.8373 37.7377H75.8251L75.2663 35.6237C74.6708 36.2177 74.0482 36.7127 73.3985 37.1029C72.7469 37.4951 72.1049 37.7999 71.4687 38.0192C70.8326 38.2386 70.2216 38.3958 69.6357 38.489C69.0479 38.5841 68.5529 38.6307 68.1468 38.6307C67.0234 38.6307 65.958 38.4735 64.9506 38.1609C63.9413 37.8464 63.0847 37.3786 62.3789 36.7516C61.6732 36.1245 61.1782 35.3189 60.8959 34.3327C60.6136 33.3466 60.6561 32.1643 61.0235 30.786C61.3735 29.4718 61.9497 28.2818 62.7482 27.216C63.5468 26.1522 64.4904 25.2437 65.581 24.4924C66.6696 23.7411 67.8607 23.1607 69.1562 22.755C70.4497 22.3493 71.753 22.1435 73.062 22.1435C73.7485 22.1435 74.3459 22.2134 74.8545 22.3551C75.363 22.4948 75.7865 22.6599 76.1268 22.8482C76.4671 23.0365 76.7281 23.2248 76.9118 23.4111C77.0955 23.5994 77.2096 23.7256 77.256 23.7877L77.6949 22.1435C77.9792 21.0797 77.7471 20.375 76.9969 20.0294C76.2467 19.6858 75.2315 19.513 73.9534 19.513C72.5496 19.513 71.2019 19.7479 69.9064 20.2177C68.6109 20.6875 67.4449 21.1728 66.4066 21.6737L65.8961 16.2245C66.4395 15.943 67.1201 15.615 67.938 15.2384C68.7559 14.8618 69.657 14.4949 70.6431 14.1338C71.6273 13.7746 72.6579 13.4757 73.7349 13.2408C74.81 13.0059 75.8947 12.8894 76.9872 12.8894M71.927 32.5215C72.6444 32.5215 73.3134 32.3507 73.936 32.0051C74.5586 31.6615 75.0246 31.316 75.334 30.9724L75.8097 29.1884C75.7961 29.1262 75.7517 29.0233 75.682 28.8836C75.6105 28.7419 75.4848 28.5943 75.3089 28.4371C75.1329 28.2818 74.897 28.1401 74.6031 28.0139C74.3092 27.8896 73.9109 27.8256 73.4139 27.8256C72.4781 27.8256 71.7298 28.0605 71.1671 28.5303C70.6044 29.0001 70.2274 29.596 70.036 30.3162C69.86 30.9743 69.9528 31.5062 70.3125 31.9139C70.6721 32.3216 71.2096 32.5235 71.927 32.5235M81.0729 5.37863C79.8064 5.37863 76.2563 5.44658 74.9299 5.49511C73.091 5.51646 70.152 5.31069 69.0595 5.71059C66.7295 7.1549 69.2026 11.3985 66.8919 12.9574C66.0373 13.3514 65.3083 13.7028 64.7302 14.0037C63.8291 14.4716 63.309 15.4441 63.4057 16.4575L63.9161 21.9066C63.9355 22.1144 63.9799 22.3143 64.0476 22.5065C62.7889 23.3937 61.6809 24.4691 60.7528 25.7077C59.7628 27.0258 59.0435 28.5167 58.6104 30.1376C58.125 31.9547 58.0864 33.5989 58.4943 35.0258C58.9081 36.472 59.6584 37.6853 60.7238 38.6307C61.6906 39.4888 62.8643 40.1371 64.2081 40.5545C65.4533 40.9408 66.7779 41.1369 68.143 41.1369C68.6844 41.1369 69.3012 41.0806 70.0263 40.9641C70.7456 40.8496 71.5016 40.6555 72.2751 40.3915C72.8899 40.1799 73.5068 39.9061 74.1197 39.5722C74.5702 39.9935 75.1716 40.2439 75.8213 40.2439H85.8334C86.9626 40.2439 87.9526 39.481 88.2446 38.3861L89.8398 32.4089C89.9481 32.0013 89.9752 31.5684 89.8746 31.1588C89.6232 30.1279 88.815 29.4233 87.8753 29.2563L89.4879 23.2131C90.1221 20.8331 90.1202 18.7424 89.4782 16.9991C88.8421 15.2694 87.7844 13.8698 86.3342 12.8389C85.0677 11.9382 83.807 12.3478 86.7809 9.26312C86.9878 9.04958 87.1154 8.77198 87.1657 8.47691C87.4093 7.04425 88.3993 5.33398 84.8105 5.33398L81.0729 5.37863Z" fill="white"/>
<path d="M108.01 2.50618L100.251 31.5826H103.012L101.37 37.7364H87.7075L89.3491 31.5826H91.36L97.503 8.5649H95.5385L97.155 2.50618H108.01ZM103.01 31.5826H103.012H103.01ZM108.01 0H97.155C96.0258 0 95.0358 0.760979 94.7438 1.8578L93.1273 7.91651C92.9262 8.66973 93.0848 9.47342 93.5585 10.0907C93.7712 10.3683 94.0361 10.5955 94.3339 10.7605L89.4458 29.0764H89.3491C88.2199 29.0764 87.2299 29.8393 86.9379 30.9342L85.2963 37.088C85.0952 37.8413 85.2537 38.6449 85.7275 39.2623C86.1993 39.8796 86.9321 40.2426 87.7075 40.2426H101.37C102.499 40.2426 103.489 39.4797 103.781 38.3848L105.4 32.3222C105.471 32.0893 105.51 31.8408 105.51 31.5826C105.51 30.3635 104.642 29.3462 103.493 29.123L110.423 3.15651C110.624 2.4033 110.466 1.59961 109.992 0.982285C109.52 0.364959 108.787 0.00194127 108.012 0.00194127L108.01 0Z" fill="white"/>
<path d="M117.627 13.6898C117.637 13.6898 117.647 13.6898 117.656 13.6898C119.248 13.6956 120.584 14.0606 121.669 14.7847C122.751 15.5107 123.407 16.3726 123.637 17.3763L124.851 14.2799L130.606 14.3013L128.318 22.7478L122.235 22.7245C122.37 22.2256 122.355 21.7616 122.189 21.3384C122.022 20.9152 121.757 20.5386 121.394 20.2066C121.03 19.8766 120.593 19.6165 120.083 19.4262C119.573 19.236 119.02 19.1409 118.428 19.1389C118.424 19.1389 118.42 19.1389 118.418 19.1389C117.923 19.1389 117.461 19.2709 117.034 19.533C116.603 19.797 116.307 20.228 116.146 20.822C116.003 21.3539 116.216 21.7771 116.786 22.0916C117.357 22.408 118.093 22.7148 118.994 23.0157C119.895 23.3166 120.876 23.6505 121.932 24.0135C122.987 24.3784 123.927 24.8599 124.749 25.4558C125.571 26.0538 126.183 26.8167 126.59 27.7407C126.996 28.6667 127.001 29.8489 126.613 31.2874C126.317 32.3823 125.806 33.3665 125.087 34.2401C124.366 35.1137 123.525 35.8552 122.566 36.4629C121.605 37.0705 120.551 37.5286 119.406 37.8373C118.277 38.1421 117.157 38.2935 116.05 38.2935C116.034 38.2935 116.019 38.2935 116.005 38.2935C114.321 38.2877 112.94 37.9382 111.863 37.2452C110.786 36.5522 110.09 35.7524 109.775 34.8419L108.578 37.7033L102.729 37.682L105.016 29.2355L111.287 29.2588C111.117 29.8858 111.173 30.4022 111.451 30.8099C111.732 31.2175 112.105 31.5398 112.571 31.7766C113.037 32.0135 113.54 32.1804 114.075 32.2755C114.611 32.3707 115.05 32.4211 115.394 32.4211C115.398 32.4211 115.402 32.4211 115.406 32.4211C115.87 32.4211 116.353 32.3221 116.856 32.1222C117.362 31.9203 117.707 31.4913 117.884 30.8351C118.002 30.3964 117.778 30.045 117.212 29.7752C116.643 29.5073 115.903 29.2471 114.988 28.9928C114.073 28.7385 113.101 28.4376 112.072 28.0901C111.042 27.7427 110.119 27.2612 109.301 26.6478C108.483 26.0343 107.89 25.2326 107.517 24.2445C107.143 23.2564 107.165 21.9965 107.58 20.4629C107.901 19.2748 108.452 18.2518 109.232 17.3918C110.011 16.5337 110.887 15.8329 111.863 15.2874C112.838 14.7439 113.837 14.3401 114.86 14.078C115.872 13.8198 116.794 13.6898 117.629 13.6898M117.627 11.1836C116.591 11.1836 115.452 11.3408 114.242 11.6495C113.016 11.964 111.805 12.4512 110.647 13.0977C109.44 13.7713 108.342 14.6488 107.383 15.7048C106.339 16.8579 105.593 18.2362 105.167 19.8067C104.612 21.8548 104.616 23.6466 105.177 25.1336C105.393 25.7082 105.666 26.244 105.991 26.7371L105.02 26.7332C105.02 26.7332 105.014 26.7332 105.011 26.7332C103.885 26.7332 102.897 27.4903 102.601 28.5813L100.314 37.0278C100.111 37.779 100.266 38.5847 100.737 39.2039C101.209 39.8232 101.938 40.1882 102.714 40.192L108.563 40.2134C108.563 40.2134 108.568 40.2134 108.572 40.2134C109.315 40.2134 110.005 39.8834 110.471 39.334C110.485 39.3418 110.498 39.3515 110.512 39.3592C111.989 40.3105 113.834 40.7958 115.99 40.8036H116.044C117.364 40.8036 118.71 40.6211 120.048 40.2619C121.431 39.8892 122.724 39.3262 123.89 38.5886C125.07 37.8431 126.118 36.9191 127.005 35.8436C127.951 34.6982 128.628 33.3879 129.016 31.9494C129.558 29.9499 129.509 28.1969 128.871 26.7371C128.639 26.2071 128.357 25.7121 128.03 25.2539H128.305C128.305 25.2539 128.31 25.2539 128.314 25.2539C129.44 25.2539 130.428 24.4968 130.724 23.4059L133.011 14.9594C133.214 14.2081 133.059 13.4025 132.588 12.7832C132.118 12.1639 131.387 11.799 130.611 11.7951L124.857 11.7737C124.857 11.7737 124.851 11.7737 124.847 11.7737C124.111 11.7737 123.426 12.0999 122.96 12.6395C121.481 11.6806 119.7 11.1914 117.664 11.1836H117.625H117.627Z" fill="white"/>
<path d="M102.662 65.9388C102.662 67.3773 101.566 68.2839 99.841 68.2839H98.9477V69.8117H96.8594V63.5957H99.839C101.564 63.5957 102.66 64.5023 102.66 65.9408L102.662 65.9388ZM100.558 65.9388C100.558 65.4865 100.284 65.2108 99.7095 65.2108H98.9496V66.6668H99.7095C100.284 66.6668 100.558 66.3911 100.558 65.9388Z" fill="url(#paint18_linear_1224_1830)"/>
<path d="M107.251 68.7284H104.898L104.482 69.8117H102.359L105.066 63.5957H107.118L109.825 69.8117H107.667L107.251 68.7284ZM106.677 67.2181L106.076 65.6554L105.474 67.2181H106.677Z" fill="url(#paint19_linear_1224_1830)"/>
<path d="M109.773 69.3119L110.446 67.7841C111.03 68.1296 111.808 68.3529 112.49 68.3529C113.082 68.3529 113.295 68.2286 113.295 68.0151C113.295 67.2328 109.872 67.8637 109.872 65.5458C109.872 64.3907 110.837 63.4492 112.755 63.4492C113.586 63.4492 114.445 63.6278 115.091 63.9908L114.462 65.5089C113.853 65.1983 113.277 65.0469 112.738 65.0469C112.127 65.0469 111.933 65.2235 111.933 65.4371C111.933 66.1825 115.356 65.5613 115.356 67.852C115.356 68.9896 114.391 69.9486 112.473 69.9486C111.438 69.9486 110.394 69.6904 109.775 69.3099L109.773 69.3119Z" fill="url(#paint20_linear_1224_1830)"/>
<path d="M120.193 68.7276H117.84L117.424 69.8108H115.301L118.008 63.5948H120.059L122.766 69.8108H120.608L120.193 68.7276ZM120.893 62.9018H117.178V61.8535H120.893V62.9018ZM119.618 67.2173L119.017 65.6545L118.416 67.2173H119.618Z" fill="url(#paint21_linear_1224_1830)"/>
<path d="M125.625 67.75L125.157 68.2742V69.8097H123.105V63.5938H125.157V65.8495L127.191 63.5938H129.465L126.988 66.329L129.589 69.8097H127.174L125.625 67.75Z" fill="url(#paint22_linear_1224_1830)"/>
<path d="M129.725 67.0143V63.5957H131.813V66.9522C131.813 67.9014 132.176 68.2567 132.758 68.2567C133.34 68.2567 133.704 67.9014 133.704 66.9522V63.5957H135.755V67.0143C135.755 68.8779 134.642 69.9534 132.739 69.9534C130.836 69.9534 129.723 68.8779 129.723 67.0143H129.725Z" fill="url(#paint23_linear_1224_1830)"/>
<path d="M142.241 69.8117L142.224 66.9793L140.88 69.2526H139.959L138.616 67.0764V69.8117H136.715V63.5957H138.43L140.447 66.9075L142.411 63.5957H144.126L144.144 69.8117H142.243H142.241Z" fill="url(#paint24_linear_1224_1830)"/>
<path d="M145.148 63.5957H147.237V69.8117H145.148V63.5957Z" fill="url(#paint25_linear_1224_1830)"/>
<path d="M157.005 63.5957V69.8117H155.29L152.936 66.9871V69.8117H150.902V63.5957H152.617L154.971 66.4183V63.5957H157.005Z" fill="url(#paint26_linear_1224_1830)"/>
<path d="M157.762 66.7018C157.762 64.8188 159.239 63.4521 161.256 63.4521C163.272 63.4521 164.75 64.8208 164.75 66.7018C164.75 68.5829 163.272 69.9515 161.256 69.9515C159.239 69.9515 157.762 68.5849 157.762 66.7018ZM162.644 66.7018C162.644 65.7331 162.025 65.1469 161.256 65.1469C160.486 65.1469 159.867 65.7331 159.867 66.7018C159.867 67.6705 160.486 68.2549 161.256 68.2549C162.025 68.2549 162.644 67.6686 162.644 66.7018Z" fill="url(#paint27_linear_1224_1830)"/>
<path d="M172.384 68.7284H170.031L169.615 69.8117H167.492L170.199 63.5957H172.251L174.958 69.8117H172.8L172.384 68.7284ZM171.81 67.2181L171.209 65.6554L170.607 67.2181H171.81Z" fill="url(#paint28_linear_1224_1830)"/>
<path d="M174.918 65.8936H177.571V67.4039H174.918V65.8936Z" fill="url(#paint29_linear_1224_1830)"/>
<path d="M184.03 68.1849V69.8097H178.344V68.5226L181.175 65.2186H178.433V63.5938H183.889V64.8808L181.059 68.1849H184.03Z" fill="url(#paint30_linear_1224_1830)"/>
<path d="M69.1358 10.2753C69.188 10.2558 69.2905 10.2461 69.4452 10.2461C69.4703 10.2461 69.509 10.1782 69.5612 10.0442C69.6134 9.9103 69.6443 9.83265 69.6579 9.81324C69.7101 9.85206 69.7739 9.93748 69.8512 10.0714C69.7468 10.3781 69.6965 10.5606 69.6965 10.6189C69.6965 10.6771 69.7101 10.714 69.7352 10.7334L69.7545 10.7625C69.9479 10.9547 70.1413 11.0595 70.3346 11.0789C70.4255 11.2517 70.5086 11.4109 70.586 11.5546C70.6633 11.6982 70.8045 11.77 71.0114 11.77L71.0887 11.8535L71.0694 11.7992L71.108 11.77L71.1467 11.9137H71.1429L71.3014 12.0865C71.3788 12.0088 71.4368 11.9622 71.4754 11.9428C71.4368 11.9428 71.4116 11.9331 71.3981 11.9137C71.3981 11.8943 71.4116 11.8652 71.4368 11.8283H71.5528L71.6301 11.9719C71.7461 11.8943 71.8293 11.8749 71.8815 11.9137C71.895 11.8943 71.926 11.8943 71.9782 11.9137C72.0168 11.9525 72.0497 11.9719 72.0748 11.9719C72.1 11.9719 72.1386 11.9428 72.1909 11.8865C72.2431 11.8283 72.274 11.8011 72.2875 11.8011C72.6743 11.7235 72.9836 11.6866 73.2157 11.6866C73.3065 11.6866 73.409 11.6963 73.525 11.7157L77.7248 11.3993C77.893 11.3798 78.1367 11.341 78.4596 11.2847L75.9826 11.112C75.9575 11.112 75.9285 11.1314 75.8956 11.1702C75.8627 11.209 75.8337 11.2284 75.8086 11.2284C75.7835 11.2284 75.7603 11.209 75.7409 11.1702C75.7216 11.1314 75.6984 11.112 75.6733 11.112C75.6095 11.112 75.4934 11.1508 75.3252 11.2265C75.3001 11.1877 75.2923 11.1585 75.3059 11.1411C75.3968 11.0828 75.4606 11.0362 75.4992 10.9974C76.0406 10.9586 76.4738 10.9392 76.7947 10.9392C76.8083 10.9392 76.8469 10.9101 76.9108 10.8538C76.9746 10.7955 77.021 10.7683 77.0461 10.7683C77.1873 10.7683 77.398 10.7256 77.6745 10.6383C77.951 10.5529 78.1618 10.5082 78.3029 10.5082L78.3996 10.6227L78.4963 10.4791C78.535 10.5373 78.5601 10.5839 78.5736 10.6227L80.3932 10.3917C80.457 10.3917 80.515 10.4306 80.5672 10.5063C80.5807 10.5063 80.6097 10.4674 80.6542 10.3917C80.6987 10.3141 80.7412 10.2772 80.7799 10.2772C80.805 10.2772 80.8417 10.3005 80.8862 10.349C80.9307 10.3976 80.9597 10.4209 80.9732 10.4209C81.0254 10.4209 81.1047 10.4073 81.2149 10.3781C81.3252 10.349 81.4044 10.3354 81.4566 10.3354C81.4702 10.3354 81.5011 10.349 81.5533 10.3781C81.6055 10.4073 81.6442 10.4209 81.6693 10.4209C81.708 10.4209 81.7602 10.4111 81.824 10.3917C81.8878 10.3723 81.94 10.3626 81.9787 10.3626H82.6941C82.7966 10.3432 82.8237 10.3335 82.7715 10.3335H83.2742C83.5314 10.3335 83.7054 10.3044 83.7963 10.2461L83.8543 10.1879C83.8794 10.1879 83.9258 10.1976 83.9896 10.217C84.0535 10.2364 84.0999 10.2461 84.125 10.2461C84.357 10.2461 84.5117 10.1491 84.5891 9.95883C84.6142 9.95883 84.6335 9.96854 84.6471 9.98795C84.6993 9.9103 84.7959 9.87342 84.9371 9.87342C84.9622 9.87342 85.0086 9.88701 85.0725 9.91613C85.1363 9.94524 85.1827 9.95883 85.2078 9.95883C85.2329 9.95883 85.2793 9.93942 85.3432 9.90059C85.407 9.86177 85.4534 9.84236 85.4785 9.84236C85.7879 9.78412 85.9619 9.75694 86.0006 9.75694C85.9619 9.75694 85.9039 9.74335 85.8266 9.71423C85.7492 9.68511 85.6912 9.67152 85.6525 9.67152C85.5365 9.67152 85.3722 9.69094 85.1595 9.72976C84.9468 9.76859 84.7824 9.788 84.6664 9.788L84.0283 9.87342C83.7441 9.91224 83.454 9.88312 83.1582 9.788C83.3902 9.61523 84.0283 9.52981 85.0744 9.52981C85.2039 9.52981 85.3258 9.4444 85.4418 9.27162C85.0551 9.38616 84.7321 9.4444 84.475 9.4444C84.4614 9.4444 84.4363 9.43081 84.3976 9.40169C84.359 9.37257 84.3261 9.35898 84.3009 9.35898L84.2236 9.4444C83.9258 9.50263 83.688 9.52981 83.5082 9.52981C83.483 9.52981 83.4502 9.51622 83.4115 9.4871C83.3728 9.45798 83.3477 9.4444 83.3342 9.4444C83.309 9.4444 83.2723 9.4541 83.2278 9.47351C83.1833 9.49293 83.1466 9.50263 83.1215 9.50263C83.0693 9.50263 82.9996 9.47934 82.9223 9.44051C82.9513 9.44245 82.99 9.4444 83.0441 9.4444C83.0692 9.4444 83.1311 9.40169 83.2278 9.31433C83.3245 9.22697 83.3864 9.18427 83.4115 9.18427C83.4366 9.18427 83.4598 9.19397 83.4792 9.21338C83.4985 9.2328 83.514 9.2425 83.5275 9.2425C83.5275 9.12797 83.5797 9.04061 83.6822 8.98431C83.7209 8.9086 83.746 8.85037 83.7595 8.81154L83.9529 8.7533C84.0825 8.7533 84.2101 8.80183 84.3396 8.89696C84.3261 8.85813 84.3203 8.82125 84.3203 8.78242C84.3203 8.6873 84.3648 8.63877 84.4556 8.63877C84.4692 8.56306 84.475 8.50482 84.475 8.46599L84.591 8.29322C84.4866 8.33205 84.4034 8.35146 84.3396 8.35146C84.3009 8.46599 84.2681 8.54364 84.2429 8.58247C84.2043 8.46793 84.1791 8.38058 84.1656 8.32428C84.036 8.61159 83.9142 8.75524 83.7982 8.75524C83.7073 8.75524 83.6165 8.72612 83.5275 8.66983C83.6049 8.631 83.6571 8.61159 83.6822 8.61159C83.6822 8.51647 83.688 8.45823 83.7015 8.43882C83.7267 8.45823 83.746 8.46793 83.7595 8.46793C83.7847 8.46793 83.7943 8.45435 83.7885 8.42523C83.7827 8.39611 83.7924 8.38252 83.8175 8.38252C83.8562 8.38252 83.8891 8.40193 83.9142 8.44076C83.8756 8.38252 83.8814 8.35534 83.9336 8.35534C83.8698 8.37475 83.8311 8.35534 83.8175 8.2971C83.8698 8.22139 83.8949 8.16315 83.8949 8.12433C83.8176 8.12433 83.7653 8.10492 83.7402 8.06609C83.804 7.91273 83.8891 7.83508 83.9916 7.83508H83.8949C83.804 7.75937 83.7073 7.72054 83.6049 7.72054C83.541 7.72054 83.4695 7.73996 83.3922 7.77878L83.3148 7.66425C83.6493 7.5303 83.8311 7.46235 83.8562 7.46235H83.4308C83.4057 7.42353 83.398 7.40412 83.4115 7.40412C83.63 7.30899 83.7537 7.26046 83.7789 7.26046L84.1849 7.28958C84.4556 7.30899 84.6625 7.3187 84.8037 7.3187C84.8424 7.3187 84.9042 7.34394 84.9874 7.39053C85.0705 7.43906 85.1189 7.46235 85.1324 7.46235C85.2735 7.46235 85.4669 7.42353 85.7125 7.34782V6.94403H85.4611C85.4746 6.94403 85.4418 6.8858 85.3644 6.77126L85.4611 6.62761C85.4224 6.62761 85.3702 6.6179 85.3064 6.59849C85.2426 6.57908 85.1904 6.56937 85.1517 6.56937C85.1266 6.56937 85.1092 6.58296 85.1034 6.61208C85.0976 6.6412 85.0744 6.65478 85.0357 6.65478C85.0106 6.65478 84.9777 6.63149 84.939 6.58296C84.9004 6.53443 84.8675 6.51113 84.8424 6.51113L84.0689 6.56937C83.5527 6.60819 83.1601 6.62761 82.8894 6.62761C82.8372 6.58878 82.7927 6.56937 82.7541 6.56937L82.6961 6.65673C82.6052 6.6179 82.5278 6.58878 82.464 6.56937C82.464 6.62761 82.4582 6.67614 82.4447 6.71302C82.3925 6.6179 82.2823 6.56937 82.116 6.56937C82.1682 6.64702 82.1798 6.69361 82.1547 6.71302C82.1295 6.71302 82.0773 6.72273 82 6.74214H81.8646C81.8395 6.74214 81.7969 6.72855 81.7389 6.69943C81.7196 6.68973 81.7099 6.69167 81.6925 6.6839L81.826 6.62761V6.54219L81.6906 6.60043V6.68585C81.6597 6.6742 81.6249 6.65867 81.6036 6.65867C81.5707 6.65867 81.5552 6.64508 81.5552 6.61596C81.5552 6.58684 81.5494 6.57325 81.5359 6.57325C81.4721 6.67032 81.4199 6.71691 81.3812 6.71691L80.6078 6.65867C80.3506 6.63925 79.931 6.62955 79.351 6.62955C79.2736 6.62955 79.1595 6.64314 79.0126 6.67226C78.8637 6.70138 78.7515 6.71496 78.6742 6.71496C78.5717 6.71496 78.4673 6.68585 78.3648 6.62761C78.3784 6.60819 78.3648 6.56937 78.3261 6.51307C77.7074 6.64702 77.2356 6.71496 76.9146 6.71496C76.9398 6.73438 76.9398 6.7635 76.9146 6.80038C76.8624 6.80038 76.7947 6.81009 76.7116 6.8295C76.6285 6.84891 76.5588 6.85862 76.5086 6.85862C76.4834 6.85862 76.4409 6.84503 76.3829 6.81591C76.3249 6.78679 76.2823 6.7732 76.2572 6.7732C76.3481 6.7732 76.3868 6.82173 76.3732 6.91686L76.3152 7.00421C76.1083 6.92851 75.9672 6.88968 75.8898 6.88968L75.8318 6.83144L75.8898 6.74602L76.1799 6.83144C75.9343 6.71691 75.7081 6.65867 75.5031 6.65867C75.4393 6.65867 75.3523 6.66837 75.2421 6.68779C75.1319 6.7072 75.0506 6.71691 75.0004 6.71691L71.3826 6.88968C71.2531 6.94792 71.1699 6.9751 71.1313 6.9751C70.9108 6.9751 70.789 6.92656 70.7639 6.83144C70.7639 6.79262 70.7832 6.72661 70.8219 6.62955C70.7967 6.51501 70.789 6.41018 70.8025 6.31312C70.7503 6.31312 70.7117 6.29371 70.6865 6.25488C70.5956 6.31312 70.5183 6.36165 70.4545 6.39854C70.2863 6.64896 70.2031 6.82173 70.2031 6.91686C70.2031 6.93627 70.2167 6.99451 70.2418 7.08963C70.2669 7.18669 70.2805 7.2624 70.2805 7.32064L70.1064 7.4643C70.002 7.31094 69.9247 7.23328 69.8744 7.23328C69.7835 7.23328 69.7004 7.4643 69.623 7.92438C69.5708 8.11656 69.5264 8.2311 69.4877 8.26992C69.5515 8.26992 69.6482 8.33787 69.7777 8.47182V8.75913C69.6733 8.91249 69.6037 9.05614 69.565 9.19009C69.5264 9.40169 69.5012 9.56475 69.4877 9.67929C69.3059 9.62105 69.1706 9.61135 69.0816 9.65017C69.0816 9.66958 69.0758 9.70258 69.0623 9.75112C69.0488 9.79965 69.043 9.84236 69.043 9.88118C69.043 9.92001 69.0623 9.98601 69.101 10.0831C69.1397 10.1782 69.1532 10.2461 69.1396 10.285L69.1358 10.2753ZM84.1888 10.0734L84.1501 10.1316L84.0341 10.0734H84.1888ZM84.1308 8.63488H84.2468V8.7203H84.1308V8.63488ZM85.0995 6.73438H85.2155V6.81979H85.0995V6.73438ZM84.5368 6.67808L84.7495 6.73632V6.82173L84.5368 6.7635V6.67808ZM83.7634 6.64896C83.9568 6.7072 84.1695 6.73438 84.4015 6.73438C84.1308 6.73438 83.8852 6.75379 83.6667 6.79262L83.7634 6.64896ZM82.6806 9.8443H82.5452V9.75888H82.6806V9.8443ZM82.6806 9.00955C82.7193 8.95131 82.7773 8.92219 82.8546 8.92219C82.8798 8.92219 82.9184 8.97073 82.9706 9.06585C82.8024 9.06585 82.7057 9.04643 82.6806 9.00761V9.00955ZM82.8159 8.7203V8.63488H82.932V8.7203H82.8159ZM82.99 9.75694V9.84236H82.8546V9.75694H82.99ZM82.7193 9.23862C82.7328 9.23862 82.7637 9.22891 82.8159 9.2095C82.8682 9.19009 82.9068 9.18038 82.932 9.18038C82.9068 9.18038 82.9126 9.2095 82.9513 9.2658C82.99 9.20756 83.0093 9.16097 83.0093 9.12214L83.1253 9.29492C82.9436 9.27551 82.8082 9.25609 82.7193 9.23668V9.23862ZM83.7827 8.2311C83.7576 8.28934 83.7441 8.33787 83.7441 8.37475L83.57 8.2874C83.6609 8.2874 83.7305 8.26798 83.7827 8.22916V8.2311ZM83.512 8.08745H83.6861V8.17286H83.512V8.08745ZM83.4347 8.98043H83.512C83.5256 8.90472 83.5836 8.84648 83.6861 8.80766C83.5449 9.01926 83.454 9.12409 83.4154 9.12409H83.164C83.0731 9.12409 83.0286 9.06585 83.0286 8.95131C82.99 8.97073 83.1253 8.98043 83.4347 8.98043ZM83.2027 6.67808L83.338 6.73632V6.82173L83.2027 6.7635V6.67808ZM83.048 6.69167C83.0867 6.72079 83.1195 6.73438 83.1447 6.73438C83.0925 6.73438 83.048 6.75379 83.0093 6.79262C82.9842 6.73438 82.9706 6.68779 82.9706 6.64896C82.9842 6.64896 83.0093 6.66255 83.048 6.69167ZM83.2413 7.65648C83.0209 7.77102 82.932 7.82926 82.9706 7.82926C82.9455 7.82926 82.932 7.81955 82.932 7.80014C82.932 7.78072 82.9184 7.77102 82.8933 7.77102C82.8682 7.77102 82.8585 7.78461 82.8643 7.81373C82.8701 7.84284 82.8604 7.85643 82.8353 7.85643C82.8218 7.85643 82.7811 7.82343 82.7096 7.75549C82.6381 7.68754 82.5839 7.65454 82.5452 7.65454H83.2413V7.65648ZM82.4679 9.23862H82.5839V9.32404H82.4679V9.23862ZM82.4872 9.75694V9.84236H82.3132V9.75694H82.4872ZM82.2939 7.62736L82.3906 7.56913L82.4099 7.62736L82.2939 7.6856V7.62736ZM81.6732 7.65648L81.6925 7.59824C81.7177 7.59824 81.7505 7.61766 81.7892 7.65648C81.8027 7.67589 81.8221 7.67589 81.8472 7.65648H81.8859L81.9052 7.71472C81.8917 7.71472 81.8724 7.73413 81.8472 7.77296C81.8221 7.81178 81.795 7.8312 81.7699 7.8312C81.7061 7.8312 81.6152 7.77296 81.4992 7.65842H81.6732V7.65648ZM80.5324 7.51283C80.5459 7.51283 80.5652 7.52642 80.5904 7.55554C80.6155 7.58465 80.6426 7.59824 80.6677 7.59824C80.6929 7.59824 80.7006 7.57883 80.6871 7.54001C80.6735 7.50118 80.6813 7.48177 80.7064 7.48177C80.7315 7.48177 80.7586 7.50118 80.7837 7.54001C80.8089 7.57883 80.836 7.59824 80.8611 7.59824C80.8746 7.59824 80.8862 7.57883 80.8998 7.54001C80.9133 7.50118 80.9384 7.48177 80.9771 7.48177C80.9384 7.48177 81.0989 7.54001 81.4605 7.65454C81.3309 7.73219 81.1763 7.76908 80.9964 7.76908C80.9713 7.76908 80.9346 7.77878 80.8901 7.7982C80.8437 7.81761 80.8147 7.82731 80.8031 7.82731C80.7779 7.82731 80.7509 7.8079 80.7257 7.76908C80.7006 7.73025 80.6735 7.71084 80.6484 7.71084C80.6233 7.71084 80.5943 7.69725 80.5614 7.66813C80.5285 7.63901 80.5072 7.62542 80.4937 7.62542C80.5188 7.56718 80.5324 7.5303 80.5324 7.51089V7.51283Z" fill="url(#paint31_linear_1224_1830)"/>
</g>
<defs>
<linearGradient id="paint0_linear_1224_1830" x1="1.71721" y1="53.2645" x2="186.045" y2="51.822" gradientUnits="userSpaceOnUse">
<stop offset="0.06" stop-color="#27F932"/>
<stop offset="0.28" stop-color="#00D9E2"/>
<stop offset="0.45" stop-color="#008EFC"/>
<stop offset="0.64" stop-color="#5A5EFF"/>
<stop offset="0.68" stop-color="#6D5BFF"/>
<stop offset="0.79" stop-color="#B454FF"/>
<stop offset="0.85" stop-color="#D151FF"/>
</linearGradient>
<linearGradient id="paint1_linear_1224_1830" x1="1.69203" y1="50.5946" x2="186.018" y2="49.1521" gradientUnits="userSpaceOnUse">
<stop offset="0.06" stop-color="#27F932"/>
<stop offset="0.28" stop-color="#00D9E2"/>
<stop offset="0.45" stop-color="#008EFC"/>
<stop offset="0.64" stop-color="#5A5EFF"/>
<stop offset="0.68" stop-color="#6D5BFF"/>
<stop offset="0.79" stop-color="#B454FF"/>
<stop offset="0.85" stop-color="#D151FF"/>
</linearGradient>
<linearGradient id="paint2_linear_1224_1830" x1="1.82724" y1="67.5501" x2="186.155" y2="66.1075" gradientUnits="userSpaceOnUse">
<stop offset="0.06" stop-color="#27F932"/>
<stop offset="0.28" stop-color="#00D9E2"/>
<stop offset="0.45" stop-color="#008EFC"/>
<stop offset="0.64" stop-color="#5A5EFF"/>
<stop offset="0.68" stop-color="#6D5BFF"/>
<stop offset="0.79" stop-color="#B454FF"/>
<stop offset="0.85" stop-color="#D151FF"/>
</linearGradient>
<linearGradient id="paint3_linear_1224_1830" x1="1.62938" y1="42.8494" x2="185.958" y2="41.4087" gradientUnits="userSpaceOnUse">
<stop offset="0.06" stop-color="#27F932"/>
<stop offset="0.28" stop-color="#00D9E2"/>
<stop offset="0.45" stop-color="#008EFC"/>
<stop offset="0.64" stop-color="#5A5EFF"/>
<stop offset="0.68" stop-color="#6D5BFF"/>
<stop offset="0.79" stop-color="#B454FF"/>
<stop offset="0.85" stop-color="#D151FF"/>
</linearGradient>
<linearGradient id="paint4_linear_1224_1830" x1="1.62768" y1="42.233" x2="185.953" y2="40.7905" gradientUnits="userSpaceOnUse">
<stop offset="0.06" stop-color="#27F932"/>
<stop offset="0.28" stop-color="#00D9E2"/>
<stop offset="0.45" stop-color="#008EFC"/>
<stop offset="0.64" stop-color="#5A5EFF"/>
<stop offset="0.68" stop-color="#6D5BFF"/>
<stop offset="0.79" stop-color="#B454FF"/>
<stop offset="0.85" stop-color="#D151FF"/>
</linearGradient>
<linearGradient id="paint5_linear_1224_1830" x1="1.56748" y1="34.7295" x2="185.896" y2="33.2889" gradientUnits="userSpaceOnUse">
<stop offset="0.06" stop-color="#27F932"/>
<stop offset="0.28" stop-color="#00D9E2"/>
<stop offset="0.45" stop-color="#008EFC"/>
<stop offset="0.64" stop-color="#5A5EFF"/>
<stop offset="0.68" stop-color="#6D5BFF"/>
<stop offset="0.79" stop-color="#B454FF"/>
<stop offset="0.85" stop-color="#D151FF"/>
</linearGradient>
<linearGradient id="paint6_linear_1224_1830" x1="1.66119" y1="45.8053" x2="185.989" y2="44.3646" gradientUnits="userSpaceOnUse">
<stop offset="0.06" stop-color="#27F932"/>
<stop offset="0.28" stop-color="#00D9E2"/>
<stop offset="0.45" stop-color="#008EFC"/>
<stop offset="0.64" stop-color="#5A5EFF"/>
<stop offset="0.68" stop-color="#6D5BFF"/>
<stop offset="0.79" stop-color="#B454FF"/>
<stop offset="0.85" stop-color="#D151FF"/>
</linearGradient>
<linearGradient id="paint7_linear_1224_1830" x1="1.66574" y1="46.7606" x2="185.994" y2="45.318" gradientUnits="userSpaceOnUse">
<stop offset="0.06" stop-color="#27F932"/>
<stop offset="0.28" stop-color="#00D9E2"/>
<stop offset="0.45" stop-color="#008EFC"/>
<stop offset="0.64" stop-color="#5A5EFF"/>
<stop offset="0.68" stop-color="#6D5BFF"/>
<stop offset="0.79" stop-color="#B454FF"/>
<stop offset="0.85" stop-color="#D151FF"/>
</linearGradient>
<linearGradient id="paint8_linear_1224_1830" x1="1.65865" y1="46.0178" x2="185.987" y2="44.5753" gradientUnits="userSpaceOnUse">
<stop offset="0.06" stop-color="#27F932"/>
<stop offset="0.28" stop-color="#00D9E2"/>
<stop offset="0.45" stop-color="#008EFC"/>
<stop offset="0.64" stop-color="#5A5EFF"/>
<stop offset="0.68" stop-color="#6D5BFF"/>
<stop offset="0.79" stop-color="#B454FF"/>
<stop offset="0.85" stop-color="#D151FF"/>
</linearGradient>
<linearGradient id="paint9_linear_1224_1830" x1="1.65474" y1="45.6261" x2="185.98" y2="44.1855" gradientUnits="userSpaceOnUse">
<stop offset="0.06" stop-color="#27F932"/>
<stop offset="0.28" stop-color="#00D9E2"/>
<stop offset="0.45" stop-color="#008EFC"/>
<stop offset="0.64" stop-color="#5A5EFF"/>
<stop offset="0.68" stop-color="#6D5BFF"/>
<stop offset="0.79" stop-color="#B454FF"/>
<stop offset="0.85" stop-color="#D151FF"/>
</linearGradient>
<linearGradient id="paint10_linear_1224_1830" x1="0.729807" y1="44.877" x2="186.052" y2="43.3437" gradientUnits="userSpaceOnUse">
<stop offset="0.06" stop-color="#27F932"/>
<stop offset="0.28" stop-color="#00D9E2"/>
<stop offset="0.45" stop-color="#008EFC"/>
<stop offset="0.64" stop-color="#5A5EFF"/>
<stop offset="0.68" stop-color="#6D5BFF"/>
<stop offset="0.79" stop-color="#B454FF"/>
<stop offset="0.85" stop-color="#D151FF"/>
</linearGradient>
<linearGradient id="paint11_linear_1224_1830" x1="1.65023" y1="44.8919" x2="185.979" y2="43.4494" gradientUnits="userSpaceOnUse">
<stop offset="0.06" stop-color="#27F932"/>
<stop offset="0.28" stop-color="#00D9E2"/>
<stop offset="0.45" stop-color="#008EFC"/>
<stop offset="0.64" stop-color="#5A5EFF"/>
<stop offset="0.68" stop-color="#6D5BFF"/>
<stop offset="0.79" stop-color="#B454FF"/>
<stop offset="0.85" stop-color="#D151FF"/>
</linearGradient>
<linearGradient id="paint12_linear_1224_1830" x1="1.72473" y1="54.6668" x2="186.052" y2="53.2243" gradientUnits="userSpaceOnUse">
<stop offset="0.06" stop-color="#27F932"/>
<stop offset="0.28" stop-color="#00D9E2"/>
<stop offset="0.45" stop-color="#008EFC"/>
<stop offset="0.64" stop-color="#5A5EFF"/>
<stop offset="0.68" stop-color="#6D5BFF"/>
<stop offset="0.79" stop-color="#B454FF"/>
<stop offset="0.85" stop-color="#D151FF"/>
</linearGradient>
<linearGradient id="paint13_linear_1224_1830" x1="1.64739" y1="44.9147" x2="185.973" y2="43.4722" gradientUnits="userSpaceOnUse">
<stop offset="0.06" stop-color="#27F932"/>
<stop offset="0.28" stop-color="#00D9E2"/>
<stop offset="0.45" stop-color="#008EFC"/>
<stop offset="0.64" stop-color="#5A5EFF"/>
<stop offset="0.68" stop-color="#6D5BFF"/>
<stop offset="0.79" stop-color="#B454FF"/>
<stop offset="0.85" stop-color="#D151FF"/>
</linearGradient>
<linearGradient id="paint14_linear_1224_1830" x1="1.64332" y1="43.9213" x2="185.969" y2="42.4788" gradientUnits="userSpaceOnUse">
<stop offset="0.06" stop-color="#27F932"/>
<stop offset="0.28" stop-color="#00D9E2"/>
<stop offset="0.45" stop-color="#008EFC"/>
<stop offset="0.64" stop-color="#5A5EFF"/>
<stop offset="0.68" stop-color="#6D5BFF"/>
<stop offset="0.79" stop-color="#B454FF"/>
<stop offset="0.85" stop-color="#D151FF"/>
</linearGradient>
<linearGradient id="paint15_linear_1224_1830" x1="13.7628" y1="20.1551" x2="144.851" y2="20.9563" gradientUnits="userSpaceOnUse">
<stop offset="0.06" stop-color="#27F932"/>
<stop offset="0.28" stop-color="#00D9E2"/>
<stop offset="0.45" stop-color="#008EFC"/>
<stop offset="0.64" stop-color="#5A5EFF"/>
<stop offset="0.68" stop-color="#6D5BFF"/>
<stop offset="0.79" stop-color="#B454FF"/>
<stop offset="0.85" stop-color="#D151FF"/>
</linearGradient>
<linearGradient id="paint16_linear_1224_1830" x1="13.0702" y1="11.0147" x2="145.766" y2="11.8257" gradientUnits="userSpaceOnUse">
<stop offset="0.06" stop-color="#27F932"/>
<stop offset="0.28" stop-color="#00D9E2"/>
<stop offset="0.45" stop-color="#008EFC"/>
<stop offset="0.64" stop-color="#5A5EFF"/>
<stop offset="0.68" stop-color="#6D5BFF"/>
<stop offset="0.79" stop-color="#B454FF"/>
<stop offset="0.85" stop-color="#D151FF"/>
</linearGradient>
<linearGradient id="paint17_linear_1224_1830" x1="1.63935" y1="43.4068" x2="185.967" y2="41.9662" gradientUnits="userSpaceOnUse">
<stop offset="0.06" stop-color="#27F932"/>
<stop offset="0.28" stop-color="#00D9E2"/>
<stop offset="0.45" stop-color="#008EFC"/>
<stop offset="0.64" stop-color="#5A5EFF"/>
<stop offset="0.68" stop-color="#6D5BFF"/>
<stop offset="0.79" stop-color="#B454FF"/>
<stop offset="0.85" stop-color="#D151FF"/>
</linearGradient>
<linearGradient id="paint18_linear_1224_1830" x1="93.5626" y1="66.5853" x2="185.886" y2="68.8271" gradientUnits="userSpaceOnUse">
<stop offset="0.08" stop-color="#008EFC"/>
<stop offset="0.39" stop-color="#5A5EFF"/>
<stop offset="0.46" stop-color="#6D5BFF"/>
<stop offset="0.73" stop-color="#B454FF"/>
<stop offset="0.85" stop-color="#D151FF"/>
</linearGradient>
<linearGradient id="paint19_linear_1224_1830" x1="93.5654" y1="66.43" x2="185.889" y2="68.6718" gradientUnits="userSpaceOnUse">
<stop offset="0.08" stop-color="#008EFC"/>
<stop offset="0.39" stop-color="#5A5EFF"/>
<stop offset="0.46" stop-color="#6D5BFF"/>
<stop offset="0.73" stop-color="#B454FF"/>
<stop offset="0.85" stop-color="#D151FF"/>
</linearGradient>
<linearGradient id="paint20_linear_1224_1830" x1="93.5699" y1="66.2349" x2="185.896" y2="68.4787" gradientUnits="userSpaceOnUse">
<stop offset="0.08" stop-color="#008EFC"/>
<stop offset="0.39" stop-color="#5A5EFF"/>
<stop offset="0.46" stop-color="#6D5BFF"/>
<stop offset="0.73" stop-color="#B454FF"/>
<stop offset="0.85" stop-color="#D151FF"/>
</linearGradient>
<linearGradient id="paint21_linear_1224_1830" x1="93.5962" y1="65.2313" x2="185.92" y2="67.4751" gradientUnits="userSpaceOnUse">
<stop offset="0.08" stop-color="#008EFC"/>
<stop offset="0.39" stop-color="#5A5EFF"/>
<stop offset="0.46" stop-color="#6D5BFF"/>
<stop offset="0.73" stop-color="#B454FF"/>
<stop offset="0.85" stop-color="#D151FF"/>
</linearGradient>
<linearGradient id="paint22_linear_1224_1830" x1="93.5795" y1="65.9019" x2="185.905" y2="68.1457" gradientUnits="userSpaceOnUse">
<stop offset="0.08" stop-color="#008EFC"/>
<stop offset="0.39" stop-color="#5A5EFF"/>
<stop offset="0.46" stop-color="#6D5BFF"/>
<stop offset="0.73" stop-color="#B454FF"/>
<stop offset="0.85" stop-color="#D151FF"/>
</linearGradient>
<linearGradient id="paint23_linear_1224_1830" x1="93.5799" y1="65.7796" x2="185.906" y2="68.0214" gradientUnits="userSpaceOnUse">
<stop offset="0.08" stop-color="#008EFC"/>
<stop offset="0.39" stop-color="#5A5EFF"/>
<stop offset="0.46" stop-color="#6D5BFF"/>
<stop offset="0.73" stop-color="#B454FF"/>
<stop offset="0.85" stop-color="#D151FF"/>
</linearGradient>
<linearGradient id="paint24_linear_1224_1830" x1="93.5861" y1="65.5564" x2="185.91" y2="67.7982" gradientUnits="userSpaceOnUse">
<stop offset="0.08" stop-color="#008EFC"/>
<stop offset="0.39" stop-color="#5A5EFF"/>
<stop offset="0.46" stop-color="#6D5BFF"/>
<stop offset="0.73" stop-color="#B454FF"/>
<stop offset="0.85" stop-color="#D151FF"/>
</linearGradient>
<linearGradient id="paint25_linear_1224_1830" x1="93.5893" y1="65.4147" x2="185.913" y2="67.6584" gradientUnits="userSpaceOnUse">
<stop offset="0.08" stop-color="#008EFC"/>
<stop offset="0.39" stop-color="#5A5EFF"/>
<stop offset="0.46" stop-color="#6D5BFF"/>
<stop offset="0.73" stop-color="#B454FF"/>
<stop offset="0.85" stop-color="#D151FF"/>
</linearGradient>
<linearGradient id="paint26_linear_1224_1830" x1="93.5965" y1="65.2244" x2="185.92" y2="67.4682" gradientUnits="userSpaceOnUse">
<stop offset="0.08" stop-color="#008EFC"/>
<stop offset="0.39" stop-color="#5A5EFF"/>
<stop offset="0.46" stop-color="#6D5BFF"/>
<stop offset="0.73" stop-color="#B454FF"/>
<stop offset="0.85" stop-color="#D151FF"/>
</linearGradient>
<linearGradient id="paint27_linear_1224_1830" x1="93.5974" y1="65.044" x2="185.923" y2="67.2877" gradientUnits="userSpaceOnUse">
<stop offset="0.08" stop-color="#008EFC"/>
<stop offset="0.39" stop-color="#5A5EFF"/>
<stop offset="0.46" stop-color="#6D5BFF"/>
<stop offset="0.73" stop-color="#B454FF"/>
<stop offset="0.85" stop-color="#D151FF"/>
</linearGradient>
<linearGradient id="paint28_linear_1224_1830" x1="93.6057" y1="64.8362" x2="185.929" y2="67.078" gradientUnits="userSpaceOnUse">
<stop offset="0.08" stop-color="#008EFC"/>
<stop offset="0.39" stop-color="#5A5EFF"/>
<stop offset="0.46" stop-color="#6D5BFF"/>
<stop offset="0.73" stop-color="#B454FF"/>
<stop offset="0.85" stop-color="#D151FF"/>
</linearGradient>
<linearGradient id="paint29_linear_1224_1830" x1="93.6063" y1="64.6259" x2="185.93" y2="66.8677" gradientUnits="userSpaceOnUse">
<stop offset="0.08" stop-color="#008EFC"/>
<stop offset="0.39" stop-color="#5A5EFF"/>
<stop offset="0.46" stop-color="#6D5BFF"/>
<stop offset="0.73" stop-color="#B454FF"/>
<stop offset="0.85" stop-color="#D151FF"/>
</linearGradient>
<linearGradient id="paint30_linear_1224_1830" x1="93.6098" y1="64.5605" x2="185.935" y2="66.8023" gradientUnits="userSpaceOnUse">
<stop offset="0.08" stop-color="#008EFC"/>
<stop offset="0.39" stop-color="#5A5EFF"/>
<stop offset="0.46" stop-color="#6D5BFF"/>
<stop offset="0.73" stop-color="#B454FF"/>
<stop offset="0.85" stop-color="#D151FF"/>
</linearGradient>
<linearGradient id="paint31_linear_1224_1830" x1="19.3245" y1="8.84843" x2="139.432" y2="9.58221" gradientUnits="userSpaceOnUse">
<stop offset="0.06" stop-color="#27F932"/>
<stop offset="0.28" stop-color="#00D9E2"/>
<stop offset="0.45" stop-color="#008EFC"/>
<stop offset="0.64" stop-color="#5A5EFF"/>
<stop offset="0.68" stop-color="#6D5BFF"/>
<stop offset="0.79" stop-color="#B454FF"/>
<stop offset="0.85" stop-color="#D151FF"/>
</linearGradient>
<clipPath id="clip0_1224_1830">
<rect width="186" height="77.3675" fill="white"/>
</clipPath>
</defs>
</svg>
