<svg width="549" height="81" viewBox="0 0 549 81" fill="none" xmlns="http://www.w3.org/2000/svg">
<path d="M492 44.9999C492 51.9999 499.2 58.1223 508 58.1223C516.8 58.1223 524 51.9999 524 44.9999" stroke="#B454FF" stroke-width="4" stroke-linecap="round"/>
<circle cx="508.5" cy="40.5" r="39" stroke="#B454FF" stroke-width="3"/>
<path d="M522 24C525.314 24 528 26.7554 528 30.1543C528 32.7018 525.065 32.4608 522.91 31.1036C522.571 30.8906 522.264 30.7695 522.001 30.7695C521.953 30.7695 521.902 30.7786 521.847 30.7962C519.022 31.7028 516 33.1214 516 30.1543C516 26.7554 518.686 24 522 24Z" fill="#B454FF"/>
<path d="M493 24C496.314 24 499 26.7554 499 30.1543C499 32.7018 496.065 32.4608 493.91 31.1036C493.571 30.8906 493.264 30.7695 493.001 30.7695C492.953 30.7695 492.902 30.7786 492.847 30.7962C490.022 31.7028 487 33.1214 487 30.1543C487 26.7554 489.686 24 493 24Z" fill="#B454FF"/>
<path d="M374 49C376.333 51.6667 383.2 57 392 57C400.8 57 407.333 51.6667 409.5 49" stroke="#B454FF" stroke-width="4" stroke-linecap="round"/>
<circle cx="378" cy="29" r="5" fill="#B454FF"/>
<circle cx="405" cy="29" r="5" fill="#B454FF"/>
<circle cx="391.5" cy="40.5" r="39" stroke="#B454FF" stroke-width="3"/>
<path d="M256 52.5H294" stroke="#B454FF" stroke-width="4" stroke-linecap="round"/>
<circle cx="261" cy="29" r="5" fill="#B454FF"/>
<circle cx="288" cy="29" r="5" fill="#B454FF"/>
<circle cx="274.5" cy="40.5" r="39" stroke="#B454FF" stroke-width="3"/>
<path d="M140 55.5C142.333 52.8333 149.2 47.5 158 47.5C166.8 47.5 173.333 52.8333 175.5 55.5" stroke="#B454FF" stroke-width="4" stroke-linecap="round"/>
<circle cx="144" cy="29" r="5" fill="#B454FF"/>
<circle cx="171" cy="29" r="5" fill="#B454FF"/>
<circle cx="157.5" cy="40.5" r="39" stroke="#B454FF" stroke-width="3"/>
<path d="M25 58C26.5 53.6667 31.7 45 40.5 45C49.3 45 55.5263 52.5 57 58" stroke="#B454FF" stroke-width="4" stroke-linecap="round"/>
<path d="M30.6211 25.5547C31.4748 26.4516 32 27.664 32 29C32 31.7614 29.7614 34 27 34C24.2386 34 22 31.7614 22 29C22 28.8798 22.0053 28.7607 22.0137 28.6426L30.6211 25.5547Z" fill="#B454FF"/>
<path d="M50.3789 25.5547C49.5252 26.4516 49 27.664 49 29C49 31.7614 51.2386 34 54 34C56.7614 34 59 31.7614 59 29C59 28.8798 58.9947 28.7607 58.9863 28.6426L50.3789 25.5547Z" fill="#B454FF"/>
<circle cx="40.5" cy="40.5" r="39" stroke="#B454FF" stroke-width="3"/>
</svg>
