<svg width="23" height="23" viewBox="0 0 23 23" fill="none" xmlns="http://www.w3.org/2000/svg">
<g clip-path="url(#clip0_220_1856)">
<path d="M22.73 7.38071C22.73 7.38071 22.5125 5.84515 21.8426 5.17089C20.9943 4.28348 20.046 4.27913 19.611 4.22693C16.4964 4.00073 11.8201 4.00073 11.8201 4.00073H11.8114C11.8114 4.00073 7.13514 4.00073 4.02051 4.22693C3.58551 4.27913 2.6372 4.28348 1.78895 5.17089C1.11904 5.84515 0.905889 7.38071 0.905889 7.38071C0.905889 7.38071 0.679688 9.18597 0.679688 10.9869V12.6747C0.679688 14.4756 0.901539 16.2809 0.901539 16.2809C0.901539 16.2809 1.11904 17.8164 1.7846 18.4907C2.63285 19.3781 3.74646 19.3477 4.24237 19.4434C6.02588 19.613 11.8158 19.6652 11.8158 19.6652C11.8158 19.6652 16.4964 19.6565 19.611 19.4347C20.046 19.3825 20.9943 19.3781 21.8426 18.4907C22.5125 17.8164 22.73 16.2809 22.73 16.2809C22.73 16.2809 22.9519 14.48 22.9519 12.6747V10.9869C22.9519 9.18597 22.73 7.38071 22.73 7.38071ZM9.51461 14.7236V8.46387L15.5307 11.6046L9.51461 14.7236Z" fill="white"/>
</g>
<defs>
<clipPath id="clip0_220_1856">
<rect width="22.2722" height="22.2722" fill="white" transform="translate(0.679688 0.698975)"/>
</clipPath>
</defs>
</svg>
