<svg width="29" height="28" viewBox="0 0 29 28" fill="none" xmlns="http://www.w3.org/2000/svg">
<g clip-path="url(#clip0_220_1851)">
<path d="M9.95992 17.4079C10.0187 17.8031 10.1225 18.0513 10.2851 18.2043C10.4468 18.3531 10.6759 18.4119 10.9691 18.4473C11.321 18.4119 11.5597 18.3297 11.7222 18.1006C11.8165 17.9518 11.8788 17.7175 11.9116 17.3984L12.0232 16.0606V16.0373L12.0016 15.8298L11.9661 15.6326L11.9341 15.4294L11.8935 15.24L11.8623 15.042L11.8269 14.8483L11.7897 14.6589L11.7586 14.4652L11.7274 14.281L11.6903 14.1046L11.6548 13.9343V13.776L11.6237 13.6178L11.5865 13.4656L11.5692 13.3212L11.5337 13.1863L11.5017 13.0687L11.4663 12.875L11.4118 12.6813L11.3573 12.4737L11.308 12.2671L11.2951 12.0362L11.2319 11.8018L11.1827 11.5632L11.1195 11.3202L11.0884 11.0772L11.0391 10.8307L11.0037 10.5877L10.9803 10.3076L10.9665 10.0646L10.9535 9.80429V9.3408L10.9751 9.09781L11.0158 8.85481L11.0702 8.61182L11.1386 8.38267L11.2423 8.15697L11.4127 7.85951C11.1835 7.80676 10.9042 7.76957 10.6163 7.76957C10.4891 7.76957 10.3871 7.76957 10.2695 7.79292C7.58536 8.02208 8.67925 11.0625 9.13929 12.7288C9.46356 13.8815 9.83194 16.5795 9.97203 17.4088L9.95041 17.3854L9.95992 17.4079ZM10.2851 7.41849C10.388 7.44962 10.4917 7.46778 10.6137 7.46778C11.1628 7.46778 11.5234 7.17464 11.7171 6.72411C11.8476 6.41281 11.9064 6.02973 11.8926 5.63455C11.8788 5.28779 11.8122 4.97648 11.7032 4.7015C11.4827 4.16104 11.0815 3.80131 10.4788 3.80131C10.3923 3.80131 10.3205 3.80131 10.2712 3.8186C9.4921 3.94572 9.14448 4.71533 9.18166 5.67519C9.19463 6.57105 9.54139 7.32424 10.2531 7.49459L10.2851 7.42627V7.41849ZM11.7222 11.8442C11.8165 12.2636 11.916 12.6423 11.992 12.9709C12.3206 14.3035 12.6415 17.4027 12.7573 18.3531C12.8749 19.3034 13.2079 19.4919 13.8789 19.5645C14.5404 19.5153 14.8785 19.3025 14.9918 18.3712C15.1034 17.4382 15.4285 14.3407 15.7485 13.0064C15.8245 12.6821 15.9326 12.3042 16.0226 11.8987C16.3244 10.6881 16.563 9.25951 16.0226 8.32819C15.6845 7.73758 15.0273 7.35969 13.8789 7.35969C12.721 7.35969 12.0552 7.73758 11.7214 8.34981C11.1853 9.28286 11.4282 10.7235 11.7214 11.9359L11.7222 11.8442ZM13.8607 6.91349H13.8789C14.914 6.91349 15.4147 5.96314 15.4147 4.80094C15.4147 3.63874 14.9278 2.67456 13.8919 2.67456H13.8789C12.83 2.67456 12.3475 3.64306 12.3475 4.8191C12.3475 5.99427 12.8291 6.94029 13.8875 6.94029V6.90311L13.8607 6.91349ZM17.1216 7.77822C16.8112 7.77822 16.5328 7.81367 16.3062 7.86383L16.3607 7.95376L16.4826 8.17513L16.5682 8.40429L16.6348 8.64728L16.6893 8.89027L16.7265 9.13326L16.7394 9.39873V9.90374L16.7265 10.1692V10.3629L16.6538 10.8584L16.6045 11.1066L16.5501 11.3452L16.5008 11.5882L16.4463 11.8269L16.3918 12.0561L16.3339 12.2809L16.2612 12.5066L16.2068 12.7133L16.1713 12.9251L16.1125 13.1188L16.0952 13.2226L16.058 13.3575L16.0226 13.5157L15.9958 13.6722L15.9776 13.821L15.9422 13.9602V13.9974L15.9067 14.1677L15.8747 14.3433L15.8531 14.5292L15.8159 14.7229L15.7943 14.9166L15.7588 15.106L15.7355 15.3126L15.7216 15.502L15.6689 16.1238V16.1419C15.7216 16.7135 15.7545 17.2142 15.7718 17.4935C15.809 17.8221 15.8583 18.0426 15.9655 18.2C16.1237 18.4292 16.3667 18.5113 16.7273 18.5468C17.0239 18.5113 17.2453 18.4663 17.4157 18.2943C17.5921 18.155 17.682 17.8973 17.7486 17.4978C17.8878 16.6876 18.2579 13.9801 18.5683 12.8222C19.0327 11.1515 20.1275 8.11547 17.4381 7.88631C17.3162 7.86815 17.2124 7.86815 17.0957 7.86815L17.1095 7.80935L17.1216 7.77822ZM17.1398 7.46778C17.2436 7.46778 17.3473 7.45395 17.4502 7.4306C18.1446 7.26025 18.4914 6.51657 18.5225 5.63455C18.558 4.7015 18.2121 3.90508 17.4286 3.80131C17.3603 3.77796 17.2894 3.77796 17.2211 3.77796C16.5994 3.77796 16.1947 4.16104 15.9871 4.69199C15.8834 4.96784 15.815 5.29125 15.815 5.63887C15.7934 6.05308 15.847 6.43097 15.9871 6.74227C16.1713 7.20577 16.5405 7.50324 17.0948 7.50324L17.126 7.44876L17.1398 7.46778ZM20.3558 8.85049C25.3055 8.92226 28.1972 11.967 24.9224 16.1186C23.4005 18.0417 20.8512 19.9476 17.4416 21.1591L16.9548 21.3295C16.6218 21.4332 16.3105 21.537 16.0001 21.6269C15.2469 21.8345 14.5447 22.0238 13.8512 22.1631C13.1041 22.3196 12.3786 22.4234 11.6851 22.5055C11.1809 22.5634 10.6949 22.5998 10.2436 22.5998C7.07776 22.6897 4.6911 21.825 3.9163 19.9684C2.97979 17.7573 4.86145 14.6762 8.65504 12.325C5.8533 13.4422 0.768664 16.1169 0.542969 19.9009V20.3826C0.561128 20.7873 0.629442 21.1652 0.768664 21.5854C1.58411 24.1424 5.3898 25.3548 10.2314 24.9268C10.7045 24.8913 11.1861 24.8412 11.673 24.7642C12.3708 24.6699 13.0911 24.5221 13.8166 24.35C14.5153 24.2013 15.2357 23.9937 15.969 23.7594L16.4506 23.6106C16.7792 23.5077 17.0948 23.404 17.4053 23.282C21.6079 21.7601 24.7287 19.7375 26.5438 17.401C27.5806 16.0719 28.115 14.8284 28.2188 13.7345V12.8879C27.9213 10.1095 24.6933 8.47779 20.2918 8.92832L20.3411 8.87384L20.3558 8.85049Z" fill="white"/>
</g>
<defs>
<clipPath id="clip0_220_1851">
<rect width="27.6715" height="27.6715" fill="white" transform="translate(0.5625)"/>
</clipPath>
</defs>
</svg>
