<svg width="186" height="78" viewBox="0 0 186 78" fill="none" xmlns="http://www.w3.org/2000/svg">
<g clip-path="url(#clip0_240_2342)">
<path d="M4.99852 53.7149C5.23635 53.4586 5.59213 53.3344 6.06973 53.3344C5.71201 52.952 5.41424 52.7617 5.17834 52.7617C4.94244 52.7617 4.70074 52.8238 4.46484 52.952C4.82256 52.952 5.00045 53.2063 5.00045 53.7149H4.99852Z" fill="url(#paint0_linear_240_2342)"/>
<path d="M6.41967 51.9984C5.70617 50.3464 5.17057 49.3932 4.81285 49.137H3.92146V50.0901C3.80158 50.853 4.63496 51.4878 6.41967 51.9984Z" fill="url(#paint1_linear_240_2342)"/>
<path d="M2.32031 64.3953C0.773437 64.3953 0 65.6648 0 68.2099C0 69.8619 1.00934 70.6889 3.03381 70.6889C4.57875 70.6889 5.88972 70.2424 6.959 69.3533C7.55261 68.7146 7.96834 68.2079 8.2081 67.8274L6.959 65.1562C5.88779 64.6457 4.34092 64.3933 2.31838 64.3933L2.32031 64.3953Z" fill="url(#paint2_linear_240_2342)"/>
<path d="M166.324 41.5665C166.415 41.5606 166.512 41.5529 166.616 41.5374C166.489 41.5374 166.392 41.5471 166.324 41.5665Z" fill="url(#paint3_linear_240_2342)"/>
<path d="M168.611 41.2602C168.85 40.9845 168.972 40.7555 168.972 40.5691C168.729 40.5691 168.338 40.6176 167.795 40.7069C167.251 40.8001 166.859 40.8448 166.617 40.8448C167.46 41.0311 168.125 41.1689 168.609 41.2582L168.611 41.2602Z" fill="url(#paint4_linear_240_2342)"/>
<path d="M95.4961 34.0486C95.3124 33.9749 95.0552 33.936 94.7188 33.936C94.8947 33.936 95.1557 33.9749 95.4961 34.0486Z" fill="url(#paint5_linear_240_2342)"/>
<path d="M168.074 44.2993H164.996V44.7147H168.074V44.2993Z" fill="url(#paint6_linear_240_2342)"/>
<path d="M163.543 45.5431L165.716 45.8207V45.4053L163.543 45.1296V45.5431Z" fill="url(#paint7_linear_240_2342)"/>
<path d="M168.629 45.0955C169.613 44.9343 170.334 44.8509 170.789 44.8509C170.305 44.8509 169.82 44.6664 169.34 44.2976C169.143 44.748 168.905 45.0101 168.631 45.0955H168.629Z" fill="url(#paint8_linear_240_2342)"/>
<path d="M175.691 44.2068C175.726 44.2689 175.838 44.3 176.038 44.3C175.918 44.267 175.804 44.2359 175.691 44.2068Z" fill="url(#paint9_linear_240_2342)"/>
<path d="M171.659 43.5955C171.609 43.5992 171.551 43.6065 171.508 43.6065C171.541 43.6065 171.595 43.601 171.659 43.5955Z" fill="url(#paint10_linear_240_2342)"/>
<path d="M172.254 43.4998C171.993 43.5483 171.797 43.5793 171.664 43.5949C171.828 43.5813 172.018 43.5541 172.254 43.4998Z" fill="url(#paint11_linear_240_2342)"/>
<path d="M184.368 48.0997C183.643 47.9619 183.1 47.892 182.738 47.892C181.651 47.892 180.112 47.9832 178.121 48.1677C176.129 48.3521 174.59 48.4433 173.503 48.4433L167.526 48.8588C164.87 49.0412 162.153 48.9034 159.376 48.4433C161.55 47.6144 167.526 47.199 177.307 47.199C178.511 47.199 179.662 46.7835 180.748 45.9546C177.127 46.5079 174.106 46.7835 171.693 46.7835C171.571 46.7835 171.332 46.7137 170.968 46.5758C170.607 46.438 170.303 46.3681 170.063 46.3681L169.338 46.7816C166.56 47.0573 164.326 47.197 162.636 47.197C162.393 47.197 162.093 47.1271 161.731 46.9893C161.37 46.8515 161.126 46.7816 161.006 46.7816C160.763 46.7816 160.432 46.8262 160.011 46.9194C159.585 47.0107 159.255 47.0573 159.015 47.0573C158.506 47.0573 157.866 46.9544 157.106 46.7602C157.385 46.7738 157.779 46.7816 158.29 46.7816C158.529 46.7816 159.104 46.5739 160.011 46.1604C160.072 46.1313 160.128 46.108 160.186 46.0808H160.78V45.8245C161.246 45.6343 161.565 45.5372 161.73 45.5372C161.969 45.5372 162.182 45.5819 162.364 45.6751C162.545 45.7663 162.694 45.8129 162.816 45.8129C162.816 45.2596 163.298 44.8461 164.264 44.5685C164.626 44.2016 164.868 43.926 164.99 43.7396L166.801 43.464C168.006 43.464 169.214 43.695 170.423 44.1551C170.301 43.9706 170.241 43.7882 170.241 43.6018C170.241 43.1417 170.663 42.9107 171.51 42.9107C171.628 42.5438 171.691 42.2681 171.691 42.0818L172.778 41.2528C171.809 41.4392 171.026 41.5285 170.423 41.5285C170.061 42.0818 169.758 42.4506 169.518 42.6331C169.156 42.0798 168.913 41.6663 168.793 41.3887C167.584 42.7709 166.438 43.462 165.351 43.462C164.504 43.462 163.659 43.3242 162.816 43.0466C163.541 42.8641 164.023 42.7709 164.264 42.7709C164.264 42.3108 164.324 42.0352 164.446 41.942C164.686 42.0352 164.868 42.0798 164.99 42.0798C165.229 42.0798 165.32 42.0099 165.26 41.8721C165.198 41.7343 165.289 41.6644 165.533 41.6644C165.894 41.6644 166.194 41.7576 166.438 41.9401C166.171 41.7362 166.134 41.6081 166.326 41.5557C165.896 41.579 165.63 41.478 165.531 41.249C166.012 40.8821 166.256 40.6064 166.256 40.42C165.531 40.42 165.048 40.3288 164.808 40.1444C165.411 39.4086 166.194 39.0398 167.163 39.0398H166.258C165.411 38.6729 164.506 38.4865 163.541 38.4865C162.936 38.4865 162.273 38.5797 161.55 38.7622L160.825 38.2089C163.963 37.5664 165.653 37.2422 165.896 37.2422H161.911C161.668 37.0578 161.608 36.9665 161.73 36.9665C163.781 36.5064 164.928 36.2754 165.171 36.2754L168.975 36.4133C171.51 36.5064 173.439 36.5511 174.77 36.5511C175.131 36.5511 175.704 36.6676 176.491 36.8966C177.274 37.1276 177.728 37.2422 177.85 37.2422C179.176 37.2422 182.349 36.3065 184.645 35.9376L183.283 34.7554H180.928C181.046 34.7554 180.746 34.4797 180.023 33.9265L180.928 33.2354C180.567 33.2354 180.081 33.1907 179.48 33.0976C178.875 33.0063 178.393 32.9597 178.032 32.9597C177.788 32.9597 177.639 33.0296 177.579 33.1674C177.517 33.3053 177.308 33.3752 176.945 33.3752C176.701 33.3752 176.402 33.2606 176.04 33.0296C175.678 32.8005 175.375 32.6841 175.135 32.6841L167.89 32.9597C163.06 33.1461 159.378 33.2354 156.841 33.2354C156.358 33.051 155.936 32.9597 155.573 32.9597L155.03 33.3752C154.183 33.1907 153.46 33.0529 152.856 32.9597C152.856 33.2354 152.794 33.4664 152.674 33.6508C152.191 33.1907 151.162 32.9597 149.596 32.9597C150.078 33.3286 150.199 33.5596 149.958 33.6508C149.714 33.6508 149.233 33.6994 148.51 33.7886H147.241C146.997 33.7886 146.607 33.7188 146.064 33.5809C145.934 33.5479 145.81 33.5188 145.694 33.4936L145.611 33.478C145.28 33.4101 145.006 33.3752 144.795 33.3752C144.492 33.3752 144.343 33.3053 144.343 33.1674C144.343 33.0296 144.281 32.9597 144.161 32.9597C143.556 33.4217 143.074 33.6508 142.713 33.6508L135.467 33.3752C133.05 33.2839 129.129 33.2373 123.696 33.2373C122.971 33.2373 121.913 33.3072 120.527 33.445C119.136 33.5829 118.083 33.6528 117.357 33.6528C116.391 33.6528 115.424 33.5149 114.459 33.2393C114.577 33.148 114.459 32.9636 114.097 32.686C108.302 33.3324 103.894 33.6528 100.877 33.6528C101.117 33.7459 101.117 33.8838 100.877 34.0682C100.394 34.0682 99.7598 34.1148 98.9748 34.206C98.1878 34.2992 97.5536 34.3439 97.074 34.3439C96.8304 34.3439 96.4398 34.274 95.8965 34.1361C95.7515 34.0993 95.62 34.0682 95.4962 34.041C95.7708 34.1517 95.8771 34.3439 95.8056 34.6195L95.2623 35.033C93.3287 34.6661 92.0022 34.4797 91.2771 34.4797L90.7338 34.2041L91.2771 33.7906L93.9938 34.2041C91.6987 33.6508 89.5852 33.3752 87.6555 33.3752C87.0503 33.3752 86.2343 33.4217 85.2114 33.513C84.1847 33.6062 83.4287 33.6508 82.9472 33.6508L49.0803 34.4797C47.8718 34.7554 47.0887 34.8952 46.7252 34.8952C44.6698 34.8952 43.5251 34.6661 43.2834 34.2041C43.2834 34.0216 43.4652 33.6994 43.8268 33.2373C43.5831 32.6841 43.5232 32.1793 43.645 31.7173C43.1616 31.7173 42.7981 31.6261 42.5583 31.4417C41.7114 31.7173 40.9883 31.9483 40.385 32.1327C38.8149 33.3305 38.0299 34.1594 38.0299 34.6195C38.0299 34.7127 38.1478 34.9884 38.3914 35.4484C38.4823 35.6212 38.55 35.7785 38.6061 35.9241L26.2272 36.3492C25.0361 36.7297 24.2646 36.9219 23.9069 36.9219C21.8824 36.9219 20.7532 36.6054 20.5173 35.9687C20.5173 35.7163 20.6952 35.2718 21.0529 34.6331C20.8132 33.8702 20.7551 33.1733 20.875 32.5346C20.3974 32.5346 20.0416 32.4103 19.8038 32.1541C18.9704 32.5346 18.2569 32.8549 17.6633 33.1073C16.1165 34.7612 15.343 35.9066 15.343 36.5414C15.343 36.6695 15.461 37.0519 15.7007 37.6848C15.9386 38.3235 16.0584 38.8301 16.0584 39.2106L14.4516 40.1638C13.4984 39.1485 12.7849 38.638 12.3092 38.638C11.4758 38.638 10.7024 40.1638 9.9889 43.2155C9.5113 44.489 9.09752 45.2519 8.7398 45.5042C9.33341 45.5042 10.2267 45.9507 11.4159 46.8398V48.7481C10.4626 49.7673 9.80908 50.7204 9.4533 51.6095C9.09558 53.0073 8.85582 54.0885 8.7398 54.8515C7.07305 54.469 5.82394 54.405 4.9925 54.6612C4.9925 54.7855 4.93062 55.0107 4.81461 55.329C4.69473 55.6455 4.63672 55.9308 4.63672 56.1871C4.63672 56.4433 4.81461 56.884 5.17232 57.5227C5.53004 58.1575 5.64605 58.602 5.53004 58.8583C6.00377 58.7301 6.95703 58.668 8.38595 58.668C8.62379 58.668 8.97957 58.2215 9.45716 57.3324C9.93089 56.4414 10.2287 55.9308 10.3486 55.8066C10.8223 56.0589 11.4198 56.6316 12.1333 57.5227C11.18 59.5552 10.7063 60.7646 10.7063 61.147C10.7063 61.5295 10.8242 61.7818 11.064 61.9099L11.2419 62.1002C13.0266 63.3698 14.8113 64.0706 16.596 64.1987C17.4274 65.3441 18.2028 66.3923 18.9163 67.3455C19.6298 68.2987 20.9369 68.7762 22.8415 68.7762C22.128 69.5392 21.7703 70.4283 21.7703 71.4474C21.7703 71.8299 22.4528 72.9073 23.8218 74.6894C25.1889 76.4695 26.0532 77.3605 26.409 77.3605C26.7647 77.3605 27.8959 76.7879 29.7986 75.6445C28.9652 75.6445 28.5495 75.5163 28.5495 75.264C30.8079 74.501 31.6413 74.1186 31.0477 74.1186H31.939C32.2968 74.2429 32.7105 74.3089 33.1881 74.3089C32.4746 73.1655 31.939 72.4646 31.5813 72.2103C31.5813 72.8451 31.3416 73.1635 30.8678 73.1635C30.6281 73.1635 30.4811 73.0024 30.4212 72.686C30.3593 72.3676 30.2123 72.2084 29.9745 72.2084C29.7367 72.2084 29.4969 72.2705 29.261 72.3986H28.5475C27.4763 72.3986 26.465 71.8881 25.5137 70.8728C26.2272 70.3622 26.7628 70.0439 27.1205 69.9196C26.7628 69.9196 26.5231 69.8536 26.407 69.7294C26.407 69.6013 26.525 69.411 26.7647 69.1567H27.836L28.5495 70.1099C29.6207 69.5993 30.3922 69.4731 30.8698 69.7294C30.9877 69.6013 31.2855 69.6013 31.7612 69.7294C32.1189 69.9837 32.4147 70.1099 32.6525 70.1099C32.8904 70.1099 33.2462 69.9196 33.7237 69.5372C34.1975 69.1548 34.4953 68.9645 34.6151 68.9645C38.1845 68.454 41.0385 68.2016 43.181 68.2016C44.0124 68.2016 44.9657 68.2637 46.0369 68.3919L84.7609 66.2933C86.3059 66.1652 88.5662 65.9128 91.542 65.5304L68.7005 64.3851C68.4607 64.3851 68.192 64.5093 67.8981 64.7656C67.6003 65.0199 67.3315 65.148 67.0956 65.148C66.8597 65.148 66.649 65.0199 66.4711 64.7656C66.2932 64.5093 66.0844 64.3851 65.8465 64.3851C65.249 64.3851 64.1798 64.6374 62.6348 65.148C62.3951 64.8917 62.3371 64.7015 62.4569 64.5753C63.2884 64.1948 63.8839 63.8745 64.2416 63.6222C69.238 63.3659 73.2232 63.2397 76.197 63.2397C76.315 63.2397 76.6708 63.0495 77.2682 62.667C77.8619 62.2846 78.2776 62.0944 78.5173 62.0944C79.8245 62.0944 81.7581 61.809 84.3162 61.2363C86.8724 60.6636 88.806 60.3783 90.115 60.3783L91.0084 61.1412L91.8997 60.188C92.2575 60.5685 92.4934 60.885 92.6132 61.1412L109.387 59.6154C109.981 59.6154 110.516 59.8697 110.994 60.3783C111.112 60.3783 111.379 60.122 111.796 59.6154C112.212 59.1048 112.599 58.8524 112.957 58.8524C113.194 58.8524 113.519 59.0097 113.939 59.33C114.355 59.6464 114.621 59.8075 114.741 59.8075C115.215 59.8075 115.959 59.7124 116.973 59.5222C117.982 59.3319 118.726 59.2368 119.204 59.2368C119.322 59.2368 119.62 59.3319 120.095 59.5222C120.569 59.7124 120.927 59.8075 121.167 59.8075C121.524 59.8075 121.998 59.7415 122.594 59.6173C123.187 59.4892 123.665 59.4271 124.021 59.4271H130.624C131.575 59.2989 131.811 59.2368 131.337 59.2368H135.978C138.356 59.2368 139.963 59.0466 140.796 58.6641L141.332 58.2836C141.57 58.2836 141.984 58.3458 142.581 58.4739C143.175 58.5981 143.59 58.6641 143.83 58.6641C145.971 58.6641 147.4 58.0255 148.113 56.7559C148.351 56.7559 148.529 56.818 148.649 56.9461C149.122 56.4356 150.016 56.1832 151.325 56.1832C151.563 56.1832 151.976 56.2783 152.574 56.4686C153.168 56.6588 153.583 56.7539 153.823 56.7539C154.063 56.7539 154.475 56.6258 155.072 56.3715C155.666 56.1152 156.081 55.991 156.321 55.991C159.177 55.6086 160.782 55.4183 161.14 55.4183C160.782 55.4183 160.248 55.3232 159.533 55.133C158.819 54.9427 158.284 54.8476 157.926 54.8476C156.855 54.8476 155.339 54.9718 153.376 55.2281C151.414 55.4824 149.896 55.6086 148.827 55.6086L142.939 56.1812C140.321 56.4356 137.645 56.2434 134.909 55.6086C137.049 54.4632 142.939 53.8925 152.576 53.8925C153.763 53.8925 154.896 53.3198 155.965 52.1764C152.396 52.9393 149.422 53.3218 147.044 53.3218C146.924 53.3218 146.686 53.2266 146.33 53.0364C145.973 52.8461 145.675 52.751 145.439 52.751L144.725 53.3237C141.988 53.7042 139.787 53.8964 138.122 53.8964C137.883 53.8964 137.587 53.8012 137.231 53.611C136.873 53.4208 136.633 53.3256 136.517 53.3256C136.278 53.3256 135.951 53.3878 135.535 53.5159C135.117 53.6401 134.791 53.7061 134.553 53.7061C134.052 53.7061 133.422 53.5644 132.673 53.2965C132.948 53.3159 133.337 53.3256 133.839 53.3256C134.077 53.3256 134.642 53.0403 135.535 52.4676C136.427 51.8949 136.991 51.6095 137.231 51.6095C137.471 51.6095 137.678 51.6717 137.855 51.7998C138.033 51.924 138.182 51.99 138.302 51.99C138.302 51.7435 138.356 51.5183 138.457 51.3125C138.677 51.4193 138.834 51.4756 138.917 51.4756C138.948 51.4756 138.983 51.4756 139.018 51.4756V51.6095L141.158 51.99V51.4174L140.682 51.3319C140.841 51.3125 141.005 51.2912 141.181 51.2679C142.206 51.13 142.962 51.0602 143.445 51.0602C143.563 51.0602 143.867 51.13 144.35 51.2679C144.832 51.4057 145.193 51.4756 145.437 51.4756C145.799 51.4756 146.28 51.429 146.885 51.3378C147.489 51.2446 147.972 51.1999 148.334 51.1999H155.035C156 51.1068 156.24 51.0621 155.76 51.0621H160.469C162.882 51.0621 164.512 50.9243 165.359 50.6467L165.902 50.371C166.142 50.371 166.563 50.4157 167.171 50.5088C167.774 50.6001 168.195 50.6467 168.439 50.6467C170.612 50.6467 172.061 50.1847 172.786 49.2645C173.026 49.2645 173.207 49.3091 173.329 49.4023C173.811 49.0335 174.715 48.8491 176.046 48.8491C176.286 48.8491 176.707 48.9189 177.314 49.0568C177.918 49.1946 178.339 49.2645 178.583 49.2645C178.826 49.2645 179.246 49.1713 179.851 48.9888C180.454 48.8025 180.876 48.7132 181.12 48.7132C184.018 48.4375 185.648 48.2977 186.01 48.2977C185.648 48.2977 185.105 48.2278 184.38 48.09L184.368 48.0997ZM168.429 42.9185H169.516V43.3339H168.429V42.9185ZM177.486 33.7984H178.573V34.2138H177.486V33.7984ZM172.233 33.5227L174.224 33.7984V34.2118L172.233 33.9362V33.5208V33.5227ZM164.99 33.3849C166.801 33.6605 168.793 33.8003 170.966 33.8003C168.431 33.8003 166.136 33.8935 164.085 34.076L164.99 33.3849ZM23.7309 69.7391L23.3732 68.9762L23.7309 68.7859L24.0887 69.7391H23.7309ZM144.362 57.5304L144.004 57.9109L142.933 57.5304H144.36H144.362ZM130.8 51.9997C130.918 51.9997 131.215 51.9337 131.691 51.8095C132.165 51.6814 132.523 51.6192 132.762 51.6192C132.523 51.6192 132.584 51.8095 132.94 52.1919C133.248 51.8639 133.414 51.5843 133.457 51.3514H133.474C133.513 51.3514 133.549 51.3572 133.588 51.3591L134.547 52.3841C132.88 52.256 131.631 52.1279 130.8 52.0017V51.9997ZM137.225 51.2368H136.065C136.432 50.9476 136.778 50.7962 137.099 50.7962C137.275 50.7962 137.5 50.8583 137.77 50.9806C137.533 51.1475 137.349 51.2368 137.225 51.2368ZM157.466 46.0031L157.924 45.5139L157.868 45.4538C157.903 45.3878 157.926 45.3256 157.926 45.2674L159.013 46.0963C158.448 46.0653 157.936 46.0342 157.466 46.0031ZM165.169 40.985C164.926 41.2606 164.808 41.4916 164.808 41.676L163.178 41.2606C164.021 41.2606 164.686 41.1694 165.169 40.985ZM162.634 40.2939H164.264V40.7093H162.634V40.2939ZM161.911 44.5763H162.636C162.754 44.2094 163.3 43.9337 164.266 43.7474C162.936 44.7627 162.093 45.2674 161.731 45.2674H159.376C158.56 45.2674 158.143 45.0073 158.114 44.4928C158.398 44.5491 159.661 44.5763 161.911 44.5763ZM158.46 38.6787V38.2206H160.099C159.419 38.4031 158.876 38.5564 158.46 38.6787ZM159.738 33.5227L161.006 33.7984V34.2118L159.738 33.9362V33.5208V33.5227ZM158.288 33.5906C158.649 33.7285 158.951 33.7984 159.193 33.7984C158.709 33.7984 158.288 33.8915 157.924 34.074C157.681 33.7984 157.563 33.5693 157.563 33.3829C157.681 33.3829 157.924 33.4528 158.288 33.5906ZM156.114 42.9185H157.201V43.3339H156.114V42.9185ZM153.036 48.7229H152.674L153.036 48.4317V48.7229ZM153.036 48.354C152.982 48.3385 152.932 48.323 152.878 48.3074H153.036V48.354ZM153.854 45.8207H153.941V46.2361H153.086C153.373 46.0536 153.628 45.9177 153.854 45.8207ZM154.21 48.7229H153.579V48.3074H154.596L154.208 48.7229H154.21ZM154.848 48.7229H154.745L154.848 48.6142V48.7229ZM154.848 44.7141C155.209 44.4385 155.753 44.2987 156.478 44.2987C156.718 44.2987 157.081 44.5297 157.565 44.9898C155.994 44.9898 155.088 44.8986 154.848 44.7141ZM155.209 45.8207C155.327 45.8207 155.631 45.7741 156.114 45.6828C156.596 45.5897 156.957 45.545 157.201 45.545C156.992 45.545 157.01 45.6479 157.251 45.8537L157.131 45.9818C156.346 45.9274 155.704 45.8731 155.209 45.8207ZM157.744 48.7229H156.476V48.3074H157.744V48.7229ZM168.611 50.1031L167.524 49.8275H168.973L168.611 50.1031Z" fill="url(#paint12_linear_240_2342)"/>
<path d="M175.672 42.7795C176.034 43.0552 175.972 43.195 175.491 43.195C175.247 43.195 175.156 43.1251 175.22 42.9873C175.28 42.8494 175.189 42.7795 174.947 42.7795C174.706 42.7795 174.16 42.9174 173.317 43.195C172.902 43.3309 172.546 43.4318 172.246 43.5017C172.3 43.492 172.351 43.4823 172.41 43.4706H173.497C173.157 43.4706 173.886 43.7152 175.688 44.2064C175.68 44.1928 175.672 44.1792 175.672 44.1617C175.672 43.9773 175.854 43.7463 176.216 43.4706C176.697 43.9327 177.059 44.2083 177.302 44.2996V44.0239C177.181 43.8395 177.121 43.7016 177.121 43.6085L177.846 43.195C176.999 43.0106 176.276 42.8727 175.672 42.7795Z" fill="url(#paint13_linear_240_2342)"/>
<path d="M173.321 42.2266L172.234 42.5042V42.9177L173.321 42.642V42.2266Z" fill="url(#paint14_linear_240_2342)"/>
<path d="M131.596 13.5417C131.36 13.2311 130.995 13.0486 130.608 13.0486C130.608 13.0486 124.85 13.0273 124.848 13.0273C124.335 13.0273 123.873 13.3417 123.686 13.8212L123.392 14.5725C123.088 14.2774 122.744 13.9998 122.357 13.7416C121.069 12.8836 119.49 12.4449 117.624 12.4371C116.692 12.4371 115.655 12.5808 114.547 12.8642C113.426 13.1515 112.318 13.598 111.253 14.194C110.164 14.8016 109.174 15.5936 108.306 16.5507C107.395 17.5543 106.745 18.7598 106.374 20.1362C105.891 21.9222 105.881 23.4538 106.347 24.6904C106.803 25.8998 107.546 26.8957 108.551 27.6528C108.712 27.7732 108.876 27.8897 109.046 28.0022C109.046 28.0022 105.017 27.9867 105.015 27.9867C104.452 27.9867 103.959 28.3653 103.81 28.9108L103.406 30.4055C103.278 30.3628 103.147 30.3318 103.01 30.3318H101.875L109.215 2.83363C109.315 2.45702 109.236 2.05518 109 1.74651C108.764 1.43785 108.399 1.25537 108.01 1.25537H97.1548C96.5902 1.25537 96.0952 1.63586 95.9482 2.1833L94.3317 8.24202C94.2312 8.61862 94.3105 9.02047 94.5464 9.32913C94.7823 9.63779 95.1477 9.82027 95.5364 9.82027H95.8747L90.4007 30.3298H89.3469C88.9331 30.3298 88.56 30.5356 88.3299 30.8598C88.0959 30.6171 87.7788 30.4715 87.4385 30.4715H86.259L88.2834 22.8889C88.85 20.7632 88.8597 18.9287 88.3086 17.432C87.7614 15.945 86.8545 14.7433 85.6132 13.8601C84.4433 13.0292 83.0473 12.4391 81.4675 12.1052C79.9729 11.7907 78.4627 11.6334 76.9797 11.6334C75.8021 11.6334 74.6187 11.7615 73.4644 12.0139C72.3448 12.2585 71.2504 12.573 70.2102 12.9535C69.1989 13.3243 68.2572 13.7086 67.4142 14.095C66.5827 14.4774 65.8789 14.8171 65.3201 15.1083C64.8676 15.3432 64.6027 15.8305 64.6511 16.3391L65.1615 21.7882C65.2002 22.1959 65.4342 22.5609 65.79 22.7608C65.8248 22.7802 65.8596 22.7977 65.8944 22.8132C65.5444 23.0132 65.206 23.2267 64.8754 23.4538C63.8622 24.1527 62.9611 24.9933 62.1741 25.9406C62.267 25.6591 62.3578 25.3757 62.4332 25.0923C62.8954 23.3568 63.0559 21.7125 62.905 20.2041C62.7484 18.624 62.2322 17.2224 61.3698 16.0421C60.5074 14.8598 59.2912 13.93 57.7559 13.2796C56.2767 12.6526 54.4649 12.3362 52.3728 12.3362C50.472 12.3362 48.6003 12.6332 46.8079 13.2194C45.0096 13.8076 43.3332 14.687 41.8211 15.8305C40.7016 16.6788 39.6749 17.6708 38.7583 18.789L40.1969 13.3961C40.2975 13.0195 40.2182 12.6176 39.9823 12.309C39.7464 12.0003 39.381 11.8178 38.9923 11.8178C37.6775 11.8178 36.5347 11.9421 35.595 12.1867C34.6398 12.4371 33.7832 12.7943 33.0465 13.2486C32.422 13.6349 31.8554 14.0736 31.3585 14.5589L31.2463 13.9998C31.1284 13.4155 30.6179 12.9943 30.0224 12.9943H21.2265C20.6618 12.9943 20.1668 13.3747 20.0199 13.9222L18.3899 20.0275C18.2893 20.4041 18.3686 20.8059 18.6045 21.1146C18.8404 21.4233 19.2058 21.6057 19.5945 21.6057H19.9793L17.6512 30.326H16.551C15.9864 30.326 15.4914 30.7064 15.3445 31.2539L13.7028 37.4077C13.6023 37.7843 13.6816 38.1862 13.9175 38.4948C14.1534 38.8035 14.5188 38.986 14.9075 38.986H28.1487C28.7133 38.986 29.2083 38.6055 29.3553 38.058L30.9969 31.9042C31.0974 31.5276 31.0182 31.1258 30.7823 30.8171C30.5464 30.5084 30.1809 30.326 29.7923 30.326H29.0788L29.9489 27.0646C30.4052 25.3582 31.1438 24.2226 32.1454 23.6907C33.1896 23.1355 34.5798 22.8346 36.2737 22.788C35.887 23.6577 35.564 24.5701 35.3088 25.5232C34.6591 27.9557 34.5102 30.0988 34.8641 31.8926C35.2237 33.7193 35.9353 35.2451 36.9775 36.4254C38.012 37.598 39.3113 38.4735 40.8389 39.0267C42.3065 39.5587 43.863 39.8304 45.466 39.8304C48.0048 39.8304 50.4063 39.5062 52.6087 38.8656C54.8246 38.2211 57.0907 37.0952 59.3414 35.5189C59.5541 35.3713 59.703 35.1675 59.79 34.9404C60.1497 36.0333 60.7336 36.9612 61.5496 37.6853C62.3849 38.4269 63.4039 38.9879 64.5795 39.3529C65.7049 39.7023 66.9037 39.879 68.1451 39.879C68.6207 39.879 69.1718 39.8285 69.8292 39.7217C70.4809 39.6188 71.1673 39.4422 71.873 39.1995C72.5904 38.953 73.3174 38.6074 74.0387 38.1726C74.2146 38.0678 74.3867 37.9552 74.5588 37.8367L74.6168 38.0542C74.7618 38.6035 75.2568 38.986 75.8234 38.986H85.8355C86.2048 38.986 86.5413 38.821 86.7733 38.555C87.0092 38.8249 87.3457 38.986 87.7053 38.986H101.368C101.635 38.986 101.884 38.8986 102.091 38.7511C102.281 38.8656 102.495 38.9336 102.722 38.9336C102.722 38.9336 108.573 38.9549 108.575 38.9549C109.077 38.9549 109.53 38.6521 109.725 38.1862L110.046 37.4194C110.379 37.7319 110.76 38.025 111.187 38.2988C112.461 39.118 114.08 39.5373 115.998 39.5451H116.046C117.256 39.5451 118.496 39.3781 119.728 39.0462C120.988 38.7064 122.168 38.1939 123.227 37.5223C124.297 36.8467 125.244 36.0119 126.047 35.0394C126.878 34.0318 127.474 32.8807 127.816 31.615C128.282 29.8989 128.253 28.4254 127.731 27.2335C127.236 26.1056 126.48 25.166 125.48 24.4381C125.261 24.2789 125.033 24.1275 124.799 23.9819C124.799 23.9819 128.315 23.9955 128.317 23.9955C128.879 23.9955 129.372 23.6169 129.521 23.0714L131.809 14.6249C131.911 14.2483 131.832 13.8465 131.598 13.5359L131.596 13.5417ZM48.6487 22.227C48.9232 21.9358 49.2674 21.6795 49.6735 21.4621C50.0157 21.2796 50.4469 21.1864 50.9535 21.1864C51.6747 21.1864 51.9706 21.3068 52.0595 21.3573C52.2548 21.466 52.2896 21.5533 52.2993 21.5805C52.3728 21.7708 52.3998 22.0057 52.3844 22.2774C52.3805 22.3318 52.3766 22.3861 52.3728 22.4405H48.4611C48.521 22.3687 48.5829 22.2988 48.6487 22.2289V22.227ZM53.2235 30.0289C52.5797 30.3007 51.9783 30.5104 51.4369 30.6521C50.911 30.788 50.4372 30.8715 50.0273 30.8967C49.5691 30.9258 49.1417 30.9413 48.7608 30.9413C47.7341 30.9413 47.27 30.7724 47.0825 30.6696C46.7731 30.5007 46.5565 30.3124 46.4405 30.1085C46.3419 29.9377 46.2761 29.7669 46.2433 29.5941H54.1091C53.8056 29.763 53.5116 29.9066 53.2255 30.0289H53.2235ZM57.1603 29.5941H59.7049C59.8461 29.5941 59.9814 29.563 60.111 29.5164C60.0008 29.8251 59.8964 30.1376 59.8113 30.4599C59.5174 31.5625 59.411 32.5798 59.4845 33.4999L57.1584 29.5941H57.1603ZM74.2146 30.3162C74.0348 30.4715 73.7564 30.6715 73.329 30.9083C72.892 31.151 72.4319 31.2694 71.9233 31.2694C71.6894 31.2694 71.38 31.2364 71.2427 31.0811C71.1808 31.0112 71.1789 30.8617 71.2388 30.6404C71.3645 30.1707 71.6004 29.796 71.9639 29.4931C72.2965 29.2136 72.7702 29.0797 73.4122 29.0797C73.8704 29.0797 74.0677 29.1476 74.1141 29.167C74.319 29.2544 74.4235 29.3281 74.4699 29.365L74.2146 30.3182V30.3162ZM76.5233 21.6426C76.1386 21.4524 75.688 21.2835 75.1814 21.1437C74.5665 20.9729 73.853 20.8875 73.0583 20.8875C72.7393 20.8875 72.4222 20.8991 72.1031 20.9205C72.7064 20.8156 73.3232 20.7632 73.9478 20.7632C75.0403 20.7632 75.8891 20.8991 76.4731 21.167C76.5214 21.1884 76.5407 21.2058 76.5446 21.2058C76.5504 21.2233 76.5871 21.3437 76.5272 21.6446L76.5233 21.6426ZM116.392 30.9588C116.038 31.0986 115.706 31.1704 115.394 31.1704C115.209 31.1704 114.865 31.1471 114.29 31.0442C113.876 30.9705 113.486 30.8404 113.13 30.6599C112.85 30.5181 112.637 30.3357 112.475 30.1008C112.393 29.9804 112.455 29.7028 112.486 29.5902C112.49 29.5766 112.494 29.565 112.496 29.5514C113.242 29.7921 113.965 30.0095 114.65 30.1998C115.416 30.4133 116.048 30.6288 116.531 30.8443C116.471 30.9258 116.419 30.9472 116.392 30.9588ZM121.031 22.3842C120.456 22.1881 119.907 22.0037 119.385 21.829C118.565 21.5553 117.896 21.2777 117.396 21.002C117.488 20.7496 117.601 20.6545 117.682 20.6041C117.912 20.4623 118.152 20.3944 118.42 20.3944C118.863 20.3944 119.275 20.4662 119.646 20.6041C120.01 20.7399 120.306 20.9147 120.551 21.136C120.774 21.3379 120.928 21.5553 121.023 21.7979C121.064 21.9028 121.11 22.0775 121.029 22.3823L121.031 22.3842Z" fill="url(#paint15_linear_240_2342)"/>
<path d="M70.3008 11.3998H70.34L70.2773 11.333L70.3008 11.3998Z" fill="url(#paint16_linear_240_2342)"/>
<path d="M174.592 41.5357C175.317 41.4444 175.978 41.7667 176.583 42.5024V42.7781C176.945 42.5956 177.247 42.4558 177.488 42.3646C177.127 42.3646 176.945 42.2734 176.945 42.0889C177.788 41.6289 178.453 41.3532 178.937 41.26C177.003 41.26 175.555 41.3532 174.59 41.5357H174.592Z" fill="url(#paint17_linear_240_2342)"/>
<path d="M20.9263 55.2702H21.549L23.2969 48.7184H22.6743L23.2022 46.7383H26.5995L26.7136 47.2586C26.7967 47.2081 26.905 47.1479 27.0384 47.0722C27.1719 46.9984 27.3227 46.9285 27.487 46.8645C27.6533 46.8004 27.837 46.7422 28.0381 46.6936C28.2392 46.6451 28.4538 46.6199 28.6801 46.6199C29.2543 46.6199 29.7319 46.7247 30.1167 46.9324C30.5015 47.1401 30.7915 47.4236 30.9868 47.7808C31.1821 48.138 31.2923 48.5534 31.3155 49.0251C31.3387 49.4968 31.2788 49.9957 31.1376 50.5218C30.9791 51.1178 30.749 51.6517 30.4512 52.1234C30.1515 52.5951 29.8093 52.995 29.4187 53.3212C29.03 53.6492 28.6027 53.9016 28.1406 54.0802C27.6785 54.2588 27.2086 54.3481 26.7349 54.3481C26.4274 54.3481 26.1645 54.3228 25.946 54.2743C25.7275 54.2238 25.5496 54.1656 25.4142 54.0957C25.2808 54.0258 25.1764 53.9598 25.1048 53.8938C25.0333 53.8298 24.985 53.7871 24.9598 53.7676L24.5576 55.2721H25.3581L24.838 57.2231H20.4023L20.9225 55.2721L20.9263 55.2702ZM27.9414 50.551C27.9994 50.3335 28.0342 50.1122 28.0439 49.889C28.0536 49.6657 28.0342 49.4697 27.9859 49.3008C27.9376 49.1319 27.8602 48.9921 27.7558 48.8834C27.6514 48.7747 27.5199 48.7203 27.3613 48.7203C27.0848 48.7203 26.7987 48.8737 26.5048 49.1824C26.2109 49.491 25.9904 49.9123 25.8473 50.4481C25.7739 50.7257 25.7275 50.9839 25.7139 51.2226C25.7004 51.4614 25.7139 51.6691 25.7623 51.8477C25.8106 52.0263 25.8841 52.1661 25.9924 52.2651C26.0987 52.3641 26.2321 52.4146 26.3907 52.4146C26.7078 52.4146 27.0056 52.2457 27.2898 51.9079C27.5721 51.5701 27.7887 51.1197 27.9414 50.5529V50.551Z" fill="white"/>
<path d="M34.833 54.1825H30.6797L31.1998 52.2315H31.8224L32.7718 48.6732H32.1492L32.6655 46.7377H36.1073L34.6416 52.2335H35.3532L34.833 54.1844V54.1825ZM33.6632 44.5635C33.7077 44.3946 33.7889 44.2218 33.9069 44.0432C34.0248 43.8646 34.1679 43.7016 34.3419 43.5521C34.5159 43.4026 34.7151 43.2822 34.9433 43.1871C35.1714 43.092 35.4131 43.0454 35.6703 43.0454C35.9275 43.0454 36.144 43.092 36.3219 43.1871C36.4998 43.2822 36.6371 43.4026 36.7357 43.5521C36.8343 43.7016 36.8962 43.8646 36.9233 44.0432C36.9503 44.2218 36.9407 44.3946 36.8962 44.5635C36.784 44.9809 36.552 45.3361 36.1962 45.6292C35.8404 45.9224 35.3957 46.068 34.862 46.068C34.6242 46.068 34.4212 46.0233 34.253 45.934C34.0828 45.8447 33.9475 45.7283 33.8411 45.5846C33.7367 45.4409 33.6671 45.2798 33.6362 45.1012C33.6052 44.9226 33.6129 44.744 33.6594 44.5654L33.6632 44.5635Z" fill="white"/>
<path d="M43.2925 53.1563C42.6119 53.6319 41.939 53.9678 41.2738 54.1619C40.6087 54.356 39.8913 54.4531 39.1198 54.4531C38.6558 54.4531 38.211 54.3754 37.7876 54.2221C37.3641 54.0687 37.0103 53.83 36.7241 53.5077C36.4399 53.1854 36.2465 52.7681 36.146 52.2556C36.0454 51.745 36.0899 51.1316 36.2813 50.4172C36.4437 49.8115 36.6912 49.268 37.0277 48.7865C37.3641 48.3051 37.7547 47.8955 38.2014 47.5577C38.648 47.2199 39.1353 46.9637 39.667 46.7909C40.1968 46.6181 40.746 46.5308 41.3086 46.5308C41.9216 46.5308 42.4398 46.6201 42.8613 46.7987C43.2828 46.9773 43.6096 47.2257 43.8417 47.5422C44.0737 47.8605 44.211 48.2352 44.2535 48.6662C44.296 49.0971 44.2496 49.5669 44.1143 50.0736C44.0621 50.2735 43.9944 50.4677 43.9132 50.6618C43.832 50.8559 43.7392 51.0365 43.6348 51.2053H38.9632C38.9574 51.3044 38.9574 51.4247 38.9632 51.5625C38.9709 51.7023 39.0115 51.8363 39.0869 51.9644C39.1624 52.0925 39.2803 52.2032 39.4447 52.2925C39.609 52.3818 39.8488 52.4264 40.1659 52.4264C40.2935 52.4264 40.4366 52.4206 40.5932 52.4109C40.7479 52.4012 40.9219 52.3721 41.1134 52.3216C41.3048 52.2711 41.5117 52.1993 41.734 52.1061C41.9564 52.0129 42.1904 51.8809 42.4321 51.712L43.2925 53.1563ZM40.8601 48.54C40.6319 48.54 40.4347 48.5846 40.2684 48.6739C40.1021 48.7632 39.959 48.87 39.841 48.9942C39.7231 49.1185 39.6284 49.2505 39.5568 49.3883C39.4853 49.5281 39.4331 49.6407 39.3983 49.73H41.6374C41.6741 49.5902 41.6973 49.4504 41.707 49.3048C41.7147 49.1612 41.6992 49.0311 41.6548 48.9185C41.6122 48.804 41.5271 48.7128 41.4015 48.6429C41.2758 48.573 41.096 48.538 40.8581 48.538L40.8601 48.54Z" fill="white"/>
<path d="M51.1654 44.9501H50.4829L50.9992 43.0146H54.6923L52.2289 52.2473H52.9405L52.4242 54.1828H48.9534L48.849 53.6315C48.7852 53.6819 48.6943 53.7421 48.5706 53.8178C48.4468 53.8935 48.296 53.9673 48.1181 54.0411C47.9402 54.1149 47.7391 54.1809 47.5168 54.2352C47.2944 54.2896 47.0546 54.3167 46.7975 54.3167C46.2735 54.3167 45.8268 54.21 45.4594 53.9964C45.0901 53.7829 44.8059 53.4956 44.6067 53.1326C44.4075 52.7696 44.2896 52.3502 44.2528 51.8746C44.218 51.3971 44.2683 50.902 44.4056 50.3857C44.5603 49.8091 44.7923 49.2869 45.1075 48.8152C45.4207 48.3434 45.7804 47.9435 46.1845 47.6155C46.5886 47.2874 47.0218 47.035 47.4839 46.8564C47.9479 46.6778 48.4062 46.5885 48.8606 46.5885C49.3846 46.5885 49.7733 46.6604 50.0266 46.804C50.2799 46.9477 50.4635 47.0641 50.5776 47.1534L51.1654 44.9501ZM47.5941 50.3857C47.5322 50.6147 47.4974 50.838 47.4897 51.0554C47.48 51.2728 47.5013 51.467 47.5496 51.6358C47.598 51.8047 47.6734 51.9445 47.772 52.0532C47.8706 52.1619 48.004 52.2163 48.1722 52.2163C48.4487 52.2163 48.7349 52.0629 49.0308 51.7543C49.3247 51.4475 49.5451 51.0243 49.6882 50.4885C49.7617 50.2109 49.8061 49.9528 49.8216 49.714C49.8351 49.4752 49.8216 49.2675 49.7733 49.0889C49.7269 48.9103 49.6495 48.7705 49.5432 48.6715C49.4368 48.5725 49.3034 48.522 49.1448 48.522C48.8277 48.522 48.53 48.6909 48.2457 49.0287C47.9634 49.3665 47.7469 49.8188 47.5941 50.3837V50.3857Z" fill="white"/>
<path d="M54.2047 49.7162L54.9995 46.7383H62.3413L61.8289 48.6582L57.3449 52.2321H58.9014L59.1721 51.2207H61.2643L60.4735 54.1831H53.0117L53.5319 52.2321L58.0603 48.6582H56.4129L56.1306 49.7162H54.2028H54.2047Z" fill="white"/>
<path d="M65.3721 54.1834H61.2188L61.7389 52.2324H62.3615L63.3109 48.674H62.6883L63.2046 46.7386H66.6463L65.1807 52.2343H65.8922L65.3721 54.1853V54.1834ZM63.7112 43.7898H68.1468L67.8993 45.7699H63.1833L63.7112 43.7898Z" fill="white"/>
<path d="M71.2813 51.772C71.3026 51.6924 71.3412 51.5915 71.3993 51.4672C71.4573 51.343 71.5269 51.2071 71.6061 51.0576C71.6854 50.9081 71.7724 50.7548 71.871 50.5956C71.9677 50.4364 72.0663 50.283 72.165 50.1336L73.2787 48.6291H72.4937L72.9983 46.7383H76.8249L76.3202 48.6291H75.5487L71.4998 54.185H69.2008L67.9246 48.6291H67.2266L67.7312 46.7383H72.2404L71.7357 48.6291H70.9932L71.2542 50.2073C71.2755 50.4946 71.2813 50.7878 71.2716 51.0867C71.26 51.3838 71.2446 51.6128 71.2233 51.772H71.2832H71.2813Z" fill="white"/>
<path d="M79.0838 54.3773C78.5502 54.3773 78.0552 54.2958 77.5988 54.1327C77.1425 53.9697 76.7655 53.7231 76.4677 53.395C76.1699 53.067 75.9727 52.6554 75.878 52.1584C75.7832 51.6615 75.8238 51.0869 75.9978 50.4307C76.1641 49.8056 76.429 49.2524 76.7906 48.7709C77.1503 48.2895 77.566 47.8857 78.0339 47.5576C78.5018 47.2296 79.0026 46.9811 79.5382 46.8122C80.0719 46.6433 80.592 46.5598 81.0967 46.5598C81.6807 46.5598 82.1989 46.6511 82.6552 46.8355C83.1096 47.0199 83.477 47.282 83.7573 47.6236C84.0358 47.9672 84.2156 48.3827 84.291 48.8758C84.3684 49.3669 84.3219 49.926 84.1557 50.5511C83.9913 51.1665 83.7399 51.71 83.4016 52.1817C83.0632 52.6535 82.6668 53.0534 82.2143 53.3795C81.7599 53.7076 81.2669 53.9561 80.7313 54.125C80.1976 54.2938 79.6485 54.3773 79.0838 54.3773ZM79.5924 52.471C79.7509 52.471 79.9056 52.4205 80.0545 52.3215C80.2034 52.2225 80.3484 52.0827 80.4838 51.9041C80.6211 51.7255 80.7429 51.5139 80.8531 51.2713C80.9633 51.0286 81.0542 50.7666 81.1277 50.489C81.2011 50.2113 81.2475 49.9512 81.263 49.7066C81.2785 49.464 81.2669 49.2524 81.2243 49.0738C81.1818 48.8952 81.1083 48.7535 81.0039 48.6486C80.8995 48.5438 80.7564 48.4914 80.5785 48.4914C80.4296 48.4914 80.2807 48.5419 80.1319 48.6409C79.981 48.7399 79.8379 48.8796 79.7026 49.0582C79.5653 49.2368 79.4377 49.4445 79.3197 49.6833C79.2018 49.9221 79.107 50.1745 79.0355 50.4424C78.8711 51.0577 78.8441 51.5489 78.9543 51.9158C79.0645 52.2827 79.2772 52.4671 79.5924 52.4671V52.471Z" fill="white"/>
<path d="M86.7214 48.6732H86.0988L86.6151 46.7377H90.0569L88.3476 53.14C88.2238 53.6079 88.0459 54.0835 87.8178 54.5708C87.5896 55.0561 87.2628 55.5045 86.8374 55.9102C86.412 56.316 85.8687 56.6499 85.2074 56.908C84.5461 57.1662 83.7205 57.2944 82.7305 57.2944L83.2622 55.2987C83.6876 55.2987 84.0376 55.2191 84.3122 55.06C84.5867 54.9008 84.8052 54.7105 84.9696 54.4873C85.132 54.264 85.2557 54.0272 85.337 53.7807C85.4182 53.5341 85.482 53.3186 85.5303 53.14L86.7233 48.6732H86.7214ZM87.6109 44.5635C87.6553 44.3946 87.7365 44.2218 87.8545 44.0432C87.9724 43.8646 88.1155 43.7016 88.2895 43.5521C88.4616 43.4026 88.6627 43.2822 88.8909 43.1871C89.1191 43.092 89.3608 43.0454 89.6179 43.0454C89.8751 43.0454 90.0917 43.092 90.2696 43.1871C90.4474 43.2822 90.5847 43.4026 90.6833 43.5521C90.7819 43.7016 90.8438 43.8646 90.8709 44.0432C90.898 44.2218 90.8883 44.3946 90.8438 44.5635C90.7317 44.9809 90.4996 45.3361 90.1439 45.6292C89.7881 45.9224 89.3434 46.068 88.8097 46.068C88.5719 46.068 88.3688 46.0233 88.2006 45.934C88.0324 45.8447 87.8951 45.7283 87.7887 45.5846C87.6843 45.4409 87.6147 45.2798 87.5838 45.1012C87.5529 44.9226 87.5606 44.744 87.6089 44.5654L87.6109 44.5635Z" fill="white"/>
<path d="M90.8956 46.7373H94.4844L93.5273 50.3267C93.3552 50.9712 93.2856 51.4449 93.3184 51.7496C93.3513 52.0525 93.5215 52.2039 93.8289 52.2039C94.0861 52.2039 94.3336 52.0991 94.5733 51.8914C94.8112 51.6836 94.9774 51.4099 95.0664 51.0721L95.6987 48.7038H94.7203L95.2443 46.7373H99.0863L97.6284 52.202H98.3554L97.8276 54.1821H95.0239L94.873 53.2444C94.7706 53.3337 94.6429 53.4463 94.4941 53.5783C94.3452 53.7123 94.1731 53.8385 93.9778 53.9588C93.7825 54.0772 93.5601 54.1801 93.3107 54.2636C93.0613 54.3471 92.777 54.3898 92.4618 54.3898C91.8972 54.3898 91.4448 54.316 91.1045 54.1665C90.7622 54.0171 90.5166 53.7938 90.3639 53.4968C90.2111 53.1998 90.1454 52.8212 90.1686 52.365C90.1918 51.9088 90.2846 51.3711 90.449 50.7557L90.9962 48.6999H90.3736L90.8976 46.7334L90.8956 46.7373Z" fill="white"/>
<path d="M102.827 54.1826H98.4219L98.942 52.2316H99.5646L100.502 48.7179H99.8798L100.404 46.7514H103.208L103.3 47.6308C103.378 47.5609 103.49 47.4658 103.637 47.3396C103.784 47.2154 103.952 47.0931 104.141 46.9747C104.331 46.8562 104.536 46.7534 104.756 46.6699C104.977 46.5864 105.205 46.5437 105.443 46.5437C105.82 46.5437 106.123 46.5825 106.353 46.6621C106.585 46.7417 106.769 46.8368 106.908 46.9455C107.048 47.0543 107.15 47.1707 107.216 47.2969C107.282 47.4212 107.332 47.5279 107.367 47.6172C107.663 47.359 108.02 47.1164 108.438 46.8873C108.856 46.6582 109.32 46.5456 109.834 46.5456C110.437 46.5456 110.892 46.6485 111.199 46.8504C111.506 47.0543 111.713 47.3222 111.824 47.6541C111.932 47.9861 111.963 48.3666 111.913 48.7936C111.862 49.2207 111.777 49.6614 111.655 50.1195L111.106 52.1753H111.833L111.298 54.1865H107.531L108.506 50.5388C108.533 50.4398 108.562 50.335 108.596 50.2263C108.631 50.1176 108.664 50.0031 108.695 49.8846C108.736 49.7352 108.767 49.5896 108.79 49.4459C108.813 49.3023 108.821 49.1761 108.809 49.0654C108.798 48.9567 108.765 48.8674 108.711 48.7975C108.656 48.7276 108.564 48.6927 108.434 48.6927C108.117 48.6927 107.881 48.7956 107.722 48.9975C107.564 49.2013 107.442 49.4614 107.359 49.7798L106.715 52.1928H107.605L107.073 54.1884H103.231L104.244 50.3913C104.406 49.7856 104.491 49.3508 104.503 49.0887C104.515 48.8266 104.372 48.6946 104.074 48.6946C103.836 48.6946 103.646 48.7665 103.503 48.9101C103.36 49.0538 103.25 49.279 103.167 49.5876L102.459 52.2375H103.349L102.829 54.1884L102.827 54.1826Z" fill="white"/>
<path d="M111.742 54.1837L112.458 51.5028H114.445C114.393 51.7008 114.411 51.8658 114.499 51.9939C114.588 52.124 114.706 52.2249 114.855 52.2987C115.002 52.3725 115.163 52.4249 115.333 52.4559C115.503 52.4851 115.642 52.5006 115.752 52.5006C115.901 52.5006 116.056 52.4676 116.217 52.4035C116.377 52.3395 116.485 52.2016 116.541 51.9939C116.578 51.8541 116.507 51.7435 116.327 51.66C116.147 51.5746 115.911 51.4931 115.621 51.4135C115.331 51.3339 115.022 51.2407 114.695 51.1301C114.368 51.0194 114.074 50.868 113.815 50.6758C113.556 50.4836 113.366 50.2293 113.247 49.9168C113.127 49.6042 113.132 49.2043 113.262 48.717C113.363 48.3404 113.537 48.0143 113.782 47.7406C114.028 47.4688 114.306 47.2456 114.614 47.0708C114.921 46.8981 115.238 46.768 115.563 46.6845C115.886 46.6011 116.184 46.5583 116.449 46.5583C116.953 46.5583 117.377 46.6729 117.723 46.9C118.067 47.1291 118.276 47.4009 118.349 47.7192L118.73 46.7369H120.555L119.84 49.4178H117.912C117.955 49.2587 117.949 49.1131 117.895 48.9791C117.843 48.8452 117.758 48.7268 117.642 48.6219C117.526 48.5171 117.386 48.4356 117.226 48.3754C117.063 48.3152 116.889 48.2861 116.7 48.2861C116.541 48.2861 116.394 48.3288 116.259 48.4123C116.124 48.4957 116.029 48.6336 115.979 48.8219C115.934 48.9908 116.002 49.1247 116.184 49.2237C116.365 49.3227 116.599 49.4198 116.886 49.5149C117.172 49.61 117.483 49.7149 117.818 49.8275C118.152 49.942 118.452 50.0934 118.713 50.2817C118.974 50.47 119.169 50.7107 119.299 51.0039C119.428 51.297 119.432 51.6717 119.31 52.1279C119.217 52.4753 119.057 52.7879 118.831 53.0655C118.605 53.3431 118.338 53.5799 118.034 53.7721C117.731 53.9662 117.396 54.1118 117.034 54.2109C116.671 54.3099 116.313 54.3603 115.955 54.3603C115.422 54.3603 114.983 54.2516 114.641 54.0323C114.298 53.8148 114.076 53.5605 113.975 53.2732L113.6 54.1817H111.746L111.742 54.1837Z" fill="white"/>
<path d="M38.9857 13.0738H38.9876H38.9857ZM38.9857 13.0738L36.7292 21.53C34.608 21.53 32.8852 21.8814 31.5588 22.5861C30.2323 23.2907 29.2926 24.6768 28.7415 26.7443L27.4499 31.5819H29.7895L28.1479 37.7358H14.9067L16.5483 31.5819H18.6076L21.6046 20.3555H19.5937L21.2237 14.2502H30.0196L30.621 17.2573C31.0831 16.6943 31.553 16.1604 32.0306 15.6596C32.5062 15.1587 33.0631 14.7122 33.6973 14.3201C34.3315 13.928 35.0682 13.6232 35.9074 13.4038C36.7447 13.1864 37.7733 13.0758 38.9896 13.0758M38.9876 10.5676H38.9857C37.5452 10.5676 36.3309 10.7016 35.2771 10.9772C34.2001 11.2607 33.2294 11.6664 32.3883 12.1847C32.2027 12.2992 32.0209 12.4177 31.8449 12.5419C31.3848 12.0469 30.7312 11.744 30.0177 11.744H21.2218C20.0926 11.744 19.1026 12.505 18.8106 13.6018L17.1806 19.7071C16.9795 20.4604 17.138 21.264 17.6118 21.8814C17.8341 22.1726 18.1126 22.4055 18.4277 22.5725L16.6914 29.0757H16.5483C15.4191 29.0757 14.4291 29.8387 14.1371 30.9335L12.4955 37.0874C12.2944 37.8406 12.4529 38.6443 12.9267 39.2616C13.3985 39.8789 14.1313 40.2419 14.9067 40.2419H28.1479C29.2771 40.2419 30.2671 39.479 30.5591 38.3841L32.2007 32.2303C32.4018 31.4771 32.2433 30.6734 31.7695 30.0561C31.4814 29.6775 31.0947 29.396 30.6616 29.233L31.1527 27.3926C31.5143 26.0357 32.0441 25.1641 32.7267 24.803C33.6838 24.2944 34.4476 24.0478 36.1472 24.0478C37.2764 24.0478 40.0782 17.3815 40.5094 17.0554L41.3737 13.8134C41.4452 13.5805 41.4839 13.332 41.4839 13.0738C41.4839 11.6897 40.3682 10.5676 38.9896 10.5676H38.9876Z" fill="white"/>
<path d="M52.3717 13.5929C54.3052 13.5929 55.9391 13.8743 57.2694 14.4373C58.5998 15.0003 59.6304 15.7846 60.3613 16.7862C61.0922 17.7879 61.5253 18.9702 61.6606 20.333C61.796 21.6957 61.651 23.175 61.2256 24.7707C61.0574 25.3977 60.8466 26.0151 60.5894 26.6266C60.3323 27.2381 60.0403 27.8088 59.7096 28.3407H44.9718C44.9505 28.6533 44.9505 29.0299 44.9737 29.4686C44.9969 29.9073 45.1265 30.3305 45.3605 30.7362C45.5944 31.1439 45.9695 31.4875 46.4877 31.769C47.004 32.0524 47.762 32.1922 48.7616 32.1922C49.1677 32.1922 49.6144 32.1767 50.1074 32.1456C50.5986 32.1145 51.1458 32.0214 51.751 31.8641C52.3543 31.7088 53.0078 31.4817 53.7097 31.1827C54.4116 30.8857 55.1464 30.4703 55.914 29.9384L58.6288 34.4945C56.4805 35.9971 54.3575 37.0551 52.2614 37.6646C50.1635 38.2742 47.8993 38.5809 45.4668 38.5809C43.9992 38.5809 42.5993 38.3383 41.2632 37.853C39.9251 37.3676 38.8094 36.6164 37.9103 35.5991C37.0131 34.5819 36.404 33.2657 36.0869 31.6525C35.7679 30.0393 35.911 28.1058 36.5123 25.852C37.0228 23.9418 37.8059 22.2276 38.8674 20.7096C39.9271 19.1915 41.1607 17.8986 42.5683 16.8348C43.9741 15.771 45.5171 14.9634 47.1916 14.416C48.8661 13.8685 50.5928 13.5948 52.3697 13.5948M46.3543 23.6914H53.4197C53.5376 23.2526 53.6092 22.8061 53.6362 22.3519C53.6633 21.8976 53.6092 21.49 53.4719 21.1308C53.3346 20.7717 53.0677 20.4824 52.6752 20.2611C52.2808 20.0437 51.7104 19.9331 50.9621 19.9331C50.2138 19.9331 49.6221 20.0748 49.0942 20.3563C48.5663 20.6377 48.1178 20.9755 47.7484 21.3657C47.3772 21.7579 47.0813 22.1733 46.8551 22.6101C46.6289 23.0488 46.4626 23.4079 46.3562 23.6914M52.3717 11.0867C50.3394 11.0867 48.3382 11.405 46.4201 12.0321C44.4903 12.6649 42.6902 13.6064 41.0679 14.8314C39.4572 16.0524 38.0302 17.5453 36.8256 19.2711C35.6016 21.0221 34.687 23.0197 34.1031 25.2036C33.4031 27.8243 33.2484 30.1577 33.6409 32.1417C34.0451 34.1878 34.8533 35.9117 36.0463 37.2628C37.22 38.5926 38.6915 39.5846 40.4182 40.2116C42.0211 40.794 43.7208 41.0891 45.4707 41.0891C48.1255 41.0891 50.6469 40.7474 52.9614 40.0738C55.3088 39.3904 57.6968 38.2043 60.0596 36.5523C61.1347 35.7991 60.1428 34.5081 60.4289 33.1628L59.3693 30.8488H59.7135C60.5759 30.8488 60.6977 30.0219 61.154 29.2861C61.5504 28.6455 62.0551 27.8942 62.3606 27.1662C62.6603 26.4538 63.4453 26.1548 63.6406 25.421C64.1434 23.538 64.3135 21.7423 64.1492 20.0845C63.9693 18.2771 63.3738 16.6698 62.3799 15.307C61.3803 13.9384 59.99 12.8688 58.244 12.1291C56.6101 11.438 54.6359 11.0867 52.3755 11.0867H52.3717Z" fill="white"/>
<path d="M76.9795 12.8875C78.3833 12.8875 79.7948 13.037 81.2121 13.334C82.6294 13.6329 83.8573 14.1493 84.8937 14.8851C85.9282 15.6208 86.6784 16.6167 87.1386 17.8668C87.5988 19.1209 87.5794 20.6856 87.0786 22.5647L84.6346 31.7256H87.4422L85.8373 37.7377H75.8251L75.2663 35.6237C74.6708 36.2177 74.0482 36.7127 73.3985 37.1029C72.7469 37.4951 72.1049 37.7999 71.4687 38.0192C70.8326 38.2386 70.2216 38.3958 69.6357 38.489C69.0479 38.5841 68.5529 38.6307 68.1468 38.6307C67.0234 38.6307 65.958 38.4735 64.9506 38.1609C63.9413 37.8464 63.0847 37.3786 62.3789 36.7516C61.6732 36.1245 61.1782 35.3189 60.8959 34.3327C60.6136 33.3466 60.6561 32.1643 61.0235 30.786C61.3735 29.4718 61.9497 28.2818 62.7482 27.216C63.5468 26.1522 64.4904 25.2437 65.581 24.4924C66.6696 23.7411 67.8607 23.1607 69.1562 22.755C70.4497 22.3493 71.753 22.1435 73.062 22.1435C73.7485 22.1435 74.3459 22.2134 74.8545 22.3551C75.363 22.4948 75.7865 22.6599 76.1268 22.8482C76.4671 23.0365 76.7281 23.2248 76.9118 23.4111C77.0955 23.5994 77.2096 23.7256 77.256 23.7877L77.6949 22.1435C77.9792 21.0797 77.7471 20.375 76.9969 20.0294C76.2467 19.6858 75.2315 19.513 73.9534 19.513C72.5496 19.513 71.2019 19.7479 69.9064 20.2177C68.6109 20.6875 67.4449 21.1728 66.4066 21.6737L65.8961 16.2245C66.4395 15.943 67.1201 15.615 67.938 15.2384C68.7559 14.8618 69.657 14.4949 70.6431 14.1338C71.6273 13.7746 72.6579 13.4757 73.7349 13.2408C74.81 13.0059 75.8947 12.8894 76.9872 12.8894M71.927 32.5215C72.6444 32.5215 73.3134 32.3507 73.936 32.0051C74.5586 31.6615 75.0246 31.316 75.334 30.9724L75.8097 29.1884C75.7961 29.1262 75.7517 29.0233 75.682 28.8836C75.6105 28.7419 75.4848 28.5943 75.3089 28.4371C75.1329 28.2818 74.897 28.1401 74.6031 28.0139C74.3092 27.8896 73.9109 27.8256 73.4139 27.8256C72.4781 27.8256 71.7298 28.0605 71.1671 28.5303C70.6044 29.0001 70.2274 29.596 70.036 30.3162C69.86 30.9743 69.9528 31.5062 70.3125 31.9139C70.6721 32.3216 71.2096 32.5235 71.927 32.5235M81.0729 5.37863C79.8064 5.37863 76.2563 5.44658 74.9299 5.49511C73.091 5.51646 70.152 5.31069 69.0595 5.71059C66.7295 7.1549 69.2026 11.3985 66.8919 12.9574C66.0373 13.3514 65.3083 13.7028 64.7302 14.0037C63.8291 14.4716 63.309 15.4441 63.4057 16.4575L63.9161 21.9066C63.9355 22.1144 63.9799 22.3143 64.0476 22.5065C62.7889 23.3937 61.6809 24.4691 60.7528 25.7077C59.7628 27.0258 59.0435 28.5167 58.6104 30.1376C58.125 31.9547 58.0864 33.5989 58.4943 35.0258C58.9081 36.472 59.6584 37.6853 60.7238 38.6307C61.6906 39.4888 62.8643 40.1371 64.2081 40.5545C65.4533 40.9408 66.7779 41.1369 68.143 41.1369C68.6844 41.1369 69.3012 41.0806 70.0263 40.9641C70.7456 40.8496 71.5016 40.6555 72.2751 40.3915C72.8899 40.1799 73.5068 39.9061 74.1197 39.5722C74.5702 39.9935 75.1716 40.2439 75.8213 40.2439H85.8334C86.9626 40.2439 87.9526 39.481 88.2446 38.3861L89.8398 32.4089C89.9481 32.0013 89.9752 31.5684 89.8746 31.1588C89.6232 30.1279 88.815 29.4233 87.8753 29.2563L89.4879 23.2131C90.1221 20.8331 90.1202 18.7424 89.4782 16.9991C88.8421 15.2694 87.7844 13.8698 86.3342 12.8389C85.0677 11.9382 83.807 12.3478 86.7809 9.26312C86.9878 9.04958 87.1154 8.77198 87.1657 8.47691C87.4093 7.04425 88.3993 5.33398 84.8105 5.33398L81.0729 5.37863Z" fill="white"/>
<path d="M108.01 2.50618L100.251 31.5826H103.012L101.37 37.7364H87.7075L89.3491 31.5826H91.36L97.503 8.5649H95.5385L97.155 2.50618H108.01ZM103.01 31.5826H103.012H103.01ZM108.01 0H97.155C96.0258 0 95.0358 0.760979 94.7438 1.8578L93.1273 7.91651C92.9262 8.66973 93.0848 9.47342 93.5585 10.0907C93.7712 10.3683 94.0361 10.5955 94.3339 10.7605L89.4458 29.0764H89.3491C88.2199 29.0764 87.2299 29.8393 86.9379 30.9342L85.2963 37.088C85.0952 37.8413 85.2537 38.6449 85.7275 39.2623C86.1993 39.8796 86.9321 40.2426 87.7075 40.2426H101.37C102.499 40.2426 103.489 39.4797 103.781 38.3848L105.4 32.3222C105.471 32.0893 105.51 31.8408 105.51 31.5826C105.51 30.3635 104.642 29.3462 103.493 29.123L110.423 3.15651C110.624 2.4033 110.466 1.59961 109.992 0.982285C109.52 0.364959 108.787 0.00194127 108.012 0.00194127L108.01 0Z" fill="white"/>
<path d="M117.627 13.69C117.637 13.69 117.647 13.69 117.656 13.69C119.248 13.6958 120.584 14.0608 121.669 14.7849C122.751 15.5109 123.407 16.3729 123.637 17.3765L124.851 14.2802L130.606 14.3015L128.318 22.748L122.235 22.7247C122.37 22.2258 122.355 21.7618 122.189 21.3386C122.022 20.9154 121.757 20.5388 121.394 20.2069C121.03 19.8769 120.593 19.6167 120.083 19.4265C119.573 19.2362 119.02 19.1411 118.428 19.1392C118.424 19.1392 118.42 19.1392 118.418 19.1392C117.923 19.1392 117.461 19.2712 117.034 19.5333C116.603 19.7973 116.307 20.2282 116.146 20.8223C116.003 21.3542 116.216 21.7774 116.786 22.0919C117.357 22.4083 118.093 22.715 118.994 23.0159C119.895 23.3168 120.876 23.6507 121.932 24.0137C122.987 24.3787 123.927 24.8601 124.749 25.4561C125.571 26.054 126.183 26.8169 126.59 27.741C126.996 28.6669 127.001 29.8492 126.613 31.2877C126.317 32.3825 125.806 33.3668 125.087 34.2403C124.366 35.1139 123.525 35.8555 122.566 36.4631C121.605 37.0707 120.551 37.5289 119.406 37.8375C118.277 38.1423 117.157 38.2937 116.05 38.2937C116.034 38.2937 116.019 38.2937 116.005 38.2937C114.321 38.2879 112.94 37.9385 111.863 37.2454C110.786 36.5524 110.09 35.7526 109.775 34.8421L108.578 37.7036L102.729 37.6822L105.016 29.2357L111.287 29.259C111.117 29.8861 111.173 30.4025 111.451 30.8101C111.732 31.2178 112.105 31.54 112.571 31.7769C113.037 32.0137 113.54 32.1807 114.075 32.2758C114.611 32.3709 115.05 32.4214 115.394 32.4214C115.398 32.4214 115.402 32.4214 115.406 32.4214C115.87 32.4214 116.353 32.3224 116.856 32.1224C117.362 31.9205 117.707 31.4915 117.884 30.8354C118.002 30.3966 117.778 30.0453 117.212 29.7754C116.643 29.5075 115.903 29.2474 114.988 28.9931C114.073 28.7388 113.101 28.4379 112.072 28.0904C111.042 27.7429 110.119 27.2615 109.301 26.648C108.483 26.0346 107.89 25.2328 107.517 24.2447C107.143 23.2566 107.165 21.9967 107.58 20.4631C107.901 19.2751 108.452 18.252 109.232 17.392C110.011 16.534 110.887 15.8332 111.863 15.2877C112.838 14.7441 113.837 14.3403 114.86 14.0783C115.872 13.8201 116.794 13.69 117.629 13.69M117.627 11.1838C116.591 11.1838 115.452 11.3411 114.242 11.6497C113.016 11.9642 111.805 12.4515 110.647 13.0979C109.44 13.7716 108.342 14.649 107.383 15.7051C106.339 16.8582 105.593 18.2365 105.167 19.807C104.612 21.855 104.616 23.6468 105.177 25.1338C105.393 25.7084 105.666 26.2442 105.991 26.7373L105.02 26.7334C105.02 26.7334 105.014 26.7334 105.011 26.7334C103.885 26.7334 102.897 27.4905 102.601 28.5815L100.314 37.028C100.111 37.7793 100.266 38.5849 100.737 39.2042C101.209 39.8235 101.938 40.1884 102.714 40.1923L108.563 40.2136C108.563 40.2136 108.568 40.2136 108.572 40.2136C109.315 40.2136 110.005 39.8836 110.471 39.3342C110.485 39.342 110.498 39.3517 110.512 39.3595C111.989 40.3107 113.834 40.796 115.99 40.8038H116.044C117.364 40.8038 118.71 40.6213 120.048 40.2622C121.431 39.8895 122.724 39.3265 123.89 38.5888C125.07 37.8434 126.118 36.9193 127.005 35.8438C127.951 34.6985 128.628 33.3881 129.016 31.9496C129.558 29.9501 129.509 28.1972 128.871 26.7373C128.639 26.2074 128.357 25.7123 128.03 25.2542H128.305C128.305 25.2542 128.31 25.2542 128.314 25.2542C129.44 25.2542 130.428 24.4971 130.724 23.4061L133.011 14.9596C133.214 14.2083 133.059 13.4027 132.588 12.7834C132.118 12.1642 131.387 11.7992 130.611 11.7953L124.857 11.774C124.857 11.774 124.851 11.774 124.847 11.774C124.111 11.774 123.426 12.1001 122.96 12.6398C121.481 11.6808 119.7 11.1916 117.664 11.1838H117.625H117.627Z" fill="white"/>
<path d="M102.662 65.9383C102.662 67.3768 101.566 68.2834 99.841 68.2834H98.9477V69.8112H96.8594V63.5952H99.839C101.564 63.5952 102.66 64.5018 102.66 65.9403L102.662 65.9383ZM100.558 65.9383C100.558 65.486 100.284 65.2104 99.7095 65.2104H98.9496V66.6663H99.7095C100.284 66.6663 100.558 66.3907 100.558 65.9383Z" fill="url(#paint18_linear_240_2342)"/>
<path d="M107.251 68.7279H104.898L104.482 69.8112H102.359L105.066 63.5952H107.118L109.825 69.8112H107.667L107.251 68.7279ZM106.677 67.2176L106.076 65.6549L105.474 67.2176H106.677Z" fill="url(#paint19_linear_240_2342)"/>
<path d="M109.773 69.3121L110.446 67.7843C111.03 68.1299 111.808 68.3531 112.49 68.3531C113.082 68.3531 113.295 68.2289 113.295 68.0153C113.295 67.233 109.872 67.8639 109.872 65.546C109.872 64.391 110.837 63.4495 112.755 63.4495C113.586 63.4495 114.445 63.6281 115.091 63.9911L114.462 65.5092C113.853 65.1986 113.277 65.0471 112.738 65.0471C112.127 65.0471 111.933 65.2238 111.933 65.4373C111.933 66.1828 115.356 65.5616 115.356 67.8523C115.356 68.9899 114.391 69.9488 112.473 69.9488C111.438 69.9488 110.394 69.6907 109.775 69.3102L109.773 69.3121Z" fill="url(#paint20_linear_240_2342)"/>
<path d="M120.193 68.7276H117.84L117.424 69.8108H115.301L118.008 63.5948H120.059L122.766 69.8108H120.608L120.193 68.7276ZM120.893 62.9018H117.178V61.8535H120.893V62.9018ZM119.618 67.2173L119.017 65.6545L118.416 67.2173H119.618Z" fill="url(#paint21_linear_240_2342)"/>
<path d="M125.625 67.75L125.157 68.2742V69.8097H123.105V63.5938H125.157V65.8495L127.191 63.5938H129.465L126.988 66.329L129.589 69.8097H127.174L125.625 67.75Z" fill="url(#paint22_linear_240_2342)"/>
<path d="M129.725 67.0138V63.5952H131.813V66.9517C131.813 67.901 132.176 68.2562 132.758 68.2562C133.34 68.2562 133.704 67.901 133.704 66.9517V63.5952H135.755V67.0138C135.755 68.8774 134.642 69.9529 132.739 69.9529C130.836 69.9529 129.723 68.8774 129.723 67.0138H129.725Z" fill="url(#paint23_linear_240_2342)"/>
<path d="M142.241 69.8112L142.224 66.9789L140.88 69.2521H139.959L138.616 67.0759V69.8112H136.715V63.5952H138.43L140.447 66.907L142.411 63.5952H144.126L144.144 69.8112H142.243H142.241Z" fill="url(#paint24_linear_240_2342)"/>
<path d="M145.148 63.5952H147.237V69.8112H145.148V63.5952Z" fill="url(#paint25_linear_240_2342)"/>
<path d="M157.005 63.5952V69.8112H155.29L152.936 66.9866V69.8112H150.902V63.5952H152.617L154.971 66.4178V63.5952H157.005Z" fill="url(#paint26_linear_240_2342)"/>
<path d="M157.762 66.7023C157.762 64.8193 159.239 63.4526 161.256 63.4526C163.272 63.4526 164.75 64.8212 164.75 66.7023C164.75 68.5834 163.272 69.952 161.256 69.952C159.239 69.952 157.762 68.5854 157.762 66.7023ZM162.644 66.7023C162.644 65.7336 162.025 65.1474 161.256 65.1474C160.486 65.1474 159.867 65.7336 159.867 66.7023C159.867 67.671 160.486 68.2554 161.256 68.2554C162.025 68.2554 162.644 67.6691 162.644 66.7023Z" fill="url(#paint27_linear_240_2342)"/>
<path d="M172.384 68.7279H170.031L169.615 69.8112H167.492L170.199 63.5952H172.251L174.958 69.8112H172.8L172.384 68.7279ZM171.81 67.2176L171.209 65.6549L170.607 67.2176H171.81Z" fill="url(#paint28_linear_240_2342)"/>
<path d="M174.918 65.8933H177.571V67.4036H174.918V65.8933Z" fill="url(#paint29_linear_240_2342)"/>
<path d="M184.03 68.1849V69.8097H178.344V68.5226L181.175 65.2186H178.433V63.5938H183.889V64.8808L181.059 68.1849H184.03Z" fill="url(#paint30_linear_240_2342)"/>
<path d="M69.1358 10.2757C69.188 10.2563 69.2905 10.2466 69.4452 10.2466C69.4703 10.2466 69.509 10.1787 69.5612 10.0447C69.6134 9.91079 69.6443 9.83314 69.6579 9.81373C69.7101 9.85255 69.7739 9.93797 69.8512 10.0719C69.7468 10.3786 69.6965 10.5611 69.6965 10.6194C69.6965 10.6776 69.7101 10.7145 69.7352 10.7339L69.7545 10.763C69.9479 10.9552 70.1413 11.06 70.3346 11.0794C70.4255 11.2522 70.5086 11.4114 70.586 11.555C70.6633 11.6987 70.8045 11.7705 71.0114 11.7705L71.0887 11.854L71.0694 11.7996L71.108 11.7705L71.1467 11.9142H71.1429L71.3014 12.087C71.3788 12.0093 71.4368 11.9627 71.4754 11.9433C71.4368 11.9433 71.4116 11.9336 71.3981 11.9142C71.3981 11.8948 71.4116 11.8657 71.4368 11.8288H71.5528L71.6301 11.9724C71.7461 11.8948 71.8293 11.8754 71.8815 11.9142C71.895 11.8948 71.926 11.8948 71.9782 11.9142C72.0168 11.953 72.0497 11.9724 72.0748 11.9724C72.1 11.9724 72.1386 11.9433 72.1909 11.887C72.2431 11.8288 72.274 11.8016 72.2875 11.8016C72.6743 11.7239 72.9836 11.6871 73.2157 11.6871C73.3065 11.6871 73.409 11.6968 73.525 11.7162L77.7248 11.3997C77.893 11.3803 78.1367 11.3415 78.4596 11.2852L75.9826 11.1124C75.9575 11.1124 75.9285 11.1319 75.8956 11.1707C75.8627 11.2095 75.8337 11.2289 75.8086 11.2289C75.7835 11.2289 75.7603 11.2095 75.7409 11.1707C75.7216 11.1319 75.6984 11.1124 75.6733 11.1124C75.6095 11.1124 75.4934 11.1513 75.3252 11.227C75.3001 11.1881 75.2923 11.159 75.3059 11.1416C75.3968 11.0833 75.4606 11.0367 75.4992 10.9979C76.0406 10.9591 76.4738 10.9397 76.7947 10.9397C76.8083 10.9397 76.8469 10.9105 76.9108 10.8542C76.9746 10.796 77.021 10.7688 77.0461 10.7688C77.1873 10.7688 77.398 10.7261 77.6745 10.6388C77.951 10.5534 78.1618 10.5087 78.3029 10.5087L78.3996 10.6232L78.4963 10.4796C78.535 10.5378 78.5601 10.5844 78.5736 10.6232L80.3932 10.3922C80.457 10.3922 80.515 10.4311 80.5672 10.5068C80.5807 10.5068 80.6097 10.4679 80.6542 10.3922C80.6987 10.3146 80.7412 10.2777 80.7799 10.2777C80.805 10.2777 80.8417 10.301 80.8862 10.3495C80.9307 10.398 80.9597 10.4213 80.9732 10.4213C81.0254 10.4213 81.1047 10.4078 81.2149 10.3786C81.3252 10.3495 81.4044 10.3359 81.4566 10.3359C81.4702 10.3359 81.5011 10.3495 81.5533 10.3786C81.6055 10.4078 81.6442 10.4213 81.6693 10.4213C81.708 10.4213 81.7602 10.4116 81.824 10.3922C81.8878 10.3728 81.94 10.3631 81.9787 10.3631H82.6941C82.7966 10.3437 82.8237 10.334 82.7715 10.334H83.2742C83.5314 10.334 83.7054 10.3049 83.7963 10.2466L83.8543 10.1884C83.8794 10.1884 83.9258 10.1981 83.9896 10.2175C84.0535 10.2369 84.0999 10.2466 84.125 10.2466C84.357 10.2466 84.5117 10.1496 84.5891 9.95932C84.6142 9.95932 84.6335 9.96903 84.6471 9.98844C84.6993 9.91079 84.7959 9.87391 84.9371 9.87391C84.9622 9.87391 85.0086 9.88749 85.0725 9.91661C85.1363 9.94573 85.1827 9.95932 85.2078 9.95932C85.2329 9.95932 85.2793 9.93991 85.3432 9.90108C85.407 9.86226 85.4534 9.84285 85.4785 9.84285C85.7879 9.78461 85.9619 9.75743 86.0006 9.75743C85.9619 9.75743 85.9039 9.74384 85.8266 9.71472C85.7492 9.6856 85.6912 9.67201 85.6525 9.67201C85.5365 9.67201 85.3722 9.69143 85.1595 9.73025C84.9468 9.76908 84.7824 9.78849 84.6664 9.78849L84.0283 9.87391C83.7441 9.91273 83.454 9.88361 83.1582 9.78849C83.3902 9.61572 84.0283 9.5303 85.0744 9.5303C85.2039 9.5303 85.3258 9.44488 85.4418 9.27211C85.0551 9.38665 84.7321 9.44488 84.475 9.44488C84.4614 9.44488 84.4363 9.4313 84.3976 9.40218C84.359 9.37306 84.3261 9.35947 84.3009 9.35947L84.2236 9.44488C83.9258 9.50312 83.688 9.5303 83.5082 9.5303C83.483 9.5303 83.4502 9.51671 83.4115 9.48759C83.3728 9.45847 83.3477 9.44488 83.3342 9.44488C83.309 9.44488 83.2723 9.45459 83.2278 9.474C83.1833 9.49342 83.1466 9.50312 83.1215 9.50312C83.0693 9.50312 82.9996 9.47983 82.9223 9.441C82.9513 9.44294 82.99 9.44488 83.0441 9.44488C83.0692 9.44488 83.1311 9.40218 83.2278 9.31482C83.3245 9.22746 83.3864 9.18475 83.4115 9.18475C83.4366 9.18475 83.4598 9.19446 83.4792 9.21387C83.4985 9.23328 83.514 9.24299 83.5275 9.24299C83.5275 9.12846 83.5797 9.0411 83.6822 8.9848C83.7209 8.90909 83.746 8.85085 83.7595 8.81203L83.9529 8.75379C84.0825 8.75379 84.2101 8.80232 84.3396 8.89744C84.3261 8.85862 84.3203 8.82174 84.3203 8.78291C84.3203 8.68779 84.3648 8.63926 84.4556 8.63926C84.4692 8.56355 84.475 8.50531 84.475 8.46648L84.591 8.29371C84.4866 8.33253 84.4034 8.35195 84.3396 8.35195C84.3009 8.46648 84.2681 8.54413 84.2429 8.58296C84.2043 8.46842 84.1791 8.38107 84.1656 8.32477C84.036 8.61208 83.9142 8.75573 83.7982 8.75573C83.7073 8.75573 83.6165 8.72661 83.5275 8.67032C83.6049 8.63149 83.6571 8.61208 83.6822 8.61208C83.6822 8.51696 83.688 8.45872 83.7015 8.4393C83.7267 8.45872 83.746 8.46842 83.7595 8.46842C83.7847 8.46842 83.7943 8.45483 83.7885 8.42572C83.7827 8.3966 83.7924 8.38301 83.8175 8.38301C83.8562 8.38301 83.8891 8.40242 83.9142 8.44125C83.8756 8.38301 83.8814 8.35583 83.9336 8.35583C83.8698 8.37524 83.8311 8.35583 83.8175 8.29759C83.8698 8.22188 83.8949 8.16364 83.8949 8.12482C83.8176 8.12482 83.7653 8.1054 83.7402 8.06658C83.804 7.91322 83.8891 7.83557 83.9916 7.83557H83.8949C83.804 7.75986 83.7073 7.72103 83.6049 7.72103C83.541 7.72103 83.4695 7.74045 83.3922 7.77927L83.3148 7.66474C83.6493 7.53079 83.8311 7.46284 83.8562 7.46284H83.4308C83.4057 7.42402 83.398 7.4046 83.4115 7.4046C83.63 7.30948 83.7537 7.26095 83.7789 7.26095L84.1849 7.29007C84.4556 7.30948 84.6625 7.31919 84.8037 7.31919C84.8424 7.31919 84.9042 7.34443 84.9874 7.39102C85.0705 7.43955 85.1189 7.46284 85.1324 7.46284C85.2735 7.46284 85.4669 7.42402 85.7125 7.34831V6.94452H85.4611C85.4746 6.94452 85.4418 6.88629 85.3644 6.77175L85.4611 6.6281C85.4224 6.6281 85.3702 6.61839 85.3064 6.59898C85.2426 6.57956 85.1904 6.56986 85.1517 6.56986C85.1266 6.56986 85.1092 6.58345 85.1034 6.61257C85.0976 6.64168 85.0744 6.65527 85.0357 6.65527C85.0106 6.65527 84.9777 6.63198 84.939 6.58345C84.9004 6.53491 84.8675 6.51162 84.8424 6.51162L84.0689 6.56986C83.5527 6.60868 83.1601 6.6281 82.8894 6.6281C82.8372 6.58927 82.7927 6.56986 82.7541 6.56986L82.6961 6.65721C82.6052 6.61839 82.5278 6.58927 82.464 6.56986C82.464 6.6281 82.4582 6.67663 82.4447 6.71351C82.3925 6.61839 82.2823 6.56986 82.116 6.56986C82.1682 6.64751 82.1798 6.6941 82.1547 6.71351C82.1295 6.71351 82.0773 6.72322 82 6.74263H81.8646C81.8395 6.74263 81.7969 6.72904 81.7389 6.69992C81.7196 6.69022 81.7099 6.69216 81.6925 6.68439L81.826 6.6281V6.54268L81.6906 6.60092V6.68633C81.6597 6.67469 81.6249 6.65916 81.6036 6.65916C81.5707 6.65916 81.5552 6.64557 81.5552 6.61645C81.5552 6.58733 81.5494 6.57374 81.5359 6.57374C81.4721 6.6708 81.4199 6.71739 81.3812 6.71739L80.6078 6.65916C80.3506 6.63974 79.931 6.63004 79.351 6.63004C79.2736 6.63004 79.1595 6.64363 79.0126 6.67274C78.8637 6.70186 78.7515 6.71545 78.6742 6.71545C78.5717 6.71545 78.4673 6.68633 78.3648 6.6281C78.3784 6.60868 78.3648 6.56986 78.3261 6.51356C77.7074 6.64751 77.2356 6.71545 76.9146 6.71545C76.9398 6.73487 76.9398 6.76398 76.9146 6.80087C76.8624 6.80087 76.7947 6.81058 76.7116 6.82999C76.6285 6.8494 76.5588 6.85911 76.5086 6.85911C76.4834 6.85911 76.4409 6.84552 76.3829 6.8164C76.3249 6.78728 76.2823 6.77369 76.2572 6.77369C76.3481 6.77369 76.3868 6.82222 76.3732 6.91735L76.3152 7.0047C76.1083 6.92899 75.9672 6.89017 75.8898 6.89017L75.8318 6.83193L75.8898 6.74651L76.1799 6.83193C75.9343 6.71739 75.7081 6.65916 75.5031 6.65916C75.4393 6.65916 75.3523 6.66886 75.2421 6.68828C75.1319 6.70769 75.0506 6.71739 75.0004 6.71739L71.3826 6.89017C71.2531 6.94841 71.1699 6.97558 71.1313 6.97558C70.9108 6.97558 70.789 6.92705 70.7639 6.83193C70.7639 6.7931 70.7832 6.7271 70.8219 6.63004C70.7967 6.5155 70.789 6.41067 70.8025 6.31361C70.7503 6.31361 70.7117 6.2942 70.6865 6.25537C70.5956 6.31361 70.5183 6.36214 70.4545 6.39902C70.2863 6.64945 70.2031 6.82222 70.2031 6.91735C70.2031 6.93676 70.2167 6.995 70.2418 7.09012C70.2669 7.18718 70.2805 7.26289 70.2805 7.32113L70.1064 7.46478C70.002 7.31142 69.9247 7.23377 69.8744 7.23377C69.7835 7.23377 69.7004 7.46478 69.623 7.92487C69.5708 8.11705 69.5264 8.23159 69.4877 8.27041C69.5515 8.27041 69.6482 8.33836 69.7777 8.47231V8.75961C69.6733 8.91297 69.6037 9.05663 69.565 9.19058C69.5264 9.40218 69.5012 9.56524 69.4877 9.67978C69.3059 9.62154 69.1706 9.61183 69.0816 9.65066C69.0816 9.67007 69.0758 9.70307 69.0623 9.75161C69.0488 9.80014 69.043 9.84285 69.043 9.88167C69.043 9.9205 69.0623 9.9865 69.101 10.0836C69.1397 10.1787 69.1532 10.2466 69.1396 10.2855L69.1358 10.2757ZM84.1888 10.0739L84.1501 10.1321L84.0341 10.0739H84.1888ZM84.1308 8.63537H84.2468V8.72079H84.1308V8.63537ZM85.0995 6.73487H85.2155V6.82028H85.0995V6.73487ZM84.5368 6.67857L84.7495 6.73681V6.82222L84.5368 6.76398V6.67857ZM83.7634 6.64945C83.9568 6.70769 84.1695 6.73487 84.4015 6.73487C84.1308 6.73487 83.8852 6.75428 83.6667 6.7931L83.7634 6.64945ZM82.6806 9.84479H82.5452V9.75937H82.6806V9.84479ZM82.6806 9.01004C82.7193 8.9518 82.7773 8.92268 82.8546 8.92268C82.8798 8.92268 82.9184 8.97121 82.9706 9.06634C82.8024 9.06634 82.7057 9.04692 82.6806 9.0081V9.01004ZM82.8159 8.72079V8.63537H82.932V8.72079H82.8159ZM82.99 9.75743V9.84285H82.8546V9.75743H82.99ZM82.7193 9.23911C82.7328 9.23911 82.7637 9.2294 82.8159 9.20999C82.8682 9.19058 82.9068 9.18087 82.932 9.18087C82.9068 9.18087 82.9126 9.20999 82.9513 9.26629C82.99 9.20805 83.0093 9.16146 83.0093 9.12263L83.1253 9.29541C82.9436 9.27599 82.8082 9.25658 82.7193 9.23717V9.23911ZM83.7827 8.23159C83.7576 8.28983 83.7441 8.33836 83.7441 8.37524L83.57 8.28788C83.6609 8.28788 83.7305 8.26847 83.7827 8.22965V8.23159ZM83.512 8.08793H83.6861V8.17335H83.512V8.08793ZM83.4347 8.98092H83.512C83.5256 8.90521 83.5836 8.84697 83.6861 8.80815C83.5449 9.01974 83.454 9.12457 83.4154 9.12457H83.164C83.0731 9.12457 83.0286 9.06634 83.0286 8.9518C82.99 8.97121 83.1253 8.98092 83.4347 8.98092ZM83.2027 6.67857L83.338 6.73681V6.82222L83.2027 6.76398V6.67857ZM83.048 6.69216C83.0867 6.72128 83.1195 6.73487 83.1447 6.73487C83.0925 6.73487 83.048 6.75428 83.0093 6.7931C82.9842 6.73487 82.9706 6.68827 82.9706 6.64945C82.9842 6.64945 83.0093 6.66304 83.048 6.69216ZM83.2413 7.65697C83.0209 7.77151 82.932 7.82974 82.9706 7.82974C82.9455 7.82974 82.932 7.82004 82.932 7.80062C82.932 7.78121 82.9184 7.77151 82.8933 7.77151C82.8682 7.77151 82.8585 7.78509 82.8643 7.81421C82.8701 7.84333 82.8604 7.85692 82.8353 7.85692C82.8218 7.85692 82.7811 7.82392 82.7096 7.75598C82.6381 7.68803 82.5839 7.65503 82.5452 7.65503H83.2413V7.65697ZM82.4679 9.23911H82.5839V9.32452H82.4679V9.23911ZM82.4872 9.75743V9.84285H82.3132V9.75743H82.4872ZM82.2939 7.62785L82.3906 7.56961L82.4099 7.62785L82.2939 7.68609V7.62785ZM81.6732 7.65697L81.6925 7.59873C81.7177 7.59873 81.7505 7.61814 81.7892 7.65697C81.8027 7.67638 81.8221 7.67638 81.8472 7.65697H81.8859L81.9052 7.71521C81.8917 7.71521 81.8724 7.73462 81.8472 7.77345C81.8221 7.81227 81.795 7.83169 81.7699 7.83169C81.7061 7.83169 81.6152 7.77345 81.4992 7.65891H81.6732V7.65697ZM80.5324 7.51332C80.5459 7.51332 80.5652 7.5269 80.5904 7.55602C80.6155 7.58514 80.6426 7.59873 80.6677 7.59873C80.6929 7.59873 80.7006 7.57932 80.6871 7.54049C80.6735 7.50167 80.6813 7.48226 80.7064 7.48226C80.7315 7.48226 80.7586 7.50167 80.7837 7.54049C80.8089 7.57932 80.836 7.59873 80.8611 7.59873C80.8746 7.59873 80.8862 7.57932 80.8998 7.54049C80.9133 7.50167 80.9384 7.48226 80.9771 7.48226C80.9384 7.48226 81.0989 7.54049 81.4605 7.65503C81.3309 7.73268 81.1763 7.76956 80.9964 7.76956C80.9713 7.76956 80.9346 7.77927 80.8901 7.79868C80.8437 7.8181 80.8147 7.8278 80.8031 7.8278C80.7779 7.8278 80.7509 7.80839 80.7257 7.76956C80.7006 7.73074 80.6735 7.71133 80.6484 7.71133C80.6233 7.71133 80.5943 7.69774 80.5614 7.66862C80.5285 7.6395 80.5072 7.62591 80.4937 7.62591C80.5188 7.56767 80.5324 7.53079 80.5324 7.51137V7.51332Z" fill="url(#paint31_linear_240_2342)"/>
</g>
<defs>
<linearGradient id="paint0_linear_240_2342" x1="1.71721" y1="53.2645" x2="186.045" y2="51.822" gradientUnits="userSpaceOnUse">
<stop offset="0.06" stop-color="#27F932"/>
<stop offset="0.28" stop-color="#00D9E2"/>
<stop offset="0.45" stop-color="#008EFC"/>
<stop offset="0.64" stop-color="#5A5EFF"/>
<stop offset="0.68" stop-color="#6D5BFF"/>
<stop offset="0.79" stop-color="#B454FF"/>
<stop offset="0.85" stop-color="#D151FF"/>
</linearGradient>
<linearGradient id="paint1_linear_240_2342" x1="1.69203" y1="50.5949" x2="186.018" y2="49.1523" gradientUnits="userSpaceOnUse">
<stop offset="0.06" stop-color="#27F932"/>
<stop offset="0.28" stop-color="#00D9E2"/>
<stop offset="0.45" stop-color="#008EFC"/>
<stop offset="0.64" stop-color="#5A5EFF"/>
<stop offset="0.68" stop-color="#6D5BFF"/>
<stop offset="0.79" stop-color="#B454FF"/>
<stop offset="0.85" stop-color="#D151FF"/>
</linearGradient>
<linearGradient id="paint2_linear_240_2342" x1="1.82724" y1="67.5498" x2="186.155" y2="66.1073" gradientUnits="userSpaceOnUse">
<stop offset="0.06" stop-color="#27F932"/>
<stop offset="0.28" stop-color="#00D9E2"/>
<stop offset="0.45" stop-color="#008EFC"/>
<stop offset="0.64" stop-color="#5A5EFF"/>
<stop offset="0.68" stop-color="#6D5BFF"/>
<stop offset="0.79" stop-color="#B454FF"/>
<stop offset="0.85" stop-color="#D151FF"/>
</linearGradient>
<linearGradient id="paint3_linear_240_2342" x1="1.62938" y1="42.8496" x2="185.958" y2="41.4089" gradientUnits="userSpaceOnUse">
<stop offset="0.06" stop-color="#27F932"/>
<stop offset="0.28" stop-color="#00D9E2"/>
<stop offset="0.45" stop-color="#008EFC"/>
<stop offset="0.64" stop-color="#5A5EFF"/>
<stop offset="0.68" stop-color="#6D5BFF"/>
<stop offset="0.79" stop-color="#B454FF"/>
<stop offset="0.85" stop-color="#D151FF"/>
</linearGradient>
<linearGradient id="paint4_linear_240_2342" x1="1.62768" y1="42.2328" x2="185.953" y2="40.7902" gradientUnits="userSpaceOnUse">
<stop offset="0.06" stop-color="#27F932"/>
<stop offset="0.28" stop-color="#00D9E2"/>
<stop offset="0.45" stop-color="#008EFC"/>
<stop offset="0.64" stop-color="#5A5EFF"/>
<stop offset="0.68" stop-color="#6D5BFF"/>
<stop offset="0.79" stop-color="#B454FF"/>
<stop offset="0.85" stop-color="#D151FF"/>
</linearGradient>
<linearGradient id="paint5_linear_240_2342" x1="1.56748" y1="34.73" x2="185.896" y2="33.2894" gradientUnits="userSpaceOnUse">
<stop offset="0.06" stop-color="#27F932"/>
<stop offset="0.28" stop-color="#00D9E2"/>
<stop offset="0.45" stop-color="#008EFC"/>
<stop offset="0.64" stop-color="#5A5EFF"/>
<stop offset="0.68" stop-color="#6D5BFF"/>
<stop offset="0.79" stop-color="#B454FF"/>
<stop offset="0.85" stop-color="#D151FF"/>
</linearGradient>
<linearGradient id="paint6_linear_240_2342" x1="1.66119" y1="45.8057" x2="185.989" y2="44.3651" gradientUnits="userSpaceOnUse">
<stop offset="0.06" stop-color="#27F932"/>
<stop offset="0.28" stop-color="#00D9E2"/>
<stop offset="0.45" stop-color="#008EFC"/>
<stop offset="0.64" stop-color="#5A5EFF"/>
<stop offset="0.68" stop-color="#6D5BFF"/>
<stop offset="0.79" stop-color="#B454FF"/>
<stop offset="0.85" stop-color="#D151FF"/>
</linearGradient>
<linearGradient id="paint7_linear_240_2342" x1="1.66574" y1="46.7603" x2="185.994" y2="45.3178" gradientUnits="userSpaceOnUse">
<stop offset="0.06" stop-color="#27F932"/>
<stop offset="0.28" stop-color="#00D9E2"/>
<stop offset="0.45" stop-color="#008EFC"/>
<stop offset="0.64" stop-color="#5A5EFF"/>
<stop offset="0.68" stop-color="#6D5BFF"/>
<stop offset="0.79" stop-color="#B454FF"/>
<stop offset="0.85" stop-color="#D151FF"/>
</linearGradient>
<linearGradient id="paint8_linear_240_2342" x1="1.65865" y1="46.0176" x2="185.987" y2="44.575" gradientUnits="userSpaceOnUse">
<stop offset="0.06" stop-color="#27F932"/>
<stop offset="0.28" stop-color="#00D9E2"/>
<stop offset="0.45" stop-color="#008EFC"/>
<stop offset="0.64" stop-color="#5A5EFF"/>
<stop offset="0.68" stop-color="#6D5BFF"/>
<stop offset="0.79" stop-color="#B454FF"/>
<stop offset="0.85" stop-color="#D151FF"/>
</linearGradient>
<linearGradient id="paint9_linear_240_2342" x1="1.65474" y1="45.6258" x2="185.98" y2="44.1853" gradientUnits="userSpaceOnUse">
<stop offset="0.06" stop-color="#27F932"/>
<stop offset="0.28" stop-color="#00D9E2"/>
<stop offset="0.45" stop-color="#008EFC"/>
<stop offset="0.64" stop-color="#5A5EFF"/>
<stop offset="0.68" stop-color="#6D5BFF"/>
<stop offset="0.79" stop-color="#B454FF"/>
<stop offset="0.85" stop-color="#D151FF"/>
</linearGradient>
<linearGradient id="paint10_linear_240_2342" x1="0.729807" y1="44.8767" x2="186.052" y2="43.3434" gradientUnits="userSpaceOnUse">
<stop offset="0.06" stop-color="#27F932"/>
<stop offset="0.28" stop-color="#00D9E2"/>
<stop offset="0.45" stop-color="#008EFC"/>
<stop offset="0.64" stop-color="#5A5EFF"/>
<stop offset="0.68" stop-color="#6D5BFF"/>
<stop offset="0.79" stop-color="#B454FF"/>
<stop offset="0.85" stop-color="#D151FF"/>
</linearGradient>
<linearGradient id="paint11_linear_240_2342" x1="1.65023" y1="44.8917" x2="185.979" y2="43.4491" gradientUnits="userSpaceOnUse">
<stop offset="0.06" stop-color="#27F932"/>
<stop offset="0.28" stop-color="#00D9E2"/>
<stop offset="0.45" stop-color="#008EFC"/>
<stop offset="0.64" stop-color="#5A5EFF"/>
<stop offset="0.68" stop-color="#6D5BFF"/>
<stop offset="0.79" stop-color="#B454FF"/>
<stop offset="0.85" stop-color="#D151FF"/>
</linearGradient>
<linearGradient id="paint12_linear_240_2342" x1="1.72473" y1="54.6671" x2="186.052" y2="53.2245" gradientUnits="userSpaceOnUse">
<stop offset="0.06" stop-color="#27F932"/>
<stop offset="0.28" stop-color="#00D9E2"/>
<stop offset="0.45" stop-color="#008EFC"/>
<stop offset="0.64" stop-color="#5A5EFF"/>
<stop offset="0.68" stop-color="#6D5BFF"/>
<stop offset="0.79" stop-color="#B454FF"/>
<stop offset="0.85" stop-color="#D151FF"/>
</linearGradient>
<linearGradient id="paint13_linear_240_2342" x1="1.64739" y1="44.9149" x2="185.973" y2="43.4724" gradientUnits="userSpaceOnUse">
<stop offset="0.06" stop-color="#27F932"/>
<stop offset="0.28" stop-color="#00D9E2"/>
<stop offset="0.45" stop-color="#008EFC"/>
<stop offset="0.64" stop-color="#5A5EFF"/>
<stop offset="0.68" stop-color="#6D5BFF"/>
<stop offset="0.79" stop-color="#B454FF"/>
<stop offset="0.85" stop-color="#D151FF"/>
</linearGradient>
<linearGradient id="paint14_linear_240_2342" x1="1.64332" y1="43.9213" x2="185.969" y2="42.4788" gradientUnits="userSpaceOnUse">
<stop offset="0.06" stop-color="#27F932"/>
<stop offset="0.28" stop-color="#00D9E2"/>
<stop offset="0.45" stop-color="#008EFC"/>
<stop offset="0.64" stop-color="#5A5EFF"/>
<stop offset="0.68" stop-color="#6D5BFF"/>
<stop offset="0.79" stop-color="#B454FF"/>
<stop offset="0.85" stop-color="#D151FF"/>
</linearGradient>
<linearGradient id="paint15_linear_240_2342" x1="13.7628" y1="20.1556" x2="144.851" y2="20.9568" gradientUnits="userSpaceOnUse">
<stop offset="0.06" stop-color="#27F932"/>
<stop offset="0.28" stop-color="#00D9E2"/>
<stop offset="0.45" stop-color="#008EFC"/>
<stop offset="0.64" stop-color="#5A5EFF"/>
<stop offset="0.68" stop-color="#6D5BFF"/>
<stop offset="0.79" stop-color="#B454FF"/>
<stop offset="0.85" stop-color="#D151FF"/>
</linearGradient>
<linearGradient id="paint16_linear_240_2342" x1="13.0702" y1="11.0147" x2="145.766" y2="11.8257" gradientUnits="userSpaceOnUse">
<stop offset="0.06" stop-color="#27F932"/>
<stop offset="0.28" stop-color="#00D9E2"/>
<stop offset="0.45" stop-color="#008EFC"/>
<stop offset="0.64" stop-color="#5A5EFF"/>
<stop offset="0.68" stop-color="#6D5BFF"/>
<stop offset="0.79" stop-color="#B454FF"/>
<stop offset="0.85" stop-color="#D151FF"/>
</linearGradient>
<linearGradient id="paint17_linear_240_2342" x1="1.63935" y1="43.4071" x2="185.967" y2="41.9665" gradientUnits="userSpaceOnUse">
<stop offset="0.06" stop-color="#27F932"/>
<stop offset="0.28" stop-color="#00D9E2"/>
<stop offset="0.45" stop-color="#008EFC"/>
<stop offset="0.64" stop-color="#5A5EFF"/>
<stop offset="0.68" stop-color="#6D5BFF"/>
<stop offset="0.79" stop-color="#B454FF"/>
<stop offset="0.85" stop-color="#D151FF"/>
</linearGradient>
<linearGradient id="paint18_linear_240_2342" x1="93.5626" y1="66.5848" x2="185.886" y2="68.8266" gradientUnits="userSpaceOnUse">
<stop offset="0.08" stop-color="#008EFC"/>
<stop offset="0.39" stop-color="#5A5EFF"/>
<stop offset="0.46" stop-color="#6D5BFF"/>
<stop offset="0.73" stop-color="#B454FF"/>
<stop offset="0.85" stop-color="#D151FF"/>
</linearGradient>
<linearGradient id="paint19_linear_240_2342" x1="93.5654" y1="66.4295" x2="185.889" y2="68.6713" gradientUnits="userSpaceOnUse">
<stop offset="0.08" stop-color="#008EFC"/>
<stop offset="0.39" stop-color="#5A5EFF"/>
<stop offset="0.46" stop-color="#6D5BFF"/>
<stop offset="0.73" stop-color="#B454FF"/>
<stop offset="0.85" stop-color="#D151FF"/>
</linearGradient>
<linearGradient id="paint20_linear_240_2342" x1="93.5699" y1="66.2352" x2="185.896" y2="68.4789" gradientUnits="userSpaceOnUse">
<stop offset="0.08" stop-color="#008EFC"/>
<stop offset="0.39" stop-color="#5A5EFF"/>
<stop offset="0.46" stop-color="#6D5BFF"/>
<stop offset="0.73" stop-color="#B454FF"/>
<stop offset="0.85" stop-color="#D151FF"/>
</linearGradient>
<linearGradient id="paint21_linear_240_2342" x1="93.5962" y1="65.2313" x2="185.92" y2="67.4751" gradientUnits="userSpaceOnUse">
<stop offset="0.08" stop-color="#008EFC"/>
<stop offset="0.39" stop-color="#5A5EFF"/>
<stop offset="0.46" stop-color="#6D5BFF"/>
<stop offset="0.73" stop-color="#B454FF"/>
<stop offset="0.85" stop-color="#D151FF"/>
</linearGradient>
<linearGradient id="paint22_linear_240_2342" x1="93.5795" y1="65.9019" x2="185.905" y2="68.1457" gradientUnits="userSpaceOnUse">
<stop offset="0.08" stop-color="#008EFC"/>
<stop offset="0.39" stop-color="#5A5EFF"/>
<stop offset="0.46" stop-color="#6D5BFF"/>
<stop offset="0.73" stop-color="#B454FF"/>
<stop offset="0.85" stop-color="#D151FF"/>
</linearGradient>
<linearGradient id="paint23_linear_240_2342" x1="93.5799" y1="65.7791" x2="185.906" y2="68.021" gradientUnits="userSpaceOnUse">
<stop offset="0.08" stop-color="#008EFC"/>
<stop offset="0.39" stop-color="#5A5EFF"/>
<stop offset="0.46" stop-color="#6D5BFF"/>
<stop offset="0.73" stop-color="#B454FF"/>
<stop offset="0.85" stop-color="#D151FF"/>
</linearGradient>
<linearGradient id="paint24_linear_240_2342" x1="93.5861" y1="65.5559" x2="185.91" y2="67.7977" gradientUnits="userSpaceOnUse">
<stop offset="0.08" stop-color="#008EFC"/>
<stop offset="0.39" stop-color="#5A5EFF"/>
<stop offset="0.46" stop-color="#6D5BFF"/>
<stop offset="0.73" stop-color="#B454FF"/>
<stop offset="0.85" stop-color="#D151FF"/>
</linearGradient>
<linearGradient id="paint25_linear_240_2342" x1="93.5893" y1="65.4142" x2="185.913" y2="67.6579" gradientUnits="userSpaceOnUse">
<stop offset="0.08" stop-color="#008EFC"/>
<stop offset="0.39" stop-color="#5A5EFF"/>
<stop offset="0.46" stop-color="#6D5BFF"/>
<stop offset="0.73" stop-color="#B454FF"/>
<stop offset="0.85" stop-color="#D151FF"/>
</linearGradient>
<linearGradient id="paint26_linear_240_2342" x1="93.5965" y1="65.2239" x2="185.92" y2="67.4677" gradientUnits="userSpaceOnUse">
<stop offset="0.08" stop-color="#008EFC"/>
<stop offset="0.39" stop-color="#5A5EFF"/>
<stop offset="0.46" stop-color="#6D5BFF"/>
<stop offset="0.73" stop-color="#B454FF"/>
<stop offset="0.85" stop-color="#D151FF"/>
</linearGradient>
<linearGradient id="paint27_linear_240_2342" x1="93.5974" y1="65.0445" x2="185.923" y2="67.2882" gradientUnits="userSpaceOnUse">
<stop offset="0.08" stop-color="#008EFC"/>
<stop offset="0.39" stop-color="#5A5EFF"/>
<stop offset="0.46" stop-color="#6D5BFF"/>
<stop offset="0.73" stop-color="#B454FF"/>
<stop offset="0.85" stop-color="#D151FF"/>
</linearGradient>
<linearGradient id="paint28_linear_240_2342" x1="93.6057" y1="64.8357" x2="185.929" y2="67.0775" gradientUnits="userSpaceOnUse">
<stop offset="0.08" stop-color="#008EFC"/>
<stop offset="0.39" stop-color="#5A5EFF"/>
<stop offset="0.46" stop-color="#6D5BFF"/>
<stop offset="0.73" stop-color="#B454FF"/>
<stop offset="0.85" stop-color="#D151FF"/>
</linearGradient>
<linearGradient id="paint29_linear_240_2342" x1="93.6063" y1="64.6257" x2="185.93" y2="66.8675" gradientUnits="userSpaceOnUse">
<stop offset="0.08" stop-color="#008EFC"/>
<stop offset="0.39" stop-color="#5A5EFF"/>
<stop offset="0.46" stop-color="#6D5BFF"/>
<stop offset="0.73" stop-color="#B454FF"/>
<stop offset="0.85" stop-color="#D151FF"/>
</linearGradient>
<linearGradient id="paint30_linear_240_2342" x1="93.6098" y1="64.5605" x2="185.935" y2="66.8023" gradientUnits="userSpaceOnUse">
<stop offset="0.08" stop-color="#008EFC"/>
<stop offset="0.39" stop-color="#5A5EFF"/>
<stop offset="0.46" stop-color="#6D5BFF"/>
<stop offset="0.73" stop-color="#B454FF"/>
<stop offset="0.85" stop-color="#D151FF"/>
</linearGradient>
<linearGradient id="paint31_linear_240_2342" x1="19.3245" y1="8.84891" x2="139.432" y2="9.5827" gradientUnits="userSpaceOnUse">
<stop offset="0.06" stop-color="#27F932"/>
<stop offset="0.28" stop-color="#00D9E2"/>
<stop offset="0.45" stop-color="#008EFC"/>
<stop offset="0.64" stop-color="#5A5EFF"/>
<stop offset="0.68" stop-color="#6D5BFF"/>
<stop offset="0.79" stop-color="#B454FF"/>
<stop offset="0.85" stop-color="#D151FF"/>
</linearGradient>
<clipPath id="clip0_240_2342">
<rect width="186" height="77.3675" fill="white"/>
</clipPath>
</defs>
</svg>
