<svg width="29" height="28" viewBox="0 0 29 28" fill="none" xmlns="http://www.w3.org/2000/svg">
<g clip-path="url(#clip0_1224_1815)">
<path d="M9.95992 17.4081C10.0187 17.8033 10.1225 18.0515 10.2851 18.2046C10.4468 18.3533 10.6759 18.4121 10.9691 18.4476C11.321 18.4121 11.5597 18.3299 11.7222 18.1008C11.8165 17.9521 11.8788 17.7177 11.9116 17.3986L12.0232 16.0609V16.0375L12.0016 15.83L11.9661 15.6328L11.9341 15.4296L11.8935 15.2403L11.8623 15.0422L11.8269 14.8485L11.7897 14.6592L11.7586 14.4655L11.7274 14.2813L11.6903 14.1049L11.6548 13.9345V13.7763L11.6237 13.618L11.5865 13.4658L11.5692 13.3214L11.5337 13.1865L11.5017 13.0689L11.4663 12.8752L11.4118 12.6815L11.3573 12.474L11.308 12.2673L11.2951 12.0364L11.2319 11.8021L11.1827 11.5634L11.1195 11.3204L11.0884 11.0774L11.0391 10.831L11.0037 10.588L10.9803 10.3078L10.9665 10.0648L10.9535 9.80454V9.34104L10.9751 9.09805L11.0158 8.85506L11.0702 8.61207L11.1386 8.38291L11.2423 8.15722L11.4127 7.85975C11.1835 7.807 10.9042 7.76982 10.6163 7.76982C10.4891 7.76982 10.3871 7.76982 10.2695 7.79317C7.58536 8.02232 8.67925 11.0627 9.13929 12.7291C9.46356 13.8818 9.83194 16.5797 9.97203 17.409L9.95041 17.3857L9.95992 17.4081ZM10.2851 7.41874C10.388 7.44987 10.4917 7.46803 10.6137 7.46803C11.1628 7.46803 11.5234 7.17488 11.7171 6.72435C11.8476 6.41305 11.9064 6.02997 11.8926 5.63479C11.8788 5.28803 11.8122 4.97673 11.7032 4.70174C11.4827 4.16128 11.0815 3.80155 10.4788 3.80155C10.3923 3.80155 10.3205 3.80155 10.2712 3.81885C9.4921 3.94596 9.14448 4.71558 9.18166 5.67543C9.19463 6.5713 9.54139 7.32448 10.2531 7.49483L10.2851 7.42652V7.41874ZM11.7222 11.8444C11.8165 12.2638 11.916 12.6426 11.992 12.9712C12.3206 14.3037 12.6415 17.403 12.7573 18.3533C12.8749 19.3036 13.2079 19.4922 13.8789 19.5648C14.5404 19.5155 14.8785 19.3028 14.9918 18.3715C15.1034 17.4384 15.4285 14.3409 15.7485 13.0066C15.8245 12.6824 15.9326 12.3045 16.0226 11.8989C16.3244 10.6883 16.563 9.25975 16.0226 8.32844C15.6845 7.73782 15.0273 7.35993 13.8789 7.35993C12.721 7.35993 12.0552 7.73782 11.7214 8.35005C11.1853 9.2831 11.4282 10.7238 11.7214 11.9361L11.7222 11.8444ZM13.8607 6.91373H13.8789C14.914 6.91373 15.4147 5.96339 15.4147 4.80119C15.4147 3.63898 14.9278 2.6748 13.8919 2.6748H13.8789C12.83 2.6748 12.3475 3.64331 12.3475 4.81935C12.3475 5.99452 12.8291 6.94054 13.8875 6.94054V6.90335L13.8607 6.91373ZM17.1216 7.77846C16.8112 7.77846 16.5328 7.81392 16.3062 7.86407L16.3607 7.95401L16.4826 8.17538L16.5682 8.40453L16.6348 8.64752L16.6893 8.89051L16.7265 9.1335L16.7394 9.39898V9.90398L16.7265 10.1695V10.3632L16.6538 10.8586L16.6045 11.1068L16.5501 11.3455L16.5008 11.5885L16.4463 11.8271L16.3918 12.0563L16.3339 12.2811L16.2612 12.5068L16.2068 12.7135L16.1713 12.9254L16.1125 13.1191L16.0952 13.2228L16.058 13.3577L16.0226 13.516L15.9958 13.6725L15.9776 13.8212L15.9422 13.9604V13.9976L15.9067 14.168L15.8747 14.3435L15.8531 14.5294L15.8159 14.7231L15.7943 14.9168L15.7588 15.1062L15.7355 15.3129L15.7216 15.5023L15.6689 16.124V16.1422C15.7216 16.7138 15.7545 17.2144 15.7718 17.4938C15.809 17.8224 15.8583 18.0429 15.9655 18.2002C16.1237 18.4294 16.3667 18.5115 16.7273 18.547C17.0239 18.5115 17.2453 18.4666 17.4157 18.2945C17.5921 18.1553 17.682 17.8976 17.7486 17.4981C17.8878 16.6878 18.2579 13.9803 18.5683 12.8225C19.0327 11.1518 20.1275 8.11571 17.4381 7.88656C17.3162 7.8684 17.2124 7.8684 17.0957 7.8684L17.1095 7.8096L17.1216 7.77846ZM17.1398 7.46803C17.2436 7.46803 17.3473 7.45419 17.4502 7.43084C18.1446 7.26049 18.4914 6.51682 18.5225 5.63479C18.558 4.70174 18.2121 3.90532 17.4286 3.80155C17.3603 3.77821 17.2894 3.77821 17.2211 3.77821C16.5994 3.77821 16.1947 4.16128 15.9871 4.69223C15.8834 4.96808 15.815 5.29149 15.815 5.63911C15.7934 6.05332 15.847 6.43121 15.9871 6.74251C16.1713 7.20601 16.5405 7.50348 17.0948 7.50348L17.126 7.449L17.1398 7.46803ZM20.3558 8.85074C25.3055 8.92251 28.1972 11.9672 24.9224 16.1188C23.4005 18.042 20.8512 19.9479 17.4416 21.1594L16.9548 21.3297C16.6218 21.4335 16.3105 21.5372 16.0001 21.6272C15.2469 21.8347 14.5447 22.0241 13.8512 22.1633C13.1041 22.3198 12.3786 22.4236 11.6851 22.5057C11.1809 22.5637 10.6949 22.6 10.2436 22.6C7.07776 22.6899 4.6911 21.8252 3.9163 19.9686C2.97979 17.7575 4.86145 14.6764 8.65504 12.3252C5.8533 13.4425 0.768664 16.1171 0.542969 19.9012V20.3828C0.561128 20.7875 0.629442 21.1654 0.768664 21.5857C1.58411 24.1427 5.3898 25.355 10.2314 24.927C10.7045 24.8916 11.1861 24.8414 11.673 24.7644C12.3708 24.6702 13.0911 24.5223 13.8166 24.3502C14.5153 24.2015 15.2357 23.994 15.969 23.7596L16.4506 23.6109C16.7792 23.508 17.0948 23.4042 17.4053 23.2823C21.6079 21.7603 24.7287 19.7377 26.5438 17.4012C27.5806 16.0721 28.115 14.8286 28.2188 13.7348V12.8882C27.9213 10.1098 24.6933 8.47803 20.2918 8.92856L20.3411 8.87408L20.3558 8.85074Z" fill="white"/>
</g>
<defs>
<clipPath id="clip0_1224_1815">
<rect width="27.6715" height="27.6715" fill="white" transform="translate(0.5625)"/>
</clipPath>
</defs>
</svg>
