<svg width="23" height="23" viewBox="0 0 23 23" fill="none" xmlns="http://www.w3.org/2000/svg">
<g clip-path="url(#clip0_1224_1817)">
<path d="M11.8548 0.699219C5.7046 0.699219 0.71875 5.68507 0.71875 11.8353C0.71875 17.0577 4.31437 21.44 9.1648 22.6435V15.2385H6.86854V11.8353H9.1648V10.3689C9.1648 6.57863 10.8802 4.8218 14.6014 4.8218C15.307 4.8218 16.5244 4.96033 17.0224 5.09842V8.18311C16.7596 8.1555 16.303 8.14169 15.736 8.14169C13.9101 8.14169 13.2045 8.83346 13.2045 10.6317V11.8353H16.842L16.2171 15.2385H13.2045V22.8899C18.7187 22.2239 22.9914 17.529 22.9914 11.8353C22.9909 5.68507 18.0051 0.699219 11.8548 0.699219Z" fill="white"/>
</g>
<defs>
<clipPath id="clip0_1224_1817">
<rect width="22.2722" height="22.2722" fill="white" transform="translate(0.71875 0.699219)"/>
</clipPath>
</defs>
</svg>
