<svg width="27" height="24" viewBox="0 0 27 24" fill="none" xmlns="http://www.w3.org/2000/svg">
<path d="M19.125 3.5H7.875C4.5 3.5 2.25 5 2.25 8.5V15.5C2.25 19 4.5 20.5 7.875 20.5H19.125C22.5 20.5 24.75 19 24.75 15.5V8.5C24.75 5 22.5 3.5 19.125 3.5ZM19.6537 9.59L16.1325 12.09C15.39 12.62 14.445 12.88 13.5 12.88C12.555 12.88 11.5988 12.62 10.8675 12.09L7.34625 9.59C6.98625 9.33 6.93 8.85 7.21125 8.53C7.50375 8.21 8.0325 8.15 8.3925 8.41L11.9137 10.91C12.7688 11.52 14.22 11.52 15.075 10.91L18.5963 8.41C18.9563 8.15 19.4963 8.2 19.7775 8.53C20.07 8.85 20.0138 9.33 19.6537 9.59Z" fill="white"/>
</svg>
