<svg width="23" height="23" viewBox="0 0 23 23" fill="none" xmlns="http://www.w3.org/2000/svg">
<g clip-path="url(#clip0_220_1853)">
<path d="M11.8548 0.698975C5.7046 0.698975 0.71875 5.68482 0.71875 11.8351C0.71875 17.0574 4.31437 21.4397 9.1648 22.6433V15.2382H6.86854V11.8351H9.1648V10.3687C9.1648 6.57838 10.8802 4.82155 14.6014 4.82155C15.307 4.82155 16.5244 4.96009 17.0224 5.09817V8.18287C16.7596 8.15525 16.303 8.14144 15.736 8.14144C13.9101 8.14144 13.2045 8.83322 13.2045 10.6315V11.8351H16.842L16.2171 15.2382H13.2045V22.8896C18.7187 22.2237 22.9914 17.5287 22.9914 11.8351C22.9909 5.68482 18.0051 0.698975 11.8548 0.698975Z" fill="white"/>
</g>
<defs>
<clipPath id="clip0_220_1853">
<rect width="22.2722" height="22.2722" fill="white" transform="translate(0.71875 0.698975)"/>
</clipPath>
</defs>
</svg>
