<svg width="23" height="23" viewBox="0 0 23 23" fill="none" xmlns="http://www.w3.org/2000/svg">
<g clip-path="url(#clip0_220_1854)">
<path d="M11.5775 2.70434C14.5529 2.70434 14.9053 2.71739 16.0754 2.76959C17.1629 2.81744 17.7502 3.00014 18.1417 3.15239C18.6594 3.3525 19.0335 3.5961 19.4206 3.98325C19.8121 4.37475 20.0514 4.74451 20.2515 5.26216C20.4037 5.65366 20.5864 6.24527 20.6343 7.32843C20.6865 8.50294 20.6995 8.85529 20.6995 11.8264C20.6995 14.8018 20.6865 15.1541 20.6343 16.3243C20.5864 17.4118 20.4037 17.9991 20.2515 18.3906C20.0514 18.9082 19.8078 19.2823 19.4206 19.6695C19.0291 20.061 18.6594 20.3002 18.1417 20.5003C17.7502 20.6526 17.1586 20.8353 16.0754 20.8831C14.9009 20.9353 14.5486 20.9484 11.5775 20.9484C8.60207 20.9484 8.24972 20.9353 7.07956 20.8831C5.99205 20.8353 5.4048 20.6526 5.01329 20.5003C4.49564 20.3002 4.12154 20.0566 3.73438 19.6695C3.34288 19.278 3.10363 18.9082 2.90353 18.3906C2.75127 17.9991 2.56857 17.4075 2.52072 16.3243C2.46852 15.1498 2.45547 14.7974 2.45547 11.8264C2.45547 8.85094 2.46852 8.49859 2.52072 7.32843C2.56857 6.24092 2.75127 5.65366 2.90353 5.26216C3.10363 4.74451 3.34723 4.3704 3.73438 3.98325C4.12589 3.59175 4.49564 3.3525 5.01329 3.15239C5.4048 3.00014 5.9964 2.81744 7.07956 2.76959C8.24972 2.71739 8.60207 2.70434 11.5775 2.70434ZM11.5775 0.698975C8.55422 0.698975 8.17577 0.712025 6.98821 0.764225C5.805 0.816426 4.99154 1.00783 4.28684 1.28188C3.55168 1.56898 2.92963 1.94743 2.31192 2.56949C1.68987 3.18719 1.31141 3.80925 1.02431 4.54006C0.750259 5.24911 0.558857 6.05822 0.506657 7.24143C0.454456 8.43334 0.441406 8.81179 0.441406 11.8351C0.441406 14.8583 0.454456 15.2368 0.506657 16.4243C0.558857 17.6076 0.750259 18.421 1.02431 19.1257C1.31141 19.8609 1.68987 20.4829 2.31192 21.1006C2.92963 21.7183 3.55168 22.1011 4.28249 22.3839C4.99154 22.6579 5.80065 22.8493 6.98386 22.9015C8.17142 22.9537 8.54987 22.9668 11.5731 22.9668C14.5964 22.9668 14.9749 22.9537 16.1624 22.9015C17.3456 22.8493 18.1591 22.6579 18.8638 22.3839C19.5946 22.1011 20.2167 21.7183 20.8344 21.1006C21.4521 20.4829 21.8349 19.8609 22.1176 19.1301C22.3917 18.421 22.5831 17.6119 22.6353 16.4287C22.6875 15.2411 22.7005 14.8627 22.7005 11.8394C22.7005 8.81614 22.6875 8.43769 22.6353 7.25013C22.5831 6.06692 22.3917 5.25346 22.1176 4.54875C21.8436 3.80925 21.4651 3.18719 20.8431 2.56949C20.2254 1.95178 19.6033 1.56898 18.8725 1.28623C18.1634 1.01218 17.3543 0.820776 16.1711 0.768575C14.9792 0.712025 14.6008 0.698975 11.5775 0.698975Z" fill="white"/>
<path d="M11.5758 6.11475C8.41764 6.11475 5.85547 8.67692 5.85547 11.835C5.85547 14.9932 8.41764 17.5553 11.5758 17.5553C14.7339 17.5553 17.2961 14.9932 17.2961 11.835C17.2961 8.67692 14.7339 6.11475 11.5758 6.11475ZM11.5758 15.5456C9.5269 15.5456 7.86518 13.8839 7.86518 11.835C7.86518 9.78618 9.5269 8.12446 11.5758 8.12446C13.6246 8.12446 15.2863 9.78618 15.2863 11.835C15.2863 13.8839 13.6246 15.5456 11.5758 15.5456Z" fill="white"/>
<path d="M18.8584 5.88844C18.8584 6.62795 18.2581 7.2239 17.523 7.2239C16.7835 7.2239 16.1875 6.6236 16.1875 5.88844C16.1875 5.14893 16.7878 4.55298 17.523 4.55298C18.2581 4.55298 18.8584 5.15328 18.8584 5.88844Z" fill="white"/>
</g>
<defs>
<clipPath id="clip0_220_1854">
<rect width="22.2722" height="22.2722" fill="white" transform="translate(0.441406 0.698975)"/>
</clipPath>
</defs>
</svg>
