<svg width="23" height="23" viewBox="0 0 23 23" fill="none" xmlns="http://www.w3.org/2000/svg">
<g clip-path="url(#clip0_1224_1819)">
<path d="M11.5775 2.70458C14.5529 2.70458 14.9053 2.71763 16.0754 2.76983C17.1629 2.81769 17.7502 3.00039 18.1417 3.15264C18.6594 3.35274 19.0335 3.59634 19.4206 3.98349C19.8121 4.375 20.0514 4.74475 20.2515 5.2624C20.4037 5.65391 20.5864 6.24551 20.6343 7.32867C20.6865 8.50318 20.6995 8.85553 20.6995 11.8266C20.6995 14.802 20.6865 15.1544 20.6343 16.3245C20.5864 17.4121 20.4037 17.9993 20.2515 18.3908C20.0514 18.9085 19.8078 19.2826 19.4206 19.6697C19.0291 20.0612 18.6594 20.3005 18.1417 20.5006C17.7502 20.6528 17.1586 20.8355 16.0754 20.8834C14.9009 20.9356 14.5486 20.9486 11.5775 20.9486C8.60207 20.9486 8.24972 20.9356 7.07956 20.8834C5.99205 20.8355 5.4048 20.6528 5.01329 20.5006C4.49564 20.3005 4.12154 20.0569 3.73438 19.6697C3.34288 19.2782 3.10363 18.9085 2.90353 18.3908C2.75127 17.9993 2.56857 17.4077 2.52072 16.3245C2.46852 15.15 2.45547 14.7977 2.45547 11.8266C2.45547 8.85118 2.46852 8.49883 2.52072 7.32867C2.56857 6.24116 2.75127 5.65391 2.90353 5.2624C3.10363 4.74475 3.34723 4.37065 3.73438 3.98349C4.12589 3.59199 4.49564 3.35274 5.01329 3.15264C5.4048 3.00039 5.9964 2.81769 7.07956 2.76983C8.24972 2.71763 8.60207 2.70458 11.5775 2.70458ZM11.5775 0.699219C8.55422 0.699219 8.17577 0.712269 6.98821 0.764469C5.805 0.81667 4.99154 1.00807 4.28684 1.28212C3.55168 1.56923 2.92963 1.94768 2.31192 2.56973C1.68987 3.18744 1.31141 3.80949 1.02431 4.5403C0.750259 5.24935 0.558857 6.05846 0.506657 7.24167C0.454456 8.43358 0.441406 8.81203 0.441406 11.8353C0.441406 14.8586 0.454456 15.237 0.506657 16.4246C0.558857 17.6078 0.750259 18.4213 1.02431 19.126C1.31141 19.8611 1.68987 20.4832 2.31192 21.1009C2.92963 21.7186 3.55168 22.1014 4.28249 22.3841C4.99154 22.6582 5.80065 22.8496 6.98386 22.9018C8.17142 22.954 8.54987 22.967 11.5731 22.967C14.5964 22.967 14.9749 22.954 16.1624 22.9018C17.3456 22.8496 18.1591 22.6582 18.8638 22.3841C19.5946 22.1014 20.2167 21.7186 20.8344 21.1009C21.4521 20.4832 21.8349 19.8611 22.1176 19.1303C22.3917 18.4213 22.5831 17.6122 22.6353 16.4289C22.6875 15.2414 22.7005 14.8629 22.7005 11.8397C22.7005 8.81638 22.6875 8.43793 22.6353 7.25037C22.5831 6.06716 22.3917 5.2537 22.1176 4.549C21.8436 3.80949 21.4651 3.18744 20.8431 2.56973C20.2254 1.95203 19.6033 1.56923 18.8725 1.28647C18.1634 1.01242 17.3543 0.82102 16.1711 0.768819C14.9792 0.712269 14.6008 0.699219 11.5775 0.699219Z" fill="white"/>
<path d="M11.5758 6.11523C8.41764 6.11523 5.85547 8.6774 5.85547 11.8355C5.85547 14.9937 8.41764 17.5558 11.5758 17.5558C14.7339 17.5558 17.2961 14.9937 17.2961 11.8355C17.2961 8.6774 14.7339 6.11523 11.5758 6.11523ZM11.5758 15.5461C9.5269 15.5461 7.86518 13.8844 7.86518 11.8355C7.86518 9.78666 9.5269 8.12495 11.5758 8.12495C13.6246 8.12495 15.2863 9.78666 15.2863 11.8355C15.2863 13.8844 13.6246 15.5461 11.5758 15.5461Z" fill="white"/>
<path d="M18.8584 5.88917C18.8584 6.62868 18.2581 7.22463 17.523 7.22463C16.7835 7.22463 16.1875 6.62433 16.1875 5.88917C16.1875 5.14967 16.7878 4.55371 17.523 4.55371C18.2581 4.55371 18.8584 5.15402 18.8584 5.88917Z" fill="white"/>
</g>
<defs>
<clipPath id="clip0_1224_1819">
<rect width="22.2722" height="22.2722" fill="white" transform="translate(0.441406 0.699219)"/>
</clipPath>
</defs>
</svg>
