<svg width="23" height="23" viewBox="0 0 23 23" fill="none" xmlns="http://www.w3.org/2000/svg">
<g clip-path="url(#clip0_1224_1827)">
<path d="M15.8429 0.699219H12.0894V15.8701C12.0894 17.6777 10.6457 19.1625 8.84918 19.1625C7.05262 19.1625 5.60897 17.6777 5.60897 15.8701C5.60897 14.0948 7.02054 12.6422 8.75295 12.5777V8.76886C4.93526 8.83339 1.85547 11.9644 1.85547 15.8701C1.85547 19.8081 4.99942 22.9714 8.88127 22.9714C12.7631 22.9714 15.907 19.7758 15.907 15.8701V8.09098C17.3186 9.12392 19.051 9.73721 20.8796 9.7695V5.96062C18.0565 5.86378 15.8429 3.53973 15.8429 0.699219Z" fill="white"/>
</g>
<defs>
<clipPath id="clip0_1224_1827">
<rect width="22.2722" height="22.2722" fill="white" transform="translate(0 0.699219)"/>
</clipPath>
</defs>
</svg>
