<svg width="23" height="23" viewBox="0 0 23 23" fill="none" xmlns="http://www.w3.org/2000/svg">
<g clip-path="url(#clip0_220_1855)">
<path d="M20.7837 0.698975H1.80447C0.895312 0.698975 0.160156 1.41673 0.160156 2.30414V21.3616C0.160156 22.249 0.895312 22.9711 1.80447 22.9711H20.7837C21.6928 22.9711 22.4323 22.249 22.4323 21.366V2.30414C22.4323 1.41673 21.6928 0.698975 20.7837 0.698975ZM6.76786 19.6782H3.46183V9.04669H6.76786V19.6782ZM5.11485 7.59813C4.05344 7.59813 3.19648 6.74117 3.19648 5.68411C3.19648 4.62706 4.05344 3.7701 5.11485 3.7701C6.1719 3.7701 7.02886 4.62706 7.02886 5.68411C7.02886 6.73682 6.1719 7.59813 5.11485 7.59813ZM19.1394 19.6782H15.8377V14.5103C15.8377 13.2793 15.8159 11.6915 14.1194 11.6915C12.4012 11.6915 12.1402 13.0357 12.1402 14.4233V19.6782H8.84282V9.04669H12.0096V10.4996H12.0531C12.4925 9.6644 13.5713 8.78134 15.1765 8.78134C18.5217 8.78134 19.1394 10.9825 19.1394 13.8448V19.6782Z" fill="white"/>
</g>
<defs>
<clipPath id="clip0_220_1855">
<rect width="22.2722" height="22.2722" fill="white" transform="translate(0.160156 0.698975)"/>
</clipPath>
</defs>
</svg>
