<svg width="23" height="23" viewBox="0 0 23 23" fill="none" xmlns="http://www.w3.org/2000/svg">
<g clip-path="url(#clip0_220_1857)">
<path d="M15.8429 0.698975H12.0894V15.8699C12.0894 17.6775 10.6457 19.1623 8.84918 19.1623C7.05262 19.1623 5.60897 17.6775 5.60897 15.8699C5.60897 14.0946 7.02054 12.642 8.75295 12.5775V8.76862C4.93526 8.83314 1.85547 11.9642 1.85547 15.8699C1.85547 19.8079 4.99942 22.9711 8.88127 22.9711C12.7631 22.9711 15.907 19.7756 15.907 15.8699V8.09074C17.3186 9.12367 19.051 9.73696 20.8796 9.76926V5.96037C18.0565 5.86354 15.8429 3.53948 15.8429 0.698975Z" fill="white"/>
</g>
<defs>
<clipPath id="clip0_220_1857">
<rect width="22.2722" height="22.2722" fill="white" transform="translate(0 0.698975)"/>
</clipPath>
</defs>
</svg>
