<svg width="59" height="59" viewBox="0 0 59 59" fill="none" xmlns="http://www.w3.org/2000/svg">
<path d="M26.4209 11.0602H35.6582L45.7883 0.909836C46.0746 0.62154 46.4151 0.392713 46.7903 0.236555C47.1655 0.0803977 47.568 0 47.9745 0C48.3809 0 48.7834 0.0803977 49.1586 0.236555C49.5338 0.392713 49.8744 0.62154 50.1606 0.909836L58.1046 8.87632C58.6781 9.45263 59 10.2322 59 11.0448C59 11.8574 58.6781 12.637 58.1046 13.2133L51.0535 20.2878H26.4209V26.4395C26.4209 27.2553 26.0965 28.0376 25.5191 28.6145C24.9416 29.1913 24.1585 29.5154 23.3418 29.5154C22.5252 29.5154 21.742 29.1913 21.1646 28.6145C20.5872 28.0376 20.2628 27.2553 20.2628 26.4395V17.2119C20.2628 15.5804 20.9116 14.0157 22.0665 12.862C23.2213 11.7083 24.7877 11.0602 26.4209 11.0602ZM7.94646 26.4395V38.743L0.895373 45.7867C0.321892 46.363 0 47.1426 0 47.9552C0 48.7678 0.321892 49.5474 0.895373 50.1237L8.83939 58.0902C9.12563 58.3785 9.46618 58.6073 9.84139 58.7634C10.2166 58.9196 10.6191 59 11.0255 59C11.432 59 11.8345 58.9196 12.2097 58.7634C12.5849 58.6073 12.9254 58.3785 13.2117 58.0902L26.4209 44.8947H38.7372C39.5539 44.8947 40.337 44.5706 40.9145 43.9938C41.4919 43.417 41.8163 42.6346 41.8163 41.8188V38.743H44.8954C45.712 38.743 46.4952 38.4189 47.0726 37.8421C47.6501 37.2652 47.9745 36.4829 47.9745 35.6671V32.5912H51.0535C51.8702 32.5912 52.6533 32.2672 53.2308 31.6903C53.8082 31.1135 54.1326 30.3311 54.1326 29.5154V26.4395H32.5791V29.5154C32.5791 31.1469 31.9303 32.7116 30.7754 33.8653C29.6205 35.019 28.0542 35.6671 26.4209 35.6671H20.2628C18.6295 35.6671 17.0632 35.019 15.9083 33.8653C14.7534 32.7116 14.1046 31.1469 14.1046 29.5154V20.2878L7.94646 26.4395Z" fill="url(#paint0_linear_652_4132)"/>
<defs>
<linearGradient id="paint0_linear_652_4132" x1="0.901586" y1="-1.27151e-06" x2="58.0984" y2="59" gradientUnits="userSpaceOnUse">
<stop stop-color="#C347FC"/>
<stop offset="0.788462" stop-color="#9747FF"/>
</linearGradient>
</defs>
</svg>
