<svg width="53" height="59" viewBox="0 0 53 59" fill="none" xmlns="http://www.w3.org/2000/svg">
<path d="M11.7778 29.5H17.6667V35.4H11.7778V29.5ZM53 11.8V53.1C53 56.3745 50.3794 59 47.1111 59H5.88889C2.62056 59 0 56.345 0 53.1V11.8C0 8.555 2.65 5.9 5.88889 5.9H8.83333V0H14.7222V5.9H38.2778V0H44.1667V5.9H47.1111C50.3794 5.9 53 8.555 53 11.8ZM5.88889 17.7H47.1111V11.8H5.88889V17.7ZM47.1111 53.1V23.6H5.88889V53.1H47.1111ZM35.3333 35.4V29.5H41.2222V35.4H35.3333ZM23.5556 35.4V29.5H29.4444V35.4H23.5556ZM11.7778 41.3H17.6667V47.2H11.7778V41.3ZM35.3333 47.2V41.3H41.2222V47.2H35.3333ZM23.5556 47.2V41.3H29.4444V47.2H23.5556Z" fill="url(#paint0_linear_707_3660)"/>
<defs>
<linearGradient id="paint0_linear_707_3660" x1="-6.3428e-07" y1="3.71254" x2="53" y2="55.2875" gradientUnits="userSpaceOnUse">
<stop stop-color="#C347FC"/>
<stop offset="1" stop-color="#9747FF"/>
</linearGradient>
</defs>
</svg>
